<?xml version="1.0" encoding="UTF-8"?>
<svg version="1.1" xmlns="http://www.w3.org/2000/svg" width="348" height="141">
<path d="M0 0 C114.84 0 229.68 0 348 0 C348 46.53 348 93.06 348 141 C233.16 141 118.32 141 0 141 C0 94.47 0 47.94 0 0 Z " fill="#FDFDFD" transform="translate(0,0)"/>
<path d="M0 0 C2.44287719 1.85055306 4.58733472 3.64791182 6.59375 5.96484375 C6.34375 8.21484375 6.34375 8.21484375 5.59375 9.96484375 C4.93375 9.96484375 4.27375 9.96484375 3.59375 9.96484375 C3.59375 10.62484375 3.59375 11.28484375 3.59375 11.96484375 C1.38671875 12.69140625 1.38671875 12.69140625 -1.40625 12.96484375 C-3.73046875 11.48828125 -3.73046875 11.48828125 -6.09375 9.33984375 C-19.02494477 -1.60487501 -33.87802403 -4.33281049 -50.40625 -3.03515625 C-64.86725832 -1.25361138 -76.29392264 5.72334432 -86.40625 15.96484375 C-86.96828125 16.50496094 -87.5303125 17.04507812 -88.109375 17.6015625 C-99.48850759 29.48976154 -102.02817609 44.90528104 -101.7109375 60.625 C-101.01025755 76.95779184 -93.96402967 90.57288308 -82.1015625 101.74609375 C-71.59515438 110.3948471 -60.09708116 115.29716611 -46.51171875 115.0625 C-45.72937866 115.05545044 -44.94703857 115.04840088 -44.14099121 115.0411377 C-42.22932874 115.02288968 -40.31776372 114.99487172 -38.40625 114.96484375 C-36.37729887 110.22123292 -34.36575087 105.4707561 -32.36987305 100.71313477 C-31.68872101 99.09622925 -31.00288343 97.4812892 -30.31225586 95.8684082 C-29.31942475 93.54751358 -28.34374829 91.2200348 -27.37109375 88.890625 C-27.05969955 88.17272293 -26.74830536 87.45482086 -26.42747498 86.71516418 C-23.58817146 79.82539499 -25.2399561 76.07545038 -27.93334961 69.55479431 C-28.27503174 68.74007156 -28.61671387 67.92534882 -28.96875 67.0859375 C-29.3201001 66.23685318 -29.6714502 65.38776886 -30.03344727 64.51295471 C-31.15343124 61.80761702 -32.2793598 59.10481122 -33.40625 56.40234375 C-34.53252531 53.69606095 -35.65744914 50.98924359 -36.77905273 48.28102112 C-37.47621369 46.59813715 -38.17614238 44.91639647 -38.87915039 43.23594666 C-39.3546936 42.08939354 -39.3546936 42.08939354 -39.83984375 40.91967773 C-40.11884521 40.25081039 -40.39784668 39.58194305 -40.68530273 38.89280701 C-41.40625 36.96484375 -41.40625 36.96484375 -42.40625 32.96484375 C-38.77625 32.96484375 -35.14625 32.96484375 -31.40625 32.96484375 C-28.00849188 39.4415772 -25.3242855 46.07300769 -22.71875 52.90234375 C-21.92553286 54.9748615 -21.13008435 57.0465271 -20.33203125 59.1171875 C-19.98567627 60.02460693 -19.63932129 60.93202637 -19.2824707 61.86694336 C-18.58334855 63.91439952 -18.58334855 63.91439952 -17.40625 64.96484375 C-13.11625 54.40484375 -8.82625 43.84484375 -4.40625 32.96484375 C-0.77625 32.96484375 2.85375 32.96484375 6.59375 32.96484375 C5.01993327 37.93057467 3.10834209 42.69896126 1.1015625 47.5 C0.58814049 48.73549088 0.58814049 48.73549088 0.06434631 49.99594116 C-1.04895985 52.67386711 -2.16512457 55.35059178 -3.28125 58.02734375 C-4.05060598 59.87693817 -4.81972873 61.72662963 -5.58862305 63.57641602 C-7.13130277 67.28730457 -8.67488265 70.99781642 -10.21923828 74.70800781 C-13.22723989 81.93607563 -16.22439204 89.1686154 -19.21875 96.40234375 C-19.69103027 97.54131104 -20.16331055 98.68027832 -20.64990234 99.85375977 C-22.99751322 105.52322719 -25.30743864 111.20164696 -27.51831055 116.92602539 C-29.0176996 120.36880736 -30.92329163 122.96676676 -34.04296875 125.06640625 C-45.55610046 129.4432993 -60.91107976 125.00975666 -71.65625 120.64453125 C-89.81727363 112.16629828 -101.8939839 97.45408778 -109.53125 79.2890625 C-115.23217638 63.41965686 -114.38882311 43.23182564 -107.40625 27.96484375 C-98.85622322 10.02690559 -85.011585 -2.71624001 -66.4375 -9.96875 C-43.21589745 -18.13820554 -20.09297777 -13.63837873 0 0 Z " fill="#6DD4A9" transform="translate(113.40625,14.03515625)"/>
<path d="M0 0 C20.46 0 40.92 0 62 0 C62 0.33 62 0.66 62 1 C61.27296875 1.15855469 60.5459375 1.31710938 59.796875 1.48046875 C40.29330314 6.0062976 23.46976649 15.27604056 12.28344727 32.30908203 C1.85688568 49.21571319 -0.78064465 67.33670795 3.46264648 86.79003906 C7.69421345 104.19310319 18.11918866 119.70732072 33.234375 129.5078125 C46.7172732 136.78248356 59.83720315 139.24086129 75 140 C75 140.33 75 140.66 75 141 C50.25 141 25.5 141 0 141 C0 94.47 0 47.94 0 0 Z " fill="#FDFEFD" transform="translate(0,0)"/>
<path d="M0 0 C5.57656936 3.25526569 9.49007522 8.25640163 11.40234375 14.40234375 C12.24101329 22.20638452 12.4950528 29.77704121 8.0390625 36.53125 C4.22876652 40.88717309 -0.67825928 45.13415768 -6.57421875 45.67578125 C-7.77820313 45.70929688 -8.9821875 45.7428125 -10.22265625 45.77734375 C-11.41117188 45.82632813 -12.5996875 45.8753125 -13.82421875 45.92578125 C-17.59765625 45.40234375 -17.59765625 45.40234375 -25.59765625 40.40234375 C-25.92765625 47.66234375 -26.25765625 54.92234375 -26.59765625 62.40234375 C-29.89765625 62.40234375 -33.19765625 62.40234375 -36.59765625 62.40234375 C-36.59765625 41.28234375 -36.59765625 20.16234375 -36.59765625 -1.59765625 C-33.29765625 -1.59765625 -29.99765625 -1.59765625 -26.59765625 -1.59765625 C-26.26765625 0.05234375 -25.93765625 1.70234375 -25.59765625 3.40234375 C-24.87578125 2.78359375 -24.15390625 2.16484375 -23.41015625 1.52734375 C-15.84633536 -4.18754315 -8.3865863 -3.63117219 0 0 Z " fill="#1E2131" transform="translate(161.59765625,48.59765625)"/>
<path d="M0 0 C3.63 0 7.26 0 11 0 C14.39775812 6.47673345 17.0819645 13.10816394 19.6875 19.9375 C20.48071714 22.01001775 21.27616565 24.08168335 22.07421875 26.15234375 C22.42057373 27.05976318 22.76692871 27.96718262 23.1237793 28.90209961 C23.82290145 30.94955577 23.82290145 30.94955577 25 32 C29.29 21.44 33.58 10.88 38 0 C41.63 0 45.26 0 49 0 C47.42618327 4.96573092 45.51459209 9.73411751 43.5078125 14.53515625 C43.16553116 15.35881683 42.82324982 16.18247742 42.47059631 17.03109741 C41.35729015 19.70902336 40.24112543 22.38574803 39.125 25.0625 C38.35564402 26.91209442 37.58652127 28.76178588 36.81762695 30.61157227 C35.27494723 34.32246082 33.73136735 38.03297267 32.18701172 41.74316406 C29.17901011 48.97123188 26.18185796 56.20377165 23.1875 63.4375 C22.71521973 64.57646729 22.24293945 65.71543457 21.75634766 66.88891602 C19.40873678 72.55838344 17.09881136 78.23680321 14.88793945 83.96118164 C13.3885504 87.40396361 11.48295837 90.00192301 8.36328125 92.1015625 C5.00119498 93.379711 1.73702301 93.38256404 -1.8125 93.375 C-2.55790039 93.37411377 -3.30330078 93.37322754 -4.07128906 93.37231445 C-13.51099164 93.17557076 -23.01832448 91.23609917 -31 86 C-30.67 83.69 -30.34 81.38 -30 79 C-25.82623828 77.80642426 -23.7025239 78.26050057 -19.75 79.9375 C-14.33774779 81.92199248 -9.74916717 82.25883987 -4.078125 82.12890625 C-3.29775879 82.11960083 -2.51739258 82.11029541 -1.71337891 82.10070801 C0.19122457 82.07664525 2.09565752 82.03966267 4 82 C6.02895113 77.25638917 8.04049913 72.50591235 10.03637695 67.74829102 C10.71752899 66.1313855 11.40336657 64.51644545 12.09399414 62.90356445 C13.08682525 60.58266983 14.06250171 58.25519105 15.03515625 55.92578125 C15.34655045 55.20787918 15.65794464 54.48997711 15.97877502 53.75032043 C18.81807854 46.86055124 17.1662939 43.11060663 14.47290039 36.58995056 C14.13121826 35.77522781 13.78953613 34.96050507 13.4375 34.12109375 C13.0861499 33.27200943 12.7347998 32.42292511 12.37280273 31.54811096 C11.25281876 28.84277327 10.1268902 26.13996747 9 23.4375 C7.87372469 20.7312172 6.74880086 18.02439984 5.62719727 15.31617737 C4.93003631 13.6332934 4.23010762 11.95155272 3.52709961 10.27110291 C3.2100708 9.50673416 2.89304199 8.74236542 2.56640625 7.95483398 C2.28740479 7.28596664 2.00840332 6.6170993 1.72094727 5.92796326 C1 4 1 4 0 0 Z " fill="#212433" transform="translate(71,47)"/>
<path d="M0 0 C4.97268411 3.52055904 7.6219912 8.27132615 10.30078125 13.62890625 C10.30078125 17.25890625 10.30078125 20.88890625 10.30078125 24.62890625 C-1.90921875 24.62890625 -14.11921875 24.62890625 -26.69921875 24.62890625 C-22.71051574 32.55779943 -22.71051574 32.55779943 -17.69921875 34.62890625 C-12.04134108 35.42100912 -7.55072308 34.78802535 -2.69921875 31.62890625 C-0.38503584 29.56723364 -0.38503584 29.56723364 1.30078125 27.62890625 C3.94078125 28.94890625 6.58078125 30.26890625 9.30078125 31.62890625 C6.50258738 37.22529398 2.29202066 41.40994499 -3.5078125 43.7734375 C-11.26677231 45.85325659 -19.25181769 46.02325196 -26.32421875 41.94140625 C-31.98291376 37.98031974 -34.80825665 34.28666864 -36.69921875 27.62890625 C-37.51295395 20.51654759 -38.01648131 13.63900795 -34.01171875 7.44140625 C-25.22667775 -3.44795853 -12.45167405 -6.79710356 0 0 Z " fill="#1F2232" transform="translate(247.69921875,49.37109375)"/>
<path d="M0 0 C3.95017067 2.35254609 6.30975705 5.46144803 7.5703125 9.921875 C7.6321875 10.623125 7.6940625 11.324375 7.7578125 12.046875 C4.13807848 13.36314192 1.66214119 14.046875 -2.2421875 14.046875 C-3.8671875 11.609375 -3.8671875 11.609375 -5.2421875 9.046875 C-7.59565146 7.87014302 -9.1227908 7.88063634 -11.7421875 7.859375 C-12.53625 7.84519531 -13.3303125 7.83101562 -14.1484375 7.81640625 C-16.46252067 7.85021197 -16.46252067 7.85021197 -18.2421875 10.046875 C-17.92177353 12.64968068 -17.92177353 12.64968068 -17.2421875 15.046875 C-16.00082031 15.37300781 -14.75945312 15.69914062 -13.48046875 16.03515625 C-11.83843351 16.47616 -10.19651236 16.91758867 -8.5546875 17.359375 C-7.73806641 17.57271484 -6.92144531 17.78605469 -6.08007812 18.00585938 C-0.69425978 19.46678986 3.94773964 20.799888 7.5703125 25.296875 C9.08888576 28.81357097 9.16499733 31.24648327 8.7578125 35.046875 C6.62005179 39.88496502 3.24865691 42.83405547 -1.48046875 45.13671875 C-8.05543028 47.30357312 -16.5053612 47.29727672 -22.8671875 44.421875 C-26.38369329 42.29386076 -28.39445942 39.74233115 -30.2421875 36.046875 C-30.2421875 34.726875 -30.2421875 33.406875 -30.2421875 32.046875 C-26.63294788 30.84379513 -24.02832173 30.64121776 -20.2421875 31.046875 C-18.4296875 33.484375 -18.4296875 33.484375 -17.2421875 36.046875 C-14.07232582 37.63180584 -10.70186489 37.3408792 -7.2421875 37.046875 C-4.83660897 36.18421532 -4.83660897 36.18421532 -3.2421875 35.046875 C-3.2421875 33.396875 -3.2421875 31.746875 -3.2421875 30.046875 C-9.17476421 27.72037433 -15.14128299 25.88965811 -21.2890625 24.20703125 C-24.50194914 22.94482578 -26.07953795 21.70976359 -28.2421875 19.046875 C-29.49732359 15.28146672 -29.98535019 11.94133335 -29.2421875 8.046875 C-26.95748572 3.92625215 -24.00512793 1.50170487 -19.9921875 -0.890625 C-13.17832189 -2.82122026 -6.57268326 -2.82066569 0 0 Z " fill="#222534" transform="translate(294.2421875,47.953125)"/>
<path d="M0 0 C4.23366545 2.11683272 6.62161854 4.40202226 9.1875 8.375 C9.1875 9.695 9.1875 11.015 9.1875 12.375 C5.8875 13.035 2.5875 13.695 -0.8125 14.375 C-1.080625 13.570625 -1.34875 12.76625 -1.625 11.9375 C-2.016875 11.091875 -2.40875 10.24625 -2.8125 9.375 C-6.73546433 8.06734522 -9.67252433 8.1778583 -13.8125 8.375 C-14.4725 9.035 -15.1325 9.695 -15.8125 10.375 C-15.88522562 12.92960214 -15.88522562 12.92960214 -14.8125 15.375 C-11.8791993 17.11664729 -8.73990017 17.6136986 -5.4375 18.3125 C-0.05029773 19.47778502 4.37658583 20.79625432 8.625 24.5 C10.81968569 28.53822166 10.82777765 31.87663905 10.1875 36.375 C8.58879463 41.06453576 5.17890169 43.21611581 0.92578125 45.4296875 C-6.18380812 47.88406785 -13.9165008 47.13723612 -20.8125 44.375 C-24.13909563 42.22124257 -26.60715006 39.68302491 -28.8125 36.375 C-28.8125 35.055 -28.8125 33.735 -28.8125 32.375 C-23.8625 31.88 -23.8625 31.88 -18.8125 31.375 C-18.35875 32.179375 -17.905 32.98375 -17.4375 33.8125 C-16.06524335 36.46356572 -16.06524335 36.46356572 -13.8125 37.375 C-9.68253618 37.78959096 -6.02059734 37.96431578 -2.25 36.125 C-0.38934038 34.23730064 -0.38934038 34.23730064 -0.8125 30.375 C-5.00499645 27.58000237 -9.60156709 27.0074783 -14.4765625 26.05078125 C-19.18933943 25.03736943 -22.27965204 23.86056319 -25.8125 20.375 C-27.85219799 16.68411793 -28.32434637 13.55507873 -27.8125 9.375 C-22.20990917 -1.39921313 -10.91670827 -4.40691238 0 0 Z " fill="#222534" transform="translate(336.8125,47.625)"/>
<path d="M0 0 C4.90780018 3.37886415 7.82226329 6.77342816 9.26953125 12.5625 C5.96953125 13.2225 2.66953125 13.8825 -0.73046875 14.5625 C-1.59671875 13.386875 -1.59671875 13.386875 -2.48046875 12.1875 C-5.0693545 9.16713329 -6.95917166 7.86845132 -10.87890625 7.19140625 C-15.01816943 7.06795454 -17.85258776 7.16508275 -21.16796875 9.8125 C-25.15929598 14.09587557 -26.16644728 16.52976769 -25.9765625 22.5390625 C-25.40384849 27.24804438 -23.50535872 29.89327685 -19.98046875 32.9375 C-16.09937207 34.87804834 -14.02161841 35.16476662 -9.73046875 34.5625 C-6.29942055 33.20119343 -3.39137483 31.74222811 -1.53125 28.421875 C-1.26699219 27.80828125 -1.00273438 27.1946875 -0.73046875 26.5625 C0.7515962 26.816996 2.2302174 27.09161762 3.70703125 27.375 C4.53074219 27.52582031 5.35445312 27.67664063 6.203125 27.83203125 C7.22599609 28.19361328 7.22599609 28.19361328 8.26953125 28.5625 C8.59953125 29.5525 8.92953125 30.5425 9.26953125 31.5625 C6.30487706 37.38422011 2.0903269 40.8676872 -3.73046875 43.5625 C-10.05809454 45.53650292 -17.48665274 45.84966001 -23.6640625 43.3984375 C-30.87857226 39.21766661 -34.79135226 34.81170107 -37.19140625 26.8203125 C-38.74666178 20.30627122 -37.58779064 14.50164764 -34.73046875 8.5625 C-26.84653356 -3.83279811 -12.67619769 -7.02680565 0 0 Z " fill="#222534" transform="translate(62.73046875,49.4375)"/>
<path d="M0 0 C3.3 0 6.6 0 10 0 C10.33 1.32 10.66 2.64 11 4 C11.763125 3.34 12.52625 2.68 13.3125 2 C17.7817563 -1.05847901 22.80920149 -0.33250667 28 0 C28 3.3 28 6.6 28 10 C26.453125 9.938125 24.90625 9.87625 23.3125 9.8125 C19.0328554 9.81855325 16.33328664 10.08337419 13 13 C10.67537526 16.54218697 10.69194321 19.78356701 10.5859375 23.953125 C10.56657135 24.61334656 10.5472052 25.27356812 10.5272522 25.95379639 C10.46770651 28.05240153 10.42117278 30.15106228 10.375 32.25 C10.33679706 33.6771066 10.29774398 35.10419072 10.2578125 36.53125 C10.1620267 40.02062691 10.07790358 43.51017286 10 47 C6.7 47 3.4 47 0 47 C0 31.49 0 15.98 0 0 Z " fill="#202332" transform="translate(180,47)"/>
<path d="M0 0 C4.79642058 2.39821029 7.60178971 5.20357942 10 10 C10.81489668 16.41731135 9.70890694 19.74571517 6 25 C2.75771627 27.94753066 0.07735951 28.89836231 -4.3125 29.3125 C-9.49723861 28.87311537 -12.41601755 26.80246279 -15.8125 22.9375 C-18.30909337 18.86411082 -18.62713547 14.65493512 -18 10 C-14.26064222 2.52128445 -8.36428352 -1.63939957 0 0 Z " fill="#F9F9FA" transform="translate(153,56)"/>
<path d="M0 0 C0.66 0 1.32 0 2 0 C3.2265625 1.46875 3.2265625 1.46875 4.625 3.5 C10.89336903 12.04914909 17.44380655 17.36243553 27 22 C26.35546875 22.60328125 25.7109375 23.2065625 25.046875 23.828125 C22.74356149 26.27209887 22.36454621 27.71908413 22 31 C12.98034453 27.86272853 2.66521547 20.5024746 -2 12 C-2.42920446 7.67981081 -1.35585287 4.06755862 0 0 Z " fill="#50B18C" transform="translate(18,102)"/>
<path d="M0 0 C9.55113618 3.2118865 19.32270242 8.26839228 26 16 C25.75 18.25 25.75 18.25 25 20 C24.34 20 23.68 20 23 20 C23 20.66 23 21.32 23 22 C20.79296875 22.7265625 20.79296875 22.7265625 18 23 C15.67578125 21.5234375 15.67578125 21.5234375 13.3125 19.375 C7.20597665 14.17078383 0.98876874 10.3432443 -7 9 C-6.67 8.01 -6.34 7.02 -6 6 C-5.34 6 -4.68 6 -4 6 C-4 5.34 -4 4.68 -4 4 C-3.34 4 -2.68 4 -2 4 C-1.34 2.68 -0.68 1.36 0 0 Z " fill="#BFEDDA" transform="translate(94,4)"/>
<path d="M0 0 C5.65410237 0.17444599 5.65410237 0.17444599 8.125 2.25 C8.50828534 3.90589288 8.84601469 5.57337956 9.125 7.25 C10.77267247 6.96890887 12.41813145 6.67481474 14.0625 6.375 C14.97902344 6.21257813 15.89554687 6.05015625 16.83984375 5.8828125 C17.59394531 5.67398438 18.34804688 5.46515625 19.125 5.25 C19.455 4.59 19.785 3.93 20.125 3.25 C21.4558911 5.91178221 21.23768993 7.93739396 21.22265625 10.9140625 C21.21943359 12.03554687 21.21621094 13.15703125 21.21289062 14.3125 C21.20451172 15.488125 21.19613281 16.66375 21.1875 17.875 C21.18298828 19.05835937 21.17847656 20.24171875 21.17382812 21.4609375 C21.16201467 24.39067507 21.14554258 27.32031272 21.125 30.25 C20.465 30.58 19.805 30.91 19.125 31.25 C19.17140625 30.51394531 19.2178125 29.77789062 19.265625 29.01953125 C19.52901554 22.92796198 19.52901554 22.92796198 17.625 17.25 C12.2582667 12.95661336 6.05291226 11.88866175 -0.578125 10.875 C-3.21717539 10.15689105 -4.79991894 9.00144456 -6.875 7.25 C-6.0589948 2.08196708 -5.64210138 0.36400654 0 0 Z " fill="#F6F6F7" transform="translate(326.875,54.75)"/>
<path d="M0 0 C3.96458788 0.33038232 7.24126747 1.05272277 10.9375 2.5 C17.66838455 4.90388734 24.92704481 4.74832429 32 5 C32 5.33 32 5.66 32 6 C29.36 6 26.72 6 24 6 C23.34 8.97 22.68 11.94 22 15 C13.60792315 14.44052821 5.08908187 12.72605458 -2 8 C-1.125 1.125 -1.125 1.125 0 0 Z " fill="#2E4D4D" transform="translate(42,125)"/>
<path d="M0 0 C0.4125 1.155 0.825 2.31 1.25 3.5 C2.07495792 5.79466451 2.87279846 7.80254662 4.1953125 9.85546875 C6.4245399 13.31741462 7.09694388 15.20524313 6.5859375 19.39453125 C5.83329385 22.6407466 4.98934987 25.8185612 4 29 C-0.13276354 25.27338736 -2.4724551 21.73793028 -4.75 16.6875 C-5.05292969 16.06166016 -5.35585937 15.43582031 -5.66796875 14.79101562 C-7.79697621 10.17816613 -8.57318644 6.05998712 -9 1 C-5.92677456 0.08941469 -3.19902639 -0.08886184 0 0 Z " fill="#5BD09F" transform="translate(12,84)"/>
<path d="M0 0 C7.5990665 -0.35682573 14.70931391 0.07032233 22.1875 1.375 C23.30112915 1.56412964 23.30112915 1.56412964 24.43725586 1.75708008 C29.74322053 2.74322053 29.74322053 2.74322053 32 5 C31.01 6.485 31.01 6.485 30 8 C29.34 8 28.68 8 28 8 C28 8.66 28 9.32 28 10 C27.34 10 26.68 10 26 10 C26 10.66 26 11.32 26 12 C17.75 11.34 9.5 10.68 1 10 C1.33 9.01 1.66 8.02 2 7 C2.66 7 3.32 7 4 7 C4 6.34 4 5.68 4 5 C4.66 5 5.32 5 6 5 C6 4.34 6 3.68 6 3 C6.66 2.67 7.32 2.34 8 2 C5.36 1.67 2.72 1.34 0 1 C0 0.67 0 0.34 0 0 Z " fill="#6BD4A8" transform="translate(62,0)"/>
<path d="M0 0 C3.72490926 1.58506777 5.930864 3.51513937 8 7 C8 7.99 8 8.98 8 10 C-0.58 10 -9.16 10 -18 10 C-14.33631292 0.8407823 -9.49470225 -1.46072342 0 0 Z " fill="#F4F4F5" transform="translate(239,56)"/>
<path d="M0 0 C1.10408203 0.01353516 1.10408203 0.01353516 2.23046875 0.02734375 C4.0287888 0.05069856 5.82693911 0.08656164 7.625 0.125 C5.645 1.115 5.645 1.115 3.625 2.125 C3.625 2.785 3.625 3.445 3.625 4.125 C2.965 4.125 2.305 4.125 1.625 4.125 C1.625 4.785 1.625 5.445 1.625 6.125 C0.965 6.125 0.305 6.125 -0.375 6.125 C-0.705 7.445 -1.035 8.765 -1.375 10.125 C-3.45547297 10.6571441 -5.53952293 11.17531786 -7.625 11.6875 C-8.78515625 11.97753906 -9.9453125 12.26757812 -11.140625 12.56640625 C-14.09590983 13.07679964 -15.61934101 13.15496165 -18.375 12.125 C-18.705 9.815 -19.035 7.505 -19.375 5.125 C-12.93602447 0.95860407 -7.50892742 -0.1765209 0 0 Z " fill="#5AD09F" transform="translate(64.375,0.875)"/>
<path d="M0 0 C4.97209562 1.76429199 9.43438061 4.3939166 14 7 C13.360625 7.556875 12.72125 8.11375 12.0625 8.6875 C9.80319013 11.22066561 9.36850953 12.68341424 9 16 C4.33285711 14.16974789 0.81234923 12.3502463 -3 9 C-2.01 6.03 -1.02 3.06 0 0 Z " fill="#438772" transform="translate(31,117)"/>
<path d="M0 0 C1.62938774 0.59223134 3.25341128 1.19923628 4.875 1.8125 C6.23238281 2.31716797 6.23238281 2.31716797 7.6171875 2.83203125 C10 4 10 4 12 7 C11.67 7.66 11.34 8.32 11 9 C10.34 9 9.68 9 9 9 C9 9.66 9 10.32 9 11 C6.875 12.1875 6.875 12.1875 4 13 C1 11.6875 1 11.6875 -2 10 C-4.73572585 9.30092586 -4.73572585 9.30092586 -7 9 C-6.67 8.01 -6.34 7.02 -6 6 C-5.34 6 -4.68 6 -4 6 C-4 5.34 -4 4.68 -4 4 C-3.34 4 -2.68 4 -2 4 C-1.34 2.68 -0.68 1.36 0 0 Z " fill="#A0E4C8" transform="translate(94,4)"/>
<path d="M0 0 C4.07763771 2.86536704 6.02677065 5.43041625 8 10 C6.625 11.5 6.625 11.5 5 13 C4.34 13 3.68 13 3 13 C3 13.66 3 14.32 3 15 C0 15 0 15 -1.82421875 13.25 C-2.43910156 12.5075 -3.05398437 11.765 -3.6875 11 C-4.31011719 10.2575 -4.93273437 9.515 -5.57421875 8.75 C-6.04472656 8.1725 -6.51523438 7.595 -7 7 C-5.68 6.34 -4.36 5.68 -3 5 C-3 4.34 -3 3.68 -3 3 C-2.34 3 -1.68 3 -1 3 C-0.67 2.01 -0.34 1.02 0 0 Z " fill="#D9F4E9" transform="translate(120,21)"/>
<path d="M0 0 C0.66 0.66 1.32 1.32 2 2 C1.01 3.485 1.01 3.485 0 5 C-0.66 5 -1.32 5 -2 5 C-2 5.66 -2 6.32 -2 7 C-2.66 7 -3.32 7 -4 7 C-4 7.66 -4 8.32 -4 9 C-8.29 8.34 -12.58 7.68 -17 7 C-16.34 6.67 -15.68 6.34 -15 6 C-15 5.34 -15 4.68 -15 4 C-14.34 4 -13.68 4 -13 4 C-13 3.34 -13 2.68 -13 2 C-9.47048545 -2.14334317 -4.83266751 -1.24082004 0 0 Z " fill="#7FDBB4" transform="translate(92,3)"/>
<path d="M0 0 C0.66 0 1.32 0 2 0 C4.04642688 2.51418159 5.12441605 3.93298278 6 7 C5.46376749 11.47728118 4.32068621 15.69482192 3 20 C0.21604979 17.57296648 -1.72525068 15.75556063 -3 12.25 C-3 7.7878302 -1.62034489 4.11952091 0 0 Z " fill="#56C397" transform="translate(13,93)"/>
<path d="M0 0 C3.25543229 0.34879632 4.01873107 1.02133261 6.25 3.5625 C6.8275 4.366875 7.405 5.17125 8 6 C6.68 8.64 5.36 11.28 4 14 C0 12 0 12 -2 10 C-2.31537716 5.66356399 -2.44897847 3.67346771 0 0 Z " fill="#4C9E81" transform="translate(24,111)"/>
<path d="M0 0 C6.6 0.6 6.6 0.6 9 3 C8.34 3 7.68 3 7 3 C6.67 5.31 6.34 7.62 6 10 C5.01 10.33 4.02 10.66 3 11 C0.3125 9.5625 0.3125 9.5625 -2 8 C-1.125 1.125 -1.125 1.125 0 0 Z " fill="#386A5F" transform="translate(42,125)"/>
<path d="M0 0 C1.98 0.99 3.96 1.98 6 3 C5.63088042 5.67611698 5.15144437 6.8431469 3.25 8.8125 C1 10 1 10 -1.625 9.75 C-4 9 -4 9 -6 8 C-5.67 7.01 -5.34 6.02 -5 5 C-4.34 5 -3.68 5 -3 5 C-3 4.34 -3 3.68 -3 3 C-2.34 3 -1.68 3 -1 3 C-0.67 2.01 -0.34 1.02 0 0 Z " fill="#B0E9D1" transform="translate(106,10)"/>
<path d="M0 0 C2.9719385 1.12451727 5.33440687 2.22293791 8 4 C7.01 4.33 6.02 4.66 5 5 C3.77030122 8.51190809 3.77030122 8.51190809 3 12 C-1.875 10.25 -1.875 10.25 -3 8 C-2.71887936 5.99199544 -2.38932033 3.98985949 -2 2 C-1.34 2 -0.68 2 0 2 C0 1.34 0 0.68 0 0 Z " fill="#417D6C" transform="translate(37,121)"/>
<path d="M0 0 C1.65 0 3.3 0 5 0 C6.46726798 3.81489674 5.43336419 6.29011622 4 10 C2.02 9.34 0.04 8.68 -2 8 C-1.34 5.36 -0.68 2.72 0 0 Z " fill="#325A55" transform="translate(49,128)"/>
<path d="M0 0 C2.475 0.99 2.475 0.99 5 2 C4.34 3.32 3.68 4.64 3 6 C2.34 6 1.68 6 1 6 C1 6.66 1 7.32 1 8 C0.34 8 -0.32 8 -1 8 C-1.33 8.66 -1.66 9.32 -2 10 C-3.65 9.67 -5.3 9.34 -7 9 C-6.67 8.01 -6.34 7.02 -6 6 C-5.34 6 -4.68 6 -4 6 C-4 5.34 -4 4.68 -4 4 C-3.34 4 -2.68 4 -2 4 C-1.34 2.68 -0.68 1.36 0 0 Z " fill="#91DFBF" transform="translate(94,4)"/>
<path d="M0 0 C1.50433594 0.01353516 1.50433594 0.01353516 3.0390625 0.02734375 C3.80992188 0.03894531 4.58078125 0.05054688 5.375 0.0625 C5.375 0.3925 5.375 0.7225 5.375 1.0625 C2.735 1.0625 0.095 1.0625 -2.625 1.0625 C-3.285 4.0325 -3.945 7.0025 -4.625 10.0625 C-5.945 10.0625 -7.265 10.0625 -8.625 10.0625 C-8.51137738 8.5824159 -8.38377092 7.10339926 -8.25 5.625 C-8.18039063 4.80128906 -8.11078125 3.97757813 -8.0390625 3.12890625 C-7.90242188 2.44699219 -7.76578125 1.76507813 -7.625 1.0625 C-4.98041621 -0.25979189 -2.94738699 -0.03427194 0 0 Z " fill="#405157" transform="translate(68.625,129.9375)"/>
<path d="M0 0 C1.32 0.99 2.64 1.98 4 3 C3.67 4.32 3.34 5.64 3 7 C2.34 7 1.68 7 1 7 C1 7.66 1 8.32 1 9 C-0.65 9.33 -2.3 9.66 -4 10 C-4.66 8.68 -5.32 7.36 -6 6 C-2.25 3 -2.25 3 0 3 C0 2.01 0 1.02 0 0 Z " fill="#CCF0E1" transform="translate(116,17)"/>
<path d="M0 0 C0.99 0.99 1.98 1.98 3 3 C1.625 5 1.625 5 0 7 C-0.66 7 -1.32 7 -2 7 C-2 7.66 -2 8.32 -2 9 C-2.99 9 -3.98 9 -5 9 C-5.33 7.68 -5.66 6.36 -6 5 C-5.34 5 -4.68 5 -4 5 C-4 4.34 -4 3.68 -4 3 C-3.34 3 -2.68 3 -2 3 C-2 2.34 -2 1.68 -2 1 C-1.34 0.67 -0.68 0.34 0 0 Z " fill="#E7F8F1" transform="translate(125,27)"/>
<path d="M0 0 C0.99 0.33 1.98 0.66 3 1 C2.34 3.97 1.68 6.94 1 10 C0.01 10 -0.98 10 -2 10 C-3.39195915 5.82412255 -1.82323219 3.86525224 0 0 Z " fill="#469178" transform="translate(31,117)"/>
<path d="M0 0 C1.32 0.33 2.64 0.66 4 1 C3.34 1 2.68 1 2 1 C1.67 3.64 1.34 6.28 1 9 C0.01 9 -0.98 9 -2 9 C-1.125 2.25 -1.125 2.25 0 0 Z " fill="#284345" transform="translate(59,130)"/>
</svg>
