<?xml version="1.0" encoding="UTF-8"?>
<svg version="1.1" xmlns="http://www.w3.org/2000/svg" width="346" height="146">
<path d="M0 0 C114.18 0 228.36 0 346 0 C346 48.18 346 96.36 346 146 C231.82 146 117.64 146 0 146 C0 97.82 0 49.64 0 0 Z " fill="#FDFEFE" transform="translate(0,0)"/>
<path d="M0 0 C6.43902439 4.87804878 6.43902439 4.87804878 8 8 C8.33 4.7 8.66 1.4 9 -2 C12.96 -2 16.92 -2 21 -2 C21 21.1 21 44.2 21 68 C17.04 68 13.08 68 9 68 C8.67 64.37 8.34 60.74 8 57 C7.030625 58.2375 6.06125 59.475 5.0625 60.75 C0.13512186 66.27493294 -4.18559974 68.56036001 -11.55859375 69.41015625 C-19.72552807 69.73091198 -26.42164126 69.12180744 -33 64 C-38.29684556 58.80366384 -41.29668893 53.18011128 -43 46 C-43.18433594 45.2471875 -43.36867188 44.494375 -43.55859375 43.71875 C-45.46340479 31.98646254 -44.70045641 19.46931398 -38.54296875 9.140625 C-29.93300791 -2.80433333 -13.18161632 -8.07037734 0 0 Z " fill="#253755" transform="translate(325,52)"/>
<path d="M0 0 C7.51041694 -0.04632915 15.02081906 -0.08187214 22.53134632 -0.10362434 C26.01875161 -0.11406404 29.50605916 -0.12822649 32.9934082 -0.15087891 C37.00212546 -0.17675512 41.01073997 -0.18647123 45.01953125 -0.1953125 C46.27272659 -0.20563507 47.52592194 -0.21595764 48.8170929 -0.22659302 C50.55855843 -0.22681961 50.55855843 -0.22681961 52.33520508 -0.22705078 C53.35890701 -0.231492 54.38260895 -0.23593323 55.43733215 -0.24050903 C58 0 58 0 61 2 C61.36076355 4.40444946 61.36076355 4.40444946 61.34057617 7.45947266 C61.34023628 9.17102036 61.34023628 9.17102036 61.33988953 10.91714478 C61.32440567 12.15362762 61.30892181 13.39011047 61.29296875 14.6640625 C61.28872391 15.92640717 61.28447906 17.18875183 61.28010559 18.48934937 C61.26613137 21.84661351 61.23917302 25.20326932 61.20599365 28.56036377 C61.17531352 31.98550148 61.1616047 35.41070201 61.14648438 38.8359375 C61.11334641 45.5574605 61.06309539 52.27869511 61 59 C53.77620558 59.07970505 49.43158416 58.15760539 44.04296875 53.19921875 C35.78215619 44.24275881 35.59594163 36.62790199 36 25 C34.96101563 25.05800781 33.92203125 25.11601563 32.8515625 25.17578125 C24.01425513 25.51947199 17.5484988 25.13655244 10 20 C9.05125 19.401875 8.1025 18.80375 7.125 18.1875 C1.88671341 12.79514615 0.84498279 7.22726063 0 0 Z " fill="#1F7AF3" transform="translate(28,41)"/>
<path d="M0 0 C7.51041694 -0.04632915 15.02081906 -0.08187214 22.53134632 -0.10362434 C26.01875161 -0.11406404 29.50605916 -0.12822649 32.9934082 -0.15087891 C37.00212546 -0.17675512 41.01073997 -0.18647123 45.01953125 -0.1953125 C46.27272659 -0.20563507 47.52592194 -0.21595764 48.8170929 -0.22659302 C50.55855843 -0.22681961 50.55855843 -0.22681961 52.33520508 -0.22705078 C53.35890701 -0.231492 54.38260895 -0.23593323 55.43733215 -0.24050903 C58 0 58 0 61 2 C61.36076355 4.40444946 61.36076355 4.40444946 61.34057617 7.45947266 C61.34023628 9.17102036 61.34023628 9.17102036 61.33988953 10.91714478 C61.32440567 12.15362762 61.30892181 13.39011047 61.29296875 14.6640625 C61.28872391 15.92640717 61.28447906 17.18875183 61.28010559 18.48934937 C61.26613137 21.84661351 61.23917302 25.20326932 61.20599365 28.56036377 C61.17531352 31.98550148 61.1616047 35.41070201 61.14648438 38.8359375 C61.11334641 45.5574605 61.06309539 52.27869511 61 59 C59.41163958 58.70918142 57.82465668 58.41083352 56.23828125 58.109375 C54.91244019 57.8613916 54.91244019 57.8613916 53.55981445 57.60839844 C47.06939761 56.06580246 42.79056111 52.47525494 39 47 C35.11692417 39.63554583 35.71520312 32.10088906 36 24 C34.19015625 24.06960937 34.19015625 24.06960937 32.34375 24.140625 C30.72919164 24.17817287 29.11460622 24.21456977 27.5 24.25 C26.31277344 24.30027344 26.31277344 24.30027344 25.1015625 24.3515625 C17.93029858 24.4691242 12.94613417 22.5720219 7.5390625 17.8515625 C2.49954848 11.98927068 -0.10573224 7.87705176 0 0 Z " fill="#2583FD" transform="translate(56,14)"/>
<path d="M0 0 C7.65807215 -0.04629168 15.31612984 -0.08185303 22.97430992 -0.10362434 C26.53012399 -0.11407224 30.0858425 -0.12824959 33.64160156 -0.15087891 C37.727223 -0.17671832 41.81274369 -0.18646444 45.8984375 -0.1953125 C47.17866791 -0.20563507 48.45889832 -0.21595764 49.77792358 -0.22659302 C50.95899689 -0.22674408 52.14007019 -0.22689514 53.35693359 -0.22705078 C54.92246475 -0.23371262 54.92246475 -0.23371262 56.5196228 -0.24050903 C59 0 59 0 61 2 C61.24050903 4.3664856 61.24050903 4.3664856 61.22705078 7.36767578 C61.22689972 8.48868683 61.22674866 9.60969788 61.22659302 10.76467896 C61.21627045 11.97928802 61.20594788 13.19389709 61.1953125 14.4453125 C61.1924826 15.68546112 61.18965271 16.92560974 61.18673706 18.20333862 C61.17742174 21.50124633 61.1594489 24.79895972 61.1373291 28.09680176 C61.11687474 31.4616457 61.10773623 34.82651807 61.09765625 38.19140625 C61.07556519 44.79434723 61.04206483 51.39715771 61 58 C52.88262404 58.09486771 48.2148616 56.2688484 42.1875 50.8125 C35.02526353 43.06158656 35.61388269 34.05335078 36 24 C34.9378125 24.03480469 33.875625 24.06960937 32.78125 24.10546875 C22.43567916 24.34768502 14.57370308 24.14532202 6.5390625 16.734375 C2.04220749 11.66685311 0.89258605 6.59948019 0 0 Z " fill="#1B75EF" transform="translate(0,69)"/>
<path d="M0 0 C5.93611833 4.48828459 8.88201302 8.59885963 10.5625 15.9375 C11.40415122 24.9020641 11.3643483 34.04969933 6.5625 41.9375 C1.37518886 47.20830911 -3.3882236 49.08866926 -10.75 49.25 C-16.20365117 49.19552402 -19.35131999 48.81937101 -23.4375 44.9375 C-30.25141679 37.96872146 -30.87953622 30.61380431 -30.87353516 21.36816406 C-30.69065847 14.17501441 -28.8548855 8.60264595 -23.875 3.26171875 C-17.38165528 -2.50112469 -8.01704442 -2.47799555 0 0 Z " fill="#FAFBFB" transform="translate(323.4375,61.0625)"/>
<path d="M0 0 C4.29 0 8.58 0 13 0 C13.06811659 8.65884133 13.12301093 17.31750105 13.15543652 25.97655106 C13.17100899 29.99846706 13.19209068 34.02018825 13.22631836 38.04199219 C13.25921567 41.93237946 13.27691609 45.82258085 13.28463173 49.71309662 C13.29012133 51.18806631 13.30083899 52.66302729 13.31719017 54.13791656 C13.5643712 77.38502168 13.5643712 77.38502168 6 86 C-0.47164333 91.53416228 -5.62548653 92.18082368 -13.9375 92.1875 C-14.73607422 92.19974609 -15.53464844 92.21199219 -16.35742188 92.22460938 C-17.5243457 92.22750977 -17.5243457 92.22750977 -18.71484375 92.23046875 C-19.41730225 92.23457764 -20.11976074 92.23868652 -20.84350586 92.24291992 C-23 92 -23 92 -28 90 C-28 86.04 -28 82.08 -28 78 C-26.35 78.33 -24.7 78.66 -23 79 C-20.50331283 79.16554121 -18.00171768 79.26496736 -15.5 79.3125 C-14.2109375 79.34988281 -12.921875 79.38726562 -11.59375 79.42578125 C-7.3983197 78.92871396 -5.87109657 78.05314074 -3 75 C-0.95430391 70.95164298 -0.72983985 67.51018627 -0.68115234 63.0065918 C-0.67110672 62.32311172 -0.6610611 61.63963165 -0.65071106 60.93544006 C-0.61997095 58.69004103 -0.60286986 56.44476074 -0.5859375 54.19921875 C-0.56721843 52.63693731 -0.54764446 51.07466589 -0.5272522 49.5124054 C-0.47600291 45.41077599 -0.43633879 41.30911384 -0.39910889 37.20733643 C-0.35902395 33.01769964 -0.30795213 28.82819826 -0.2578125 24.63867188 C-0.16113848 16.42586707 -0.07772262 8.21300604 0 0 Z " fill="#243857" transform="translate(177,28)"/>
<path d="M0 0 C0 3.63 0 7.26 0 11 C-2.6915625 11.12375 -2.6915625 11.12375 -5.4375 11.25 C-11.21596867 11.74178457 -16.11215733 12.77724659 -21 16 C-24.36389001 20.20486251 -25.10384651 24.40001841 -25.20532227 29.67675781 C-25.22526749 30.59741028 -25.24521271 31.51806274 -25.26576233 32.46661377 C-25.29083107 33.94493683 -25.29083107 33.94493683 -25.31640625 35.453125 C-25.33718735 36.46848328 -25.35796844 37.48384155 -25.37937927 38.52996826 C-25.44470597 41.76991073 -25.50368137 45.00993348 -25.5625 48.25 C-25.60570126 50.44792493 -25.64931607 52.64584178 -25.69335938 54.84375 C-25.80037012 60.22908461 -25.90168522 65.6144999 -26 71 C-29.96 71 -33.92 71 -38 71 C-38 47.9 -38 24.8 -38 1 C-34.04 1 -30.08 1 -26 1 C-25.67 4.3 -25.34 7.6 -25 11 C-24.195625 9.9275 -23.39125 8.855 -22.5625 7.75 C-16.2676737 0.48220288 -9.2408392 -0.52061066 0 0 Z " fill="#293A58" transform="translate(276,49)"/>
<path d="M0 0 C4.29 0 8.58 0 13 0 C13 23.1 13 46.2 13 70 C8.71 70 4.42 70 0 70 C0 46.9 0 23.8 0 0 Z " fill="#30405D" transform="translate(207,50)"/>
<path d="M0 0 C5.28 0 10.56 0 16 0 C15.34 1.65 14.68 3.3 14 5 C14.99 5.66 15.98 6.32 17 7 C17.29296875 9.1640625 17.29296875 9.1640625 17.1875 11.625 C17.16042969 12.44226563 17.13335938 13.25953125 17.10546875 14.1015625 C17.07066406 14.72804688 17.03585938 15.35453125 17 16 C18.32 16.33 19.64 16.66 21 17 C21 17.66 21 18.32 21 19 C22.75032844 18.85816304 24.50025534 18.71136571 26.25 18.5625 C27.22453125 18.48128906 28.1990625 18.40007812 29.203125 18.31640625 C31.92690587 18.07479862 31.92690587 18.07479862 34.2265625 17.421875 C36 17 36 17 38.125 17.6875 C40.38337667 19.26836367 41.08673041 20.41240284 42 23 C42 24.32 42 25.64 42 27 C42.99 27 43.98 27 45 27 C45.02712153 28.916588 45.04645097 30.8332873 45.0625 32.75 C45.07410156 33.81734375 45.08570313 34.8846875 45.09765625 35.984375 C45.01510087 38.53368501 44.74617558 40.57933591 44 43 C44.66 43 45.32 43 46 43 C46.33 41.35 46.66 39.7 47 38 C48.0625 39.8125 48.0625 39.8125 49 42 C48.67 42.99 48.34 43.98 48 45 C48.66 45 49.32 45 50 45 C50 45.99 50 46.98 50 48 C52.475 47.505 52.475 47.505 55 47 C55 46.34 55 45.68 55 45 C54.34 45 53.68 45 53 45 C53 44.34 53 43.68 53 43 C55.31 43 57.62 43 60 43 C61.44207941 45.88415883 61.09394887 48.41721528 61.0625 51.625 C61.05347656 52.81351563 61.04445312 54.00203125 61.03515625 55.2265625 C61.02355469 56.14179687 61.01195312 57.05703125 61 58 C54.0717793 58.57735173 49.52801931 56.71819452 44.04296875 52.4921875 C39.42401628 48.31082 36.96879437 44.17157894 36 38 C35.78188712 33.32048741 35.82025266 28.68008819 36 24 C34.9378125 24.03480469 33.875625 24.06960937 32.78125 24.10546875 C22.43567916 24.34768502 14.57370308 24.14532202 6.5390625 16.734375 C1.94873888 11.56152301 0.97841573 6.84891011 0 0 Z " fill="#2882F7" transform="translate(0,69)"/>
<path d="M0 0 C2.06913108 -0.00221087 4.13774826 -0.02049053 6.20678711 -0.03930664 C8.16841797 -0.04220703 8.16841797 -0.04220703 10.16967773 -0.04516602 C11.95498901 -0.05132935 11.95498901 -0.05132935 13.77636719 -0.05761719 C16.74389648 0.18530273 16.74389648 0.18530273 19.74389648 2.18530273 C20.01057188 5.02257598 20.09180882 7.63913319 20.03686523 10.47436523 C20.03262039 11.292789 20.02837555 12.11121277 20.02400208 12.95443726 C20.00718328 15.57339109 19.96952623 18.19158075 19.93139648 20.81030273 C19.91635374 22.58372914 19.90266462 24.35716758 19.89038086 26.13061523 C19.85726941 30.48247304 19.80546601 34.83375825 19.74389648 39.18530273 C19.41389648 39.18530273 19.08389648 39.18530273 18.74389648 39.18530273 C18.68782227 38.04641602 18.68782227 38.04641602 18.63061523 36.88452148 C18.56487305 35.8906543 18.49913086 34.89678711 18.43139648 33.87280273 C18.37338867 32.88666992 18.31538086 31.90053711 18.25561523 30.88452148 C17.68101295 27.85360411 17.18128459 26.99800556 14.74389648 25.18530273 C13.42389648 24.52530273 12.10389648 23.86530273 10.74389648 23.18530273 C11.40389648 17.90530273 12.06389648 12.62530273 12.74389648 7.18530273 C9.44389648 7.18530273 6.14389648 7.18530273 2.74389648 7.18530273 C2.41389648 6.52530273 2.08389648 5.86530273 1.74389648 5.18530273 C1.12514648 5.51530273 0.50639648 5.84530273 -0.13110352 6.18530273 C-4.51821864 7.58917957 -8.68761779 7.34497796 -13.25610352 7.18530273 C-13.58610352 6.19530273 -13.91610352 5.20530273 -14.25610352 4.18530273 C-16.56610352 3.85530273 -18.87610352 3.52530273 -21.25610352 3.18530273 C-21.25610352 2.52530273 -21.25610352 1.86530273 -21.25610352 1.18530273 C-14.17781478 0.04950544 -7.15995783 -0.00085882 0 0 Z " fill="#1D57C3" transform="translate(69.256103515625,40.814697265625)"/>
<path d="M0 0 C0.51304688 0.34933594 1.02609375 0.69867188 1.5546875 1.05859375 C9.97543617 6.06284338 18.47240761 5.88583495 28 6 C28.02578125 6.96679688 28.0515625 7.93359375 28.078125 8.9296875 C28.48492216 18.26753144 28.93438385 27.37188385 35.9375 34.375 C40.86614246 38.17956611 47.06374368 39.48246079 53 41 C49.54785147 43.30143236 48.76520676 43.13833854 44.8125 42.625 C43.91144531 42.51414063 43.01039062 42.40328125 42.08203125 42.2890625 C41.05142578 42.14597656 41.05142578 42.14597656 40 42 C40 41.34 40 40.68 40 40 C39.071875 39.773125 38.14375 39.54625 37.1875 39.3125 C33.41320544 37.75837871 32.94292857 36.44428247 31 33 C29.68 32.67 28.36 32.34 27 32 C26.67 42.56 26.34 53.12 26 64 C26.66 64 27.32 64 28 64 C28 64.66 28 65.32 28 66 C29.32 66 30.64 66 32 66 C32 67.65 32 69.3 32 71 C30.8553125 70.7215625 30.8553125 70.7215625 29.6875 70.4375 C26.91032625 69.77180827 26.91032625 69.77180827 24 71 C24 70.34 24 69.68 24 69 C23.45859375 69.20496094 22.9171875 69.40992187 22.359375 69.62109375 C19.17208576 70.13295974 17.23444753 69.23496153 14.25 68.0625 C13.26515625 67.68222656 12.2803125 67.30195312 11.265625 66.91015625 C10.51796875 66.60980469 9.7703125 66.30945313 9 66 C9.33 65.01 9.66 64.02 10 63 C10.49628906 63.27714844 10.99257812 63.55429688 11.50390625 63.83984375 C12.18324219 64.20207031 12.86257812 64.56429687 13.5625 64.9375 C14.22378906 65.29714844 14.88507813 65.65679687 15.56640625 66.02734375 C18.66193628 67.37561308 18.66193628 67.37561308 25 68 C24.67 49.19 24.34 30.38 24 11 C21.3178719 9.65893595 19.11601968 9.78549581 16.1171875 9.68359375 C14.95058594 9.64169922 13.78398438 9.59980469 12.58203125 9.55664062 C11.35871094 9.51732422 10.13539062 9.47800781 8.875 9.4375 C7.64394531 9.39431641 6.41289063 9.35113281 5.14453125 9.30664062 C2.09647147 9.20031296 -0.9516719 9.09828219 -4 9 C-4 8.67 -4 8.34 -4 8 C-0.7 7.67 2.6 7.34 6 7 C5.01 6.401875 4.02 5.80375 3 5.1875 C2.01 4.465625 1.02 3.74375 0 3 C0 2.01 0 1.02 0 0 Z " fill="#E4F1FD" transform="translate(64,32)"/>
<path d="M0 0 C4.94790177 -0.0493651 9.89566083 -0.08570269 14.84375 -0.10986328 C16.52769466 -0.11993317 18.21162179 -0.13358988 19.89550781 -0.15087891 C22.31319501 -0.17508426 24.73065143 -0.18647296 27.1484375 -0.1953125 C27.9036972 -0.20563507 28.65895691 -0.21595764 29.43710327 -0.22659302 C31.2929398 -0.22699318 33.1481928 -0.12222716 35 0 C37 2 37 2 37.24050903 3.87295532 C37.2338472 5.01212906 37.2338472 5.01212906 37.22705078 6.17431641 C37.22689972 7.03505768 37.22674866 7.89579895 37.22659302 8.78262329 C37.21627045 9.71287323 37.20594788 10.64312317 37.1953125 11.6015625 C37.1924826 12.55316254 37.18965271 13.50476257 37.18673706 14.48519897 C37.17551989 17.53192592 37.15041263 20.57836154 37.125 23.625 C37.11497218 25.68749576 37.10584599 27.74999612 37.09765625 29.8125 C37.07557554 34.87511267 37.0410353 39.9375069 37 45 C36.67 45 36.34 45 36 45 C35.505 36.09 35.505 36.09 35 27 C34.34 27 33.68 27 33 27 C32.67 21.72 32.34 16.44 32 11 C30.35 11.33 28.7 11.66 27 12 C26.67 14.31 26.34 16.62 26 19 C25.5875 18.4225 25.175 17.845 24.75 17.25 C23.02870249 14.92980716 23.02870249 14.92980716 20.8125 12.875 C19 11 19 11 19 9 C20.65 8.67 22.3 8.34 24 8 C23.67 6.68 23.34 5.36 23 4 C22.01 4 21.02 4 20 4 C20 3.34 20 2.68 20 2 C13.4 1.67 6.8 1.34 0 1 C0 0.67 0 0.34 0 0 Z " fill="#0C58D0" transform="translate(24,69)"/>
<path d="M0 0 C0.66 0.66 1.32 1.32 2 2 C4.89967757 2.30675232 7.71783178 2.51173371 10.625 2.625 C11.42679688 2.66367187 12.22859375 2.70234375 13.0546875 2.7421875 C15.03607556 2.83653931 17.01800645 2.91936215 19 3 C20.33257403 12.41002278 20.33257403 12.41002278 19 17 C18.34 17 17.68 17 17 17 C17 17.99 17 18.98 17 20 C22.95795479 21.98598493 28.74892565 22.57045059 35 23 C35 23.33 35 23.66 35 24 C25.15335289 24.54975077 17.46883862 24.76281918 9 19 C8.05125 18.401875 7.1025 17.80375 6.125 17.1875 C2.17566468 13.12200776 -0.49781643 7.69141376 -1 2 C-0.67 1.34 -0.34 0.68 0 0 Z " fill="#2884FB" transform="translate(29,42)"/>
<path d="M0 0 C2.0625 0.6015625 2.0625 0.6015625 4.125 2.2265625 C5.74117855 6.32088149 5.773913 9.91195664 4.0625 13.9765625 C1.06642141 16.41087635 -2.13711089 16.63987287 -5.9375 16.6015625 C-8.9375 15.6015625 -8.9375 15.6015625 -10.6875 13.4765625 C-12.33725117 9.68213481 -12.018146 7.56393117 -10.9375 3.6015625 C-8.12036558 -1.09366153 -4.96406541 -0.83278729 0 0 Z " fill="#293855" transform="translate(216.9375,23.3984375)"/>
<path d="M0 0 C4.29 0 8.58 0 13 0 C13.01417969 0.96679688 13.02835937 1.93359375 13.04296875 2.9296875 C13.42723298 13.41906236 15.47686018 20.55043585 22 29 C20.35 29.33 18.7 29.66 17 30 C16.67 28.35 16.34 26.7 16 25 C14.68 24.67 13.36 24.34 12 24 C11.67 36.54 11.34 49.08 11 62 C9.02 62 7.04 62 5 62 C5 61.67 5 61.34 5 61 C6.65 61 8.3 61 10 61 C9.89263934 53.71568154 9.78003508 46.43146431 9.66066074 39.14733219 C9.60540198 35.76532878 9.55197744 32.38331676 9.50268555 29.0012207 C9.44599054 25.11660573 9.38142415 21.23214122 9.31640625 17.34765625 C9.29969376 16.12788589 9.28298126 14.90811554 9.26576233 13.65138245 C9.2358445 11.96975258 9.2358445 11.96975258 9.20532227 10.25415039 C9.18977798 9.26153702 9.1742337 8.26892365 9.15821838 7.24623108 C9.24881556 5.03025703 9.24881556 5.03025703 8 4 C6.15968011 3.87662826 4.31470589 3.82208692 2.47045898 3.79467773 C1.28931015 3.77473251 0.10816132 3.75478729 -1.10877991 3.73423767 C-2.3941716 3.71752518 -3.67956329 3.70081268 -5.00390625 3.68359375 C-6.31205795 3.66281265 -7.62020966 3.64203156 -8.96800232 3.62062073 C-12.45155447 3.565337 -15.9351666 3.51595569 -19.41882324 3.46777344 C-22.9713273 3.41760426 -26.5237439 3.36189433 -30.07617188 3.30664062 C-37.05070546 3.19898209 -44.02531798 3.09755433 -51 3 C-51 2.67 -51 2.34 -51 2 C-25.755 1.505 -25.755 1.505 0 1 C0 0.67 0 0.34 0 0 Z " fill="#C6DBFC" transform="translate(51,66)"/>
<path d="M0 0 C7.51041694 -0.04632915 15.02081906 -0.08187214 22.53134632 -0.10362434 C26.01875161 -0.11406404 29.50605916 -0.12822649 32.9934082 -0.15087891 C37.00212546 -0.17675512 41.01073997 -0.18647123 45.01953125 -0.1953125 C46.27272659 -0.20563507 47.52592194 -0.21595764 48.8170929 -0.22659302 C50.55855843 -0.22681961 50.55855843 -0.22681961 52.33520508 -0.22705078 C53.35890701 -0.231492 54.38260895 -0.23593323 55.43733215 -0.24050903 C58 0 58 0 61 2 C61.36076355 4.40444946 61.36076355 4.40444946 61.34057617 7.45947266 C61.34023628 9.17102036 61.34023628 9.17102036 61.33988953 10.91714478 C61.32440567 12.15362762 61.30892181 13.39011047 61.29296875 14.6640625 C61.28872391 15.92640717 61.28447906 17.18875183 61.28010559 18.48934937 C61.26613137 21.84661351 61.23917302 25.20326932 61.20599365 28.56036377 C61.17531352 31.98550148 61.1616047 35.41070201 61.14648438 38.8359375 C61.11334641 45.5574605 61.06309539 52.27869511 61 59 C57.7 58.34 54.4 57.68 51 57 C51.99 56.34 52.98 55.68 54 55 C55.98 55.66 57.96 56.32 60 57 C59.67 39.18 59.34 21.36 59 3 C58.01 3 57.02 3 56 3 C56 2.34 56 1.68 56 1 C48.50668823 1.09218758 41.013703 1.19948251 33.52075195 1.31738281 C30.97067194 1.35571278 28.42053711 1.39055848 25.87036133 1.421875 C22.20894757 1.46743799 18.5479125 1.52544738 14.88671875 1.5859375 C13.7428923 1.59748871 12.59906586 1.60903992 11.420578 1.62094116 C10.35970474 1.64081085 9.29883148 1.66068054 8.20581055 1.68115234 C7.27093307 1.69447601 6.3360556 1.70779968 5.37284851 1.7215271 C2.73448393 1.84916728 2.73448393 1.84916728 0 4 C0 2.68 0 1.36 0 0 Z " fill="#277EF1" transform="translate(56,14)"/>
<path d="M0 0 C3.16664666 -0.02940458 6.33325747 -0.04693315 9.5 -0.0625 C10.386875 -0.07087891 11.27375 -0.07925781 12.1875 -0.08789062 C17.56722526 -0.10766903 22.67279167 0.27149288 28 1 C29.6657469 1.05915294 31.33340656 1.08854052 33 1.0625 C33.763125 1.05347656 34.52625 1.04445312 35.3125 1.03515625 C36.1478125 1.01775391 36.1478125 1.01775391 37 1 C35 4 35 4 32.3984375 4.73046875 C30.90183594 4.95669922 30.90183594 4.95669922 29.375 5.1875 C28.37210938 5.34605469 27.36921875 5.50460938 26.3359375 5.66796875 C25.17964844 5.83232422 25.17964844 5.83232422 24 6 C23.67 5.34 23.34 4.68 23 4 C22.38125 4.33 21.7625 4.66 21.125 5 C16.73788488 6.40387684 12.56848573 6.15967523 8 6 C7.67 5.01 7.34 4.02 7 3 C4.69 2.67 2.38 2.34 0 2 C0 1.34 0 0.68 0 0 Z " fill="#1171EC" transform="translate(48,42)"/>
<path d="M0 0 C0.33 0 0.66 0 1 0 C1 17.16 1 34.32 1 52 C1.66 52 2.32 52 3 52 C3 52.66 3 53.32 3 54 C4.32 54 5.64 54 7 54 C7 55.65 7 57.3 7 59 C6.236875 58.814375 5.47375 58.62875 4.6875 58.4375 C1.91032625 57.77180827 1.91032625 57.77180827 -1 59 C-1 58.34 -1 57.68 -1 57 C-1.54140625 57.20496094 -2.0828125 57.40992188 -2.640625 57.62109375 C-5.82791424 58.13295974 -7.76555247 57.23496153 -10.75 56.0625 C-12.22726563 55.49208984 -12.22726563 55.49208984 -13.734375 54.91015625 C-14.48203125 54.60980469 -15.2296875 54.30945313 -16 54 C-15.67 53.01 -15.34 52.02 -15 51 C-14.50371094 51.27714844 -14.00742188 51.55429688 -13.49609375 51.83984375 C-12.81675781 52.20207031 -12.13742188 52.56429687 -11.4375 52.9375 C-10.77621094 53.29714844 -10.11492187 53.65679687 -9.43359375 54.02734375 C-6.33806372 55.37561308 -6.33806372 55.37561308 0 56 C0 37.52 0 19.04 0 0 Z " fill="#DAEBFC" transform="translate(89,44)"/>
<path d="M0 0 C2 2 2 2 2.23046875 5.87890625 C2.22647576 7.44016476 2.21171261 9.00142414 2.1875 10.5625 C2.18685547 11.35591797 2.18621094 12.14933594 2.18554688 12.96679688 C2.14025522 18.85974478 2.14025522 18.85974478 1 20 C-3.66478085 20.42407099 -6.18464006 19.69319525 -10 17 C-9 15 -9 15 -6 14 C-5.34 13.34 -4.68 12.68 -4 12 C-4 13.98 -4 15.96 -4 18 C-3.34 18 -2.68 18 -2 18 C-2 12.72 -2 7.44 -2 2 C-1.34 2 -0.68 2 0 2 C0 1.34 0 0.68 0 0 Z " fill="#2385FC" transform="translate(86,78)"/>
<path d="M0 0 C0.33 6.27 0.66 12.54 1 19 C-0.32 18.01 -1.64 17.02 -3 16 C-4.31836295 15.30419733 -5.64791086 14.62775567 -7 14 C-6.855625 13.29875 -6.71125 12.5975 -6.5625 11.875 C-5.94807803 8.97213727 -5.94807803 8.97213727 -5.6875 5.875 C-5 3 -5 3 -3 1.125 C-1 0 -1 0 0 0 Z " fill="#0962E1" transform="translate(87,50)"/>
<path d="M0 0 C2.11390334 1.04725487 4.21284979 2.1129407 6.296875 3.21875 C11.50115194 5.93690738 16.24487949 7.82766064 22 9 C22 9.33 22 9.66 22 10 C11.44 10 0.88 10 -10 10 C-10 9.67 -10 9.34 -10 9 C-5.05 8.67 -0.1 8.34 5 8 C5.33 7.01 5.66 6.02 6 5 C5.01 5.33 4.02 5.66 3 6 C1.5 4.6875 1.5 4.6875 0 3 C0 2.01 0 1.02 0 0 Z " fill="#F6FAFD" transform="translate(34,58)"/>
<path d="M0 0 C3.9172412 0.10995451 7.83352845 0.24056734 11.75 0.375 C13.41675781 0.42140625 13.41675781 0.42140625 15.1171875 0.46875 C16.18710937 0.50742188 17.25703125 0.54609375 18.359375 0.5859375 C19.34389648 0.6173584 20.32841797 0.6487793 21.34277344 0.68115234 C24.00852201 1.00102258 25.70616405 1.64368621 28 3 C24.25 4.125 24.25 4.125 22 3 C21.67 3.66 21.34 4.32 21 5 C20.360625 4.814375 19.72125 4.62875 19.0625 4.4375 C18.0415625 4.2209375 18.0415625 4.2209375 17 4 C16.67 4.33 16.34 4.66 16 5 C13.66702567 5.04092937 11.33294775 5.04241723 9 5 C8.67 4.01 8.34 3.02 8 2 C5.36 2 2.72 2 0 2 C0 1.34 0 0.68 0 0 Z " fill="#1A73E8" transform="translate(16,69)"/>
<path d="M0 0 C3.3 0 6.6 0 10 0 C10 2.31 10 4.62 10 7 C6.04 7 2.08 7 -2 7 C-1.34 5.68 -0.68 4.36 0 3 C0 2.01 0 1.02 0 0 Z " fill="#28385B" transform="translate(336,113)"/>
<path d="M0 0 C4.29 0 8.58 0 13 0 C13.103125 2.124375 13.20625 4.24875 13.3125 6.4375 C13.99826823 15.74703854 15.52446996 22.17444131 22 29 C20.68 29.33 19.36 29.66 18 30 C11.84363185 21.11374383 11.02626123 13.46509942 11 3 C7.37 2.34 3.74 1.68 0 1 C0 0.67 0 0.34 0 0 Z " fill="#DCF2FD" transform="translate(23,93)"/>
<path d="M0 0 C0.9075 0.103125 1.815 0.20625 2.75 0.3125 C2.75 1.3025 2.75 2.2925 2.75 3.3125 C2.09 3.3125 1.43 3.3125 0.75 3.3125 C0.75 4.3025 0.75 5.2925 0.75 6.3125 C6.70795479 8.29848493 12.49892565 8.88295059 18.75 9.3125 C18.75 9.6425 18.75 9.9725 18.75 10.3125 C8.90017092 10.86242842 1.26702863 11.04511543 -7.25 5.3125 C-4.05 0.38942308 -4.05 0.38942308 0 0 Z " fill="#3C8CF3" transform="translate(45.25,55.6875)"/>
<path d="M0 0 C0.33 0 0.66 0 1 0 C1 18.81 1 37.62 1 57 C-2.3 56.34 -5.6 55.68 -9 55 C-8.01 54.34 -7.02 53.68 -6 53 C-4.02 53.66 -2.04 54.32 0 55 C0 36.85 0 18.7 0 0 Z " fill="#467FDB" transform="translate(116,16)"/>
<path d="M0 0 C0.66 0.33 1.32 0.66 2 1 C2 15.19 2 29.38 2 44 C1.67 44 1.34 44 1 44 C0.66103732 41.16724047 0.32870306 38.33395339 0 35.5 C-0.14308594 34.31277344 -0.14308594 34.31277344 -0.2890625 33.1015625 C-0.87107882 28.02970596 -1.09367085 23.10506141 -1 18 C-0.34 18 0.32 18 1 18 C0.67 12.06 0.34 6.12 0 0 Z " fill="#2461CA" transform="translate(59,70)"/>
<path d="M0 0 C2 4 2 4 2.7890625 5.9296875 C5.25335958 11.66436013 8.62821457 14.87160389 14 18 C17.29172761 19.38003885 17.29172761 19.38003885 20 20 C20 20.33 20 20.66 20 21 C16.9375 21.875 16.9375 21.875 13 22 C9.12825342 19.69243904 6.48253351 16.72380026 4 13 C2.68 13 1.36 13 0 13 C0 8.71 0 4.42 0 0 Z " fill="#DDF3FA" transform="translate(0,72)"/>
<path d="M0 0 C5.06955283 -0.10561568 9.91930107 0.05901285 14.9375 0.77734375 C18.61742084 1.17460793 22.30401426 1.0769997 26 1 C24 4 24 4 21.3984375 4.73046875 C19.90183594 4.95669922 19.90183594 4.95669922 18.375 5.1875 C17.37210938 5.34605469 16.36921875 5.50460938 15.3359375 5.66796875 C14.17964844 5.83232422 14.17964844 5.83232422 13 6 C12.67 5.34 12.34 4.68 12 4 C9.69 4 7.38 4 5 4 C5 3.34 5 2.68 5 2 C3.35 1.67 1.7 1.34 0 1 C0 0.67 0 0.34 0 0 Z " fill="#045FDA" transform="translate(59,42)"/>
<path d="M0 0 C1.65 0 3.3 0 5 0 C4.49396008 2.16874252 4.00016187 3.99967627 3 6 C3.66 6 4.32 6 5 6 C5.66 4.68 6.32 3.36 7 2 C7 5.96 7 9.92 7 14 C6.443125 13.278125 5.88625 12.55625 5.3125 11.8125 C3.02090666 9.02542701 0.58540143 6.51358472 -2 4 C-1.34 2.68 -0.68 1.36 0 0 Z " fill="#F4F4F3" transform="translate(327,48)"/>
<path d="M0 0 C1.65 0 3.3 0 5 0 C5 2.31 5 4.62 5 7 C3.02 7.66 1.04 8.32 -1 9 C-2.32 7.68 -3.64 6.36 -5 5 C-4.01 4.67 -3.02 4.34 -2 4 C-0.79117904 1.99983534 -0.79117904 1.99983534 0 0 Z " fill="#2786FB" transform="translate(53,116)"/>
<path d="M0 0 C3.3 0 6.6 0 10 0 C10 3.63 10 7.26 10 11 C9.67 11 9.34 11 9 11 C9 9.35 9 7.7 9 6 C8.01 6.33 7.02 6.66 6 7 C3.3125 6.5625 3.3125 6.5625 1 6 C0 3 0 3 0 0 Z " fill="#2F3E59" transform="translate(266,49)"/>
<path d="M0 0 C4.95 0.99 4.95 0.99 10 2 C10 4 10 4 8.1875 6.125 C6 8 6 8 3 8 C3 7.01 3 6.02 3 5 C2.34 5 1.68 5 1 5 C1.33 7.31 1.66 9.62 2 12 C1.34 12 0.68 12 0 12 C0 8.04 0 4.08 0 0 Z " fill="#23304B" transform="translate(149,106)"/>
<path d="M0 0 C2.69423287 4.04134931 3.11848959 5.80989528 3.0625 10.625 C3.05347656 11.62789062 3.04445313 12.63078125 3.03515625 13.6640625 C3.02355469 14.43492188 3.01195313 15.20578125 3 16 C1.68 16 0.36 16 -1 16 C-1.02692484 13.70839681 -1.04636124 11.41670454 -1.0625 9.125 C-1.07410156 7.84882812 -1.08570312 6.57265625 -1.09765625 5.2578125 C-1 2 -1 2 0 0 Z " fill="#1873EB" transform="translate(85,64)"/>
<path d="M0 0 C0.66 0 1.32 0 2 0 C2.66 1.65 3.32 3.3 4 5 C4.99 5 5.98 5 7 5 C7.2475 5.94875 7.495 6.8975 7.75 7.875 C8.6857077 11.08693191 8.6857077 11.08693191 11.125 12.375 C11.74375 12.58125 12.3625 12.7875 13 13 C13 13.66 13 14.32 13 15 C15.97 15.495 15.97 15.495 19 16 C19 16.66 19 17.32 19 18 C12.0247931 16.81273074 7.76374125 13.11555447 3 8 C0 3.09090909 0 3.09090909 0 0 Z " fill="#3B87E1" transform="translate(57,20)"/>
<path d="M0 0 C0.99 0.99 1.98 1.98 3 3 C2.0925 3.53625 1.185 4.0725 0.25 4.625 C-3.11617302 6.83728392 -4.89619844 9.57158264 -7 13 C-7.33 13 -7.66 13 -8 13 C-8 9.04 -8 5.08 -8 1 C-7.67 1.66 -7.34 2.32 -7 3 C-6.34 3.33 -5.68 3.66 -5 4 C-3.84188612 2.94729537 -3.84188612 2.94729537 -3 1 C-2.01 0.67 -1.02 0.34 0 0 Z " fill="#E0E8F1" transform="translate(258,49)"/>
<path d="M0 0 C0.99 0.33 1.98 0.66 3 1 C2.50153711 4.68862535 1.9758353 6.68546144 -1 9 C-3.0625 10.125 -3.0625 10.125 -5 11 C-5.99 11.495 -5.99 11.495 -7 12 C-5.63855967 6.80177328 -3.53269829 3.90456127 0 0 Z " fill="#F0F5F8" transform="translate(301,63)"/>
<path d="M0 0 C3.3 0 6.6 0 10 0 C9.34 1.32 8.68 2.64 8 4 C8.99 4.33 9.98 4.66 11 5 C9.54263913 5.19491452 8.08405407 5.38069358 6.625 5.5625 C5.81289063 5.66691406 5.00078125 5.77132812 4.1640625 5.87890625 C2 6 2 6 0 5 C0 3.33333333 0 1.66666667 0 0 Z " fill="#2A3D5D" transform="translate(309,54)"/>
<path d="M0 0 C0.99 0.66 1.98 1.32 3 2 C2.67 4.31 2.34 6.62 2 9 C1.34 9 0.68 9 0 9 C0.66 10.98 1.32 12.96 2 15 C-1.75283733 13.54728878 -1.75283733 13.54728878 -2.875 11.0625 C-3 9 -3 9 -1 6 C-1.66 4.68 -2.32 3.36 -3 2 C-2.01 1.34 -1.02 0.68 0 0 Z " fill="#1F3350" transform="translate(289,97)"/>
<path d="M0 0 C3.96 0 7.92 0 12 0 C12 0.33 12 0.66 12 1 C8.37 1 4.74 1 1 1 C1.33 2.32 1.66 3.64 2 5 C5.3 5.33 8.6 5.66 12 6 C12 6.66 12 7.32 12 8 C6.06 8.495 6.06 8.495 0 9 C0 6.03 0 3.06 0 0 Z " fill="#1A2C40" transform="translate(334,50)"/>
<path d="M0 0 C0.99 0.66 1.98 1.32 3 2 C2.79375 3.0725 2.5875 4.145 2.375 5.25 C2.0123809 8.87619096 2.01637931 10.08291076 4 13 C3.34 13.66 2.68 14.32 2 15 C0.68 14.34 -0.64 13.68 -2 13 C-1.34 13 -0.68 13 0 13 C-0.33 11.906875 -0.66 10.81375 -1 9.6875 C-2 6 -2 6 -2 3 C-1.34 2.01 -0.68 1.02 0 0 Z " fill="#E5E9F1" transform="translate(204,25)"/>
<path d="M0 0 C0.33 0 0.66 0 1 0 C1 6.6 1 13.2 1 20 C-6.875 20 -6.875 20 -11 18 C-7.37900892 16.8858489 -5.08844645 17 -1 17 C-0.67 11.39 -0.34 5.78 0 0 Z " fill="#467DE6" transform="translate(88,80)"/>
<path d="M0 0 C1.32 0.66 2.64 1.32 4 2 C4 3.32 4 4.64 4 6 C4.30830925 8.00401011 4.63729412 10.00511766 5 12 C4.34 12 3.68 12 3 12 C2.34 11.34 1.68 10.68 1 10 C0.34 9.67 -0.32 9.34 -1 9 C-1 7.68 -1 6.36 -1 5 C-0.34 5 0.32 5 1 5 C0.67 3.35 0.34 1.7 0 0 Z " fill="#2186FD" transform="translate(69,80)"/>
<path d="M0 0 C2.64 0 5.28 0 8 0 C7.67 3.3 7.34 6.6 7 10 C6.01 8.68 5.02 7.36 4 6 C3.278125 5.29875 2.55625 4.5975 1.8125 3.875 C0 2 0 2 0 0 Z " fill="#0F63E3" transform="translate(43,78)"/>
<path d="M0 0 C1.485 0.680625 1.485 0.680625 3 1.375 C6.92110131 3.06692715 10.84092487 4.05143901 15 5 C11.54785147 7.30143236 10.76520676 7.13833854 6.8125 6.625 C5.91144531 6.51414062 5.01039062 6.40328125 4.08203125 6.2890625 C3.05142578 6.14597656 3.05142578 6.14597656 2 6 C1.34 4.02 0.68 2.04 0 0 Z " fill="#E3F5FD" transform="translate(102,68)"/>
<path d="M0 0 C1.17949219 0.01804688 2.35898437 0.03609375 3.57421875 0.0546875 C4.92966797 0.08949219 4.92966797 0.08949219 6.3125 0.125 C6.3125 1.115 6.3125 2.105 6.3125 3.125 C5.3225 3.62 5.3225 3.62 4.3125 4.125 C4.3125 3.465 4.3125 2.805 4.3125 2.125 C3.673125 2.310625 3.03375 2.49625 2.375 2.6875 C-1.76084611 3.27833516 -5.5726173 2.70771759 -9.6875 2.125 C-6.05554504 -0.29630331 -4.30400652 -0.08522785 0 0 Z " fill="#EBF1EC" transform="translate(313.6875,59.875)"/>
<path d="M0 0 C1.75570313 0.01353516 1.75570313 0.01353516 3.546875 0.02734375 C4.43890625 0.03894531 5.3309375 0.05054688 6.25 0.0625 C6.25 0.3925 6.25 0.7225 6.25 1.0625 C-0.185 1.5575 -0.185 1.5575 -6.75 2.0625 C-7.08 3.0525 -7.41 4.0425 -7.75 5.0625 C-10.06 4.7325 -12.37 4.4025 -14.75 4.0625 C-9.89822415 0.0771127 -6.20790867 -0.06207909 0 0 Z " fill="#202C46" transform="translate(310.75,48.9375)"/>
<path d="M0 0 C1.65 0.33 3.3 0.66 5 1 C5 1.66 5 2.32 5 3 C1.99686252 4.50156874 -0.79067522 4.09281204 -4.125 4.0625 C-5.40632812 4.05347656 -6.68765625 4.04445313 -8.0078125 4.03515625 C-9.48894531 4.01775391 -9.48894531 4.01775391 -11 4 C-10.34 3.01 -9.68 2.02 -9 1 C-6.03 1.33 -3.06 1.66 0 2 C0 1.34 0 0.68 0 0 Z " fill="#1F2F48" transform="translate(169,116)"/>
<path d="M0 0 C0.66 0 1.32 0 2 0 C2 1.65 2 3.3 2 5 C-2.62 5.33 -7.24 5.66 -12 6 C-7.30803252 2.24642602 -6.42420299 1.6163867 -1 1 C-0.67 0.67 -0.34 0.34 0 0 Z " fill="#202F48" transform="translate(273,55)"/>
<path d="M0 0 C0.33 0.99 0.66 1.98 1 3 C2.65 2.67 4.3 2.34 6 2 C5.34 2.66 4.68 3.32 4 4 C4.3185177 6.10820797 4.3185177 6.10820797 5 8 C3.125 8.625 3.125 8.625 1 9 C0.34 8.34 -0.32 7.68 -1 7 C-1.99 7 -2.98 7 -4 7 C-4 6.34 -4 5.68 -4 5 C-3.01 5 -2.02 5 -1 5 C-0.67 3.35 -0.34 1.7 0 0 Z " fill="#273E5B" transform="translate(319,109)"/>
<path d="M0 0 C0.598125 0.804375 1.19625 1.60875 1.8125 2.4375 C3.80947276 5.22327984 3.80947276 5.22327984 7 6 C7 7.32 7 8.64 7 10 C7.66 10 8.32 10 9 10 C9.33 10.99 9.66 11.98 10 13 C7 13 7 13 5.4296875 11.6796875 C2.14137125 7.86259678 0.25516099 5.23080035 0 0 Z " fill="#E8F1F4" transform="translate(294,94)"/>
<path d="M0 0 C1.32 0 2.64 0 4 0 C3.125 5.75 3.125 5.75 2 8 C2.66 8.33 3.32 8.66 4 9 C3.34 10.98 2.68 12.96 2 15 C2.66 15.33 3.32 15.66 4 16 C3.01 16 2.02 16 1 16 C0.67 10.72 0.34 5.44 0 0 Z " fill="#1989FE" transform="translate(64,64)"/>
<path d="M0 0 C3.63 0 7.26 0 11 0 C11 0.99 11 1.98 11 3 C7.04 3 3.08 3 -1 3 C-0.67 2.01 -0.34 1.02 0 0 Z " fill="#35435D" transform="translate(335,117)"/>
<path d="M0 0 C0.33 0 0.66 0 1 0 C1.33 2.31 1.66 4.62 2 7 C1.34 7 0.68 7 0 7 C0.66 8.98 1.32 10.96 2 13 C1.01 13.99 0.02 14.98 -1 16 C-1.99 15.34 -2.98 14.68 -4 14 C-3.2884375 12.205625 -3.2884375 12.205625 -2.5625 10.375 C-1.26517227 6.93585762 -0.45763049 3.66104396 0 0 Z " fill="#DCE2E8" transform="translate(189,96)"/>
<path d="M0 0 C2.48862878 3.23521742 4.75421558 6.59260295 7 10 C5.02 10 3.04 10 1 10 C-1.125 3.375 -1.125 3.375 0 0 Z " fill="#E5F2FB" transform="translate(57,22)"/>
<path d="M0 0 C0.99 0.33 1.98 0.66 3 1 C2 4 2 4 0 5 C-0.99 6.485 -0.99 6.485 -2 8 C-3.98 5.69 -5.96 3.38 -8 1 C-6.68 1 -5.36 1 -4 1 C-4 1.99 -4 2.98 -4 4 C-3.34 4 -2.68 4 -2 4 C-1.34 2.68 -0.68 1.36 0 0 Z " fill="#3481EB" transform="translate(76,88)"/>
<path d="M0 0 C2.475 0.495 2.475 0.495 5 1 C4.67 1.66 4.34 2.32 4 3 C4.33 3.99 4.66 4.98 5 6 C4.0625 9.1875 4.0625 9.1875 3 12 C2.67 12 2.34 12 2 12 C1.34 8.04 0.68 4.08 0 0 Z " fill="#267FFB" transform="translate(2,70)"/>
<path d="M0 0 C1.32 0 2.64 0 4 0 C4 0.66 4 1.32 4 2 C4.66 2.33 5.32 2.66 6 3 C6.33 3.99 6.66 4.98 7 6 C6.01 6.33 5.02 6.66 4 7 C3.67 7.66 3.34 8.32 3 9 C2.34 8.34 1.68 7.68 1 7 C1.33 6.01 1.66 5.02 2 4 C0.68 3.34 -0.64 2.68 -2 2 C-1.34 1.34 -0.68 0.68 0 0 Z " fill="#2D3F5D" transform="translate(257,53)"/>
<path d="M0 0 C0 0.66 0 1.32 0 2 C-0.99 2.495 -0.99 2.495 -2 3 C-1.54625 3.45375 -1.0925 3.9075 -0.625 4.375 C0.58333333 5.58333333 1.79166667 6.79166667 3 8 C-2.03985731 7.55530671 -4.37634988 5.28656638 -8 2 C-4.91190305 0.23537317 -3.76687864 0 0 0 Z " fill="#3082E4" transform="translate(51,118)"/>
<path d="M0 0 C0.66 0.33 1.32 0.66 2 1 C1.25 5.75 1.25 5.75 -1 8 C-2.98 6.35 -4.96 4.7 -7 3 C-5.68 2.34 -4.36 1.68 -3 1 C-3 1.66 -3 2.32 -3 3 C-0.83333333 2.16666667 -0.83333333 2.16666667 0 0 Z " fill="#33405E" transform="translate(296,110)"/>
<path d="M0 0 C0.33 0 0.66 0 1 0 C1 4.62 1 9.24 1 14 C1.99 14 2.98 14 4 14 C4 16.64 4 19.28 4 22 C0.15864483 17.15655217 -0.13567328 13.34085223 -0.0625 7.3125 C-0.05798828 6.61060547 -0.05347656 5.90871094 -0.04882812 5.18554688 C-0.03706927 3.45699462 -0.01913454 1.72848635 0 0 Z " fill="#317EE1" transform="translate(64,66)"/>
<path d="M0 0 C0.33 0.66 0.66 1.32 1 2 C1.99 2.33 2.98 2.66 4 3 C2 6 2 6 -0.625 6.6875 C-1.800625 6.8421875 -1.800625 6.8421875 -3 7 C-3.33 5.02 -3.66 3.04 -4 1 C-2.68 0.67 -1.36 0.34 0 0 Z " fill="#2F3D5D" transform="translate(217,33)"/>
<path d="M0 0 C2.97 0 5.94 0 9 0 C9.33 0.99 9.66 1.98 10 3 C6.37 3 2.74 3 -1 3 C-0.67 2.01 -0.34 1.02 0 0 Z " fill="#36415B" transform="translate(240,117)"/>
<path d="M0 0 C0.33 0.66 0.66 1.32 1 2 C2.98 2 4.96 2 7 2 C7 2.66 7 3.32 7 4 C7.99 4.33 8.98 4.66 10 5 C8.56589632 5.24954005 7.12739928 5.47392642 5.6875 5.6875 C4.88699219 5.81511719 4.08648437 5.94273438 3.26171875 6.07421875 C1 6 1 6 -0.79296875 4.51953125 C-1.19128906 4.01808594 -1.58960938 3.51664062 -2 3 C-1.34 3 -0.68 3 0 3 C0 2.01 0 1.02 0 0 Z " fill="#2F84F8" transform="translate(14,84)"/>
<path d="M0 0 C1.65 1.32 3.3 2.64 5 4 C4.67 5.98 4.34 7.96 4 10 C3.01 10 2.02 10 1 10 C0.67 6.7 0.34 3.4 0 0 Z " fill="#273149" transform="translate(327,54)"/>
<path d="M0 0 C0.66 1.32 1.32 2.64 2 4 C2.66 4 3.32 4 4 4 C4.33 7.3 4.66 10.6 5 14 C1.31097845 10.31097845 0.10136458 7.33138538 -0.125 2.125 C-0.08375 1.42375 -0.0425 0.7225 0 0 Z " fill="#2F7FF0" transform="translate(92,48)"/>
<path d="M0 0 C0.33 0 0.66 0 1 0 C1 3.96 1 7.92 1 12 C0.67 12 0.34 12 0 12 C-0.33 10.35 -0.66 8.7 -1 7 C-2.65 7.33 -4.3 7.66 -6 8 C-5.02471263 6.66382648 -4.04466681 5.3311249 -3.0625 4 C-2.24458984 2.88625 -2.24458984 2.88625 -1.41015625 1.75 C-0.94480469 1.1725 -0.47945313 0.595 0 0 Z " fill="#D8E2EE" transform="translate(333,108)"/>
<path d="M0 0 C0.66 0.66 1.32 1.32 2 2 C1.9765625 4.1640625 1.9765625 4.1640625 1.625 6.625 C1.51414063 7.44226563 1.40328125 8.25953125 1.2890625 9.1015625 C1.19367188 9.72804688 1.09828125 10.35453125 1 11 C0.34 11 -0.32 11 -1 11 C-0.979375 10.2575 -0.95875 9.515 -0.9375 8.75 C-0.88266896 6.06173778 -0.88266896 6.06173778 -1.625 3.8125 C-1.74875 3.214375 -1.8725 2.61625 -2 2 C-1.34 1.34 -0.68 0.68 0 0 Z " fill="#243046" transform="translate(187,94)"/>
<path d="M0 0 C0.66 0.66 1.32 1.32 2 2 C4.20250992 2.46006346 4.20250992 2.46006346 6.625 2.625 C7.44226562 2.69976562 8.25953125 2.77453125 9.1015625 2.8515625 C9.72804688 2.90054688 10.35453125 2.94953125 11 3 C11 3.33 11 3.66 11 4 C8.36 4.33 5.72 4.66 3 5 C3 6.98 3 8.96 3 11 C1 10 1 10 0.33203125 8.22265625 C0.07486328 7.15337891 0.07486328 7.15337891 -0.1875 6.0625 C-0.36667969 5.35222656 -0.54585937 4.64195313 -0.73046875 3.91015625 C-1 2 -1 2 0 0 Z " fill="#3683F0" transform="translate(29,42)"/>
<path d="M0 0 C2.74501997 3.61186839 5.37012014 7.30395263 8 11 C6.35 11.33 4.7 11.66 3 12 C2.87625 11.195625 2.7525 10.39125 2.625 9.5625 C2.315625 8.2940625 2.315625 8.2940625 2 7 C1.34 6.67 0.68 6.34 0 6 C0 4.02 0 2.04 0 0 Z " fill="#DEEEFB" transform="translate(65,84)"/>
<path d="M0 0 C0.33 0 0.66 0 1 0 C2.125 7.75 2.125 7.75 1 10 C-2 9 -2 9 -3.1875 6.9375 C-3.455625 6.298125 -3.72375 5.65875 -4 5 C-3.34 4.34 -2.68 3.68 -2 3 C-1.34 2.01 -0.68 1.02 0 0 Z " fill="#2E3A5A" transform="translate(332,60)"/>
<path d="M0 0 C3.77727089 1.81309003 7.37269822 3.9073259 11 6 C11 6.33 11 6.66 11 7 C9.35 7 7.7 7 6 7 C6 6.34 6 5.68 6 5 C5.01 5.33 4.02 5.66 3 6 C1.5 4.6875 1.5 4.6875 0 3 C0 2.01 0 1.02 0 0 Z " fill="#E0F2FA" transform="translate(34,58)"/>
<path d="M0 0 C0.33 0.99 0.66 1.98 1 3 C1.99 3.33 2.98 3.66 4 4 C2.75 5.5625 2.75 5.5625 1 7 C-1.125 6.875 -1.125 6.875 -3 6 C-3.33 5.01 -3.66 4.02 -4 3 C-2.68 2.67 -1.36 2.34 0 2 C0 1.34 0 0.68 0 0 Z " fill="#2181F3" transform="translate(39,53)"/>
<path d="M0 0 C0.99 0 1.98 0 3 0 C4.15941038 3.47823115 3.70820884 5.45895578 3 9 C2.01 9 1.02 9 0 9 C0 6.03 0 3.06 0 0 Z " fill="#F9FCF3" transform="translate(24,35)"/>
<path d="M0 0 C0.99 0 1.98 0 3 0 C3 3.66666667 3 7.33333333 3 11 C2.34 11.66 1.68 12.32 1 13 C0.34 12.67 -0.32 12.34 -1 12 C-0.7525 11.2575 -0.7525 11.2575 -0.5 10.5 C0.20688818 6.96555911 0.06005155 3.60309299 0 0 Z " fill="#E8F0F6" transform="translate(221,27)"/>
<path d="M0 0 C0.56847656 0.27714844 1.13695313 0.55429688 1.72265625 0.83984375 C6.56053853 3.10936783 10.67198412 4.54655184 16 5 C13 7 13 7 10.37109375 6.57421875 C8.91896484 6.13529297 8.91896484 6.13529297 7.4375 5.6875 C6.46683594 5.40261719 5.49617188 5.11773437 4.49609375 4.82421875 C2 4 2 4 0 3 C0 2.01 0 1.02 0 0 Z " fill="#D4F3FC" transform="translate(73,95)"/>
<path d="M0 0 C2.31 0 4.62 0 7 0 C7.33 1.65 7.66 3.3 8 5 C5.69 4.67 3.38 4.34 1 4 C0.67 2.68 0.34 1.36 0 0 Z " fill="#FBF8ED" transform="translate(112,8)"/>
<path d="M0 0 C8.57142857 -0.28571429 8.57142857 -0.28571429 12 2 C8.25 3.125 8.25 3.125 6 2 C5.67 2.66 5.34 3.32 5 4 C2.525 3.01 2.525 3.01 0 2 C0 1.34 0 0.68 0 0 Z " fill="#0C67E3" transform="translate(32,70)"/>
<path d="M0 0 C0 1.65 0 3.3 0 5 C-3 6 -3 6 -5.1875 5.0625 C-5.785625 4.711875 -6.38375 4.36125 -7 4 C-3.375 0 -3.375 0 0 0 Z " fill="#20324A" transform="translate(296,54)"/>
<path d="M0 0 C0.33 0 0.66 0 1 0 C1 3.96 1 7.92 1 12 C-3 7.25 -3 7.25 -3 5 C-2.34 5 -1.68 5 -1 5 C-0.67 3.35 -0.34 1.7 0 0 Z " fill="#DCE7F3" transform="translate(333,50)"/>
<path d="M0 0 C0.99 0 1.98 0 3 0 C2.67 1.65 2.34 3.3 2 5 C1.34 5 0.68 5 0 5 C0 7.64 0 10.28 0 13 C-0.33 13 -0.66 13 -1 13 C-1.02696365 11.20841511 -1.04637917 9.41671527 -1.0625 7.625 C-1.07410156 6.62726562 -1.08570312 5.62953125 -1.09765625 4.6015625 C-1 2 -1 2 0 0 Z " fill="#2184E4" transform="translate(93,35)"/>
<path d="M0 0 C4.66666667 2.33333333 9.33333333 4.66666667 14 7 C4.01721794 6.36927957 4.01721794 6.36927957 0 3 C0 2.01 0 1.02 0 0 Z " fill="#E0F8FE" transform="translate(64,32)"/>
<path d="M0 0 C1.258125 -0.04125 2.51625 -0.0825 3.8125 -0.125 C4.52019531 -0.14820312 5.22789063 -0.17140625 5.95703125 -0.1953125 C8 0 8 0 11 2 C8.3125 3.25 8.3125 3.25 5 4 C2.125 2.125 2.125 2.125 0 0 Z " fill="#FAF8E6" transform="translate(73,100)"/>
<path d="M0 0 C-0.99 1.485 -0.99 1.485 -2 3 C-2.99 3 -3.98 3 -5 3 C-5 3.66 -5 4.32 -5 5 C-6.65 4.67 -8.3 4.34 -10 4 C-6.66064924 0.50886057 -4.84725717 -0.1275594 0 0 Z " fill="#212F45" transform="translate(268,50)"/>
<path d="M0 0 C2 1 2 1 3.0625 4 C3.371875 4.99 3.68125 5.98 4 7 C4.33 7.33 4.66 7.66 5 8 C5.04063832 9.66617115 5.042721 11.33388095 5 13 C2.03472242 10.5546615 1.44417786 8.55397653 0.8125 4.8125 C0.65394531 3.91144531 0.49539062 3.01039062 0.33203125 2.08203125 C0.22246094 1.39496094 0.11289062 0.70789063 0 0 Z " fill="#3987E5" transform="translate(36,104)"/>
<path d="M0 0 C1.32 0.33 2.64 0.66 4 1 C4 3.31 4 5.62 4 8 C3.67 8 3.34 8 3 8 C3 6.35 3 4.7 3 3 C2.34 3 1.68 3 1 3 C1 5.64 1 8.28 1 11 C0.67 11 0.34 11 0 11 C0 7.37 0 3.74 0 0 Z " fill="#277BF0" transform="translate(36,93)"/>
<path d="M0 0 C2 2 2 2 2.125 4.625 C2.08375 5.40875 2.0425 6.1925 2 7 C1.01 7 0.02 7 -1 7 C-1.625 4.625 -1.625 4.625 -2 2 C-1.34 1.34 -0.68 0.68 0 0 Z " fill="#1967E1" transform="translate(82,58)"/>
<path d="M0 0 C0 0.66 0 1.32 0 2 C-0.639375 2.12375 -1.27875 2.2475 -1.9375 2.375 C-2.618125 2.58125 -3.29875 2.7875 -4 3 C-4.33 3.66 -4.66 4.32 -5 5 C-5.66 3.35 -6.32 1.7 -7 0 C-3.86650268 -1.04449911 -3.01031744 -0.93423645 0 0 Z " fill="#2F87F0" transform="translate(39,53)"/>
<path d="M0 0 C0.99 0.33 1.98 0.66 3 1 C2.67 7.27 2.34 13.54 2 20 C1.67 20 1.34 20 1 20 C0.67 13.4 0.34 6.8 0 0 Z " fill="#135ACF" transform="translate(86,42)"/>
<path d="M0 0 C1.41623216 -0.05447047 2.83308191 -0.09300508 4.25 -0.125 C5.03890625 -0.14820313 5.8278125 -0.17140625 6.640625 -0.1953125 C9.20731941 0.0171622 10.7916067 0.71345895 13 2 C11.68 2 10.36 2 9 2 C9 2.66 9 3.32 9 4 C7.68 4 6.36 4 5 4 C5 3.34 5 2.68 5 2 C3.35 1.67 1.7 1.34 0 1 C0 0.67 0 0.34 0 0 Z " fill="#1263DC" transform="translate(59,42)"/>
<path d="M0 0 C0.99 0.33 1.98 0.66 3 1 C3 2.32 3 3.64 3 5 C1.35 5.33 -0.3 5.66 -2 6 C-2 5.34 -2 4.68 -2 4 C-2.66 3.67 -3.32 3.34 -4 3 C-2.1875 1.4375 -2.1875 1.4375 0 0 Z " fill="#243348" transform="translate(173,104)"/>
<path d="M0 0 C2.09970981 3.9171057 2.99334562 7.68576696 4 12 C3.01 12 2.02 12 1 12 C0.03929566 9.11788698 -0.10581883 7.30149956 -0.0625 4.3125 C-0.05347656 3.50425781 -0.04445313 2.69601563 -0.03515625 1.86328125 C-0.02355469 1.24839844 -0.01195313 0.63351563 0 0 Z " fill="#D8F3FF" transform="translate(27,41)"/>
<path d="M0 0 C5.66153846 2.46153846 5.66153846 2.46153846 7.375 5.1875 C7.58125 5.785625 7.7875 6.38375 8 7 C2.25 5.25 2.25 5.25 0 3 C0 2.01 0 1.02 0 0 Z " fill="#F2F8E7" transform="translate(96,65)"/>
<path d="M0 0 C2 2 2 2 2.125 4.625 C2.08375 5.40875 2.0425 6.1925 2 7 C0.68 6.67 -0.64 6.34 -2 6 C-1.125 1.125 -1.125 1.125 0 0 Z " fill="#2288F0" transform="translate(112,64)"/>
<path d="M0 0 C2.74501997 3.61186839 5.37012014 7.30395263 8 11 C5.50638429 9.79618552 3.31856917 8.54571278 1 7 C0.3125 3.375 0.3125 3.375 0 0 Z " fill="#D8F7FF" transform="translate(93,57)"/>
<path d="M0 0 C0.66 0 1.32 0 2 0 C2 0.66 2 1.32 2 2 C2.99 2.33 3.98 2.66 5 3 C5 3.66 5 4.32 5 5 C2.69 4.67 0.38 4.34 -2 4 C-1.34 2.68 -0.68 1.36 0 0 Z " fill="#394457" transform="translate(301,116)"/>
<path d="M0 0 C0.66 0 1.32 0 2 0 C2.66 1.98 3.32 3.96 4 6 C1.69 5.67 -0.62 5.34 -3 5 C-1.625 2.5 -1.625 2.5 0 0 Z " fill="#1D2D48" transform="translate(330,101)"/>
<path d="M0 0 C2.97 0 5.94 0 9 0 C9.33 0.66 9.66 1.32 10 2 C8.35 1.67 6.7 1.34 5 1 C5 1.99 5 2.98 5 4 C4.01 4 3.02 4 2 4 C2 3.01 2 2.02 2 1 C1.34 0.67 0.68 0.34 0 0 Z " fill="#2A3E5A" transform="translate(294,53)"/>
<path d="M0 0 C0.66 0 1.32 0 2 0 C3.10844919 3.32534757 2.84454356 5.62182575 2 9 C1.34 9 0.68 9 0 9 C-1.125 2.25 -1.125 2.25 0 0 Z " fill="#1C88E8" transform="translate(6,70)"/>
<path d="M0 0 C-0.33 1.32 -0.66 2.64 -1 4 C-4.875 2.25 -4.875 2.25 -6 0 C-3.50907189 -1.24546405 -2.58919267 -0.7767578 0 0 Z " fill="#3D88F3" transform="translate(104,64)"/>
<path d="M0 0 C0.99 0.495 0.99 0.495 2 1 C2.40729228 3.32156597 2.74438677 5.6568787 3 8 C2.01 8 1.02 8 0 8 C0 5.36 0 2.72 0 0 Z " fill="#F7F8EF" transform="translate(91,56)"/>
<path d="M0 0 C0.66 0 1.32 0 2 0 C2 1.98 2 3.96 2 6 C1.01 6.495 1.01 6.495 0 7 C-0.99 6.01 -1.98 5.02 -3 4 C-2.505 3.525625 -2.01 3.05125 -1.5 2.5625 C0.11542197 1.24076302 0.11542197 1.24076302 0 0 Z " fill="#1E2F41" transform="translate(220,29)"/>
<path d="M0 0 C1.32 0 2.64 0 4 0 C4 2.64 4 5.28 4 8 C3.34 7.67 2.68 7.34 2 7 C1.65657551 5.66923011 1.32380126 4.33568021 1 3 C0.34 2.34 -0.32 1.68 -1 1 C-0.67 0.67 -0.34 0.34 0 0 Z " fill="#F4F9F9" transform="translate(145,106)"/>
<path d="M0 0 C1.32 0.66 2.64 1.32 4 2 C4 2.66 4 3.32 4 4 C2 5.625 2 5.625 0 7 C-0.66 6.34 -1.32 5.68 -2 5 C-1.34 3.35 -0.68 1.7 0 0 Z " fill="#314159" transform="translate(176,98)"/>
<path d="M0 0 C-2.61514317 2.12038635 -5.19637616 4.13091744 -8 6 C-8 4.68 -8 3.36 -8 2 C-4.77208445 -0.1519437 -3.71599191 -0.20086443 0 0 Z " fill="#E2EAF2" transform="translate(298,51)"/>
<path d="M0 0 C0.91007812 0.00902344 1.82015625 0.01804687 2.7578125 0.02734375 C3.45648438 0.03894531 4.15515625 0.05054687 4.875 0.0625 C4.875 0.3925 4.875 0.7225 4.875 1.0625 C3.2353125 1.2790625 3.2353125 1.2790625 1.5625 1.5 C-2.05622987 1.94538104 -2.05622987 1.94538104 -5.125 3.0625 C-5.785 2.4025 -6.445 1.7425 -7.125 1.0625 C-4.60024538 -0.19987731 -2.81299534 -0.03606404 0 0 Z " fill="#F1F1F8" transform="translate(307.125,120.9375)"/>
<path d="M0 0 C0.99 0.33 1.98 0.66 3 1 C1.68 2.32 0.36 3.64 -1 5 C-1.99 4.67 -2.98 4.34 -4 4 C-2.68 2.68 -1.36 1.36 0 0 Z " fill="#242F47" transform="translate(327,112)"/>
<path d="M0 0 C0.99 0 1.98 0 3 0 C3 0.66 3 1.32 3 2 C3.66 2 4.32 2 5 2 C5.33 1.34 5.66 0.68 6 0 C6.33 1.32 6.66 2.64 7 4 C5.68 4.33 4.36 4.66 3 5 C2.01 3.35 1.02 1.7 0 0 Z " fill="#253050" transform="translate(174,112)"/>
<path d="M0 0 C1.98 0.495 1.98 0.495 4 1 C4 1.99 4 2.98 4 4 C2.35 4 0.7 4 -1 4 C-0.67 2.68 -0.34 1.36 0 0 Z " fill="#FCF6F3" transform="translate(1,84)"/>
<path d="M0 0 C1.98 0.495 1.98 0.495 4 1 C3.67 2.32 3.34 3.64 3 5 C1.68 4.34 0.36 3.68 -1 3 C-0.67 2.01 -0.34 1.02 0 0 Z " fill="#2088F8" transform="translate(13,75)"/>
</svg>
