<?xml version="1.0" encoding="UTF-8"?>
<svg version="1.1" xmlns="http://www.w3.org/2000/svg" width="946" height="1024">
<path d="M0 0 C3.97001836 0.00525268 7.94003556 0.00861236 11.91005635 0.01114202 C74.59320793 0.05179593 137.27627938 0.22621567 199.9590714 0.43434834 C200.77682968 0.43706301 201.59458796 0.43977767 202.43712679 0.4425746 C203.25564591 0.44529231 204.07416502 0.44801001 204.91748774 0.45081007 C205.73677195 0.45352987 206.55605615 0.45624967 207.40016715 0.45905189 C209.05679014 0.4645525 210.71341312 0.47005776 212.37003608 0.47556765 C225.95464271 0.5206566 239.53925938 0.56104504 253.12388586 0.59963977 C267.35025922 0.64011761 281.5766178 0.68416211 295.8029688 0.7318657 C303.68334952 0.7582142 311.56372825 0.78313898 319.44412541 0.80406117 C326.06015432 0.82164494 332.67616266 0.8425203 339.29216736 0.86765557 C342.64659004 0.88030594 346.00098558 0.89094724 349.35542607 0.89840627 C375.12332782 0.95749706 375.12332782 0.95749706 386.47726941 2.09498715 C383.84222929 33.06627031 381.14539805 64.03137627 378.34958386 94.98854184 C378.28113025 95.74651781 378.21267663 96.50449378 378.14214866 97.28543872 C377.27275719 106.90996203 376.40135994 116.5343034 375.52950558 126.15860386 C374.65936161 135.76518034 373.79131689 145.3719464 372.92329907 154.97871518 C372.67643396 157.71074579 372.42956537 160.44277608 372.18269647 163.17480634 C372.01629165 165.01636617 371.84988895 166.85792618 371.68348833 168.69948639 C371.09203755 175.24493527 370.50039351 181.79036666 369.90865922 188.33578992 C366.05078515 231.01009525 362.19944136 273.68498862 358.35617566 316.36061215 C358.22657292 317.79971173 358.22657292 317.79971173 358.09435195 319.26788402 C352.14412313 385.34214437 346.25452723 451.42127877 340.49593282 517.51255679 C340.13840533 521.61454293 339.78040645 525.71648788 339.42241538 529.81843358 C336.11697693 567.69583054 332.84129395 605.57544718 329.67499673 643.4647516 C329.20573869 649.07908172 328.73452492 654.69324458 328.2619679 660.30729795 C328.13247926 661.84619064 328.00299126 663.38508338 327.87350392 664.92397618 C327.68359785 667.18081456 327.49365447 669.43764976 327.3035717 671.69447327 C326.53776135 680.78939733 325.78499375 689.8852351 325.04725862 698.98247933 C324.64780371 703.87891347 324.23774902 708.7744158 323.82468724 713.66971898 C323.6396428 715.89179838 323.45937476 718.11428153 323.28425527 720.33716512 C323.04911695 723.31710587 322.79769685 726.29522097 322.54196668 729.27345395 C322.47812158 730.13651402 322.41427648 730.9995741 322.34849668 731.88878751 C321.82644877 737.6762555 321.82644877 737.6762555 320.07190251 739.78028607 C318.03712071 741.45786936 316.26312062 741.97591507 313.72165418 742.67530942 C312.73372373 742.95260388 311.74579328 743.22989835 310.72792554 743.51559567 C309.63587308 743.81120893 308.54382062 744.10682218 307.41867566 744.4113934 C306.25455655 744.73540631 305.09043744 745.05941922 303.89104199 745.3932507 C301.31743682 746.10834163 298.74310879 746.81971552 296.16690564 747.52528501 C291.94797208 748.68108191 287.73306 749.85108634 283.51877332 751.02369809 C282.02799597 751.43836324 280.53721218 751.8530052 279.04642224 752.26762509 C278.29045003 752.47788453 277.53447782 752.68814397 276.75559735 752.9047749 C274.38663217 753.56309411 272.01729558 754.22006126 269.64786267 754.87669492 C251.48418175 759.91233599 233.34959549 765.05050039 215.21384168 770.18562436 C206.35648455 772.69341777 197.49799057 775.19719023 188.63952756 777.70107388 C185.68862281 778.53517171 182.73774566 779.36936712 179.78687024 780.2035687 C167.76029562 783.60320283 155.73276406 786.9994299 143.7041409 790.39180875 C141.13050565 791.11767234 138.55692092 791.84371487 135.98334241 792.56977963 C128.58380091 794.65706668 121.1838617 796.74289428 113.78189015 798.82154965 C109.87669985 799.91826531 105.97181546 801.01606662 102.06711316 802.1145184 C100.93951266 802.43169198 100.93951266 802.43169198 99.78913236 802.7552731 C89.95431417 805.52393089 80.13756786 808.34823552 70.33571935 811.23137212 C66.05801138 812.48728433 61.77634721 813.72969215 57.49554944 814.97502255 C54.24311794 815.92868809 50.9981365 816.90500619 47.75290418 817.88282895 C27.36715073 823.90634 12.67707759 822.01666849 -7.52273059 816.09498715 C-9.50241868 815.52755985 -11.48239973 814.96115361 -13.462672 814.3957684 C-18.87644885 812.84116324 -24.28122147 811.25694111 -29.68483996 809.66743588 C-60.07478836 800.73916904 -90.54462662 792.09153093 -121.02273059 783.46998715 C-122.15096366 783.15078179 -123.27919673 782.83157643 -124.44161868 782.50269818 C-160.53493591 772.29206037 -196.64937944 762.15795302 -232.78787494 752.10837197 C-235.38986602 751.38478824 -237.99176736 750.66088257 -240.59365344 749.93692136 C-243.72343652 749.06607885 -246.85359663 748.19661234 -249.9840343 747.32812619 C-257.18757578 745.32652017 -264.37267902 743.28061677 -271.52273059 741.09498715 C-273.15391465 729.66752582 -274.34308615 718.22928793 -275.40774035 706.737077 C-275.58747955 704.82055994 -275.76746831 702.90406628 -275.9476831 700.98759389 C-276.43716144 695.77380854 -276.92288742 690.55967982 -277.40784812 685.34547257 C-277.82249869 680.89211585 -278.23928015 676.43895956 -278.65606272 671.98580194 C-280.01950742 657.41750062 -281.37569463 642.8485275 -282.73079228 628.27944779 C-283.20424606 623.19082307 -283.67826024 618.10225063 -284.1522935 613.01367986 C-294.05897172 506.66671608 -303.84450069 400.30829487 -337.52273059 2.09498715 C-326.61852688 0.66128498 -315.63173433 0.96941053 -304.65944934 0.9973309 C-302.44191021 0.99925262 -300.22437065 1.00071522 -298.00683093 1.00175595 C-293.24072975 1.00490936 -288.47464645 1.01116788 -283.70855212 1.01982236 C-276.12634936 1.03343713 -268.54415238 1.03926042 -260.96193957 1.04396176 C-250.28590977 1.05129243 -239.60988738 1.06139046 -228.9338634 1.07447934 C-228.25754064 1.07530715 -227.58121788 1.07613497 -226.88440049 1.07698786 C-220.7378986 1.08454495 -214.59139703 1.09234515 -208.44489551 1.1001904 C-204.39108801 1.10535864 -200.33728044 1.11046093 -196.28347278 1.11549497 C-195.28480176 1.11673716 -195.28480176 1.11673716 -194.26595557 1.11800444 C-183.02290879 1.1318614 -171.77986108 1.14148871 -160.53680778 1.14840531 C-154.25731604 1.15250956 -147.97784219 1.15868269 -141.69835925 1.17015195 C-118.81657911 1.21153163 -95.95027665 1.21965229 -73.0757091 0.59669614 C-48.71764953 -0.06534156 -24.36559942 -0.03577044 0 0 Z M53.47726941 161.09498715 C53.47726941 264.05498715 53.47726941 367.01498715 53.47726941 473.09498715 C66.02445513 471.5734327 66.02445513 471.5734327 78.47751355 469.60206723 C79.24625806 469.46671567 80.01500257 469.33136411 80.80704236 469.19191098 C83.29286336 468.75326227 85.7776376 468.30897744 88.26242566 467.8645184 C90.05178922 467.54750337 91.84121442 467.2308361 93.63069654 466.91449094 C98.32291303 466.08399729 103.01425104 465.24864207 107.70541883 464.4122479 C112.34170823 463.58658543 116.97887146 462.76586239 121.61594129 461.94459653 C129.8363813 460.48783808 138.05574525 459.02512246 146.27438283 457.55823064 C151.84858175 456.56337255 157.42325107 455.57120646 162.99828553 454.58104157 C166.64366063 453.93314209 170.28868873 453.28330675 173.93362737 452.63295674 C175.65528966 452.32613507 177.37708586 452.02006375 179.0990212 451.71477818 C181.46563642 451.29502711 183.83173687 450.87248551 186.1977284 450.4492352 C187.24469671 450.26453829 187.24469671 450.26453829 188.3128159 450.07611012 C191.12666085 449.57018602 193.7594687 449.00092072 196.47726941 448.09498715 C196.37830113 449.17771657 196.37830113 449.17771657 196.2773335 450.28231931 C195.62552081 457.70115116 195.21069236 465.10246264 194.94211316 472.5442059 C194.89913602 473.68227185 194.85615888 474.8203378 194.8118794 475.9928906 C194.72238882 478.37851788 194.63422374 480.76419523 194.54733777 483.14991879 C194.4147348 486.78343547 194.27737761 490.41674994 194.13937879 494.05006528 C194.0525098 496.38143505 193.96591195 498.71281495 193.87961316 501.0442059 C193.83900266 502.11941998 193.79839215 503.19463407 193.75655103 504.30243039 C193.54267314 510.23814877 193.43740656 516.15542165 193.47726941 522.09498715 C191.97073552 522.43926503 191.97073552 522.43926503 190.4337666 522.79049802 C180.18179528 525.15536192 170.00950405 527.75691857 159.85335851 530.50232625 C157.17542516 531.22608064 154.49654494 531.94623917 151.8174336 532.66562009 C145.15213986 534.45603091 138.48824459 536.25162046 131.82462049 538.04823422 C126.19004829 539.5673107 120.55475092 541.08364507 114.91854787 542.5966599 C112.35567009 543.28568469 109.79378856 543.97831417 107.23195386 544.67120481 C89.69877189 549.37939565 72.10001869 553.68929983 54.47726941 558.09498715 C54.47726941 585.48498715 54.47726941 612.87498715 54.47726941 641.09498715 C62.70380316 639.7238982 70.64053769 638.20187238 78.69601941 636.17311215 C79.87167966 635.88055036 81.04733991 635.58798856 82.25862622 635.28656125 C85.4884802 634.48076247 88.71707489 633.67027578 91.94499326 632.85677838 C93.99409722 632.34074938 96.04362407 631.82643182 98.09326673 631.31254697 C122.82012427 625.10986311 147.49547021 618.70960593 172.15741467 612.25421262 C173.98518474 611.77580185 175.81300401 611.29757903 177.64087415 610.81955075 C189.21759415 607.79197955 200.78929179 604.74635005 212.35094953 601.66172147 C214.39908007 601.11582719 216.44779512 600.57217686 218.49661756 600.02888608 C222.00502181 599.09462338 225.50937418 598.14675066 229.01242566 597.1926434 C229.99472653 596.93228803 230.97702741 596.67193265 231.98909497 596.40368772 C240.8848216 594.13428492 240.8848216 594.13428492 247.6175282 588.36172605 C248.7147963 585.4687389 248.95149384 582.8569795 249.20407605 579.7707684 C249.37099957 577.80363889 249.37099957 577.80363889 249.54129529 575.79676938 C249.65686109 574.33369022 249.77223045 572.87059554 249.88742566 571.40748715 C250.01622398 569.84765898 250.14569959 568.28788661 250.27579236 566.72816586 C250.63227995 562.42569829 250.97786334 558.12241403 251.32138944 553.81889462 C251.61431476 550.16516456 251.91332031 546.51194199 252.21222711 542.85869718 C257.2459821 481.29834721 262.24469236 419.71628093 266.47726941 358.09498715 C246.42456819 359.8650796 226.41205624 361.95062219 206.41867566 364.2942059 C205.58011092 364.39249377 204.74154618 364.49078164 203.87757039 364.59204793 C195.346337 365.59331091 186.81621945 366.60373965 178.28727555 367.62431741 C174.23368602 368.10898045 170.17977799 368.59093254 166.12570691 369.07154965 C164.95943171 369.21004803 164.95943171 369.21004803 163.76959538 369.35134435 C153.1991087 370.60187619 142.63043691 371.71530289 132.01471448 372.51896787 C131.1807414 372.58320951 130.34676831 372.64745114 129.48752332 372.7136395 C128.42255124 372.78969922 128.42255124 372.78969922 127.33606458 372.8672955 C125.25023139 373.06036894 125.25023139 373.06036894 122.47726941 374.09498715 C122.47726941 331.52498715 122.47726941 288.95498715 122.47726941 245.09498715 C172.63726941 245.09498715 222.79726941 245.09498715 274.47726941 245.09498715 C276.06158502 235.03933291 276.06158502 235.03933291 277.25510144 224.97877622 C277.43506162 223.13186185 277.43506162 223.13186185 277.61865735 221.24763608 C277.73957746 219.96491818 277.86049756 218.68220029 277.98508191 217.36061215 C278.11654035 215.98825774 278.24820778 214.61592334 278.38007092 213.24360776 C278.65306171 210.3933525 278.92333133 207.54285624 279.19162488 204.69215512 C279.53353711 201.06194181 279.8827257 197.43247069 280.23398519 193.80315137 C280.50642757 190.97910734 280.77482256 188.1546894 281.04205441 185.33014798 C281.23027415 183.34872436 281.42197878 181.36763276 281.61377454 179.3865521 C281.72744367 178.16788449 281.84111279 176.94921689 281.95822644 175.69361997 C282.05878339 174.6336279 282.15934033 173.57363584 282.26294446 172.4815228 C282.52461823 168.34683138 282.52077951 164.23618272 282.47726941 160.09498715 C260.14976091 160.07134003 237.82225455 160.05385529 215.49473596 160.04317498 C205.12131505 160.03807811 194.74790203 160.03116624 184.37448621 160.0195477 C175.30420696 160.00939379 166.23393344 160.00308612 157.16364866 160.00089866 C151.58942188 159.99941292 146.01521907 159.99493671 140.44100058 159.98498356 C111.43144512 159.95362954 82.49389574 160.5260337 53.47726941 161.09498715 Z " fill="#D6BA32" transform="translate(447.52273058891296,200.90501284599304)"/>
<path d="M0 0 C0.88664697 0.00037972 1.77329394 0.00075944 2.686809 0.00115067 C3.70595156 -0.00084038 4.72509412 -0.00283143 5.77511978 -0.00488281 C6.90836384 -0.00196997 8.0416079 0.00094287 9.20919269 0.00394398 C10.40244441 0.00308955 11.59569612 0.00223513 12.82510698 0.00135481 C16.15212888 -0.00001339 19.47909267 0.00313413 22.80610758 0.00813287 C26.38826391 0.01243403 29.9704183 0.01099119 33.55257648 0.0102306 C39.76386485 0.00970515 45.97514275 0.01285413 52.18642849 0.01846844 C61.16700733 0.02658062 70.1475811 0.02919837 79.12816321 0.03045643 C93.69704094 0.03264739 108.26591309 0.03930868 122.83478779 0.04875904 C136.99071198 0.05793201 151.14663466 0.06501341 165.30256122 0.06926686 C166.17450121 0.06952958 167.04644119 0.0697923 167.9448036 0.07006299 C172.31888177 0.07136798 176.69295994 0.0726317 181.06703812 0.07387489 C217.37919234 0.08424889 253.69134022 0.10186841 290.00348896 0.1241985 C290.01088918 1.70469161 290.01613303 3.28519491 290.02048725 4.86569935 C290.02364256 5.74584045 290.02679786 6.62598154 290.03004879 7.53279358 C289.99249275 11.19708313 289.69081463 14.810807 289.33942646 18.45622975 C289.18838125 20.11816865 289.03742632 21.78011575 288.8865456 23.44206959 C288.80437793 24.32916615 288.72221027 25.21626271 288.63755268 26.13024098 C287.15582397 42.18192381 285.81618105 58.24357809 284.57770771 74.31560475 C284.48596964 75.50608292 284.48596964 75.50608292 284.39237827 76.72061116 C284.07735104 80.81282649 283.76323149 84.90511102 283.44953388 88.99742848 C281.38838326 115.88402064 279.21194037 142.75153443 276.75763935 169.60564381 C275.40074015 184.47946407 274.16491419 199.3589099 273.00348896 214.2491985 C271.49303799 233.5706306 269.78017543 252.86791133 267.96250385 272.16275746 C266.61530993 286.46969894 265.30736024 300.77957743 264.03858799 315.0936752 C261.02275542 349.10032789 257.93278405 383.10024227 254.84095472 417.10005051 C254.62630301 419.46073908 254.41170887 421.82143289 254.19713444 424.18212849 C250.23118044 467.8144103 246.23679959 511.44368064 242.13408893 555.06334645 C240.59166846 571.47763517 239.07925749 587.89470124 237.56598896 604.3116985 C237.4323756 605.76089716 237.29875951 607.21009557 237.16514057 608.65929371 C236.44402131 616.48087629 235.72342868 624.30250726 235.00348896 632.1241985 C215.39718875 638.20132483 195.67874356 643.86813011 175.94098896 649.4991985 C174.24163739 649.98437512 172.54228641 650.46955377 170.84293598 650.95473439 C129.17628808 662.84610698 87.43077761 674.4318228 45.50348896 685.3741985 C44.50443531 685.63564656 43.50538166 685.89709461 42.47605366 686.16646534 C31.96500045 688.91128233 21.43344067 691.54310468 10.84723896 693.9835735 C9.45341999 694.30820576 9.45341999 694.30820576 8.03144306 694.63939625 C7.1682143 694.83515248 6.30498554 695.0309087 5.41559833 695.23259693 C4.6580727 695.4054723 3.90054706 695.57834767 3.12006611 695.75646168 C1.00348896 696.1241985 1.00348896 696.1241985 -2.99651104 696.1241985 C-4.29321326 667.53025442 -4.14138992 638.91994839 -4.12817867 610.30381051 C-4.1249226 602.78988129 -4.12761521 595.2759567 -4.13038308 587.7620277 C-4.13561399 573.04402999 -4.13520634 558.32603665 -4.13230416 543.60803854 C-4.12977638 530.72337066 -4.12913755 517.83870437 -4.13032681 504.9540363 C-4.13040319 504.09528397 -4.13047958 503.23653164 -4.13055828 502.35175651 C-4.13086968 498.86466364 -4.13118809 495.37757077 -4.13151804 491.8904779 C-4.13456922 459.25367647 -4.13181633 426.61687779 -4.12642114 393.98007678 C-4.12167897 365.07401431 -4.12209894 336.16795624 -4.12688214 307.26189381 C-4.13225422 274.68916437 -4.13435019 242.11643737 -4.13126987 209.54370755 C-4.13094922 206.0615568 -4.13063638 202.57940604 -4.13032681 199.09725529 C-4.13024773 198.24003633 -4.13016865 197.38281736 -4.13008718 196.49962206 C-4.12895663 183.63684872 -4.130267 170.77407715 -4.13280636 157.91130406 C-4.13568466 143.2597705 -4.13491082 128.60824196 -4.12952562 113.95670901 C-4.12687378 106.49879491 -4.12572541 99.04088897 -4.12917477 91.58297497 C-4.15145137 39.97548576 -4.15145137 39.97548576 -3.55092388 16.36299855 C-3.53150479 15.55973546 -3.51208569 14.75647237 -3.49207814 13.92886798 C-3.43715487 11.74684717 -3.37474097 9.56522261 -3.30836827 7.38352352 C-3.27253411 6.18615822 -3.23669996 4.98879292 -3.19977993 3.75514382 C-2.92370657 0.18187726 -2.92370657 0.18187726 0 0 Z M25.00348896 95.1241985 C25.00348896 198.0841985 25.00348896 301.0441985 25.00348896 407.1241985 C37.55067468 405.60264404 37.55067468 405.60264404 50.0037331 403.63127857 C50.77247761 403.49592701 51.54122211 403.36057545 52.33326191 403.22112232 C54.81908291 402.78247361 57.30385715 402.33818878 59.78864521 401.89372975 C61.57800877 401.57671472 63.36743397 401.26004744 65.15691608 400.94370228 C69.84913258 400.11320863 74.54047059 399.27785341 79.23163837 398.44145924 C83.86792778 397.61579678 88.505091 396.79507374 93.14216083 395.97380787 C101.36260085 394.51704943 109.58196479 393.0543338 117.80060238 391.58744198 C123.37480129 390.5925839 128.94947062 389.60041781 134.52450508 388.61025292 C138.16988018 387.96235343 141.81490828 387.31251809 145.45984691 386.66216809 C147.18150921 386.35534642 148.9033054 386.04927509 150.62524074 385.74398953 C152.99185596 385.32423845 155.35795641 384.90169686 157.72394794 384.47844654 C158.77091626 384.29374963 158.77091626 384.29374963 159.83903545 384.10532147 C162.6528804 383.59939736 165.28568825 383.03013207 168.00348896 382.1241985 C167.90452068 383.20692791 167.90452068 383.20692791 167.80355304 384.31153065 C167.15174035 391.73036251 166.73691191 399.13167399 166.46833271 406.57341725 C166.42535557 407.71148319 166.38237842 408.84954914 166.33809894 410.02210194 C166.24860837 412.40772922 166.16044328 414.79340657 166.07355732 417.17913014 C165.94095435 420.81264681 165.80359715 424.44596129 165.66559833 428.07927662 C165.57872935 430.4106464 165.4921315 432.74202629 165.40583271 435.07341725 C165.3652222 436.14863133 165.3246117 437.22384541 165.28277057 438.33164173 C165.06889269 444.26736011 164.9636261 450.18463299 165.00348896 456.1241985 C163.49695507 456.46847637 163.49695507 456.46847637 161.95998615 456.81970936 C151.70801483 459.18457326 141.5357236 461.78612992 131.37957805 464.53153759 C128.7016447 465.25529198 126.02276448 465.97545052 123.34365314 466.69483143 C116.67835941 468.48524225 110.01446414 470.28083181 103.35084003 472.07744557 C97.71626783 473.59652204 92.08097046 475.11285641 86.44476742 476.62587124 C83.88188964 477.31489603 81.32000811 478.00752551 78.75817341 478.70041615 C61.22499144 483.40860699 43.62623824 487.71851118 26.00348896 492.1241985 C26.00348896 519.5141985 26.00348896 546.9041985 26.00348896 575.1241985 C34.23002271 573.75310954 42.16675724 572.23108372 50.22223896 570.2023235 C51.39789921 569.9097617 52.57355945 569.6171999 53.78484577 569.31577259 C57.01469975 568.50997381 60.24329444 567.69948713 63.4712128 566.88598973 C65.52031677 566.36996072 67.56984362 565.85564316 69.61948627 565.34175831 C94.34634382 559.13907445 119.02168976 552.73881728 143.68363422 546.28342396 C145.51140429 545.80501319 147.33922356 545.32679037 149.16709369 544.84876209 C160.7438137 541.82119089 172.31551134 538.7755614 183.87716907 535.69093281 C185.92529962 535.14503853 187.97401467 534.6013882 190.0228371 534.05809742 C193.53124136 533.12383472 197.03559373 532.175962 200.53864521 531.22185475 C201.52094608 530.96149937 202.50324695 530.70114399 203.51531452 530.43289906 C212.41104115 528.16349626 212.41104115 528.16349626 219.14374775 522.39093739 C220.24101585 519.49795024 220.47771338 516.88619084 220.7302956 513.79997975 C220.89721912 511.83285023 220.89721912 511.83285023 221.06751484 509.82598072 C221.18308064 508.36290156 221.29844999 506.89980688 221.41364521 505.4366985 C221.54244353 503.87687032 221.67191914 502.31709795 221.80201191 500.75737721 C222.15849949 496.45490963 222.50408288 492.15162538 222.84760898 487.84810597 C223.14053431 484.1943759 223.43953986 480.54115333 223.73844665 476.88790852 C228.77220164 415.32755855 233.7709119 353.74549228 238.00348896 292.1241985 C217.95078773 293.89429094 197.93827579 295.97983353 177.94489521 298.32341725 C177.10633047 298.42170511 176.26776573 298.51999298 175.40378994 298.62125927 C166.87255654 299.62252225 158.342439 300.63295099 149.8134951 301.65352875 C145.75990556 302.1381918 141.70599754 302.62014388 137.65192646 303.100761 C136.48565125 303.23925937 136.48565125 303.23925937 135.29581493 303.38055569 C124.72532825 304.63108754 114.15665646 305.74451423 103.54093403 306.54817921 C102.70696094 306.61242085 101.87298786 306.67666249 101.01374286 306.74285084 C99.94877079 306.81891056 99.94877079 306.81891056 98.86228412 306.89650685 C96.77645093 307.08958028 96.77645093 307.08958028 94.00348896 308.1241985 C94.00348896 265.5541985 94.00348896 222.9841985 94.00348896 179.1241985 C144.16348896 179.1241985 194.32348896 179.1241985 246.00348896 179.1241985 C247.58780456 169.06854425 247.58780456 169.06854425 248.78132099 159.00798756 C248.96128116 157.16107319 248.96128116 157.16107319 249.1448769 155.27684742 C249.265797 153.99412953 249.38671711 152.71141163 249.51130146 151.3898235 C249.6427599 150.01746909 249.77442732 148.64513468 249.90629047 147.2728191 C250.17928126 144.42256384 250.44955088 141.57206758 250.71784443 138.72136647 C251.05975666 135.09115315 251.40894524 131.46168203 251.76020473 127.83236271 C252.03264712 125.00831868 252.3010421 122.18390074 252.56827396 119.35935932 C252.75649369 117.37793571 252.94819832 115.3968441 253.13999408 113.41576344 C253.25366321 112.19709584 253.36733234 110.97842823 253.48444599 109.72283131 C253.58500293 108.66283924 253.68555988 107.60284718 253.78916401 106.51073414 C254.05083777 102.37604272 254.04699906 98.26539406 254.00348896 94.1241985 C231.67598046 94.10055138 209.3484741 94.08306663 187.0209555 94.07238632 C176.64753459 94.06728946 166.27412158 94.06037759 155.90070575 94.04875904 C146.83042651 94.03860514 137.76015299 94.03229746 128.68986821 94.03011 C123.11564142 94.02862426 117.54143862 94.02414805 111.96722013 94.01419491 C82.95766467 93.98284088 54.02011529 94.55524504 25.00348896 95.1241985 Z " fill="#FED93D" transform="translate(475.9965110421181,266.8758015036583)"/>
<path d="M0 0 C33.66 0.495 33.66 0.495 68 1 C68 160.06 68 319.12 68 483 C59.91084111 481.52924384 52.07740533 479.92319799 44.125 477.9375 C43.47650085 477.77582336 42.82800171 477.61414673 42.15985107 477.4475708 C12.59134221 470.03780959 -16.69917869 461.44821281 -46.03442383 453.16921997 C-51.18900406 451.71480382 -56.34426504 450.26281717 -61.5 448.8125 C-62.48867065 448.53426392 -63.47734131 448.25602783 -64.49597168 447.96936035 C-89.2503258 441.01329884 -114.12078298 434.49269311 -139 428 C-142.5617151 408.42785681 -142.13189739 388.69646685 -142.0625 368.875 C-142.05747197 366.35546965 -142.05291138 363.83593831 -142.04882812 361.31640625 C-142.0379327 355.21091576 -142.02129914 349.10546261 -142 343 C-135.03768814 344.10171569 -128.15443456 345.30495969 -121.3125 347.00390625 C-120.51604568 347.19893234 -119.71959137 347.39395844 -118.89900208 347.59489441 C-116.26426947 348.24399581 -113.63194405 348.90218717 -111 349.5625 C-109.6148671 349.90806946 -109.6148671 349.90806946 -108.20175171 350.26062012 C-84.26927804 356.25316356 -60.56006727 363.06425283 -36.85639954 369.89604187 C-28.92169309 372.17923445 -20.97347558 374.4122045 -13.02201843 376.6362915 C-11.86413991 376.96032015 -10.7062614 377.28434879 -9.51329565 377.61819649 C-6.67557697 378.41229747 -3.83781056 379.20622743 -1 380 C-1.00037972 379.29326344 -1.00075944 378.58652688 -1.00115067 377.85837406 C-1.0236211 335.7947153 -1.04073288 293.73105725 -1.05106533 251.66739368 C-1.05231575 246.59540112 -1.0536101 241.52340856 -1.05493164 236.45141602 C-1.05532511 234.93706172 -1.05532511 234.93706172 -1.05572652 233.39211441 C-1.06005544 217.13251267 -1.06792741 200.87291453 -1.0771528 184.61331492 C-1.08656712 167.87877317 -1.09207192 151.14423329 -1.09408849 134.40968901 C-1.09544772 124.11752052 -1.09970998 113.82536222 -1.10791647 103.53319687 C-1.11328035 96.43634847 -1.11478289 89.33950519 -1.11350138 82.24265491 C-1.11287272 78.173106 -1.11370182 74.10357464 -1.11920547 70.03402901 C-1.14927374 46.67029656 -0.66674319 23.35656932 0 0 Z " fill="#EAEAEA" transform="translate(373,360)"/>
<path d="M0 0 C0.81807129 0.20141602 1.63614258 0.40283203 2.47900391 0.61035156 C4.32071476 1.06805485 6.16060905 1.5330609 8 2 C8.02945031 5.31248078 8.04694801 8.62492711 8.0625 11.9375 C8.07087891 12.86369141 8.07925781 13.78988281 8.08789062 14.74414062 C8.10837786 20.58300303 7.75429787 26.20913053 7 32 C-0.93367627 29.67873257 -8.76123212 27.09791307 -16.58398438 24.4296875 C-17.47021484 24.130625 -18.35644531 23.8315625 -19.26953125 23.5234375 C-20.05948486 23.25450684 -20.84943848 22.98557617 -21.66333008 22.70849609 C-29.76575796 20.25177833 -40.65886409 19.04242285 -48.625 22.5 C-53.93580625 25.76730036 -56.59888387 31.17370516 -58.3125 37 C-58.539375 37.99 -58.76625 38.98 -59 40 C-57.99042236 40.12818115 -56.98084473 40.2563623 -55.94067383 40.38842773 C-49.39167052 41.40479929 -43.06053695 43.2764602 -36.6875 45.0625 C-35.97401398 45.26219391 -35.26052795 45.46188782 -34.52542114 45.66763306 C-25.98515134 48.07786111 -17.56703245 50.58652889 -9.4375 54.1875 C-8.76227295 54.48342041 -8.0870459 54.77934082 -7.39135742 55.08422852 C0.88320044 58.99713614 6.41471199 64.58297619 10 73 C13.79510855 84.08883279 12.74356184 95.96382057 7.828125 106.515625 C1.06064507 119.13154438 -8.49833432 124.50846158 -21.8359375 129.0546875 C-39.38359596 134.29732126 -60.00715906 131.53493443 -77.57128906 127.52832031 C-79.29404317 127.15356761 -81.02692171 126.82407028 -82.76464844 126.52636719 C-83.66473633 126.37071289 -84.56482422 126.21505859 -85.4921875 126.0546875 C-86.30800293 125.92304199 -87.12381836 125.79139648 -87.96435547 125.65576172 C-90 125 -90 125 -92 122 C-92.44343707 119.55380874 -92.79239534 117.17200016 -93.0703125 114.70703125 C-93.15626678 114.00100266 -93.24222107 113.29497406 -93.33078003 112.56755066 C-93.60305519 110.31669597 -93.86416015 108.06470563 -94.125 105.8125 C-94.3078586 104.28441706 -94.49144381 102.75642088 -94.67578125 101.22851562 C-95.12561908 97.48663091 -95.5654449 93.74368904 -96 90 C-90.19833709 91.81887081 -84.59528161 93.94437122 -78.99658203 96.31274414 C-64.97998183 102.23684694 -49.79284765 108.49922009 -34.34375 104.2734375 C-26.90886665 100.86115895 -24.47780486 95.23960127 -21.734375 88.01171875 C-21.37085938 87.01591797 -21.37085938 87.01591797 -21 86 C-22.20140625 85.74863281 -23.4028125 85.49726562 -24.640625 85.23828125 C-31.07972411 83.80471325 -37.40744666 81.99431106 -43.75 80.1875 C-45.52890625 79.6915332 -45.52890625 79.6915332 -47.34375 79.18554688 C-80.42576941 69.77739616 -80.42576941 69.77739616 -89 56 C-93.58570192 45.94104094 -93.53634303 32.96285498 -90.375 22.5 C-85.58851195 10.35346697 -76.48327665 3.79350455 -64.8203125 -1.421875 C-44.11635271 -9.16481931 -20.86474863 -5.14777489 0 0 Z " fill="#121212" transform="translate(511,9)"/>
<path d="M0 0 C10.39923077 10.98446887 13.56513136 26.44915345 13.40820312 41.171875 C12.88981242 56.54586218 9.50216456 74.2569287 -1.9453125 85.28125 C-17.04959505 96.85102872 -35.92307268 96.23573698 -53.9453125 94.28125 C-53.91501953 94.91514648 -53.88472656 95.54904297 -53.85351562 96.20214844 C-53.71454809 99.14505334 -53.57991693 102.08814243 -53.4453125 105.03125 C-53.39761719 106.02769531 -53.34992187 107.02414063 -53.30078125 108.05078125 C-53.25566406 109.04980469 -53.21054687 110.04882812 -53.1640625 111.078125 C-53.1012207 112.42922363 -53.1012207 112.42922363 -53.03710938 113.80761719 C-52.90084853 118.9637854 -52.9453125 124.12328163 -52.9453125 129.28125 C-63.8353125 129.28125 -74.7253125 129.28125 -85.9453125 129.28125 C-85.9453125 84.07125 -85.9453125 38.86125 -85.9453125 -7.71875 C-78.5203125 -6.72875 -78.5203125 -6.72875 -70.9453125 -5.71875 C-65.85596415 -5.51580861 -60.84322939 -5.38630719 -55.7578125 -5.40625 C-54.75690582 -5.40549469 -54.75690582 -5.40549469 -53.73577881 -5.40472412 C-44.43981338 -5.40943206 -35.39011147 -5.90964287 -26.27270508 -7.8269043 C-16.50225748 -9.77305485 -7.41401309 -6.55053365 0 0 Z M-52.9453125 17.28125 C-52.9453125 35.43125 -52.9453125 53.58125 -52.9453125 72.28125 C-36.25349497 71.75753237 -36.25349497 71.75753237 -22.9453125 63.28125 C-21.14355493 57.56128675 -20.62455958 52.37641914 -20.6953125 46.40625 C-20.70220093 45.18917358 -20.70220093 45.18917358 -20.70922852 43.94750977 C-20.50661095 29.72839697 -20.50661095 29.72839697 -23.9453125 16.28125 C-33.61772459 16.28125 -43.28128569 16.87858222 -52.9453125 17.28125 Z " fill="#121212" transform="translate(849.9453125,44.71875)"/>
<path d="M0 0 C5.32736478 5.2724435 6.11130052 10.94212626 6.70703125 18.1875 C6.83295654 19.35744507 6.83295654 19.35744507 6.96142578 20.55102539 C7.9418807 30.39966909 7.85970489 40.23937271 7.83203125 50.125 C7.8307019 51.48538895 7.8307019 51.48538895 7.8293457 52.8732605 C7.81424733 65.99970162 7.61604988 79.08789228 6.70703125 92.1875 C0.43574641 91.83842656 -5.72462737 91.30767013 -11.92578125 90.3125 C-12.922146 90.15950439 -13.91851074 90.00650879 -14.94506836 89.84887695 C-16.93123277 89.53880335 -18.91421513 89.20741252 -20.89282227 88.85229492 C-27.17139831 87.89525724 -31.27279059 88.40414124 -37.01489258 91.1730957 C-45.85674041 95.11028119 -60.05653581 94.60382371 -69.0859375 91.28125 C-76.05862782 87.82575745 -81.23851331 83.39207407 -84.421875 76.19921875 C-87.42337723 65.82182762 -87.15876455 55.34365395 -82.60546875 45.5625 C-76.15123026 35.16006434 -64.2466608 31.02341964 -52.94140625 28.16796875 C-43.16494727 25.99320542 -33.19577517 24.64970667 -23.29296875 23.1875 C-30.57438131 15.79758957 -36.95111437 13.17325656 -47.29296875 12.9375 C-52.93451119 13.03271591 -58.47728988 13.75398881 -64.06616211 14.47119141 C-69.51703204 15.15370304 -74.79411999 15.36206663 -80.29296875 15.1875 C-79.69828859 9.51921945 -78.20054074 4.58427846 -76.23046875 -0.75 C-75.94880859 -1.52923828 -75.66714844 -2.30847656 -75.37695312 -3.11132812 C-74.68829169 -5.01390125 -73.99146972 -6.91351725 -73.29296875 -8.8125 C-20.77107214 -16.41870097 -20.77107214 -16.41870097 0 0 Z M-41.16796875 46.6875 C-42.04710937 46.83058594 -42.92625 46.97367188 -43.83203125 47.12109375 C-45.98636904 47.47234448 -48.1397682 47.82934387 -50.29296875 48.1875 C-50.60991248 49.97838592 -50.92122966 51.77026763 -51.23046875 53.5625 C-51.40449219 54.56023437 -51.57851563 55.55796875 -51.7578125 56.5859375 C-52.4284127 61.09902791 -52.83896904 65.64750287 -53.29296875 70.1875 C-44.71296875 70.1875 -36.13296875 70.1875 -27.29296875 70.1875 C-26.06752724 61.76258959 -24.93168377 53.71783989 -25.29296875 45.1875 C-30.72586914 44.97374654 -35.83243494 45.79556588 -41.16796875 46.6875 Z " fill="#121212" transform="translate(393.29296875,46.8125)"/>
<path d="M0 0 C14.783482 15.7609023 9.34728744 50.51733469 8.78369141 70.95605469 C8.55627742 77.66701455 8.26058852 84.37352013 7.890625 91.078125 C-8.53538851 90.17305743 -8.53538851 90.17305743 -14.921875 89.515625 C-16.65053056 89.36385316 -18.37970562 89.21786963 -20.109375 89.078125 C-20.955 88.99949219 -21.800625 88.92085938 -22.671875 88.83984375 C-30.76880243 88.43729764 -38.16520108 90.28488172 -45.92895508 92.38720703 C-53.55197127 94.33767939 -60.62885601 94.7031837 -68.125 91.984375 C-76.4290146 86.75807211 -82.25706994 80.43596205 -84.67578125 70.74609375 C-86.34739473 60.46040001 -85.41054196 50.4956981 -79.421875 41.765625 C-66.73167339 26.50059988 -39.47478109 25.56349101 -21.109375 22.078125 C-34.88168894 13.42279726 -46.35204753 12.31159104 -62.30932617 14.31542969 C-63.0747876 14.41114258 -63.84024902 14.50685547 -64.62890625 14.60546875 C-65.30026611 14.69562256 -65.97162598 14.78577637 -66.66333008 14.87866211 C-70.13445809 15.16171547 -73.62672531 15.078125 -77.109375 15.078125 C-76.779375 7.158125 -76.449375 -0.761875 -76.109375 -8.921875 C-71.29432365 -9.37934365 -66.47975487 -9.8284452 -61.66235352 -10.25854492 C-60.03205522 -10.40637611 -58.40214362 -10.55855182 -56.77270508 -10.71557617 C-37.31287108 -12.58405668 -15.49817184 -14.12055656 0 0 Z M-33.30859375 45.48046875 C-34.04271484 45.56619141 -34.77683594 45.65191406 -35.53320312 45.74023438 C-36.28021484 45.83111328 -37.02722656 45.92199219 -37.796875 46.015625 C-38.93479492 46.14614258 -38.93479492 46.14614258 -40.09570312 46.27929688 C-43.23690089 46.65357904 -46.0999076 47.0749692 -49.109375 48.078125 C-49.44738652 50.61924732 -49.77990879 53.16089246 -50.109375 55.703125 C-50.25246094 56.77240234 -50.25246094 56.77240234 -50.3984375 57.86328125 C-50.92543601 61.96634109 -51.21404484 65.93058242 -51.109375 70.078125 C-48.08848022 70.10528589 -45.06783371 70.12504157 -42.046875 70.140625 C-41.19931641 70.14900391 -40.35175781 70.15738281 -39.47851562 70.16601562 C-38.64384766 70.16923828 -37.80917969 70.17246094 -36.94921875 70.17578125 C-36.18988037 70.18101807 -35.43054199 70.18625488 -34.64819336 70.19165039 C-31.45019138 70.04864905 -28.27839894 69.53084271 -25.109375 69.078125 C-24.449375 61.158125 -23.789375 53.238125 -23.109375 45.078125 C-28.25687357 45.07587576 -28.25687357 45.07587576 -33.30859375 45.48046875 Z " fill="#121212" transform="translate(180.109375,46.921875)"/>
<path d="M0 0 C1.11696762 0.00222061 2.23393524 0.00444122 3.38475037 0.00672913 C4.64598221 0.00680466 5.90721405 0.00688019 7.20666504 0.00695801 C8.59341979 0.01206542 9.98017414 0.01728142 11.3669281 0.02259827 C12.77797394 0.0244625 14.18902042 0.02588638 15.60006714 0.02688599 C19.3204272 0.03071072 23.04074845 0.04054062 26.76109314 0.05158997 C30.55482966 0.06180504 34.34857243 0.06638381 38.14231873 0.07142639 C45.59090416 0.08216294 53.03945758 0.09923882 60.48802185 0.12025452 C61.08813677 19.87137706 61.59652835 39.62412639 61.66526794 59.38517761 C61.67199109 61.09651918 61.68212458 62.8078515 61.69602966 64.51914978 C62.03402298 109.44168561 62.03402298 109.44168561 50.4528656 122.29603577 C39.41990077 132.53936495 25.39955914 135.31596227 10.7106781 135.21791077 C9.89932907 135.21649582 9.08798004 135.21508087 8.25204468 135.21362305 C5.68483138 135.20806808 3.11770837 135.19552419 0.55052185 135.18275452 C-1.20012792 135.17773369 -2.95077908 135.1731718 -4.70143127 135.16908264 C-8.97164785 135.15811345 -13.24179774 135.14088034 -17.51197815 135.12025452 C-18.71929507 126.43188457 -19.89261978 117.91730543 -19.51197815 109.12025452 C-18.78720276 109.105672 -18.06242737 109.09108948 -17.31568909 109.07606506 C-13.96397317 109.0006168 -10.61315069 108.90428286 -7.26197815 108.80775452 C-6.1224469 108.78519592 -4.98291565 108.76263733 -3.80885315 108.73939514 C3.99531028 108.49551503 10.99589352 107.27933392 18.48802185 105.12025452 C19.81990219 104.78116212 21.15268377 104.44546383 22.48802185 104.12025452 C27.87427467 77.59009436 26.41749648 51.92616985 24.48802185 25.12025452 C15.24802185 25.12025452 6.00802185 25.12025452 -3.51197815 25.12025452 C-3.53260315 21.18087952 -3.55322815 17.24150452 -3.57447815 13.18275452 C-3.58358215 11.93888977 -3.59268616 10.69502502 -3.60206604 9.41346741 C-3.6045636 8.44143372 -3.60706116 7.46940002 -3.6096344 6.46791077 C-3.61487122 5.46767883 -3.62010803 4.4674469 -3.62550354 3.43690491 C-3.4663564 0.18927653 -3.2597899 0.15605409 0 0 Z " fill="#121212" transform="translate(19.511978149414063,4.8797454833984375)"/>
<path d="M0 0 C27.52293603 1.36865066 27.52293603 1.36865066 34.35205078 8.43310547 C37.97300845 14.61930209 39.55816774 21.43330033 41.11669922 28.37841797 C42.58233143 34.38759106 44.82619087 40.09308518 47 45.875 C48.04073787 48.8025914 49.07418462 51.73264279 50.10546875 54.66357422 C50.94708995 56.86180427 51.93297363 58.90461214 53 61 C53.36762451 59.81148437 53.73524902 58.62296875 54.11401367 57.3984375 C55.502291 52.91041004 56.89087413 48.42247725 58.27954102 43.93457031 C58.8759762 42.006861 59.47233281 40.07912738 60.06860352 38.15136719 C63.69459763 26.42864105 67.33135883 14.70945543 71 3 C92.53191489 1.80851064 92.53191489 1.80851064 103 2 C102.37572392 8.13083256 100.63352279 13.6101409 98.640625 19.42578125 C98.29970825 20.43439209 97.9587915 21.44300293 97.60754395 22.48217773 C96.49572878 25.76151152 95.37364079 29.03720091 94.25 32.3125 C93.86928345 33.42837494 93.48856689 34.54424988 93.09631348 35.69393921 C86.91288879 53.80386274 80.37222335 71.74224202 73.35742188 89.54541016 C71.20696669 95.01824125 69.10355491 100.50898441 67 106 C62.96917078 105.86060931 59.00046993 105.50256702 55 105 C54.16952148 104.90219238 53.33904297 104.80438477 52.48339844 104.70361328 C36.47419615 102.60078293 36.47419615 102.60078293 31.48046875 97.3515625 C29.93189326 94.11876987 28.82230239 91.0273928 27.81689453 87.59814453 C26.88405734 84.63124273 25.75627705 81.78539801 24.58984375 78.90234375 C16.59110126 58.98789708 10.18636862 38.53773956 4 18 C3.79284363 17.31444031 3.58568726 16.62888062 3.37225342 15.92254639 C2.79187249 13.99084122 2.22185469 12.05603152 1.65234375 10.12109375 C1.33128662 9.03111084 1.01022949 7.94112793 0.67944336 6.81811523 C0 4 0 4 0 0 Z " fill="#121212" transform="translate(200,35)"/>
<path d="M0 0 C9.9 0 19.8 0 30 0 C30.6416631 8.98328334 31 17.99382928 31 27 C40.57 27 50.14 27 60 27 C61.125 36 61.125 36 61.09765625 39.28125 C61.09282227 40.32539062 61.09282227 40.32539062 61.08789062 41.390625 C61.07532227 42.43476562 61.07532227 42.43476562 61.0625 43.5 C61.05798828 44.22703125 61.05347656 44.9540625 61.04882812 45.703125 C61.03721193 47.46878681 61.01928441 49.2344053 61 51 C50.97644511 51.20272358 41.00152811 50.58039956 31 50 C30.94996579 54.76479624 30.91398556 59.5294342 30.89013672 64.29443359 C30.88017784 65.91002064 30.86660582 67.52559015 30.84912109 69.14111328 C30.74891804 78.64861442 30.99293139 87.6540788 33 97 C33.16568481 98.09030518 33.16568481 98.09030518 33.3347168 99.20263672 C33.75781907 101.44658497 33.75781907 101.44658497 36 104 C40.26414463 105.32155933 44.56798779 105.611227 49 106 C51.77463567 106.34805385 54.5429477 106.73886687 57.3125 107.125 C59.54149286 107.41799198 61.77059681 107.71014675 64 108 C63.84607257 114.82878053 63.09659339 121.04407692 58 126 C52.73596908 129.41924615 47.98325704 130.74464163 41.75 130.6875 C40.96512207 130.68532471 40.18024414 130.68314941 39.37158203 130.6809082 C31.33368466 130.40798359 23.65965123 128.60595238 15.875 126.6875 C14.62299805 126.37965576 13.37099609 126.07181152 12.08105469 125.75463867 C5.4095161 123.99437603 5.4095161 123.99437603 3 123 C1.90111885 119.70335655 1.71072785 116.94237499 1.5 113.47265625 C1.46021027 112.82026474 1.42042053 112.16787323 1.37942505 111.49571228 C1.29442514 110.08717645 1.21133451 108.67852438 1.12994385 107.26977539 C0.99878446 105.0418524 0.85542706 102.81495335 0.71044922 100.58789062 C0.26118466 93.43688006 -0.05331877 86.34959455 0.0703125 79.18359375 C0.24883497 64.17065639 -1.25442517 54.71923792 -11.64355469 43.47265625 C-13.23527663 41.74456648 -14.63419502 39.91021676 -16 38 C-14.58143752 34.66564695 -12.90068437 32.80434174 -10.125 30.5 C-7.84362363 28.57818838 -5.70998808 26.70235618 -3.625 24.5625 C-2 23 -2 23 0 23 C0 15.41 0 7.82 0 0 Z " fill="#121212" transform="translate(881,10)"/>
<path d="M0 0 C0.82371094 0.32742187 1.64742187 0.65484375 2.49609375 0.9921875 C5.73031535 2.57182515 7.53895315 3.84131647 8.890625 7.23828125 C9.4996647 10.17472265 9.78905545 13.00744765 10 16 C10.10803446 17.35026349 10.21610938 18.70052375 10.32421875 20.05078125 C10.59907926 23.6981502 10.81266747 27.34701561 11 31 C3.87663915 29.00475888 -3.07457292 26.60216741 -10.02124023 24.06982422 C-18.68912579 20.94631573 -27.20007393 19.3472005 -36 23 C-42.09334709 28.66822985 -45.5724121 37.3920202 -46.203125 45.6640625 C-46.35325417 55.147222 -45.12577492 63.43286628 -39 71 C-33.52511427 75.92739716 -29.51424705 77.48738292 -22.21875 77.3515625 C-16.05238759 76.67805204 -10.33062256 74.53521731 -4.5 72.5 C-2.01263052 71.64952512 0.47783039 70.80883531 2.96875 69.96875 C4.05607422 69.59169922 5.14339844 69.21464844 6.26367188 68.82617188 C9 68 9 68 12 68 C11.56332513 71.04644939 11.10303285 74.08654111 10.61328125 77.125 C10.19411486 79.7734908 9.81841025 82.40479061 9.48046875 85.0625 C8.09265185 94.8351919 8.09265185 94.8351919 5.34375 97.765625 C3.23526835 98.88680175 1.31030047 99.40788972 -1 100 C-1.65943604 100.17901855 -2.31887207 100.35803711 -2.99829102 100.54248047 C-20.74899639 104.93877133 -39.68081553 102.70281125 -55.66796875 94.01171875 C-67.18627227 87.05752612 -75.76016316 76.87650701 -79.34375 63.82421875 C-81.89375605 48.96436206 -81.07926063 33.14307383 -72.640625 20.30078125 C-72.09921875 19.54152344 -71.5578125 18.78226563 -71 18 C-70.52046875 17.31292969 -70.0409375 16.62585938 -69.546875 15.91796875 C-61.86963666 6.08877724 -49.89382192 -0.02211314 -38 -3 C-36.88818359 -3.28423828 -36.88818359 -3.28423828 -35.75390625 -3.57421875 C-23.77054853 -5.42696484 -11.16338367 -4.85085161 0 0 Z " fill="#121212" transform="translate(609,39)"/>
<path d="M0 0 C2.43837983 0.55886042 4.87558624 1.12230655 7.3125 1.6875 C8.06926025 1.86031494 8.82602051 2.03312988 9.60571289 2.21118164 C13.78290018 3.18165656 17.90248291 4.24266922 22.0078125 5.484375 C34.0953352 9.13917612 34.0953352 9.13917612 46 6 C48.20487425 5.18074311 50.42232197 4.40441912 52.64404297 3.63208008 C54.19597609 3.09220034 55.74462593 2.54277359 57.28955078 1.9831543 C62.7780036 0 62.7780036 0 65 0 C65.75770785 4.11481205 66.17155355 8.09340234 66.31640625 12.2734375 C66.35830078 13.42714844 66.40019531 14.58085938 66.44335938 15.76953125 C66.48267578 16.95933594 66.52199219 18.14914063 66.5625 19.375 C66.60568359 20.58800781 66.64886719 21.80101563 66.69335938 23.05078125 C66.79905513 26.03375032 66.90115321 29.01679742 67 32 C62.37856608 32.72185822 57.8653934 33.16563247 53.19140625 33.31640625 C51.95068359 33.35830078 50.70996094 33.40019531 49.43164062 33.44335938 C47.51641602 33.50233398 47.51641602 33.50233398 45.5625 33.5625 C44.25861328 33.60568359 42.95472656 33.64886719 41.61132812 33.69335938 C38.40764684 33.79897524 35.20389389 33.90108101 32 34 C32.00523682 34.59272705 32.01047363 35.1854541 32.01586914 35.79614258 C32.18470756 58.5423112 31.58810998 81.26324817 31 104 C20.44 104 9.88 104 -1 104 C-1.02267317 92.35959352 -1.04098549 80.71920192 -1.05181217 69.07877827 C-1.05701077 63.67254625 -1.06405296 58.26633023 -1.07543945 52.86010742 C-1.08637645 47.63405896 -1.09229956 42.40802581 -1.09487724 37.18196678 C-1.09671213 35.19708198 -1.10029484 33.21219793 -1.10573006 31.22731972 C-1.13321515 20.76546181 -1.06858001 10.41840896 0 0 Z " fill="#121212" transform="translate(633,35)"/>
<path d="M0 0 C9.9 0 19.8 0 30 0 C30 33.66 30 67.32 30 102 C20.1 102 10.2 102 0 102 C0 68.34 0 34.68 0 0 Z " fill="#121212" transform="translate(711,37)"/>
<path d="M0 0 C11.88 0 23.76 0 36 0 C36 8.58 36 17.16 36 26 C24.12 26 12.24 26 0 26 C0 17.42 0 8.84 0 0 Z " fill="#0F0F0F" transform="translate(708,0)"/>
</svg>
