<?xml version="1.0" encoding="UTF-8"?>
<svg version="1.1" xmlns="http://www.w3.org/2000/svg" width="768" height="768">
<path d="M0 0 C253.44 0 506.88 0 768 0 C768 253.44 768 506.88 768 768 C514.56 768 261.12 768 0 768 C0 514.56 0 261.12 0 0 Z " fill="#EFDA4F" transform="translate(0,0)"/>
<path d="M0 0 C1.18896378 0.00081573 1.18896378 0.00081573 2.40194702 0.00164795 C33.74463636 0.10041734 60.07013075 9.71947927 83.0625 31.5 C87.37524368 35.93958908 91.02576172 40.6742433 94.5625 45.75 C95.0363916 46.42820801 95.5102832 47.10641602 95.99853516 47.80517578 C96.43472168 48.45470215 96.8709082 49.10422852 97.3203125 49.7734375 C97.70590332 50.34755371 98.09149414 50.92166992 98.48876953 51.51318359 C99.63418414 53.76097871 100.03668832 55.89507755 100.4375 58.375 C97.89674477 60.00108335 95.35598164 61.62715433 92.81518555 63.25317383 C90.58605156 64.67989181 88.35702805 66.10678071 86.12817383 67.53393555 C80.78730386 70.95340102 75.44553026 74.37140255 70.09822083 77.78079224 C68.37628652 78.87876623 66.65475768 79.97737309 64.93334961 81.07617188 C62.76048961 82.46285133 60.5868481 83.84830708 58.41235352 85.23242188 C57.42420654 85.86341797 56.43605957 86.49441406 55.41796875 87.14453125 C54.55067139 87.69729736 53.68337402 88.25006348 52.78979492 88.81958008 C50.42320254 90.3409821 50.42320254 90.3409821 48.2512207 92.0769043 C46.4375 93.375 46.4375 93.375 44.4375 93.375 C43.30763678 91.75324382 42.25909687 90.07453157 41.25 88.375 C35.82595246 79.66297313 30.31318901 73.59888338 21.4375 68.375 C20.468125 67.7975 19.49875 67.22 18.5 66.625 C7.80477596 62.25960243 -5.37659095 61.48263042 -16.3203125 65.33984375 C-24.18678609 68.97157807 -30.45091238 75.13218827 -33.703125 83.20703125 C-36.26177613 92.63914973 -35.27943015 102.81991025 -30.5625 111.375 C-18.68458445 129.36854713 8.29407438 137.0424737 27.20019531 145.14624023 C63.88216554 160.89345588 100.16708301 179.7711772 116.4375 218.375 C125.87323031 245.12348621 125.60037735 275.57524017 113.6875 301.5 C102.09998797 325.02042896 82.4451292 340.21474377 58.4375 349.375 C57.50188232 349.73634033 57.50188232 349.73634033 56.54736328 350.10498047 C46.66930614 353.84985822 36.83556881 355.78356858 26.4375 357.375 C25.53354492 357.54628418 24.62958984 357.71756836 23.69824219 357.89404297 C19.95435957 358.44626285 16.26459489 358.59165083 12.48828125 358.6484375 C11.72596695 358.66087494 10.96365265 358.67331238 10.17823792 358.68612671 C-17.22323033 359.04577564 -42.51305374 356.42275906 -67.5625 344.375 C-68.97982422 343.73111328 -68.97982422 343.73111328 -70.42578125 343.07421875 C-82.93856144 337.19072608 -93.59528241 328.89080375 -103.5625 319.375 C-104.44421875 318.58802734 -104.44421875 318.58802734 -105.34375 317.78515625 C-113.72050088 310.02085649 -123.28596364 297.96547918 -127.5625 287.375 C-127.41870117 285.44335938 -127.41870117 285.44335938 -126.5625 283.375 C-124.47485352 281.78198242 -124.47485352 281.78198242 -121.69140625 280.23046875 C-120.13498413 279.34911255 -120.13498413 279.34911255 -118.54711914 278.44995117 C-116.85317017 277.51566284 -116.85317017 277.51566284 -115.125 276.5625 C-113.96073771 275.90802382 -112.79725422 275.25216044 -111.63452148 274.5949707 C-109.19815024 273.21934525 -106.75846004 271.84988517 -104.31640625 270.484375 C-98.21968908 267.06786483 -92.17552308 263.55990478 -86.125 260.0625 C-85.01261963 259.42272217 -83.90023926 258.78294434 -82.75415039 258.1237793 C-81.72281982 257.52992432 -80.69148926 256.93606934 -79.62890625 256.32421875 C-78.72084229 255.80174561 -77.81277832 255.27927246 -76.87719727 254.7409668 C-75.07123799 253.67522034 -73.30728871 252.53819248 -71.5625 251.375 C-70.5725 251.375 -69.5825 251.375 -68.5625 251.375 C-66.90625 253.578125 -66.90625 253.578125 -65.0625 256.625 C-54.11519243 273.68102615 -38.64554465 287.48567238 -18.5625 292.375 C0.15689995 295.37412967 20.23125736 295.21271506 36.4375 284.375 C37.489375 283.67375 38.54125 282.9725 39.625 282.25 C45.29168795 277.29560523 49.00343636 269.16393169 49.67578125 261.74609375 C49.90854224 252.54590947 48.32665132 244.63395081 42.5625 237.25 C27.12968916 221.43376529 2.7891807 214.06653421 -17.20111084 205.51153564 C-50.98862488 191.03974772 -84.82777782 172.85249844 -99.8359375 137.19921875 C-109.50896414 111.7633364 -110.34156867 81.05507485 -99.2890625 55.9765625 C-94.42411686 45.82841797 -88.37608703 37.4323136 -80.5625 29.375 C-80.03527344 28.77429688 -79.50804687 28.17359375 -78.96484375 27.5546875 C-68.57009645 16.12312398 -53.70239963 9.11190561 -39.1875 4.6875 C-38.52830566 4.48471436 -37.86911133 4.28192871 -37.18994141 4.07299805 C-24.93702202 0.53651432 -12.65661013 -0.03271424 0 0 Z " fill="#333330" transform="translate(584.5625,348.625)"/>
<path d="M0 0 C23.76 0 47.52 0 72 0 C72.04414543 33.24932174 72.08105276 66.49861489 72.10213066 99.74795714 C72.10463187 103.67922083 72.10722054 107.61048445 72.10986328 111.54174805 C72.1103879 112.32434508 72.11091252 113.1069421 72.11145304 113.91325419 C72.12014003 126.56135596 72.13590054 139.20943943 72.15430559 151.85753036 C72.17305223 164.84935422 72.18412677 177.84116854 72.18817699 190.83300537 C72.19091219 198.84047746 72.19953037 206.8478978 72.21583293 214.85535394 C72.22772035 221.01018068 72.22889937 227.1649685 72.22621536 233.31980515 C72.22676308 235.83393483 72.23070773 238.34806658 72.23841095 240.86218452 C72.33063252 272.52877569 72.33063252 272.52877569 67.375 287.4375 C67.11702637 288.22825928 66.85905273 289.01901855 66.59326172 289.83374023 C62.37413464 302.27083077 56.73006374 313.12802919 48 323 C47.53335938 323.6084375 47.06671875 324.216875 46.5859375 324.84375 C34.96469625 339.79505453 15.84127886 347.69204497 -2 352 C-3.82917969 352.47953125 -3.82917969 352.47953125 -5.6953125 352.96875 C-26.70713485 357.62845598 -51.37752037 356.88517727 -72 351 C-72.66016113 350.82339844 -73.32032227 350.64679688 -74.00048828 350.46484375 C-88.81075104 346.4409233 -102.51943923 339.16728629 -114 329 C-114.65742188 328.484375 -115.31484375 327.96875 -115.9921875 327.4375 C-126.78499709 318.76857663 -139.98964277 302.72708011 -143 289 C-135.7252667 284.02236404 -128.23155962 279.42817944 -120.6875 274.875 C-119.45063439 274.12711588 -118.21381851 273.37914949 -116.97705078 272.63110352 C-114.49924602 271.13293406 -112.02059951 269.63616897 -109.54150391 268.14013672 C-106.28729002 266.1753429 -103.03962387 264.19991853 -99.79296875 262.22265625 C-97.98711171 261.1273856 -96.18113109 260.03231868 -94.375 258.9375 C-93.54701904 258.43138184 -92.71903809 257.92526367 -91.8659668 257.40380859 C-91.11355713 256.9495752 -90.36114746 256.4953418 -89.5859375 256.02734375 C-88.61213135 255.43554321 -88.61213135 255.43554321 -87.61865234 254.83178711 C-86 254 -86 254 -84 254 C-82.56605854 256.24640723 -81.24145753 258.49212858 -79.9375 260.8125 C-72.30624683 273.88316575 -63.27648226 285.88900198 -48 290 C-44.88179179 290.39473566 -41.82733016 290.4303134 -38.6875 290.375 C-37.85371826 290.36484863 -37.01993652 290.35469727 -36.16088867 290.34423828 C-26.06119164 290.09103433 -17.34576764 288.39596651 -10 281 C-2.1111236 271.23674304 -0.85379898 259.60290277 -0.84178162 247.48379517 C-0.83684364 246.42511211 -0.83190566 245.36642905 -0.82681805 244.27566469 C-0.81146218 240.72886266 -0.80308756 237.1820787 -0.79467773 233.63525391 C-0.78509771 231.09252768 -0.77508756 228.54980305 -0.76467896 226.00708008 C-0.7432395 220.53308266 -0.72479264 215.05908817 -0.70907402 209.58507156 C-0.68634248 201.67060605 -0.65820425 193.75616699 -0.62875474 185.84172396 C-0.58111905 173.00045137 -0.53784399 160.15916794 -0.49731445 147.31787109 C-0.45793904 134.84520627 -0.41650792 122.37255107 -0.37231445 109.89990234 C-0.36822804 108.74629957 -0.36822804 108.74629957 -0.36405908 107.56939168 C-0.35037927 103.71112499 -0.33665906 99.85285843 -0.32291877 95.99459195 C-0.2090172 63.99641353 -0.10299784 31.99821584 0 0 Z " fill="#333430" transform="translate(345,352)"/>
</svg>
