<?xml version="1.0" encoding="UTF-8"?>
<svg version="1.1" xmlns="http://www.w3.org/2000/svg" width="225" height="225">
<path d="M0 0 C74.25 0 148.5 0 225 0 C225 74.25 225 148.5 225 225 C150.75 225 76.5 225 0 225 C0 150.75 0 76.5 0 0 Z " fill="#575757" transform="translate(0,0)"/>
<path d="M0 0 C74.25 0 148.5 0 225 0 C225 35.31 225 70.62 225 107 C150.75 107 76.5 107 0 107 C0 71.69 0 36.38 0 0 Z " fill="#7E7F7F" transform="translate(0,0)"/>
<path d="M0 0 C74.25 0 148.5 0 225 0 C225 16.83 225 33.66 225 51 C150.75 51 76.5 51 0 51 C0 34.17 0 17.34 0 0 Z " fill="#6C7E79" transform="translate(0,0)"/>
<path d="M0 0 C14.52 0 29.04 0 44 0 C44 0.99 44 1.98 44 3 C42.35 3.33 40.7 3.66 39 4 C39 6.97 39 9.94 39 13 C40.65 13.33 42.3 13.66 44 14 C44 27.53 44 41.06 44 55 C50.93 55.33 57.86 55.66 65 56 C65 56.33 65 56.66 65 57 C103.28 57.33 141.56 57.66 181 58 C181 69.55 181 81.1 181 93 C106.75 93 32.5 93 -44 93 C-44 80.79 -44 68.58 -44 56 C-26.84 55.67 -9.68 55.34 8 55 C6.98116902 49.90584511 5.70644348 45.03102502 4 40.125 C2.72360205 36.1362564 1.85571132 32.09649035 1 28 C1.92683594 28.01160156 2.85367188 28.02320313 3.80859375 28.03515625 C5.60490234 28.04869141 5.60490234 28.04869141 7.4375 28.0625 C8.63246094 28.07410156 9.82742187 28.08570313 11.05859375 28.09765625 C13.88873341 28.33901792 13.88873341 28.33901792 15 27 C10.05 27 5.1 27 0 27 C0 26.67 0 26.34 0 26 C1.14339844 26.01160156 2.28679688 26.02320313 3.46484375 26.03515625 C4.95572754 26.04453288 6.44661309 26.05363321 7.9375 26.0625 C8.69224609 26.07087891 9.44699219 26.07925781 10.22460938 26.08789062 C12.14994313 26.09652441 14.07535581 26.05224333 16 26 C16.495 25.505 16.495 25.505 17 25 C11.06 25 5.12 25 -1 25 C-1 24.67 -1 24.34 -1 24 C0.08269165 24.00785522 0.08269165 24.00785522 1.18725586 24.01586914 C4.43732849 24.03657358 7.68738728 24.04963918 10.9375 24.0625 C12.64196289 24.07506836 12.64196289 24.07506836 14.38085938 24.08789062 C15.46044922 24.09111328 16.54003906 24.09433594 17.65234375 24.09765625 C18.65257568 24.10289307 19.65280762 24.10812988 20.68334961 24.11352539 C22.96207228 24.26181095 22.96207228 24.26181095 24 23 C15.75 23 7.5 23 -1 23 C-4.24590164 11.63934426 -4.24590164 11.63934426 -3 6 C-1.06833984 6.01740234 -1.06833984 6.01740234 0.90234375 6.03515625 C2.58072772 6.0445327 4.25911326 6.05363305 5.9375 6.0625 C6.78763672 6.07087891 7.63777344 6.07925781 8.51367188 6.08789062 C9.32255859 6.09111328 10.13144531 6.09433594 10.96484375 6.09765625 C11.7137085 6.10289307 12.46257324 6.10812988 13.23413086 6.11352539 C15.02667739 6.19341752 15.02667739 6.19341752 16 5 C10.06 5 4.12 5 -2 5 C-1.67 4.01 -1.34 3.02 -1 2 C-0.3387915 2.00523682 0.32241699 2.01047363 1.00366211 2.01586914 C3.98159851 2.03657656 6.95951982 2.04964012 9.9375 2.0625 C10.97841797 2.07087891 12.01933594 2.07925781 13.09179688 2.08789062 C14.57583008 2.09272461 14.57583008 2.09272461 16.08984375 2.09765625 C17.00628662 2.10289307 17.92272949 2.10812988 18.86694336 2.11352539 C20.98363023 2.23921211 20.98363023 2.23921211 22 1 C14.74 1 7.48 1 0 1 C0 0.67 0 0.34 0 0 Z " fill="#7D7D7D" transform="translate(44,132)"/>
<path d="M0 0 C74.25 0 148.5 0 225 0 C225 0.66 225 1.32 225 2 C194.97 2 164.94 2 134 2 C133.67 5.3 133.34 8.6 133 12 C118.15 12 103.3 12 88 12 C88 15.96 88 19.92 88 24 C86.38219843 25.61780157 84.54364482 25.22272147 82.30859375 25.31640625 C80.89223633 25.37924805 80.89223633 25.37924805 79.44726562 25.44335938 C78.45404297 25.48267578 77.46082031 25.52199219 76.4375 25.5625 C75.44041016 25.60568359 74.44332031 25.64886719 73.41601562 25.69335938 C70.9441585 25.79980298 68.4721969 25.90181928 66 26 C65.67 26.66 65.34 27.32 65 28 C64.0409375 28.2165625 64.0409375 28.2165625 63.0625 28.4375 C60.61789145 28.86165035 60.61789145 28.86165035 59 32 C57.39504105 34.87703753 56.53854056 37.52708869 55.875 40.75 C55.58625 42.1525 55.2975 43.555 55 45 C60.61 45.33 66.22 45.66 72 46 C70.02 46.99 70.02 46.99 68 48 C67.505 48.99 67.505 48.99 67 50 C65.02 50 63.04 50 61 50 C60.505 50.99 60.505 50.99 60 52 C59.34 52.66 58.68 53.32 58 54 C54.2136567 60.69999781 53.41309545 67.55375558 55 75 C55.99 76.98 56.98 78.96 58 81 C38.86 81 19.72 81 0 81 C0 54.27 0 27.54 0 0 Z " fill="#5A5A5A" transform="translate(0,107)"/>
<path d="M0 0 C28.38 0 56.76 0 86 0 C86 18.81 86 37.62 86 57 C65.21 57 44.42 57 23 57 C24.32 56.34 25.64 55.68 27 55 C29.80218582 52.73669607 30.81625839 50.36911073 32 47 C34.31 46.67 36.62 46.34 39 46 C39 44.02 39 42.04 39 40 C37.35 39.67 35.7 39.34 34 39 C34.00523682 38.44538086 34.01047363 37.89076172 34.01586914 37.31933594 C34.03671031 34.79623557 34.04968282 32.27315336 34.0625 29.75 C34.07506836 28.44095703 34.07506836 28.44095703 34.08789062 27.10546875 C34.09111328 26.26113281 34.09433594 25.41679687 34.09765625 24.546875 C34.10289307 23.77182617 34.10812988 22.99677734 34.11352539 22.19824219 C34.00036998 20.00716402 33.60552448 18.10362139 33 16 C34.65 15.67 36.3 15.34 38 15 C37.98839844 14.28972656 37.97679687 13.57945312 37.96484375 12.84765625 C37.95582031 11.92855469 37.94679687 11.00945312 37.9375 10.0625 C37.92589844 9.14597656 37.91429687 8.22945312 37.90234375 7.28515625 C38 5 38 5 39 4 C34.05 3.67 29.1 3.34 24 3 C24 2.67 24 2.34 24 2 C16.08 1.67 8.16 1.34 0 1 C0 0.67 0 0.34 0 0 Z " fill="#606060" transform="translate(139,132)"/>
<path d="M0 0 C13.04119828 -0.10531468 26.00156173 -0.16652651 39 1 C39.88002354 5.0903494 40.23758973 8.80258142 40 13 C39.34 13.66 38.68 14.32 38 15 C37.44700191 19.77078017 38.04168228 24.32820109 39 29 C39 31.66666667 39 34.33333333 39 37 C39.16371094 37.78761719 39.32742187 38.57523438 39.49609375 39.38671875 C40.36677924 43.90213418 40.05526712 48.41282867 40 53 C33.565 53.495 33.565 53.495 27 54 C56.205 54.495 56.205 54.495 86 55 C86 55.33 86 55.66 86 56 C49.37 56 12.74 56 -25 56 C-25 55.67 -25 55.34 -25 55 C-12.13 54.67 0.74 54.34 14 54 C7.07 53.505 7.07 53.505 0 53 C0 38.81 0 24.62 0 10 C4.455 9.505 4.455 9.505 9 9 C9.66 7.68 10.32 6.36 11 5 C7.37 5 3.74 5 0 5 C0 4.01 0 3.02 0 2 C0.92683594 2.01160156 1.85367188 2.02320313 2.80859375 2.03515625 C4.60490234 2.04869141 4.60490234 2.04869141 6.4375 2.0625 C8.22994141 2.07990234 8.22994141 2.07990234 10.05859375 2.09765625 C12.88873341 2.33901792 12.88873341 2.33901792 14 1 C9.38 1 4.76 1 0 1 C0 0.67 0 0.34 0 0 Z " fill="#484848" transform="translate(139,134)"/>
<path d="M0 0 C12.87 0 25.74 0 39 0 C39 18.15 39 36.3 39 55 C49.89 55.495 49.89 55.495 61 56 C61 56.33 61 56.66 61 57 C31.66083435 57.8924461 2.35181046 58.12713185 -27 58 C-27 57.67 -27 57.34 -27 57 C-14.13 56.67 -1.26 56.34 12 56 C8.04 55.67 4.08 55.34 0 55 C0 48.07 0 41.14 0 34 C4.455 33.505 4.455 33.505 9 33 C11.16247221 30.09748698 11.16247221 30.09748698 12 27 C8.04 27 4.08 27 0 27 C0 26.67 0 26.34 0 26 C0.92683594 26.01160156 1.85367188 26.02320313 2.80859375 26.03515625 C4.60490234 26.04869141 4.60490234 26.04869141 6.4375 26.0625 C7.63246094 26.07410156 8.82742187 26.08570313 10.05859375 26.09765625 C12.88873341 26.33901792 12.88873341 26.33901792 14 25 C9.38 25 4.76 25 0 25 C0 21.37 0 17.74 0 14 C1.65 13.67 3.3 13.34 5 13 C5 12.67 5 12.34 5 12 C6.1446875 11.938125 6.1446875 11.938125 7.3125 11.875 C10.32405113 11.22176391 10.32405113 11.22176391 11.8125 7.9375 C12.204375 6.968125 12.59625 5.99875 13 5 C10.36 5 7.72 5 5 5 C5 4.67 5 4.34 5 4 C2.525 3.505 2.525 3.505 0 3 C0 2.67 0 2.34 0 2 C1.93166016 2.01740234 1.93166016 2.01740234 3.90234375 2.03515625 C5.58072772 2.0445327 7.25911326 2.05363305 8.9375 2.0625 C9.78763672 2.07087891 10.63777344 2.07925781 11.51367188 2.08789062 C12.32255859 2.09111328 13.13144531 2.09433594 13.96484375 2.09765625 C14.7137085 2.10289307 15.46257324 2.10812988 16.23413086 2.11352539 C18.02667739 2.19341752 18.02667739 2.19341752 19 1 C12.73 1 6.46 1 0 1 C0 0.67 0 0.34 0 0 Z " fill="#585858" transform="translate(94,132)"/>
<path d="M0 0 C14.52 0 29.04 0 44 0 C44.84964745 4.24823725 45.16499805 7.71005077 45 12 C43.45049732 13.54950268 41.90009406 13.21655193 39.74609375 13.31640625 C38.46508789 13.37924805 38.46508789 13.37924805 37.15820312 13.44335938 C36.26037109 13.48267578 35.36253906 13.52199219 34.4375 13.5625 C33.08495117 13.62727539 33.08495117 13.62727539 31.70507812 13.69335938 C29.47021515 13.79978142 27.23523692 13.90179988 25 14 C24.67 14.66 24.34 15.32 24 16 C23.04673828 16.19335938 23.04673828 16.19335938 22.07421875 16.390625 C19.88162663 16.80733022 19.88162663 16.80733022 18.76953125 18.671875 C17.03197341 22.44485773 15.59269325 25.85114727 15 30 C14.67 30.99 14.34 31.98 14 33 C19.94 33.33 25.88 33.66 32 34 C32 34.33 32 34.66 32 35 C29.525 35.495 29.525 35.495 27 36 C27 36.33 27 36.66 27 37 C25.865625 37.12375 24.73125 37.2475 23.5625 37.375 C22.386875 37.58125 21.21125 37.7875 20 38 C19.36665296 39.26669408 18.74069468 40.53713244 18.125 41.8125 C17 44 17 44 15.44921875 46.1953125 C13.64525857 49.68653463 13.633111 52.15067575 13.6875 56.0625 C13.69330078 57.87427734 13.69330078 57.87427734 13.69921875 59.72265625 C14.09020815 63.98291738 15.00617865 66.00617865 18 69 C9.42 69 0.84 69 -8 69 C-8 64.71 -8 60.42 -8 56 C-5.03 55.505 -5.03 55.505 -2 55 C-2 46.09 -2 37.18 -2 28 C-3.65 27.67 -5.3 27.34 -7 27 C-7.0270043 25.54176788 -7.04639787 24.08339325 -7.0625 22.625 C-7.07410156 21.81289062 -7.08570312 21.00078125 -7.09765625 20.1640625 C-7 18 -7 18 -6 16 C-5.01 15.5978125 -5.01 15.5978125 -4 15.1875 C-1.79432599 14.16993751 -1.79432599 14.16993751 -1.25 11.8125 C-0.94558492 8.85842856 -0.94558492 8.85842856 -1 5.3125 C-1 2 -1 2 0 0 Z " fill="#303030" transform="translate(88,119)"/>
</svg>
