<?xml version="1.0" encoding="UTF-8"?>
<svg version="1.1" xmlns="http://www.w3.org/2000/svg" width="497" height="512">
<path d="M0 0 C1.45058804 0.50212663 2.90814854 0.9850803 4.375 1.4375 C13.84407392 4.55149075 22.46379537 9.28386217 31.19580078 14.02587891 C32.81037581 14.89761833 34.4339314 15.75267664 36.05859375 16.60546875 C42.39742654 19.95920582 48.19496896 23.79785066 54 28 C54.99 28.66 55.98 29.32 57 30 C57 30.66 57 31.32 57 32 C57.59603027 32.11537109 58.19206055 32.23074219 58.80615234 32.34960938 C62.39525626 33.41363929 64.87669678 36.05755994 67.625 38.5 C68.24455566 39.04172852 68.86411133 39.58345703 69.50244141 40.14160156 C71.3415082 41.75381683 73.17150933 43.37580997 75 45 C76.41539062 46.24523438 76.41539062 46.24523438 77.859375 47.515625 C85.89033083 54.64870999 93.16116765 61.98464363 99.87890625 70.37890625 C101.71577861 72.64877983 103.61164294 74.82881085 105.5625 77 C108 80 108 80 108 83 C108.66 83 109.32 83 110 83 C116.31122635 90.67671596 122.33120906 99.76618909 126 109 C127.27206032 111.40920514 128.56247564 113.80078923 129.875 116.1875 C133.01819083 122.00570206 135.71844377 127.78659192 138 134 C138.69029297 135.74990234 138.69029297 135.74990234 139.39453125 137.53515625 C143.31341456 147.521461 146.52658908 157.56075098 149 168 C149.23138672 168.93150879 149.46277344 169.86301758 149.70117188 170.82275391 C158.39691375 207.13160025 158.39982356 251.99915485 145.88208008 287.4152832 C145.10004718 289.70683655 144.48058114 291.9553985 143.9375 294.3125 C142.97213003 298.10962188 141.57187921 301.41611539 140 305 C139.50637072 306.43259802 139.02798408 307.87051126 138.5625 309.3125 C133.82139083 323.65555248 127.06561703 337.77871167 118.30859375 350.1328125 C116.40582387 352.84780952 114.75111064 355.7056008 113.078125 358.56640625 C112.54445313 359.27603516 112.54445313 359.27603516 112 360 C111.34 360 110.68 360 110 360 C109.74863281 360.72316406 109.49726563 361.44632812 109.23828125 362.19140625 C107.89848185 365.23025725 106.29935606 367.38146771 104.1875 369.9375 C103.47722656 370.79988281 102.76695312 371.66226562 102.03515625 372.55078125 C101.36355469 373.35902344 100.69195312 374.16726563 100 375 C99.22462891 375.98033203 99.22462891 375.98033203 98.43359375 376.98046875 C97.3363929 378.35933907 96.17498508 379.68678139 95 381 C94.34 381 93.68 381 93 381 C92.938125 381.556875 92.87625 382.11375 92.8125 382.6875 C91.6523629 385.98942866 89.54440205 387.62907991 87 390 C85.88625 391.175625 85.88625 391.175625 84.75 392.375 C81.7261964 395.26135798 78.52393285 397.74720464 75.18359375 400.25390625 C72.92274113 401.9872835 72.92274113 401.9872835 70.84765625 404.21484375 C69 406 69 406 67 406 C67 406.66 67 407.32 67 408 C65.3203125 409.5078125 65.3203125 409.5078125 63.125 411.125 C62.40570313 411.66382813 61.68640625 412.20265625 60.9453125 412.7578125 C59 414 59 414 57 414 C57 414.66 57 415.32 57 416 C54.57119713 417.6754521 52.14829581 419.22878665 49.625 420.75 C48.88403076 421.20246094 48.14306152 421.65492188 47.37963867 422.12109375 C45.90532482 423.02033663 44.42936292 423.91688383 42.95166016 424.81054688 C41.43795773 425.73308356 39.94013039 426.68169255 38.44921875 427.640625 C23.91720553 436.88585462 7.30454227 443.70146278 -9 449.125 C-10.1748999 449.51619019 -10.1748999 449.51619019 -11.37353516 449.9152832 C-16.04225872 451.43971494 -20.63968 452.74258148 -25.49584961 453.5324707 C-28.20373793 454.03803823 -30.82054239 454.72972893 -33.48046875 455.4453125 C-77.28670476 466.47683421 -126.06744102 460.28013668 -168 445 C-168.91136719 444.67515625 -169.82273438 444.3503125 -170.76171875 444.015625 C-184.4769327 438.84691627 -197.32552361 431.28108218 -210 424 C-210 423.34 -210 422.68 -210 422 C-211.65 421.67 -213.3 421.34 -215 421 C-215 420.34 -215 419.68 -215 419 C-219.12467583 419.55044606 -221.55658462 420.83694092 -224.875 423.3125 C-228.22669175 425.74470109 -231.5323061 427.98374076 -235.16015625 429.97265625 C-237.4571105 431.25524429 -239.69198707 432.62945101 -241.9375 434 C-246.19697044 436.5700327 -250.51876196 438.84236687 -255 441 C-254.68577647 448.5570758 -253.21709898 455.41753259 -251.18359375 462.6875 C-249.78056076 467.72268382 -248.53820125 472.79415517 -247.3125 477.875 C-246.99104004 479.17606689 -246.99104004 479.17606689 -246.66308594 480.50341797 C-245.34413414 485.99905047 -244.42057726 491.35865698 -244 497 C-245 498 -245 498 -247.25 498.375 C-251.17283755 497.84006761 -252.40688241 495.91725729 -255 493 C-255.9075 492.13375 -256.815 491.2675 -257.75 490.375 C-260 488 -260 488 -261 485 C-262.49273437 485.08302368 -262.49273437 485.08302368 -264.015625 485.16772461 C-319.1106179 488.22396296 -319.1106179 488.22396296 -343 488 C-342.62109375 486.0625 -342.62109375 486.0625 -342 484 C-340.67532254 483.3162955 -339.34136367 482.65035814 -338 482 C-337.31731862 480.67479497 -336.6492959 479.34187818 -336 478 C-335.01 477.67 -334.02 477.34 -333 477 C-332.814375 476.13375 -332.814375 476.13375 -332.625 475.25 C-331.69359645 471.89694722 -329.51817904 470.34648501 -327 468 C-325.7625 466.7625 -325.7625 466.7625 -324.5 465.5 C-320.33333333 461.33333333 -316.16666667 457.16666667 -312 453 C-311.154375 452.113125 -310.30875 451.22625 -309.4375 450.3125 C-307.30387276 448.28828954 -305.69176935 447.09664677 -303 446 C-303.66 445.01 -304.32 444.02 -305 443 C-304.27482565 434.06222613 -290.25753736 424.19244982 -284.20507812 418.24145508 C-280.21532892 414.30088826 -276.44713748 410.26303981 -272.79052734 406.01318359 C-269.56684061 402.38862389 -266.08536964 399.02164276 -262.625 395.625 C-261.19824009 394.22367253 -259.77364493 392.8201365 -258.3515625 391.4140625 C-257.73104004 390.8051416 -257.11051758 390.1962207 -256.47119141 389.56884766 C-254.90538038 388.04876539 -254.90538038 388.04876539 -254 386 C-254.66 386 -255.32 386 -256 386 C-257.5859375 384.171875 -257.5859375 384.171875 -259.375 381.75 C-261.73558752 378.56788642 -264.18721564 375.78547577 -267 373 C-273.67962145 365.14972324 -280.04938602 356.85457709 -284.99609375 347.7890625 C-285.70092472 346.5329824 -286.44730072 345.29975286 -287.22265625 344.0859375 C-295.02851687 331.77920461 -301.56482182 317.88090902 -306 304 C-306.49996726 302.52082227 -306.99996691 301.04165548 -307.5 299.5625 C-307.73976563 298.82257813 -307.97953125 298.08265625 -308.2265625 297.3203125 C-308.75270729 295.74187812 -309.31143676 294.17401554 -309.8984375 292.6171875 C-316.99516603 273.14376442 -319.13022929 252.57434088 -320 232 C-320.03464355 231.21109375 -320.06928711 230.4221875 -320.10498047 229.609375 C-320.7939624 211.12240633 -319.89189846 191.55851249 -315 173.671875 C-314.02430373 170.08924025 -313.27490012 166.51795515 -312.5625 162.875 C-309.17268508 146.92829005 -302.89000562 131.20995946 -295.41796875 116.74609375 C-294.5389892 115.04382757 -293.6826856 113.3293871 -292.86328125 111.59765625 C-290.19537718 105.97165504 -287.07359772 100.67224997 -283.8125 95.375 C-283.37196289 94.65086914 -282.93142578 93.92673828 -282.47753906 93.18066406 C-281.37498412 91.41708464 -280.19385869 89.70309753 -279 88 C-278.34 88 -277.68 88 -277 88 C-276.9175 87.46375 -276.835 86.9275 -276.75 86.375 C-275.72418729 83.12659309 -274.03436106 80.71248141 -272 78 C-271.34 78 -270.68 78 -270 78 C-269.773125 77.46890625 -269.54625 76.9378125 -269.3125 76.390625 C-267.56630711 73.21005938 -265.31938714 70.52001093 -263 67.75 C-262.54882812 67.19570312 -262.09765625 66.64140625 -261.6328125 66.0703125 C-260.46926971 64.67268418 -259.23905262 63.33114437 -258 62 C-257.34 62 -256.68 62 -256 62 C-255.938125 61.443125 -255.87625 60.88625 -255.8125 60.3125 C-253.92239745 54.93297736 -247.57494679 50.35342447 -243 47 C-242.34 47 -241.68 47 -241 47 C-240.74927734 46.40670898 -240.49855469 45.81341797 -240.24023438 45.20214844 C-238.83179546 42.7013376 -237.43334124 41.49634215 -235.15625 39.765625 C-234.40472656 39.19199219 -233.65320313 38.61835937 -232.87890625 38.02734375 C-232.09386719 37.44082031 -231.30882812 36.85429688 -230.5 36.25 C-229.71496094 35.64800781 -228.92992187 35.04601563 -228.12109375 34.42578125 C-222.27023101 30 -222.27023101 30 -220 30 C-220 29.34 -220 28.68 -220 28 C-218.50634766 26.85839844 -218.50634766 26.85839844 -216.4140625 25.609375 C-215.27227539 24.92029053 -215.27227539 24.92029053 -214.10742188 24.21728516 C-213.28822266 23.73308105 -212.46902344 23.24887695 -211.625 22.75 C-210.79806641 22.25419434 -209.97113281 21.75838867 -209.11914062 21.24755859 C-207.47990152 20.26536721 -205.8389845 19.28597005 -204.19628906 18.30957031 C-201.61643334 16.77129262 -199.05947092 15.19689372 -196.5 13.625 C-188.33816631 8.79142675 -180.14009347 5.22656183 -171.18066406 2.16674805 C-167.41833383 0.87736787 -163.78105791 -0.46941209 -160.1875 -2.1875 C-155.90559146 -4.19516529 -151.49430817 -5.24225918 -146.89453125 -6.2890625 C-144.02201536 -6.94343611 -144.02201536 -6.94343611 -141.40234375 -7.921875 C-98.46885355 -21.52651713 -41.11888921 -18.08029112 0 0 Z " fill="#F15A24" transform="translate(343,14)"/>
<path d="M0 0 C11.84350355 9.2461007 19.58640821 20.26378462 23.08203125 34.9609375 C23.32312561 37.78085608 23.31789907 40.57019284 23.26953125 43.3984375 C23.26888672 44.11064453 23.26824219 44.82285156 23.26757812 45.55664062 C23.13971626 61.19840905 18.36254446 75.22274704 7.4609375 86.765625 C-7.06885954 100.17407481 -21.56458138 104.09393569 -40.94140625 103.453125 C-51.16467263 102.82198007 -59.18176048 99.0588745 -67.91796875 93.9609375 C-67.9022583 94.51330078 -67.88654785 95.06566406 -67.87036133 95.63476562 C-67.45121647 112.71182384 -68.58563736 127.24560528 -75.91796875 142.9609375 C-76.37300781 144.04632813 -76.82804687 145.13171875 -77.296875 146.25 C-92.34362172 181.47545759 -118.44352834 210.52607827 -145.16796875 237.3359375 C-145.63973541 237.810383 -146.11150208 238.28482849 -146.5975647 238.77365112 C-152.19402844 244.39420661 -157.86865476 249.83079444 -163.91796875 254.9609375 C-165.04721979 255.93449605 -166.17613749 256.90844141 -167.3046875 257.8828125 C-168.40452045 258.82601951 -169.50478928 259.76871848 -170.60546875 260.7109375 C-171.20069336 261.22116455 -171.79591797 261.7313916 -172.40917969 262.25708008 C-175.93539496 265.27615741 -179.47570219 268.27769808 -183.02709961 271.26708984 C-187.42906363 274.97283488 -191.78660493 278.71224361 -196.04296875 282.5859375 C-200.30262993 286.45960996 -204.72391672 290.09046844 -209.19921875 293.7109375 C-211.83944604 295.89595319 -214.38526595 298.15265141 -216.91796875 300.4609375 C-221.10698994 304.26913859 -225.40977763 307.89102422 -229.8125 311.44921875 C-232.11258612 313.30953998 -234.39996511 315.18146085 -236.6796875 317.06640625 C-244.19252515 323.25797336 -251.81495532 329.15265094 -259.78515625 334.7421875 C-264.85671104 338.33401184 -269.71416369 342.17690483 -274.54296875 346.0859375 C-279.15348939 349.72582222 -283.82524642 353.01258567 -288.97265625 355.86328125 C-291.30028556 357.17666245 -293.57398178 358.56902114 -295.85546875 359.9609375 C-300.11493919 362.5309702 -304.43673071 364.80330437 -308.91796875 366.9609375 C-308.60374522 374.5180133 -307.13506773 381.37847009 -305.1015625 388.6484375 C-303.69852951 393.68362132 -302.45617 398.75509267 -301.23046875 403.8359375 C-300.90900879 405.13700439 -300.90900879 405.13700439 -300.58105469 406.46435547 C-299.26210289 411.95998797 -298.33854601 417.31959448 -297.91796875 422.9609375 C-298.91796875 423.9609375 -298.91796875 423.9609375 -301.16796875 424.3359375 C-305.0908063 423.80100511 -306.32485116 421.87819479 -308.91796875 418.9609375 C-309.82546875 418.0946875 -310.73296875 417.2284375 -311.66796875 416.3359375 C-313.91796875 413.9609375 -313.91796875 413.9609375 -314.91796875 410.9609375 C-316.41070312 411.04396118 -316.41070312 411.04396118 -317.93359375 411.12866211 C-373.02858665 414.18490046 -373.02858665 414.18490046 -396.91796875 413.9609375 C-396.5390625 412.0234375 -396.5390625 412.0234375 -395.91796875 409.9609375 C-394.59329129 409.277233 -393.25933242 408.61129564 -391.91796875 407.9609375 C-391.23528737 406.63573247 -390.56726465 405.30281568 -389.91796875 403.9609375 C-388.92796875 403.6309375 -387.93796875 403.3009375 -386.91796875 402.9609375 C-386.73234375 402.0946875 -386.73234375 402.0946875 -386.54296875 401.2109375 C-385.6115652 397.85788472 -383.43614779 396.30742251 -380.91796875 393.9609375 C-379.68046875 392.7234375 -379.68046875 392.7234375 -378.41796875 391.4609375 C-374.25130208 387.29427083 -370.08463542 383.12760417 -365.91796875 378.9609375 C-365.07234375 378.0740625 -364.22671875 377.1871875 -363.35546875 376.2734375 C-361.22184151 374.24922704 -359.6097381 373.05758427 -356.91796875 371.9609375 C-357.57796875 370.9709375 -358.23796875 369.9809375 -358.91796875 368.9609375 C-358.1927944 360.02316363 -344.17550611 350.15338732 -338.12304688 344.20239258 C-334.13551734 340.26401807 -330.36522706 336.22955942 -326.70898438 331.98339844 C-323.45220484 328.30575917 -319.96228225 324.86144733 -316.48046875 321.3984375 C-315.76826172 320.68236328 -315.05605469 319.96628906 -314.32226562 319.22851562 C-310.27985225 315.19344542 -306.13342389 311.35442526 -301.80883789 307.62475586 C-298.87248875 305.0409961 -296.10999546 302.29839333 -293.35546875 299.5234375 C-292.83017578 299.00201172 -292.30488281 298.48058594 -291.76367188 297.94335938 C-288.989242 295.16215434 -286.34591669 292.32134075 -283.796875 289.33203125 C-278.15131491 282.81047636 -271.87565348 276.86405424 -265.74267578 270.80615234 C-260.23068836 265.35560684 -254.78209113 259.92162227 -249.75097656 254.01660156 C-245.57379468 249.33201559 -241.0102698 244.99226141 -236.54296875 240.5859375 C-234.55311254 238.62267179 -232.5666094 236.65609919 -230.58203125 234.6875 C-229.27419678 233.39706787 -229.27419678 233.39706787 -227.93994141 232.08056641 C-225.87907306 230.12796009 -225.87907306 230.12796009 -224.91796875 227.9609375 C-225.789375 228.22648438 -226.66078125 228.49203125 -227.55859375 228.765625 C-234.33819913 230.77602746 -240.99800346 232.41428817 -248 233.46875 C-251.96543985 234.13761937 -255.81002397 235.15863741 -259.69921875 236.171875 C-264.55706536 237.36275487 -269.46244205 238.28287938 -274.375 239.21484375 C-277.93376649 239.91169794 -277.93376649 239.91169794 -281.40234375 241.01171875 C-285.11340258 242.01370463 -288.52254761 242.36691343 -292.35546875 242.5859375 C-294.20978516 242.69808594 -294.20978516 242.69808594 -296.1015625 242.8125 C-297.03097656 242.86148438 -297.96039063 242.91046875 -298.91796875 242.9609375 C-298.35180891 239.07743482 -296.57952228 237.20323436 -293.91796875 234.3984375 C-290.69221843 230.91869109 -287.58762802 227.40183664 -284.60546875 223.7109375 C-281.16751071 219.46720804 -277.66510362 215.28988065 -274.10546875 211.1484375 C-273.34919189 210.26853149 -273.34919189 210.26853149 -272.57763672 209.37084961 C-270.50539619 206.96241938 -268.43087431 204.55595928 -266.35644531 202.14941406 C-259.02608171 193.64103849 -251.79879027 185.06643402 -244.78515625 176.29296875 C-240.17353184 170.56562875 -235.37064002 165.08777344 -230.3425293 159.72705078 C-227.76904334 156.98205758 -225.26168313 154.20387716 -222.81640625 151.34375 C-218.21489168 146.0610197 -213.26466384 141.12159278 -208.31298828 136.1706543 C-206.67969427 134.53517868 -205.05458405 132.89186042 -203.4296875 131.24804688 C-197.63320708 125.42126782 -191.74549475 119.96775193 -185.29101562 114.86645508 C-182.99379154 113.02182195 -180.82598827 111.0904103 -178.66796875 109.0859375 C-167.19581003 98.83206112 -154.17959804 90.67477961 -140.91796875 82.9609375 C-139.53158203 82.13916016 -139.53158203 82.13916016 -138.1171875 81.30078125 C-124.21001949 73.65768219 -103.5354677 70.10343776 -88.10546875 73.9609375 C-87.05359375 74.2909375 -86.00171875 74.6209375 -84.91796875 74.9609375 C-85.36785156 74.24808594 -85.81773437 73.53523438 -86.28125 72.80078125 C-93.26256483 60.68761685 -94.44969397 44.26125102 -91 30.78515625 C-89.84365139 27.36101717 -88.52310794 24.19676186 -86.91796875 20.9609375 C-86.48355469 20.06375 -86.04914063 19.1665625 -85.6015625 18.2421875 C-78.29810612 4.75888341 -65.79591967 -4.34628079 -51.5234375 -9.3125 C-33.60445422 -14.30939789 -15.09951468 -10.55146809 0 0 Z " fill="#F9F3F0" transform="translate(396.91796875,88.0390625)"/>
<path d="M0 0 C1.78277344 -0.01160156 1.78277344 -0.01160156 3.6015625 -0.0234375 C9.56765968 -0.01012032 14.75703143 0.17415238 20.375 2.25 C20.375 6.25 20.375 6.25 19.05540466 8.04388428 C18.43698196 8.65040833 17.81855927 9.25693237 17.18139648 9.88183594 C16.13416664 10.92377106 16.13416664 10.92377106 15.06578064 11.98675537 C14.30028397 12.72846985 13.53478729 13.47018433 12.74609375 14.234375 C11.96363785 15.00879944 11.18118195 15.78322388 10.37501526 16.58111572 C7.86341908 19.06366176 5.33863937 21.53226153 2.8125 24 C0.31389724 26.45590191 -2.18183334 28.91465151 -4.67503357 31.3760376 C-6.22737669 32.90693609 -7.78322187 34.43429459 -9.34315491 35.9574585 C-13.44726381 39.98756598 -17.35411906 44.10797946 -21.08869934 48.48390198 C-23.51062999 51.26810109 -26.11958185 53.85195775 -28.75 56.4375 C-29.24886719 56.93185547 -29.74773437 57.42621094 -30.26171875 57.93554688 C-31.1955575 58.86085186 -32.13043993 59.78510615 -33.06689453 60.70776367 C-35.26145713 62.87997488 -37.44199212 65.06618902 -39.625 67.25 C-40.77449932 68.39954242 -41.9240219 69.54906159 -43.07356262 70.69856262 C-43.7114975 71.3364975 -44.34943237 71.97443237 -45.00669861 72.63169861 C-68.21279907 95.83779907 -91.41889954 119.04389954 -114.625 142.25 C-115.10615768 141.83735901 -115.58731537 141.42471802 -116.08305359 140.99957275 C-117.02940422 140.18815826 -117.02940422 140.18815826 -117.99487305 139.36035156 C-118.93317207 138.55576508 -118.93317207 138.55576508 -119.89042664 137.73492432 C-121.1598741 136.6481825 -122.43253241 135.56518827 -123.70703125 134.484375 C-128.42413216 130.43810334 -132.79223812 126.1139699 -137.1484375 121.68359375 C-140.03567035 118.84645484 -143.07385456 116.25853002 -146.2265625 113.72265625 C-147.625 112.25 -147.625 112.25 -147.625 109.25 C-146.54272461 107.65942383 -146.54272461 107.65942383 -145.02734375 105.95703125 C-144.4765918 105.33078857 -143.92583984 104.7045459 -143.35839844 104.05932617 C-142.76575195 103.40037354 -142.17310547 102.7414209 -141.5625 102.0625 C-140.9634082 101.38485596 -140.36431641 100.70721191 -139.74707031 100.0090332 C-138.56527508 98.67301401 -137.38062059 97.33951758 -136.19287109 96.00878906 C-134.40240819 94.00030343 -132.63671648 91.97121546 -130.875 89.9375 C-126.83638652 85.33466846 -122.73512598 80.78895132 -118.625 76.25 C-117.79097656 75.321875 -116.95695312 74.39375 -116.09765625 73.4375 C-106.49554667 62.83428942 -96.57851351 52.46986389 -85.625 43.25 C-84.56650369 42.32950842 -83.50933933 41.40748414 -82.453125 40.484375 C-58.55726492 19.66553427 -32.92095538 -0.21563945 0 0 Z " fill="#FF9420" transform="translate(295.625,165.75)"/>
<path d="M0 0 C2.2890625 2.03125 2.2890625 2.03125 4.625 4.5 C7.50277024 7.66693163 7.50277024 7.66693163 11 10 C11 10.99 11 11.98 11 13 C9.19921875 14.69140625 9.19921875 14.69140625 6.6875 16.5625 C2.81461067 19.54080644 -0.85077815 22.61952388 -4.4375 25.9375 C-8.9382981 30.08280488 -13.58199757 33.98063219 -18.34765625 37.81640625 C-21.74893995 40.61657942 -24.99335155 43.57068598 -28.22265625 46.56640625 C-30 48 -30 48 -32 48 C-32 48.66 -32 49.32 -32 50 C-33.58984375 51.453125 -33.58984375 51.453125 -35.9375 53.25 C-39.27576217 55.84642613 -42.57707226 58.46442127 -45.81640625 61.18359375 C-69.98892576 81.46344064 -96.3512371 98.82926194 -124 114 C-122.83931106 120.81031742 -121.48333427 127.56594346 -120 134.3125 C-119.8340332 135.07675293 -119.66806641 135.84100586 -119.49707031 136.62841797 C-118.77933524 139.85540561 -118.01707718 142.95009667 -116.9453125 146.08203125 C-115.83756617 149.50139698 -115.34533793 152.81386997 -114.875 156.375 C-114.62363281 158.24285156 -114.62363281 158.24285156 -114.3671875 160.1484375 C-114.24601562 161.08945312 -114.12484375 162.03046875 -114 163 C-117.43880802 161.51972261 -119.65317924 159.58477056 -122.27783203 156.93334961 C-123.11194611 156.09585678 -123.94606018 155.25836395 -124.80545044 154.39549255 C-125.69722992 153.49025345 -126.5890094 152.58501434 -127.5078125 151.65234375 C-128.91597888 150.23623158 -130.32414773 148.82012186 -131.73246574 147.4041605 C-133.70059588 145.42291095 -135.66414604 143.43715265 -137.62768555 141.45135498 C-141.07077107 137.97023439 -144.51873223 134.49395783 -147.97018433 131.02113342 C-149.80701904 129.1720022 -151.64117469 127.32020529 -153.47244263 125.46556091 C-154.30025238 124.63122025 -155.12806213 123.79687958 -155.98095703 122.93725586 C-156.71057648 122.19938339 -157.44019592 121.46151093 -158.19192505 120.70127869 C-159.90132739 118.9296594 -159.90132739 118.9296594 -162 118 C-161.43796533 114.18768299 -159.8337871 112.4927182 -157.10546875 109.84765625 C-156.31462891 109.07099609 -155.52378906 108.29433594 -154.70898438 107.49414062 C-153.46084961 106.29047852 -153.46084961 106.29047852 -152.1875 105.0625 C-150.55373237 103.47236795 -148.92215183 101.87998511 -147.29296875 100.28515625 C-146.5661792 99.58269775 -145.83938965 98.88023926 -145.09057617 98.15649414 C-142.90038142 95.97687956 -142.90038142 95.97687956 -140.85668945 93.23217773 C-140.24398193 92.49555908 -139.63127441 91.75894043 -139 91 C-138.34 91 -137.68 91 -137 91 C-136.77272217 90.44602539 -136.54544434 89.89205078 -136.3112793 89.32128906 C-134.61737876 86.32266566 -132.47777093 84.27205539 -130.01953125 81.859375 C-129.52845383 81.37349915 -129.0373764 80.88762329 -128.53141785 80.38702393 C-126.96314352 78.83649697 -125.38836518 77.29280844 -123.8125 75.75 C-121.75305438 73.72743902 -119.69688656 71.70163064 -117.64453125 69.671875 C-117.14418365 69.1771167 -116.64383606 68.6823584 -116.12832642 68.17260742 C-112.85510627 64.91279514 -109.79529511 61.53668575 -106.79956055 58.02441406 C-102.05597897 52.68812612 -96.82049724 47.78767549 -91.73828125 42.77734375 C-87.23526321 38.31331287 -82.87968438 33.81341412 -78.75195312 29.00097656 C-75.31138604 25.07136566 -71.65825436 21.35077247 -68 17.625 C-66.84757812 16.41650391 -66.84757812 16.41650391 -65.671875 15.18359375 C-61.34366978 10.78914049 -58.28902642 7.98047183 -52 7 C-51.31389648 6.8851123 -50.62779297 6.77022461 -49.92089844 6.65185547 C-47.57632493 6.27233083 -45.22834418 5.94543355 -42.875 5.625 C-34.5544169 4.44002532 -26.31284301 2.98538923 -18.06787109 1.35791016 C-3.36811321 -1.5348364 -3.36811321 -1.5348364 0 0 Z " fill="#9A9A9A" transform="translate(206,339)"/>
<path d="M0 0 C6.73603192 7.55252064 5.8556392 16.80669116 5.31689453 26.45849609 C4.58795392 32.30462226 1.58733613 36.50349616 -2 41 C-2.56332031 41.78117187 -3.12664062 42.56234375 -3.70703125 43.3671875 C-13.12461239 56.11510764 -24.90969259 67.00358195 -36.125 78.125 C-39.33891409 81.31212616 -42.54936303 84.50268624 -45.7578125 87.6953125 C-46.48090607 88.41010773 -47.20399963 89.12490295 -47.94900513 89.86135864 C-51.19045187 93.08731393 -54.33637636 96.33693545 -57.3112793 99.8112793 C-61.52872366 104.701628 -66.11046206 109.22297851 -70.69244957 113.76761436 C-72.29699912 115.35921439 -73.89824059 116.95408024 -75.49873352 118.54975891 C-78.89215909 121.9318551 -82.28953346 125.30996693 -85.6875 128.6875 C-89.63956563 132.61588054 -93.58994982 136.54592266 -97.53614235 140.48020363 C-99.10722392 142.04484483 -100.68130442 143.60642454 -102.25553894 145.16789246 C-103.22348636 146.13220565 -104.19129271 147.09666047 -105.15893555 148.0612793 C-105.9994194 148.89652634 -106.83990326 149.73177338 -107.70585632 150.59233093 C-109.96158628 152.95968538 -111.99844038 155.41605333 -114 158 C-117.34578624 157.41984531 -118.93887803 156.41564989 -121.27734375 153.98046875 C-121.87353516 153.37009766 -122.46972656 152.75972656 -123.08398438 152.13085938 C-123.69564453 151.48955078 -124.30730469 150.84824219 -124.9375 150.1875 C-128.79315237 146.19283153 -132.55080009 142.35167431 -137 139 C-135.34324716 134.65234288 -132.09008562 131.90564614 -128.8125 128.75 C-125.368311 125.41432104 -122.01883221 122.0717509 -118.91186523 118.41625977 C-114.48663275 113.33322491 -109.7302 108.60564793 -104.953125 103.85546875 C-103.9583127 102.86258002 -102.96373108 101.86946012 -101.96936035 100.87612915 C-99.84229742 98.75220616 -97.71369641 96.62984157 -95.5838623 94.50869751 C-92.20969544 91.14815529 -88.8394375 87.78371065 -85.46972656 84.41870117 C-77.70895496 76.66992627 -69.94315908 68.92619313 -62.17730713 61.18251038 C-55.05455651 54.07998874 -47.93289566 46.97638324 -40.81528854 39.8687067 C-37.47182049 36.53019259 -34.12593663 33.19412519 -30.77812195 29.85997009 C-28.68937098 27.77872729 -26.60273781 25.6953708 -24.51664734 23.61146164 C-23.10155545 22.19910597 -21.68394515 20.78927495 -20.26623535 19.37954712 C-15.8140464 14.92772407 -11.49801646 10.42212336 -7.40386963 5.63749695 C-2.57069375 0 -2.57069375 0 0 0 Z " fill="#676767" transform="translate(321,173)"/>
<path d="M0 0 C0.82749756 0.00757324 1.65499512 0.01514648 2.50756836 0.02294922 C13.36423592 0.31027916 25.63911378 2.84682146 33.875 10.4375 C33.875 14.4375 33.875 14.4375 31.96875 16.76953125 C31.1128125 17.58808594 30.256875 18.40664062 29.375 19.25 C27.99248047 20.57837891 27.99248047 20.57837891 26.58203125 21.93359375 C23.8157632 24.4922919 21.01932745 26.99655512 18.15234375 29.44140625 C16.27639067 31.08568073 14.44791226 32.75870912 12.62890625 34.46484375 C12.05180908 35.00512207 11.47471191 35.54540039 10.88012695 36.10205078 C9.7306355 37.18134794 8.58449928 38.26423237 7.44213867 39.35107422 C4.75278895 41.87078866 2.32259496 44.05678843 -1.125 45.4375 C-1.125 46.0975 -1.125 46.7575 -1.125 47.4375 C-2.734375 49.0234375 -2.734375 49.0234375 -4.875 50.8125 C-7.19403702 52.77507727 -9.37719284 54.6963295 -11.5 56.875 C-13.125 58.4375 -13.125 58.4375 -15.125 58.4375 C-13.47990397 61.46794006 -11.89338497 63.66911503 -9.4375 66.125 C-7.125 68.4375 -7.125 68.4375 -7.125 70.4375 C-6.135 70.7675 -5.145 71.0975 -4.125 71.4375 C-2.58642578 72.98193359 -2.58642578 72.98193359 -0.9453125 74.9609375 C3.5398563 80.24745017 8.31095773 85.23774906 13.08984375 90.2578125 C16.83550832 94.21117167 20.44498444 98.2067026 23.875 102.4375 C13.82179982 108.25777379 0.9713729 109.19979049 -10.2265625 106.5625 C-24.23741323 102.77578359 -35.7943272 94.83828932 -43.4375 82.3125 C-44.34616194 80.6946385 -45.24362712 79.0703883 -46.125 77.4375 C-46.7025 76.426875 -47.28 75.41625 -47.875 74.375 C-53.18491068 61.8967099 -52.93180155 45.0770958 -47.97265625 32.51953125 C-42.34334288 20.21612891 -32.98501718 10.22063261 -20.5 4.6875 C-19.38625 4.275 -18.2725 3.8625 -17.125 3.4375 C-15.92359375 2.92574219 -14.7221875 2.41398437 -13.484375 1.88671875 C-8.94935065 0.19479382 -4.80747188 -0.06222306 0 0 Z " fill="#9A9A9A" transform="translate(360.125,80.5625)"/>
<path d="M0 0 C8.18123501 4.30856024 12.54461051 16.19941141 15.27783203 24.54248047 C16.30388782 28.56139828 16.30240414 32.44058399 16.21875 36.56640625 C16.22197266 37.36498047 16.22519531 38.16355469 16.22851562 38.98632812 C16.18076178 44.31305203 15.38433702 48.88663024 13.90625 54.00390625 C13.64585937 54.93976563 13.38546875 55.875625 13.1171875 56.83984375 C9.4332726 68.0293049 1.45053214 77.16876782 -8.09375 84.00390625 C-10.58984375 85.02734375 -10.58984375 85.02734375 -13.09375 85.00390625 C-15.5234375 83.1953125 -15.5234375 83.1953125 -17.96875 80.56640625 C-18.84144531 79.64085937 -19.71414063 78.7153125 -20.61328125 77.76171875 C-23.21513314 74.86895114 -25.78783148 71.95694508 -28.31640625 69 C-31.03741892 65.94409347 -33.97463166 63.11458686 -36.88671875 60.2421875 C-39.58133392 57.50941848 -42.08735393 54.64551539 -44.5859375 51.734375 C-46.33309072 49.72922247 -48.17545118 47.84547312 -50.09375 46.00390625 C-48.7312318 42.9201575 -47.22149154 40.92922341 -44.75 38.6484375 C-44.08605225 38.030896 -43.42210449 37.41335449 -42.73803711 36.77709961 C-42.03042236 36.1300708 -41.32280762 35.48304199 -40.59375 34.81640625 C-39.86615479 34.14295166 -39.13855957 33.46949707 -38.38891602 32.77563477 C-33.8749556 28.60670321 -29.321719 24.4825725 -24.734375 20.39453125 C-20.55579612 16.61155747 -16.45556295 12.74432627 -12.35717773 8.87475586 C-10.61476039 7.23745061 -8.85827582 5.61732192 -7.09375 4.00390625 C-6.20300781 3.18535156 -5.31226563 2.36679688 -4.39453125 1.5234375 C-2.09375 0.00390625 -2.09375 0.00390625 0 0 Z " fill="#686868" transform="translate(400.09375,95.99609375)"/>
<path d="M0 0 C2.83100254 8.49300761 -6.69812277 23.49422127 -10.48828125 31.1953125 C-19.52895722 48.9066407 -32.26417834 64.83002813 -45 80 C-45.79664063 80.98226562 -46.59328125 81.96453125 -47.4140625 82.9765625 C-54.0707324 91.07534639 -61.34290687 98.53128751 -68.75 105.9375 C-69.24550354 106.43390991 -69.74100708 106.93031982 -70.25152588 107.44177246 C-77.83967224 115.02834941 -85.67379492 122.17245837 -94 128.9375 C-95.423125 130.09572266 -95.423125 130.09572266 -96.875 131.27734375 C-97.926875 132.13005859 -97.926875 132.13005859 -99 133 C-103.91935902 128.88380164 -108.52647956 124.59589638 -113 120 C-111.57214933 118.33417422 -110.14407884 116.66854477 -108.71484375 115.00390625 C-107.61935465 113.72375611 -106.52779879 112.44022263 -105.44140625 111.15234375 C-102.4373199 107.60205988 -99.43135148 104.14540552 -96 101 C-95.34 101 -94.68 101 -94 101 C-93.73898499 100.41334061 -93.47796997 99.82668121 -93.20904541 99.22224426 C-91.92539041 96.86286641 -90.56238257 95.32746703 -88.65527344 93.4440918 C-87.97406433 92.76626144 -87.29285522 92.08843109 -86.59100342 91.39006042 C-85.85456604 90.66708267 -85.11812866 89.94410492 -84.359375 89.19921875 C-83.59957336 88.44461868 -82.83977173 87.69001862 -82.0569458 86.91255188 C-79.62599464 84.49940617 -77.18848409 82.0930316 -74.75 79.6875 C-72.32663405 77.29186411 -69.90477786 74.89475171 -67.48590088 72.49458313 C-65.98166766 71.00248083 -64.47476972 69.51305845 -62.96478271 68.02677917 C-59.24190656 64.33894649 -55.71799604 60.58051706 -52.34729004 56.56912231 C-50.35465833 54.24840236 -48.1888967 52.13564132 -46 50 C-44.6827378 48.6903963 -43.36679464 47.37946525 -42.05175781 46.06762695 C-41.31459534 45.33369217 -40.57743286 44.59975739 -39.81793213 43.84358215 C-36.50004452 40.53903203 -33.18476214 37.2318736 -29.86962891 33.92456055 C-28.11693279 32.17692813 -26.3633453 30.43018923 -24.60888672 28.68432617 C-22.07546319 26.16297558 -19.54523287 23.63845923 -17.015625 21.11328125 C-16.22714172 20.32995926 -15.43865845 19.54663727 -14.62628174 18.73957825 C-13.90172791 18.01509995 -13.17717407 17.29062164 -12.43066406 16.54418945 C-11.79066467 15.90641068 -11.15066528 15.2686319 -10.49127197 14.61152649 C-8.91053482 13.05377813 -8.91053482 13.05377813 -8 11 C-7.34 11 -6.68 11 -6 11 C-5.62875 9.948125 -5.62875 9.948125 -5.25 8.875 C-3.83911974 5.62997541 -2.02104602 2.89683263 0 0 Z " fill="#9A9A9A" transform="translate(321,214)"/>
<path d="M0 0 C7.16883165 3.195158 12.59500185 9.35464414 17.5078125 15.31640625 C19.04799914 17.05415609 20.66301348 18.50349098 22.4375 20 C26.84234974 23.74110526 30.9125773 27.79475409 35 31.875 C35.68376709 32.55433594 36.36753418 33.23367188 37.07202148 33.93359375 C37.70825439 34.57167969 38.3444873 35.20976562 39 35.8671875 C39.5775 36.44581543 40.155 37.02444336 40.75 37.62060547 C42 39 42 39 42 40 C-15.98654709 43.22512612 -15.98654709 43.22512612 -40 43 C-39.62109375 41.0625 -39.62109375 41.0625 -39 39 C-37.67532254 38.3162955 -36.34136367 37.65035814 -35 37 C-34.31731862 35.67479497 -33.6492959 34.34187818 -33 33 C-31.515 32.505 -31.515 32.505 -30 32 C-29.87625 31.4225 -29.7525 30.845 -29.625 30.25 C-28.69359645 26.89694722 -26.51817904 25.34648501 -24 23 C-23.175 22.175 -22.35 21.35 -21.5 20.5 C-17.33333333 16.33333333 -13.16666667 12.16666667 -9 8 C-8.154375 7.13375 -7.30875 6.2675 -6.4375 5.375 C-4.37888015 3.36916527 -2.34523863 1.65035311 0 0 Z " fill="#F15A25" transform="translate(40,459)"/>
<path d="M0 0 C11.84350355 9.2461007 19.58640821 20.26378462 23.08203125 34.9609375 C23.32312561 37.78085608 23.31789907 40.57019284 23.26953125 43.3984375 C23.26856445 44.46674805 23.26856445 44.46674805 23.26757812 45.55664062 C23.13971626 61.19840905 18.36254446 75.22274704 7.4609375 86.765625 C-2.21237911 95.69239665 -14.2469393 103.1970142 -27.79296875 103.2734375 C-29.1697309 103.19596696 -30.54638189 103.10315273 -31.91796875 102.9609375 C-30.18382013 99.94016248 -29.23052849 99.06047882 -25.8515625 97.984375 C-24.69785156 97.77039063 -23.54414063 97.55640625 -22.35546875 97.3359375 C-17.63091346 96.62974532 -17.63091346 96.62974532 -13.91796875 93.9609375 C-14.84738281 93.043125 -15.77679688 92.1253125 -16.734375 91.1796875 C-23.01867276 84.95059712 -29.22471856 78.74281951 -34.91796875 71.9609375 C-39.63288927 66.48587729 -44.44257751 61.27130266 -49.73046875 56.3359375 C-51.91796875 53.9609375 -51.91796875 53.9609375 -51.91796875 50.9609375 C-50.30859375 49.27734375 -50.30859375 49.27734375 -48.16796875 47.5234375 C-45.83930868 45.58151603 -43.66232877 43.69857015 -41.54296875 41.5234375 C-39.91796875 39.9609375 -39.91796875 39.9609375 -37.91796875 39.9609375 C-37.91796875 39.3009375 -37.91796875 38.6409375 -37.91796875 37.9609375 C-36.6953125 36.7265625 -36.6953125 36.7265625 -34.85546875 35.2109375 C-30.58460005 31.58717012 -26.49740988 27.79643873 -22.41796875 23.9609375 C-17.82727626 19.6527144 -13.21022901 15.40021921 -8.4375 11.29296875 C-6.50790833 9.60147579 -4.69461981 7.81161568 -2.91796875 5.9609375 C-3.62079636 2.80678052 -3.62079636 2.80678052 -6.25390625 1.4609375 C-20.82225715 -5.72961102 -36.46067906 -9.27835993 -52.48046875 -4.4765625 C-58.25920562 -2.18763465 -63.0777082 1.10347097 -67.91796875 4.9609375 C-68.98337891 5.76337891 -68.98337891 5.76337891 -70.0703125 6.58203125 C-78.34880987 13.20800707 -84.68729696 23.09558682 -86.34057617 33.66186523 C-86.65253784 36.59321639 -86.89516906 39.52060054 -87.10546875 42.4609375 C-87.18732422 43.47414062 -87.26917969 44.48734375 -87.35351562 45.53125 C-87.55205822 48.00719299 -87.73995515 50.48344845 -87.91796875 52.9609375 C-88.24796875 52.9609375 -88.57796875 52.9609375 -88.91796875 52.9609375 C-89.24796875 48.3409375 -89.57796875 43.7209375 -89.91796875 38.9609375 C-90.24796875 44.9009375 -90.57796875 50.8409375 -90.91796875 56.9609375 C-91.24796875 56.9609375 -91.57796875 56.9609375 -91.91796875 56.9609375 C-92.4901489 43.9997367 -92.7998194 32.81824916 -86.91796875 20.9609375 C-86.48355469 20.06375 -86.04914063 19.1665625 -85.6015625 18.2421875 C-78.29810612 4.75888341 -65.79591967 -4.34628079 -51.5234375 -9.3125 C-33.60445422 -14.30939789 -15.09951468 -10.55146809 0 0 Z M-3.16796875 11.5859375 C-4.05226563 12.40578125 -4.9365625 13.225625 -5.84765625 14.0703125 C-6.871207 15.03373386 -7.89463656 15.99728399 -8.91796875 16.9609375 C-10.10746919 18.07095981 -11.29760338 19.18030327 -12.48828125 20.2890625 C-15.05354041 22.67935715 -17.61556086 25.0730599 -20.17578125 27.46875 C-29.00713386 35.7224771 -37.96666317 43.83780389 -46.91796875 51.9609375 C-45.50058386 55.21300842 -43.79270463 57.27454817 -41.23046875 59.7109375 C-38.51717551 62.35103039 -35.93942569 65.02007902 -33.48046875 67.8984375 C-30.21146863 71.70358343 -26.69487113 75.20143754 -23.125 78.72265625 C-21.03291753 80.84436113 -19.05621709 83.02193138 -17.10546875 85.2734375 C-16.54472656 85.91796875 -15.98398437 86.5625 -15.40625 87.2265625 C-14.18757487 88.64675085 -12.98754471 90.08291943 -11.79296875 91.5234375 C-10.01343483 93.20708801 -10.01343483 93.20708801 -7.66796875 92.859375 C-4.06739999 91.68305282 -1.73667632 89.5824597 0.95703125 87.0234375 C1.48296875 86.52908203 2.00890625 86.03472656 2.55078125 85.52539062 C13.59533498 74.87528525 18.96766251 62.66186635 19.42529297 47.33764648 C19.60995679 33.14552172 15.60901728 20.54847734 6.0859375 9.68359375 C2.12883893 6.28187744 0.09016686 8.53836168 -3.16796875 11.5859375 Z " fill="#F5F0EF" transform="translate(396.91796875,88.0390625)"/>
<path d="M0 0 C3.13531166 0.57867111 4.77828979 1.40308145 7.02441406 3.65209961 C7.86483246 4.48317482 7.86483246 4.48317482 8.722229 5.33103943 C9.31404968 5.93206985 9.90587036 6.53310028 10.515625 7.15234375 C11.4393692 8.07534019 11.4393692 8.07534019 12.3817749 9.01698303 C13.67967372 10.31721976 14.97388682 11.62114459 16.26464844 12.9284668 C18.2477555 14.93522873 20.24390935 16.92827845 22.2421875 18.91992188 C23.50079541 20.18410443 24.75863497 21.44905251 26.015625 22.71484375 C26.6155426 23.31384995 27.21546021 23.91285614 27.83355713 24.53001404 C32 28.76897241 32 28.76897241 32 31 C23.57797915 33.03339887 15.15966072 34.75445884 6.62890625 36.25390625 C3.28832212 36.94072172 0.22855112 37.92236199 -3 39 C-4.93039443 39.33548924 -6.8691338 39.62539333 -8.8125 39.875 C-15.08340206 40.76361861 -21.14495851 42.15563009 -27.26293945 43.76708984 C-30.92153783 44.68998725 -33.39923264 45.10598187 -37 44 C-36.23816406 43.11699219 -35.47632812 42.23398437 -34.69140625 41.32421875 C-29.92184013 35.78444107 -25.16295193 30.24440145 -20.5625 24.5625 C-16.30365761 19.31123012 -11.88255113 14.21041659 -7.42797852 9.12524414 C-4.83565386 6.15814453 -2.29812054 3.20611922 0 0 Z " fill="#F15E29" transform="translate(143,281)"/>
<path d="M0 0 C0.33 0.99 0.66 1.98 1 3 C-0.32273351 5.56355463 -1.68736417 7.90046342 -3.25 10.3125 C-3.93074585 11.3794812 -3.93074585 11.3794812 -4.62524414 12.46801758 C-9.30549842 19.67796573 -14.52258922 26.38467642 -20 33 C-20.44988281 33.5475293 -20.89976562 34.09505859 -21.36328125 34.65917969 C-31.68592975 47.19063699 -42.79427418 58.88265846 -54.25 70.375 C-54.95764999 71.08666824 -54.95764999 71.08666824 -55.67959595 71.81271362 C-61.27605969 77.43326911 -66.95068601 82.86985694 -73 88 C-74.12925104 88.97355855 -75.25816874 89.94750391 -76.38671875 90.921875 C-77.4865517 91.86508201 -78.58682053 92.80778098 -79.6875 93.75 C-80.28272461 94.26022705 -80.87794922 94.7704541 -81.49121094 95.29614258 C-85.01742621 98.31521991 -88.55773344 101.31676058 -92.10913086 104.30615234 C-96.51109488 108.01189738 -100.86863618 111.75130611 -105.125 115.625 C-109.38466118 119.49867246 -113.80594797 123.12953094 -118.28125 126.75 C-120.92147729 128.93501569 -123.4672972 131.19171391 -126 133.5 C-130.64775813 137.72523466 -135.45188861 141.71336313 -140.34130859 145.65478516 C-142.27372102 147.2219904 -144.19353917 148.80402054 -146.11328125 150.38671875 C-147.55464733 151.57036142 -148.99605345 152.75395533 -150.4375 153.9375 C-151.12408691 154.5056543 -151.81067383 155.07380859 -152.51806641 155.65917969 C-153.17081543 156.19317383 -153.82356445 156.72716797 -154.49609375 157.27734375 C-155.07544678 157.75421631 -155.6547998 158.23108887 -156.25170898 158.72241211 C-158.08661037 160.06329173 -159.94314095 161.0416362 -162 162 C-162 158.15291459 -160.44641181 156.72987114 -157.953125 153.9453125 C-155.0985505 151.1021563 -151.9886472 148.66219062 -148.8046875 146.19921875 C-146.75014846 144.58820833 -144.74625513 142.95835361 -142.7578125 141.26953125 C-142.21592285 140.80973877 -141.6740332 140.34994629 -141.11572266 139.8762207 C-139.56478377 138.55518074 -138.01670319 137.23078726 -136.46875 135.90625 C-134 134 -134 134 -132 134 C-132 133.34 -132 132.68 -132 132 C-130.53309441 130.6672812 -128.99677499 129.41086131 -127.4375 128.1875 C-122.68469803 124.38403348 -118.03226113 120.49301777 -113.4375 116.5 C-112.7988501 115.94538086 -112.1602002 115.39076172 -111.50219727 114.81933594 C-107.00247186 110.89930853 -102.55345937 106.9286883 -98.1484375 102.90234375 C-91.4825462 97 -91.4825462 97 -89 97 C-88.67 96.34 -88.34 95.68 -88 95 C-86.98520498 94.06105076 -85.93681851 93.15806239 -84.87109375 92.27734375 C-81.15506133 89.15269216 -77.6007097 85.88579033 -74.0625 82.5625 C-70.47811584 79.1973194 -66.87437597 75.87648022 -63.1484375 72.66796875 C-58.42558209 68.55631309 -53.98681584 64.1787508 -49.5625 59.75 C-48.30083008 58.48712158 -48.30083008 58.48712158 -47.01367188 57.19873047 C-42.05259532 52.18842922 -37.35886112 47.15648686 -33.02734375 41.58984375 C-31.07921804 39.10119761 -29.05018561 36.71598641 -26.98120117 34.32861328 C-18.96468126 25.0553304 -11.83757259 15.17500143 -5.3515625 4.76953125 C-3.80179857 2.74050506 -2.09583596 1.44032982 0 0 Z " fill="#F8F2F0" transform="translate(306,255)"/>
<path d="M0 0 C3.25207092 1.41738489 5.31361067 3.12526412 7.75 5.6875 C11.10783993 9.15223746 14.60765464 12.29950939 18.3359375 15.359375 C20.11456204 17.11294849 21.01809901 18.71881589 22 21 C20.25 21.29166667 18.5 21.58333333 16.75 21.875 C15.66460937 22.05675781 14.57921875 22.23851562 13.4609375 22.42578125 C11.17559297 22.80495241 8.88913556 23.17748294 6.6015625 23.54296875 C5.53679687 23.71441406 4.47203125 23.88585937 3.375 24.0625 C2.39273438 24.21847656 1.41046875 24.37445313 0.3984375 24.53515625 C-2.0016787 24.88881407 -2.0016787 24.88881407 -4 26 C-5.49613214 26.18126216 -6.99743686 26.32100381 -8.5 26.4375 C-13.06283495 26.84146652 -17.41434237 27.65087317 -21.87109375 28.6953125 C-24 29 -24 29 -27 28 C-18.14481329 18.51671478 -9.26361429 9.08697758 0 0 Z " fill="#6A6A6A" transform="translate(180,314)"/>
<path d="M0 0 C0.99 0.33 1.98 0.66 3 1 C1.86852525 4.39442424 0.24162522 6.23093355 -2 9 C-2.53625 9.928125 -3.0725 10.85625 -3.625 11.8125 C-4.07875 12.534375 -4.5325 13.25625 -5 14 C-5.66 14 -6.32 14 -7 14 C-7.25690109 14.58221817 -7.51380219 15.16443634 -7.77848816 15.76429749 C-9.11191876 18.2048421 -10.57308502 19.81386174 -12.54418945 21.77124023 C-13.63090691 22.85773109 -13.63090691 22.85773109 -14.73957825 23.96617126 C-15.52290024 24.73917068 -16.30622223 25.5121701 -17.11328125 26.30859375 C-17.91984665 27.11232925 -18.72641205 27.91606476 -19.55741882 28.74415588 C-22.13778876 31.3133367 -24.72501188 33.87549016 -27.3125 36.4375 C-29.04407842 38.15904403 -30.77520355 39.88104412 -32.50585938 41.60351562 C-35.69031077 44.77163936 -38.87732972 47.93712852 -42.06762695 51.09936523 C-42.75529648 51.78173752 -43.442966 52.4641098 -44.151474 53.16716003 C-45.66444996 54.66729734 -47.18021784 56.16461837 -48.69677734 57.66113281 C-50.82835632 59.82569998 -52.89117547 62.04031667 -54.93339539 64.28910828 C-62.41635562 72.52716003 -70.27824658 80.36155408 -78.1875 88.1875 C-80.78803055 90.76144608 -83.38520421 93.3387145 -85.98046875 95.91796875 C-86.57200241 96.50120407 -87.16353607 97.08443939 -87.772995 97.68534851 C-90.75534835 100.5611119 -90.75534835 100.5611119 -93 104 C-93.66 104 -94.32 104 -95 104 C-95.37125 104.9590625 -95.37125 104.9590625 -95.75 105.9375 C-97 108 -97 108 -98.9375 108.5625 C-99.9584375 108.7790625 -99.9584375 108.7790625 -101 109 C-102.73026102 110.47890069 -102.73026102 110.47890069 -104 112 C-104.66 111.67 -105.32 111.34 -106 111 C-105.06491859 110.06824951 -105.06491859 110.06824951 -104.11094666 109.11767578 C-98.20940916 103.23625392 -92.31033912 97.35237043 -86.41396236 91.46577454 C-83.38318588 88.44019566 -80.35149518 85.41554531 -77.31762695 82.39306641 C-74.38466096 79.47104098 -71.45421195 76.54651225 -68.52542305 73.62030029 C-67.41287344 72.50958493 -66.29945056 71.3997435 -65.18510246 70.29083252 C-59.8344771 64.96525572 -54.57631244 59.62510928 -49.66548157 53.88464355 C-46.46750957 50.26584799 -42.98589958 46.92628784 -39.5390625 43.546875 C-37.91637139 41.94170469 -36.29398507 40.33622622 -34.671875 38.73046875 C-32.15209451 36.24152473 -29.63008168 33.75498823 -27.10253906 31.27392578 C-17.03128026 21.37766542 -7.84170501 11.76255752 0 0 Z " fill="#ECECEC" transform="translate(320,211)"/>
<path d="M0 0 C0.66 0.99 1.32 1.98 2 3 C1.38253906 3.21914062 0.76507813 3.43828125 0.12890625 3.6640625 C-6.21715932 6.04021491 -11.5820286 8.93652145 -17 13 C-17.6909375 13.51304688 -18.381875 14.02609375 -19.09375 14.5546875 C-27.38609597 21.22045791 -33.76254671 31.09130807 -35.42260742 41.70092773 C-35.73456909 44.63227889 -35.97720031 47.55966304 -36.1875 50.5 C-36.26935547 51.51320312 -36.35121094 52.52640625 -36.43554688 53.5703125 C-36.63408947 56.04625549 -36.8219864 58.52251095 -37 61 C-37.33 61 -37.66 61 -38 61 C-38.33 56.38 -38.66 51.76 -39 47 C-39.33 52.94 -39.66 58.88 -40 65 C-40.33 65 -40.66 65 -41 65 C-41.57218015 52.0387992 -41.88185065 40.85731166 -36 29 C-35.56558594 28.1028125 -35.13117188 27.205625 -34.68359375 26.28125 C-28.96272115 15.71963905 -13.47290503 -1.77275066 0 0 Z " fill="#F8EBE6" transform="translate(346,80)"/>
<path d="M0 0 C-0.33 0.33 -0.66 0.66 -1 1 C0.32 1.66 1.64 2.32 3 3 C2.05640625 3.18175781 1.1128125 3.36351562 0.140625 3.55078125 C-6.9282208 4.93474202 -13.91078616 6.44311253 -20.88671875 8.24609375 C-25.71105115 9.41434488 -30.58149512 10.32896531 -35.45703125 11.25390625 C-39.0662337 11.96610205 -39.0662337 11.96610205 -42.796875 13.11328125 C-45.84732521 13.95773515 -47.12428995 14.15028402 -50 13 C-49.34 13 -48.68 13 -48 13 C-48 11.68 -48 10.36 -48 9 C-27.17316785 3.87816804 -27.17316785 3.87816804 -17.6484375 2.47265625 C-13.7984808 1.78556958 -10.10290884 0.65880025 -6.375 -0.51171875 C-3.84642319 -1.03157418 -2.41489231 -0.83291425 0 0 Z " fill="#FDE8E1" transform="translate(158,316)"/>
<path d="M0 0 C1.32 0 2.64 0 4 0 C5.18857226 3.77659251 5.20281679 7.43520166 5.25 11.375 C5.28867187 13.30472656 5.28867187 13.30472656 5.328125 15.2734375 C4.98144031 19.21078501 3.98837957 21.61975473 2 25 C1.01 25 0.02 25 -1 25 C-1.11039334 16.59784035 -0.95458649 8.35263176 0 0 Z " fill="#F5F5F5" transform="translate(397,126)"/>
<path d="M0 0 C0 0.33 0 0.66 0 1 C-4.455 1.495 -4.455 1.495 -9 2 C-6.03 2.33 -3.06 2.66 0 3 C0 3.66 0 4.32 0 5 C-5.61 5 -11.22 5 -17 5 C-16.01 4.34 -15.02 3.68 -14 3 C-16.64 2.67 -19.28 2.34 -22 2 C-22 1.67 -22 1.34 -22 1 C-14.63512596 0.00137301 -7.42686315 -0.10331031 0 0 Z " fill="#FCCDAD" transform="translate(304,161)"/>
<path d="M0 0 C0.33 0.99 0.66 1.98 1 3 C3.00016466 4.20882096 3.00016466 4.20882096 5 5 C3.30820672 7.04219706 2.36272334 7.91793306 -0.26171875 8.51171875 C-1.06222656 8.56972656 -1.86273438 8.62773437 -2.6875 8.6875 C-3.49574219 8.75324219 -4.30398437 8.81898438 -5.13671875 8.88671875 C-5.75160156 8.92410156 -6.36648437 8.96148437 -7 9 C-5.27845212 5.23511958 -3.00765886 2.84936103 0 0 Z " fill="#FEF7F5" transform="translate(106,322)"/>
<path d="M0 0 C-0.33 0.33 -0.66 0.66 -1 1 C0.32 1.66 1.64 2.32 3 3 C-0.47325181 4.1577506 -3.36067448 4.06866652 -7 4 C-7.33 2.68 -7.66 1.36 -8 0 C-4.94736336 -0.98120464 -3.05263664 -0.98120464 0 0 Z " fill="#FBD4C6" transform="translate(158,316)"/>
<path d="M0 0 C0.33 0.99 0.66 1.98 1 3 C-0.65 4.65 -2.3 6.3 -4 8 C-4.33 7.01 -4.66 6.02 -5 5 C-3.35 3.35 -1.7 1.7 0 0 Z M-8 7 C-7.34 7.33 -6.68 7.66 -6 8 C-6.99 8.99 -7.98 9.98 -9 11 C-9.66 10.67 -10.32 10.34 -11 10 C-10.01 9.01 -9.02 8.02 -8 7 Z " fill="#FDF3EF" transform="translate(117,309)"/>
<path d="M0 0 C0.99 0.33 1.98 0.66 3 1 C1.768606 4.69418201 -0.20791354 6.35109746 -3 9 C-3.66 8.34 -4.32 7.68 -5 7 C-3.35 4.69 -1.7 2.38 0 0 Z " fill="#E2E2E2" transform="translate(320,211)"/>
<path d="M0 0 C1.31223496 3.93670488 0.24296256 6.12488144 -1 10 C-1.66 9.34 -2.32 8.68 -3 8 C-3.99 8.495 -3.99 8.495 -5 9 C-3.7508258 5.54074837 -2.32472205 2.85306797 0 0 Z " fill="#ABABAB" transform="translate(321,214)"/>
<path d="M0 0 C2.125 0.375 2.125 0.375 4 1 C3.01 1.495 3.01 1.495 2 2 C2.66 2.66 3.32 3.32 4 4 C2.02 4.66 0.04 5.32 -2 6 C-2 2 -2 2 0 0 Z " fill="#FCDAC6" transform="translate(266,166)"/>
</svg>
