<?xml version="1.0" encoding="UTF-8"?>
<svg version="1.1" xmlns="http://www.w3.org/2000/svg" width="3840" height="2160">
<path d="M0 0 C61.41686539 66.12267629 76.99475039 167.0464132 78.76564026 318.53094482 C78.42107705 326.75529244 77.78249541 334.94795949 76.98828125 343.140625 C76.92276062 343.82481506 76.85723999 344.50900513 76.78973389 345.21392822 C69.16202477 424.33771349 47.86258122 510.34021326 -15.62915039 563.859375 C-38.0167049 582.18800489 -63.9244761 595.21152565 -92.01171875 602.140625 C-93.09747838 602.41204921 -93.09747838 602.41204921 -94.20517254 602.68895674 C-115.72005444 607.76820989 -137.93952816 606.6857612 -159.88518667 606.60488749 C-165.83164954 606.5874469 -171.77809757 606.59347081 -177.72457886 606.59649658 C-188.66763345 606.59871888 -199.61057348 606.58328468 -210.55359923 606.55913306 C-220.65214561 606.53703669 -230.75065812 606.52419531 -240.84922791 606.52013397 C-241.85740008 606.51972153 -241.85740008 606.51972153 -242.88593937 606.51930076 C-246.29998615 606.51794722 -249.71403297 606.51674177 -253.12807983 606.51559326 C-277.24003666 606.50721639 -301.35194028 606.48033657 -325.46386719 606.44238281 C-348.87206746 606.40557959 -372.28025311 606.37727734 -395.68847656 606.36035156 C-396.41143111 606.35982546 -397.13438565 606.35929935 -397.87924791 606.35875731 C-405.14018929 606.35348272 -412.40113079 606.34837954 -419.66207238 606.34340187 C-434.45029349 606.33326004 -449.23851366 606.32197504 -464.0267334 606.30999756 C-465.04639238 606.30917382 -465.04639238 606.30917382 -466.08665054 606.30833344 C-511.3950299 606.27159978 -556.70337474 606.20730695 -602.01171875 606.140625 C-602.01171875 621.320625 -602.01171875 636.500625 -602.01171875 652.140625 C-493.44171875 652.140625 -384.87171875 652.140625 -273.01171875 652.140625 C-271.80239237 733.16549225 -271.80239237 733.16549225 -271.77148438 766.52294922 C-271.76580613 771.97332465 -271.74121391 777.42347378 -271.71351242 782.87377548 C-271.69486825 787.20117891 -271.68968147 791.52852447 -271.6881485 795.85596466 C-271.68517173 797.86990987 -271.67731816 799.88385535 -271.66396332 801.89775848 C-271.47528278 832.27192592 -280.41767791 856.73678196 -301.01171875 879.140625 C-302.16220703 880.41486328 -302.16220703 880.41486328 -303.3359375 881.71484375 C-364.25234497 945.94080137 -474.97063576 954.87357431 -558.48061371 957.20969009 C-569.96893756 957.4713408 -581.46025941 957.48353634 -592.95100021 957.45848083 C-595.56231582 957.45301917 -598.17362231 957.45066701 -600.78494263 957.4486084 C-627.61853621 957.41568635 -654.29476179 956.84052755 -681.01171875 954.140625 C-682.12389771 954.03170929 -682.12389771 954.03170929 -683.25854492 953.92059326 C-759.56810848 946.44168637 -848.11043688 927.75390429 -899.66796875 866.01953125 C-911.60585647 851.22247385 -920.49458358 834.51662003 -925.82421875 816.265625 C-926.1166748 815.29725708 -926.1166748 815.29725708 -926.41503906 814.30932617 C-931.23682517 796.58054559 -930.28203852 777.76482575 -930.20328414 759.57395828 C-930.18831563 755.59630455 -930.18524102 751.61863735 -930.18051147 747.64096069 C-930.16933582 739.87119425 -930.14707839 732.10149874 -930.12052081 724.33177111 C-930.09904185 718.00803368 -930.08128657 711.684296 -930.0661068 705.36054039 C-930.06392662 704.45652599 -930.06174645 703.55251158 -930.05950021 702.62110281 C-930.05507405 700.78388925 -930.05065118 698.94667568 -930.04623159 697.1094621 C-930.00435386 679.92285463 -929.9492661 662.73630837 -929.89004137 645.54975321 C-929.83643068 629.87542609 -929.79914398 614.20111037 -929.76964275 598.52672092 C-929.73910683 582.37925269 -929.69759533 566.23184642 -929.64435786 550.0844366 C-929.61472375 541.04019176 -929.58924048 531.99598403 -929.57523537 522.95170021 C-929.56318563 515.25109097 -929.54061516 507.55059582 -929.50507949 499.85005782 C-929.48727311 495.93221256 -929.47388595 492.01450201 -929.47362709 488.09661293 C-929.46782165 466.76804002 -928.76759565 445.64135673 -923.32421875 424.890625 C-922.94402588 423.41251343 -922.94402588 423.41251343 -922.55615234 421.90454102 C-919.95387871 412.23148249 -916.33352099 403.16275114 -912.01171875 394.140625 C-911.54427246 393.14627441 -911.54427246 393.14627441 -911.06738281 392.13183594 C-893.48772321 355.24245499 -858.81198538 328.22274294 -820.81726074 314.65731812 C-806.18625493 309.56169681 -791.32344801 305.55660836 -776.01171875 303.140625 C-774.9923844 302.96918441 -773.97305004 302.79774382 -772.92282677 302.62110806 C-757.81623582 300.45465553 -742.56179491 300.85116796 -727.33709311 300.86792791 C-723.03552989 300.87042809 -718.73398885 300.86130511 -714.43243408 300.85354614 C-706.99155912 300.84155563 -699.55070549 300.83639606 -692.10982132 300.83566475 C-681.32244251 300.83433165 -670.53511489 300.81915413 -659.74775426 300.80016958 C-642.20277352 300.76938861 -624.65779147 300.74519787 -607.11279297 300.72729492 C-606.06483002 300.72622224 -605.01686707 300.72514956 -603.93714766 300.72404438 C-592.2590436 300.71223718 -580.58093902 300.70202908 -568.90283203 300.69360352 C-564.67333983 300.6905296 -560.44384764 300.68744078 -556.21435547 300.68432617 C-554.64889811 300.68317816 -554.64889811 300.68317816 -553.05181535 300.68200696 C-535.58000352 300.66887427 -518.10822877 300.64416457 -500.63644445 300.61058277 C-489.89243513 300.59042079 -479.14850543 300.57998554 -468.40447704 300.58257198 C-461.02565186 300.58361597 -453.64688923 300.57382886 -446.26808591 300.55593295 C-442.02772113 300.54600178 -437.7874949 300.54063447 -433.54712296 300.54870033 C-378.13104512 300.64360725 -327.06100604 291.62928716 -285.01171875 253.140625 C-284.00625 252.24150391 -284.00625 252.24150391 -282.98046875 251.32421875 C-255.70458025 225.65657839 -240.87182918 186.5380118 -233.76171875 150.640625 C-233.61065674 149.89643311 -233.45959473 149.15224121 -233.30395508 148.38549805 C-229.26358917 126.55658375 -229.67092327 104.38023823 -229.60700178 82.27954841 C-229.59118231 77.51501036 -229.56445408 72.7505326 -229.53897095 67.98603821 C-229.49251153 58.99818809 -229.45561046 50.01032621 -229.42229807 41.0224188 C-229.38384204 30.77541438 -229.33449489 20.528471 -229.28431392 10.28151834 C-229.18148356 -10.76540082 -229.092067 -31.81235877 -229.01171875 -52.859375 C-214.10236408 -53.03784622 -199.19290578 -53.20339178 -184.28324509 -53.35415077 C-177.35818265 -53.42446483 -170.43320914 -53.49878067 -163.50830078 -53.58300781 C-156.8104658 -53.66446123 -150.11259819 -53.73411388 -143.41455841 -53.79694748 C-140.87441104 -53.82263247 -138.33429869 -53.85210218 -135.79424286 -53.88563919 C-81.53011282 -54.59177806 -38.69576305 -39.39368262 0 0 Z M-457.76171875 752.453125 C-469.3475788 764.787354 -474.32327252 780.44500817 -474.01171875 797.140625 C-473.04100096 810.88394535 -467.76668046 822.62451045 -459.01171875 833.140625 C-458.47933594 833.78644531 -457.94695313 834.43226563 -457.3984375 835.09765625 C-446.7734698 846.77721132 -431.56463678 852.38477018 -416.09887695 853.18334961 C-399.70261843 853.56201156 -384.88909472 847.6698723 -373.07324219 836.39599609 C-360.78947455 824.0913519 -355.29944902 809.20555779 -354.9453125 791.89453125 C-355.61219433 775.38415392 -362.60376405 760.54112784 -374.56640625 749.20703125 C-399.73677986 727.9368593 -433.95864442 730.39560945 -457.76171875 752.453125 Z " fill="#FFD342" transform="translate(2523.01171875,416.859375)"/>
<path d="M0 0 C2.58030213 0.00546049 5.16059505 0.00781356 7.74090195 0.00987244 C34.45329427 0.04304152 60.99464691 0.6718782 87.59334946 3.31785583 C89.11774452 3.46405015 90.64215848 3.61004759 92.16659164 3.75584412 C164.58770845 10.80282743 240.89400331 28.51912641 295.59334946 79.31785583 C296.23659164 79.89535583 296.87983383 80.47285583 297.54256821 81.06785583 C318.54129573 100.78993116 335.69943951 131.86678998 336.68843412 161.13143992 C336.72836128 164.65771277 336.73620493 168.18280247 336.73379135 171.70930481 C336.73637774 173.07933785 336.73939166 174.44937013 336.74279475 175.81940138 C336.75083707 179.57485163 336.75265279 183.33028273 336.75339222 187.08574057 C336.75524782 191.14067182 336.76279812 195.19559325 336.76952744 199.2505188 C336.78309576 208.11720123 336.7891343 216.98387912 336.79353809 225.8505702 C336.79630537 231.39688302 336.80054383 236.94319412 336.80504227 242.48950577 C336.81723735 257.87073596 336.82753335 273.25196477 336.83091736 288.63319969 C336.83113692 289.61731456 336.83135649 290.60142943 336.83158271 291.61536596 C336.83180099 292.60175035 336.83201927 293.58813475 336.83224416 294.60440958 C336.83268761 296.60296718 336.83313417 298.60152479 336.83358383 300.6000824 C336.83380526 301.59142207 336.83402669 302.58276175 336.83425483 303.60414203 C336.83819332 319.62704787 336.85561716 335.64990796 336.87894335 351.67279617 C336.90274487 368.15663119 336.91512334 384.64044337 336.91628528 401.12429583 C336.91719758 410.36553158 336.92283601 419.60670786 336.94110489 428.84792709 C336.95662572 436.72657114 336.96155696 444.60513738 336.95336679 452.48379384 C336.94950096 456.4929758 336.95018602 460.50200169 336.96442413 464.51116371 C337.13965339 516.97323202 327.77170952 565.83641001 289.84334946 604.38035583 C246.63168532 647.30757995 185.05859991 656.84668381 126.69943142 656.70661855 C122.39675291 656.69970044 118.09410979 656.7104156 113.79143906 656.71890259 C106.36490607 656.7313596 98.93843132 656.73347979 91.51189041 656.72854614 C80.74986699 656.72167752 69.98792972 656.73436102 59.22592178 656.75205332 C41.72405251 656.78058322 24.22219263 656.79818372 6.72030258 656.80662537 C5.15526682 656.80738613 5.15526682 656.80738613 3.55861416 656.80816227 C-4.90646957 656.81219409 -13.37155352 656.81568915 -21.8366375 656.81915951 C-29.2427878 656.82221805 -36.64893798 656.82549033 -44.05508804 656.8290863 C-45.09836066 656.82958892 -46.14163328 656.83009153 -47.21652022 656.83060938 C-64.66602551 656.83937949 -82.11549858 656.85986318 -99.56498218 656.8885684 C-110.28971241 656.9056509 -121.01435101 656.9123774 -131.73909304 656.90526235 C-139.09255929 656.90105585 -146.44596799 656.90751953 -153.79942086 656.92206109 C-158.02721232 656.93004704 -162.25486063 656.93335352 -166.48265076 656.92323875 C-218.86898847 656.8076636 -268.60183432 666.86795638 -307.40665054 704.31785583 C-308.24711929 705.09516052 -309.08758804 705.87246521 -309.95352554 706.67332458 C-321.93238837 718.06087412 -330.8799268 731.7000157 -338.40665054 746.31785583 C-338.74116226 746.95175232 -339.07567398 747.5856488 -339.42032242 748.23875427 C-355.87734128 779.69315387 -362.68181976 815.33921275 -362.7254982 850.58763123 C-362.73482551 852.34381558 -362.7449982 854.09999561 -362.75593948 855.85617065 C-362.78293816 860.56574848 -362.79829805 865.27529693 -362.81136751 869.98493123 C-362.82713186 874.92833226 -362.8538787 879.8716744 -362.87939835 884.81503296 C-362.9259529 894.1500934 -362.96280893 903.48516521 -362.99607122 912.82028145 C-363.03445869 923.45896218 -363.08382458 934.09758343 -363.13405538 944.7362138 C-363.23702779 966.59671708 -363.32639961 988.4572581 -363.40665054 1010.31785583 C-379.65449934 1010.38828886 -395.90229775 1010.44101047 -412.15026283 1010.47329235 C-419.69638965 1010.4886873 -427.24242099 1010.50963362 -434.78848648 1010.54417419 C-441.3742825 1010.57430467 -447.96000929 1010.59348422 -454.54587233 1010.60012132 C-458.02521132 1010.60399407 -461.50435247 1010.61293645 -464.98362732 1010.63504601 C-508.65920101 1010.90148967 -547.68883548 998.94183988 -580.07852554 968.49363708 C-581.89233369 966.79851773 -583.70894764 965.22539048 -585.65665054 963.69285583 C-589.30936701 960.53823707 -592.30013084 957.00103488 -595.40665054 953.31785583 C-596.12465836 952.51090271 -596.84266617 951.70394958 -597.58243179 950.87254333 C-615.8210124 929.91757838 -629.26624815 905.05399775 -639.40665054 879.31785583 C-639.77500015 878.38973083 -640.14334976 877.46160583 -640.52286148 876.50535583 C-671.41417883 797.62934693 -675.65066986 706.99720887 -639.18448257 481.58250427 C-637.34704843 477.45012886 -635.39959361 473.37721096 -633.40665054 469.31785583 C-632.94887222 468.38312439 -632.4910939 467.44839294 -632.01944351 466.4853363 C-625.71495272 453.7393464 -618.9346438 441.70501664 -610.40665054 430.31785583 C-609.75212906 429.4322699 -609.75212906 429.4322699 -609.08438492 428.52879333 C-581.99653564 392.09061978 -544.65478669 366.23383414 -500.40665054 355.31785583 C-499.68281079 355.13690636 -498.95897104 354.95595689 -498.21319675 354.7695241 C-476.69831485 349.69027095 -454.47884113 350.77271963 -432.53318262 350.85359335 C-426.58671975 350.87103393 -420.64027173 350.86501003 -414.69379044 350.86198425 C-403.75073585 350.85976196 -392.80779581 350.87519615 -381.86477006 350.89934778 C-371.76622368 350.92144414 -361.66771117 350.93428553 -351.56914139 350.93834686 C-350.56096921 350.9387593 -350.56096921 350.9387593 -349.53242992 350.93918007 C-346.11838314 350.94053361 -342.70433632 350.94173907 -339.29028946 350.94288757 C-315.17833264 350.95126445 -291.06642901 350.97814426 -266.95450211 351.01609802 C-243.54630184 351.05290124 -220.13811618 351.0812035 -196.72989273 351.09812927 C-196.00693819 351.09865538 -195.28398364 351.09918148 -194.53912138 351.09972353 C-187.27818 351.10499811 -180.01723851 351.11010129 -172.75629692 351.11507897 C-157.9680758 351.12522079 -143.17985563 351.1365058 -128.39163589 351.14848328 C-127.37197691 351.14930702 -127.37197691 351.14930702 -126.33171875 351.1501474 C-81.02333939 351.18688106 -35.71499456 351.25117388 9.59334946 351.31785583 C9.59334946 335.80785583 9.59334946 320.29785583 9.59334946 304.31785583 C-98.97665054 304.31785583 -207.54665054 304.31785583 -319.40665054 304.31785583 C-319.63352554 277.42285583 -319.86040054 250.52785583 -320.09415054 222.81785583 C-320.21342911 210.11511169 -320.21342911 210.11511169 -320.33511734 197.15574646 C-320.41214371 186.75437927 -320.41214371 186.75437927 -320.44432449 181.87339783 C-320.46769742 178.4898233 -320.49973241 175.10645423 -320.53722 171.7230072 C-320.58495145 167.38856462 -320.61732925 163.05424696 -320.63924563 158.71959972 C-320.64972476 157.14046357 -320.66530512 155.56134962 -320.68698061 153.98232746 C-321.09375991 123.54013952 -309.91234478 97.71662197 -289.22378922 75.73435974 C-239.68068392 24.92478942 -159.58839561 11.25933279 -92.15665054 4.13035583 C-91.06929108 4.0121347 -91.06929108 4.0121347 -89.95996475 3.89152527 C-60.07200454 0.68598369 -30.03535969 -0.06626301 0 0 Z M-214.40665054 116.31785583 C-215.13368179 116.86312927 -215.86071304 117.40840271 -216.60977554 117.97019958 C-228.77024577 127.83317639 -235.23909588 142.09495267 -237.40665054 157.31785583 C-238.94373875 172.7824628 -234.6562171 188.27587676 -224.92618179 200.41160583 C-213.27974769 213.97923069 -199.41625692 221.62651651 -181.45743179 223.16160583 C-165.1316382 224.06968162 -150.82857572 218.6594586 -138.40665054 208.31785583 C-137.76083023 207.78547302 -137.11500992 207.25309021 -136.44961929 206.70457458 C-126.23272849 197.41020214 -119.38870547 183.06662481 -118.40665054 169.31785583 C-118.34348648 168.4838324 -118.28032242 167.64980896 -118.21524429 166.79051208 C-117.55567824 150.93965046 -123.00693783 135.81323276 -133.03165054 123.56785583 C-144.23427332 111.84818893 -159.11081873 104.50291607 -175.43375015 103.97434998 C-190.18062578 103.77112949 -202.479466 107.29451197 -214.40665054 116.31785583 Z " fill="#3672A4" transform="translate(1913.406650543213,21.682144165039063)"/>
<path d="M0 0 C1.70435736 1.5422715 3.38879955 3.10714265 5.04296875 4.703125 C6.78934101 6.51872389 6.78934101 6.51872389 8.8984375 7.453125 C8.8984375 8.113125 8.8984375 8.773125 8.8984375 9.453125 C9.5584375 9.453125 10.2184375 9.453125 10.8984375 9.453125 C45.4978438 45.95440141 55.66834239 95.92532629 57.8984375 144.453125 C57.93453125 145.22446777 57.970625 145.99581055 58.0078125 146.79052734 C59.97285394 195.97797084 45.40686946 243.4282991 12.4921875 280.13671875 C-8.52355003 302.10425599 -38.00870625 313.55371211 -68.1015625 314.453125 C-69.76251953 314.53046875 -69.76251953 314.53046875 -71.45703125 314.609375 C-104.75179567 315.4807756 -139.48738903 303.86257398 -167.1015625 285.453125 C-167.1015625 347.823125 -167.1015625 410.193125 -167.1015625 474.453125 C-172.1003222 473.61999838 -176.43304032 472.41319888 -181.140625 470.6875 C-181.90273285 470.41222473 -182.6648407 470.13694946 -183.45004272 469.85333252 C-185.05954743 469.27073 -186.66814523 468.68561667 -188.27587891 468.09814453 C-190.69607164 467.21426064 -193.1192108 466.33889696 -195.54296875 465.46484375 C-197.11737192 464.89373731 -198.69159627 464.32213761 -200.265625 463.75 C-200.9723233 463.49458435 -201.67902161 463.2391687 -202.40713501 462.97601318 C-206.78153183 461.37316828 -211.08932344 459.64238977 -215.38729858 457.84405518 C-216.45979544 457.39573963 -217.53229229 456.94742409 -218.63728905 456.48552322 C-219.45049929 456.14483181 -220.26370953 455.8041404 -221.1015625 455.453125 C-221.44504486 401.94840378 -221.70928258 348.44379416 -221.86754244 294.93818688 C-221.88630259 288.6185388 -221.90571747 282.29889289 -221.92553711 275.97924805 C-221.92947177 274.72114327 -221.93340642 273.46303849 -221.93746031 272.16680933 C-222.00269505 251.80704648 -222.12094339 231.44792022 -222.25885444 211.08853476 C-222.39922687 190.19118274 -222.48246491 169.29416364 -222.51288992 148.3963595 C-222.53345203 135.50532051 -222.59834214 122.6160809 -222.7203095 109.72559596 C-222.79972352 100.88086291 -222.82353696 92.03705728 -222.80408316 83.19199377 C-222.79449281 78.09130611 -222.80897458 72.99375736 -222.88964462 67.89363098 C-223.398307 34.0816951 -223.398307 34.0816951 -215.92759472 25.61205345 C-213.43100141 23.32146486 -210.89022353 21.389568 -207.99913609 19.6254369 C-205.02419833 17.78753456 -202.42587613 15.54625672 -199.7265625 13.328125 C-150.00772262 -22.16491669 -51.12610157 -43.49881997 0 0 Z M-167.1015625 38.453125 C-167.32334255 41.20439831 -167.41915251 43.85778878 -167.42955017 46.61221313 C-167.44043138 47.46582345 -167.45131258 48.31943377 -167.46252352 49.19891107 C-167.49641572 52.07611508 -167.51573404 54.95322928 -167.53491211 57.83056641 C-167.55561807 59.88682745 -167.57702226 61.94308157 -167.59907532 63.99932861 C-167.66711552 70.76769106 -167.71251742 77.53611603 -167.75390625 84.3046875 C-167.76114944 85.45554069 -167.76839262 86.60639388 -167.7758553 87.79212141 C-167.84306249 98.64292397 -167.90122554 109.4937444 -167.93938351 120.34469032 C-167.98887258 134.23249954 -168.0816034 148.11852321 -168.23329538 162.00560248 C-168.33629372 171.76533338 -168.38954806 181.52458086 -168.4060536 191.28483713 C-168.41727452 197.11653044 -168.45052485 202.94616999 -168.53718376 208.77727127 C-168.61771106 214.2659344 -168.63662407 219.75139834 -168.60854912 225.24054718 C-168.60893187 227.25301888 -168.63152468 229.26562964 -168.67815018 231.27756119 C-169.31634488 241.17951709 -169.31634488 241.17951709 -165.8218987 250.03901243 C-162.31927936 253.05450147 -158.38706739 254.75757532 -154.1015625 256.453125 C-152.67700619 257.20705977 -151.25928692 257.97467288 -149.859375 258.7734375 C-148.65255553 259.38321929 -147.44163464 259.98495828 -146.2265625 260.578125 C-145.56148682 260.90522461 -144.89641113 261.23232422 -144.21118164 261.56933594 C-117.72651104 274.39711497 -89.36477554 281.12482373 -60.58984375 272.38671875 C-40.82398054 265.29907786 -27.82033615 251.45985702 -18.421875 233.1875 C-10.95720489 216.86578608 -7.04071017 199.22538673 -5.1015625 181.453125 C-5.00657471 180.63271729 -4.91158691 179.81230957 -4.8137207 178.96704102 C-3.86118815 169.48997712 -3.91547297 159.99008858 -3.91625977 150.4753418 C-3.9140903 147.55307052 -3.89592688 144.63118838 -3.87695312 141.70898438 C-3.82661451 125.10144342 -4.77817778 108.54333597 -7.9140625 92.203125 C-8.08437988 91.29892822 -8.25469727 90.39473145 -8.43017578 89.46313477 C-11.0465928 76.09491586 -14.79633575 63.58214492 -21.1015625 51.453125 C-21.62492187 50.43605469 -22.14828125 49.41898438 -22.6875 48.37109375 C-31.37590696 32.4831383 -44.52846198 20.76213916 -62.01953125 15.59033203 C-70.03738155 13.62778787 -77.54855326 12.97876564 -85.7890625 13.078125 C-87.01077148 13.08755127 -88.23248047 13.09697754 -89.49121094 13.10668945 C-114.05098461 13.51342627 -149.05899758 20.41056008 -167.1015625 38.453125 Z " fill="#646464" transform="translate(1238.1015625,1646.546875)"/>
<path d="M0 0 C0.00238835 1.17999541 0.00477671 2.35999083 0.00723743 3.57574368 C0.06472225 31.64994099 0.13754085 59.72406862 0.22898628 87.79817611 C0.24025309 91.26120233 0.25139176 94.72422896 0.26245117 98.18725586 C0.26465486 98.87661921 0.26685854 99.56598256 0.269129 100.27623571 C0.30440441 111.40656453 0.32932342 122.5368933 0.35034702 133.66725712 C0.37218715 145.10650264 0.40553334 156.54566246 0.44870156 167.98484999 C0.47256051 174.40229025 0.49133724 180.81965139 0.49761391 187.23713493 C0.50369798 193.28886061 0.52381704 199.340384 0.55427551 205.39203453 C0.56300275 207.6021458 0.56678947 209.81228356 0.56500816 212.02241135 C0.55137721 236.75893568 3.23363948 258.26073986 20.6875 277.1875 C37.26959095 292.99230544 60.93902312 298.38732271 83.203125 298.1484375 C109.29178626 297.12851041 135.93603145 287.48667609 157.43359375 272.6953125 C160 271 160 271 162 271 C162 184.21 162 97.42 162 8 C179.82 8 197.64 8 216 8 C216.0453943 47.00677336 216.08111655 86.01353965 216.10213066 125.0203342 C216.1046315 129.64555487 216.1072202 134.2707755 216.10986328 138.89599609 C216.11065021 140.27695312 216.11065021 140.27695312 216.11145304 141.68580827 C216.12011018 156.5118743 216.13585371 171.33792452 216.15430559 186.16398123 C216.17313625 201.42384154 216.18414424 216.68369368 216.18817699 231.94356513 C216.1906537 240.49498703 216.19657021 249.04637589 216.21146011 257.59778595 C216.46908122 410.25528017 216.46908122 410.25528017 180.9375 446.625 C146.87560409 480.20468666 91.38644305 496.00563937 44.3984375 496.046875 C43.27695313 496.03140625 42.15546875 496.0159375 41 496 C38.41120141 489.50856811 36.54980512 482.95226586 34.8125 476.1875 C34.53986328 475.15173828 34.26722656 474.11597656 33.98632812 473.04882812 C32 465.38727679 32 465.38727679 32 462 C33.16233154 461.8141333 34.32466309 461.6282666 35.5222168 461.43676758 C98.00185915 453.24947708 98.00185915 453.24947708 147.5 417.4375 C164.28055917 392.44292762 163.96026622 360.25941397 164.5625 331.1875 C164.60579575 329.22330012 164.64941312 327.25910731 164.69335938 325.29492188 C164.799278 320.53002116 164.90085439 315.76504626 165 311 C164.4237085 311.235979 163.84741699 311.47195801 163.25366211 311.71508789 C127.51630452 326.25596088 91.5907865 335.1384507 52.875 335.375 C52.19802063 335.38294586 51.52104126 335.39089172 50.82354736 335.39907837 C37.71311005 335.51782871 24.728911 333.8878449 12.375 329.3125 C11.67463623 329.05686279 10.97427246 328.80122559 10.25268555 328.5378418 C-13.83134441 319.38389136 -35.18916023 300.60077075 -46.375 277.375 C-51.24509582 266.20480793 -53.15977082 255.36469558 -53.12025452 243.23670959 C-53.12110894 242.27109382 -53.12196337 241.30547804 -53.12284368 240.31060117 C-53.12448685 237.08473394 -53.11899616 233.85891906 -53.11352539 230.63305664 C-53.11324324 228.31678265 -53.11340179 226.00050856 -53.1139679 223.68423462 C-53.11425479 217.40178381 -53.10837544 211.11935209 -53.10139394 204.83690572 C-53.09514248 198.26923675 -53.09455518 191.70156735 -53.09336853 185.13389587 C-53.09078018 174.11229115 -53.08436749 163.09069311 -53.07543945 152.0690918 C-53.06625477 140.71883174 -53.0591791 129.36857358 -53.05493164 118.01831055 C-53.05466892 117.31820565 -53.05440619 116.61810075 -53.05413551 115.89678056 C-53.05283043 112.38441827 -53.05156673 108.87205596 -53.05032361 105.35969365 C-53.03996372 76.23979121 -53.02228196 47.1198957 -53 18 C-45.61345637 15.43437414 -38.22609007 12.87112829 -30.83813477 10.30957031 C-28.32264297 9.43707772 -25.80734312 8.5640315 -23.29223633 7.69042969 C-19.68620801 6.43801111 -16.07950392 5.18755666 -12.47265625 3.9375 C-10.77424339 3.34690796 -10.77424339 3.34690796 -9.04151917 2.74438477 C-8.00051559 2.38401123 -6.95951202 2.0236377 -5.88696289 1.65234375 C-4.96540909 1.33257568 -4.04385529 1.01280762 -3.09437561 0.68334961 C-1 0 -1 0 0 0 Z " fill="#646464" transform="translate(1407,1624)"/>
<path d="M0 0 C0 74.25 0 148.5 0 225 C4.95 221.7 9.9 218.4 15 215 C19.04685723 212.67844867 23.0470128 210.4419609 27.1875 208.3125 C28.78742798 207.48697632 28.78742798 207.48697632 30.41967773 206.64477539 C40.0050905 201.80884642 49.70962473 198.02897615 60 195 C61.01634521 194.69376709 61.01634521 194.69376709 62.05322266 194.38134766 C92.60575887 185.36049701 129.23317554 182.89896927 158.19335938 198.00830078 C179.35507431 209.62436647 195.38357148 229.10363486 203 252 C206.6128665 264.49892419 208.16377664 276.9778938 208.12025452 289.97219849 C208.12153615 291.39996575 208.12153615 291.39996575 208.12284368 292.8565768 C208.12447919 296.01784824 208.11900896 299.17906556 208.11352539 302.34033203 C208.11324308 304.61764016 208.11340212 306.89494839 208.1139679 309.17225647 C208.11425414 315.33469892 208.10838532 321.49712181 208.10139394 327.65955973 C208.09513165 334.10709438 208.09455433 340.55462952 208.09336853 347.00216675 C208.09061618 357.81752907 208.0843751 368.63288339 208.07543945 379.44824219 C208.06624872 390.58398401 208.05917602 401.71972389 208.05493164 412.85546875 C208.05453756 413.88652187 208.05453756 413.88652187 208.05413551 414.93840434 C208.05283039 418.38701844 208.0515667 421.83563256 208.05032361 425.28424668 C208.03997097 453.85617025 208.02154345 482.42808252 208 511 C190.18 511 172.36 511 154 511 C153.9906543 504.3995166 153.98130859 497.7990332 153.97167969 490.99853516 C153.93787406 469.1616847 153.88250451 447.32492795 153.81609726 425.48815346 C153.77636875 412.25186599 153.74394485 399.01563745 153.72900391 385.77929688 C153.71595529 374.23608885 153.68890888 362.6930108 153.64538693 351.149876 C153.62284431 345.04369246 153.60708499 338.93766881 153.60811615 332.83143997 C153.60886702 327.07103114 153.59074573 321.3109748 153.55883217 315.55065727 C153.55039075 313.44900943 153.54854352 311.34732178 153.55419731 309.2456646 C153.61214808 284.36896441 148.90251444 258.86739956 131.2265625 240.03125 C119.42333242 229.26339098 104.71619367 224.74286206 88.94238281 225.03857422 C72.43673955 225.97887126 56.74118441 231.86374781 42 239 C40.90631104 239.5273877 40.90631104 239.5273877 39.79052734 240.06542969 C19.05378438 250.06951676 19.05378438 250.06951676 1 264 C0.88947989 267.17260236 0.84502114 270.32389979 0.84178162 273.49732971 C0.83684364 274.50682157 0.83190566 275.51631343 0.82681805 276.55639595 C0.81135997 279.96671338 0.80306006 283.37701187 0.79467773 286.78735352 C0.78510573 289.22096933 0.77509606 291.65458346 0.76467896 294.0881958 C0.74318178 299.34183257 0.72475182 304.59546661 0.70907402 309.849123 C0.68640107 317.44510951 0.65825473 325.04106789 0.62875474 332.63703059 C0.58104718 344.95974954 0.5377916 357.28247995 0.49731445 369.60522461 C0.4579756 381.57854099 0.41655327 393.55184716 0.37231445 405.52514648 C0.36959018 406.26267167 0.36686591 407.00019685 0.36405908 407.76007129 C0.35037987 411.45986638 0.33665954 415.15966132 0.32291877 418.85945618 C0.2089043 449.5729507 0.10292229 480.28646573 0 511 C-17.49 511 -34.98 511 -53 511 C-53 347.98 -53 184.96 -53 17 C-2 0 -2 0 0 0 Z " fill="#646464" transform="translate(1948,1442)"/>
<path d="M0 0 C34.36122062 29.47784301 54.11476696 69.74077689 57.72265625 114.93359375 C58.81508806 132.32524782 58.28818032 149.72943082 56 167 C55.90348145 167.72944824 55.80696289 168.45889648 55.70751953 169.21044922 C51.81139837 197.11025934 41.64559905 225.16833452 25 248 C24.60474121 248.54333984 24.20948242 249.08667969 23.80224609 249.64648438 C0.35033121 281.54618093 -31.03541065 299.50222838 -70.06640625 305.46875 C-106.98014321 309.33743859 -145.3171991 302.39356215 -175.03125 279.19311523 C-199.6674782 259.18363631 -215.85249346 232.84560748 -226 203 C-226.40734375 201.8553125 -226.8146875 200.710625 -227.234375 199.53125 C-243.09399119 152.19639553 -240.02202726 94.2278441 -217.82714844 49.64404297 C-210.40983689 35.1356858 -201.19630992 22.85491638 -190 11 C-189.25492188 10.19046875 -188.50984375 9.3809375 -187.7421875 8.546875 C-140.36413064 -41.17663022 -52.16631657 -43.30788546 0 0 Z M-151.421875 33.76171875 C-163.56054131 48.41877096 -170.12559236 65.81328321 -174.1875 84.25 C-174.34250977 84.93876221 -174.49751953 85.62752441 -174.65722656 86.3371582 C-177.78720665 101.54892963 -178.38260169 117.0814604 -178.3125 132.5625 C-178.31034485 133.42851837 -178.3081897 134.29453674 -178.30596924 135.1867981 C-178.14153701 176.62704706 -170.92269948 222.00863269 -141 253 C-125.85345507 267.77038901 -107.05191098 272.53971185 -86.44384766 272.41796875 C-65.60123607 271.91971418 -46.89383167 264.91504795 -32 250 C-16.87439571 233.26481975 -9.73457341 212.39264799 -5.25 190.625 C-5.05124268 189.67052979 -4.85248535 188.71605957 -4.64770508 187.73266602 C-1.49583181 171.4437093 -0.64598667 155.0306197 -0.68432617 138.47363281 C-0.687491 135.6330738 -0.66387557 132.79355712 -0.63867188 129.953125 C-0.51665113 94.57795943 -8.16488249 55.62947758 -33.8125 29.5 C-49.49818961 14.25284871 -69.67331456 6.6029308 -91.45410156 6.69702148 C-114.17161393 7.2425837 -136.35814425 16.58420642 -151.421875 33.76171875 Z " fill="#646464" transform="translate(2441,1654)"/>
<path d="M0 0 C15.78321835 13.89095239 25.18723685 30.83407361 27 52 C27.37059014 60.1643405 27.25322628 68.34646294 27.22705078 76.5168457 C27.22648594 78.99163814 27.22680464 81.4664309 27.22793579 83.94122314 C27.22838939 89.24706359 27.22276294 94.55284289 27.21146011 99.85866737 C27.19512936 107.5297637 27.1899894 115.20083632 27.18748413 122.87194815 C27.18311884 135.3211398 27.16984157 147.77030507 27.15087891 160.21948242 C27.13248979 172.30476755 27.11834817 184.39004548 27.10986328 196.4753418 C27.10933783 197.22166228 27.10881239 197.96798277 27.10827102 198.73691902 C27.10566073 202.48140262 27.10313337 206.22588626 27.10064721 209.97036994 C27.07995107 240.98027 27.04310105 271.99012097 27 303 C9.18 303 -8.64 303 -27 303 C-27.02187378 292.61345947 -27.02187378 292.61345947 -27.04418945 282.01708984 C-27.09302311 259.82162223 -27.15645323 237.62621207 -27.22898628 215.43081018 C-27.24025345 211.97893891 -27.25139206 208.52706725 -27.26245117 205.07519531 C-27.2657567 204.04445581 -27.2657567 204.04445581 -27.269129 202.99289329 C-27.30443049 191.8896372 -27.32933487 180.78638117 -27.35034702 169.6830899 C-27.37216621 158.27662892 -27.405494 146.87025422 -27.44870156 135.46385157 C-27.4725887 129.06271529 -27.49134706 122.66165877 -27.49761391 116.26047897 C-27.50368509 110.22763975 -27.5237585 104.19500452 -27.55427551 98.16224098 C-27.56302316 95.95570737 -27.56678516 93.74914706 -27.56500816 91.54259682 C-27.55328091 70.24905225 -29.84894758 50.99310479 -44 34 C-44.57492188 33.44570312 -45.14984375 32.89140625 -45.7421875 32.3203125 C-47 31 -47 31 -47 29 C-47.56460938 28.73832031 -48.12921875 28.47664063 -48.7109375 28.20703125 C-51.20274126 26.89309377 -53.35512834 25.35478358 -55.625 23.6875 C-76.5643593 9.01777444 -101.9556091 7.80482097 -126.56640625 11.90625 C-142.50397796 14.90545545 -158.41536688 21.07463129 -172 30 C-173.01840564 30.63202457 -174.03681128 31.26404915 -175.08607769 31.91522598 C-177.11078771 33.63610849 -177.90339598 34.6122676 -178.55116045 37.212152 C-178.75593825 40.06733975 -178.76557426 42.86862386 -178.71479797 45.730896 C-178.71921896 46.82477103 -178.72363994 47.91864607 -178.72819489 49.04566884 C-178.73574798 52.7182341 -178.70036707 56.3891362 -178.6652832 60.06152344 C-178.66195441 62.69114485 -178.66128117 65.32077077 -178.66307068 67.95039368 C-178.66280629 73.61557755 -178.64068815 79.28033723 -178.60381508 84.94539642 C-178.55061561 93.13712975 -178.53152667 101.32866577 -178.52094176 109.52055207 C-178.50293385 122.81281057 -178.45886102 136.10484743 -178.39770508 149.39697266 C-178.3383804 162.30613309 -178.28881898 175.21526009 -178.25415039 188.12451172 C-178.25200865 188.92016052 -178.2498669 189.71580932 -178.24766026 190.53556868 C-178.22657599 198.44296474 -178.2071103 206.35036454 -178.18829433 214.25776629 C-178.18098399 217.32984901 -178.17360124 220.40193155 -178.16618208 223.47401401 C-178.16253092 224.98949551 -178.15891064 226.50497708 -178.15532174 228.02045873 C-178.13226548 237.67820796 -178.10033785 247.33587399 -178.0587908 256.99356127 C-178.03510501 262.51875512 -178.0158063 268.04396265 -177.9966526 273.56917381 C-177.98674654 276.14240701 -177.97506903 278.71563406 -177.96154404 281.28885078 C-177.94328541 284.78491303 -177.93098159 288.28094677 -177.92012024 291.77703857 C-177.91311468 292.80959833 -177.90610912 293.84215808 -177.89889127 294.90600753 C-177.89718213 295.8349817 -177.89547298 296.76395587 -177.89371204 297.72108078 C-177.89007989 298.52907332 -177.88644773 299.33706586 -177.88270551 300.16954303 C-178 302 -178 302 -179 303 C-180.65738443 303.09346915 -182.31874644 303.11744977 -183.97875977 303.11352539 C-185.03978409 303.11344986 -186.10080841 303.11337433 -187.19398499 303.11329651 C-188.92520851 303.10555458 -188.92520851 303.10555458 -190.69140625 303.09765625 C-191.86638168 303.0962413 -193.04135712 303.09482635 -194.25193787 303.09336853 C-198.02215064 303.08774992 -201.79230504 303.07519426 -205.5625 303.0625 C-208.11132727 303.0574874 -210.66015547 303.05292408 -213.20898438 303.04882812 C-219.47267633 303.03777444 -225.73633399 303.02101821 -232 303 C-232.36645227 268.02684647 -232.64826837 233.05408226 -232.81704527 198.07941202 C-232.83705589 193.9477136 -232.85776511 189.81601896 -232.87890625 185.68432617 C-232.88310322 184.86180191 -232.88730018 184.03927765 -232.89162433 183.19182841 C-232.96119261 169.88409284 -233.0873131 156.57746637 -233.23444474 143.27038815 C-233.38422328 129.60968437 -233.47297172 115.94956022 -233.50541592 102.28806907 C-233.52734102 93.86159248 -233.59649636 85.43825055 -233.72666347 77.01273946 C-233.81143477 71.23003146 -233.83676134 65.44893657 -233.81602204 59.66565277 C-233.80579377 56.32936696 -233.82990189 53.0029274 -233.9072876 49.66687393 C-234.33759492 30.15680821 -234.33759492 30.15680821 -230.41813469 24.86376786 C-226.68195163 21.32555907 -222.52035653 18.95200405 -217.8502655 16.85055029 C-215.50634412 15.77307086 -213.42694754 14.40674231 -211.30859375 12.94140625 C-153.2047367 -23.19849279 -58.51561207 -50.03981311 0 0 Z " fill="#646464" transform="translate(2779,1650)"/>
<path d="M0 0 C0 35.31 0 70.62 0 107 C29.7 107.495 29.7 107.495 60 108 C60 119.22 60 130.44 60 142 C40.2 142 20.4 142 0 142 C-0.02260148 169.00842624 -0.04101093 196.01684479 -0.05181217 223.02527809 C-0.05696139 235.5666602 -0.06397785 248.108036 -0.07543945 260.64941406 C-0.08542833 271.58456723 -0.09186342 282.51971584 -0.09408849 293.45487344 C-0.09538847 299.2411985 -0.09842903 305.02751048 -0.10573006 310.81383133 C-0.11255667 316.26875598 -0.11460353 321.72366226 -0.11310768 327.17859077 C-0.11338104 329.17228228 -0.11534653 331.16597445 -0.11920547 333.15966225 C-0.97444201 363.91427993 -0.97444201 363.91427993 12.0625 390.75 C24.82825437 402.36765655 43.58926993 404.08807028 60 406 C60 415.24 60 424.48 60 434 C29.98761953 436.0556425 -2.11046714 434.3801012 -26.73046875 414.83203125 C-29.23848461 412.6275574 -31.63504001 410.35670533 -34 408 C-34.62519531 407.39800781 -35.25039062 406.79601563 -35.89453125 406.17578125 C-49.83006532 391.6740178 -54.18875343 371.21444221 -54.12025452 351.72387695 C-54.12110894 350.82274359 -54.12196337 349.92161022 -54.12284368 348.99316978 C-54.12448302 345.99151967 -54.11900254 342.98992617 -54.11352539 339.98828125 C-54.11324316 337.82949322 -54.11340196 335.67070509 -54.1139679 333.51191711 C-54.11425447 327.66339538 -54.10838037 321.81489422 -54.10139394 315.96637726 C-54.09513708 309.84981898 -54.09455475 303.73326021 -54.09336853 297.61669922 C-54.0902621 286.03948139 -54.08205797 274.46227302 -54.07201904 262.88505936 C-54.06083656 249.70253824 -54.05534207 236.52001667 -54.05032361 223.33749199 C-54.03987479 196.22498924 -54.0220869 169.11249555 -54 142 C-65.88 142 -77.76 142 -90 142 C-90.67102365 137.30283448 -91.12779474 133.31839083 -91.1328125 128.6640625 C-91.13410156 127.51808594 -91.13539062 126.37210938 -91.13671875 125.19140625 C-91.13285156 124.01449219 -91.12898438 122.83757812 -91.125 121.625 C-91.12886719 120.42488281 -91.13273437 119.22476562 -91.13671875 117.98828125 C-91.13542969 116.85003906 -91.13414063 115.71179687 -91.1328125 114.5390625 C-91.13168457 113.49959473 -91.13055664 112.46012695 -91.12939453 111.38916016 C-91 109 -91 109 -90 108 C-78.12 108 -66.24 108 -54 108 C-54 78.63 -54 49.26 -54 19 C-46.81420536 16.0059189 -39.71389016 13.07205418 -32.40234375 10.44921875 C-31.14001671 9.99371391 -31.14001671 9.99371391 -29.85218811 9.52900696 C-28.10099041 8.89824173 -26.34923296 8.26902841 -24.59692383 7.64135742 C-21.90951282 6.67746182 -19.22523794 5.70515694 -16.54101562 4.73242188 C-14.82830733 4.1166801 -13.11542313 3.50142735 -11.40234375 2.88671875 C-10.20242043 2.45089729 -10.20242043 2.45089729 -8.97825623 2.00627136 C-5.86788909 0.89875713 -3.32788516 0 0 0 Z " fill="#646464" transform="translate(1772,1524)"/>
<path d="M0 0 C1.51400391 0.01740234 1.51400391 0.01740234 3.05859375 0.03515625 C4.07050781 0.04417969 5.08242187 0.05320312 6.125 0.0625 C7.29869141 0.07990234 7.29869141 0.07990234 8.49609375 0.09765625 C11.4744175 5.45571355 13.11239751 11.02420651 14.81640625 16.89453125 C15.12053436 17.92451233 15.42466248 18.95449341 15.73800659 20.01568604 C16.70434407 23.29147472 17.66307844 26.56942505 18.62109375 29.84765625 C19.58755458 33.13976848 20.55560402 36.43140205 21.52560425 39.72247314 C22.12783401 41.767313 22.72777458 43.8128287 23.32522583 45.85906982 C23.59575775 46.78052795 23.86628967 47.70198608 24.14501953 48.65136719 C24.3824588 49.46377869 24.61989807 50.27619019 24.86453247 51.11322021 C25.45389415 53.14234042 25.45389415 53.14234042 26.49609375 55.09765625 C26.72524475 54.42336075 26.95439575 53.74906525 27.19049072 53.05433655 C29.35100208 46.70633864 31.5270288 40.36390428 33.7207222 34.0272913 C34.84803137 30.769208 35.96919463 27.50927187 37.07666016 24.24438477 C38.34958222 20.49258916 39.6486208 16.75010886 40.94921875 13.0078125 C41.34417542 11.8317897 41.73913208 10.65576691 42.14605713 9.44410706 C42.52614929 8.36306198 42.90624146 7.28201691 43.29785156 6.16821289 C43.62650208 5.2111293 43.95515259 4.25404572 44.29376221 3.26795959 C45.49609375 1.09765625 45.49609375 1.09765625 47.40301514 0.28855896 C50.45405407 0.01028389 53.43556439 -0.01783542 56.49609375 0.09765625 C57.49609375 1.09765625 57.49609375 1.09765625 57.61634827 3.68556213 C57.61412766 4.83805954 57.61190704 5.99055695 57.60961914 7.17797852 C57.60954361 8.47925186 57.60946808 9.78052521 57.60939026 11.12123108 C57.60428284 12.55217527 57.59906683 13.98311907 57.59375 15.4140625 C57.59188578 16.86994885 57.5904619 18.32583582 57.58946228 19.78172302 C57.5856374 23.62045004 57.57580739 27.45913944 57.5647583 31.29785156 C57.55454353 35.21223441 57.54996452 39.12662331 57.54492188 43.04101562 C57.53418509 50.72657968 57.51710904 58.4121127 57.49609375 66.09765625 C54.52609375 66.09765625 51.55609375 66.09765625 48.49609375 66.09765625 C48.16609375 50.25765625 47.83609375 34.41765625 47.49609375 18.09765625 C42.64471888 32.77046489 42.64471888 32.77046489 37.80322266 47.4465332 C37.19339195 49.2847868 36.58322604 51.12292925 35.97265625 52.9609375 C35.50218872 54.39536194 35.50218872 54.39536194 35.0222168 55.85876465 C34.56576782 57.2286554 34.56576782 57.2286554 34.10009766 58.6262207 C33.70704941 59.8153582 33.70704941 59.8153582 33.30606079 61.02851868 C32.49609375 63.09765625 32.49609375 63.09765625 30.49609375 66.09765625 C28.33203125 66.390625 28.33203125 66.390625 25.87109375 66.28515625 C25.05382813 66.25808594 24.2365625 66.23101563 23.39453125 66.203125 C22.76804687 66.16832031 22.1415625 66.13351562 21.49609375 66.09765625 C19.85833394 61.20941314 18.22269218 56.32046788 16.58886719 51.4309082 C16.03473739 49.77349508 15.48006559 48.11626305 14.92480469 46.45922852 C14.11895483 44.05404306 13.31516842 41.64817566 12.51171875 39.2421875 C12.26987854 38.52182816 12.02803833 37.80146881 11.77886963 37.0592804 C9.57046444 30.43476 7.55176859 23.77859947 5.49609375 17.09765625 C5.16609375 33.26765625 4.83609375 49.43765625 4.49609375 66.09765625 C1.85609375 66.09765625 -0.78390625 66.09765625 -3.50390625 66.09765625 C-3.52703284 57.63998291 -3.54482295 49.18232269 -3.55571842 40.72462559 C-3.56094656 36.79776967 -3.56804294 32.87093531 -3.5793457 28.9440918 C-3.59017705 25.15751368 -3.59618361 21.37095635 -3.59878349 17.58436394 C-3.6006373 16.13661306 -3.60425706 14.68886337 -3.60963631 13.24112129 C-3.61684992 11.2200849 -3.61731433 9.19902777 -3.61743164 7.17797852 C-3.61965225 6.02548111 -3.62187286 4.8729837 -3.62416077 3.68556213 C-3.46469055 0.25372502 -3.4272832 0.13366939 0 0 Z " fill="#646464" transform="translate(2953.50390625,1517.90234375)"/>
<path d="M0 0 C17.49 0 34.98 0 53 0 C54 5 54 5 53 7 C42.605 7.495 42.605 7.495 32 8 C31.67 27.14 31.34 46.28 31 66 C28.03 66 25.06 66 22 66 C21.505 37.29 21.505 37.29 21 8 C14.07 7.67 7.14 7.34 0 7 C0 4.69 0 2.38 0 0 Z " fill="#646464" transform="translate(2888,1518)"/>
</svg>
