<?xml version="1.0" encoding="UTF-8"?>
<svg version="1.1" xmlns="http://www.w3.org/2000/svg" width="360" height="360">
<path d="M0 0 C118.8 0 237.6 0 360 0 C360 118.8 360 237.6 360 360 C241.2 360 122.4 360 0 360 C0 241.2 0 122.4 0 0 Z " fill="#0078D6" transform="translate(0,0)"/>
<path d="M0 0 C118.8 0 237.6 0 360 0 C360 89.1 360 178.2 360 270 C355.05 270 350.1 270 345 270 C345 265.05 345 260.1 345 255 C340.05 255 335.1 255 330 255 C330 250.05 330 245.1 330 240 C325.05 240 320.1 240 315 240 C315 235.05 315 230.1 315 225 C310.05 225 305.1 225 300 225 C300 220.05 300 215.1 300 210 C295.05 210 290.1 210 285 210 C285 205.05 285 200.1 285 195 C280.05 195 275.1 195 270 195 C270 190.05 270 185.1 270 180 C265.05 180 260.1 180 255 180 C255 175.05 255 170.1 255 165 C252.36 165 249.72 165 247 165 C246.99761165 164.38192915 246.99522329 163.7638583 246.99276257 163.12705803 C246.93359098 148.07843553 246.85802722 133.02999191 246.76428509 117.98155022 C246.71934586 110.70418624 246.67992694 103.426871 246.65356445 96.14941406 C246.63056912 89.80535656 246.5971541 83.46145351 246.55129844 77.11751854 C246.52738669 73.75935149 246.5086446 70.40133721 246.50238609 67.04308701 C246.49277351 63.29135102 246.46474654 59.54017321 246.43237305 55.78857422 C246.43380814 54.67870651 246.43524323 53.56883881 246.4367218 52.42533875 C246.33213106 43.86364169 244.08829232 38.46368238 238.3203125 32.140625 C219.01222765 14.32777904 190.10636955 7.96077611 165 4 C164.28215332 3.88140625 163.56430664 3.7628125 162.82470703 3.640625 C117.40835066 -3.55574177 62.01122615 1.19676806 23.015625 26.97265625 C17.31214855 31.21651521 13.8899876 35.52105106 11 42 C10.67 42.66 10.34 43.32 10 44 C9.89737587 46.95509866 9.85663418 49.88688478 9.85955811 52.84243774 C9.85658698 53.76955201 9.85361586 54.69666627 9.8505547 55.6518749 C9.84184008 58.77785397 9.84035711 61.90379488 9.83886719 65.02978516 C9.83424087 67.26337771 9.82921647 69.49696947 9.82382202 71.7305603 C9.81067584 77.81342936 9.80424845 83.89628737 9.79981136 89.97916842 C9.7968835 93.77802842 9.79277919 97.57688539 9.78830719 101.37574387 C9.7761937 111.8945913 9.76581384 122.41343693 9.7624321 132.93229103 C9.76221253 133.60582366 9.76199297 134.27935628 9.76176675 134.97329899 C9.76154847 135.64844726 9.76133019 136.32359552 9.7611053 137.01920283 C9.76066183 138.38731361 9.76021527 139.75542438 9.75976562 141.12353516 C9.7595442 141.80216584 9.75932277 142.48079652 9.75909463 143.17999177 C9.75514962 154.16758577 9.73770617 165.15511332 9.7144061 176.14268167 C9.69067473 187.42482851 9.67848719 198.70694321 9.67706418 209.98911893 C9.6760156 216.32299143 9.67009673 222.65677032 9.65224457 228.99061966 C9.63577236 234.95119497 9.63360437 240.91160624 9.64238358 246.8721962 C9.64315447 249.05869486 9.63880439 251.2452023 9.62892532 253.43167877 C9.61621718 256.41986792 9.62207682 259.40747514 9.63250732 262.3956604 C9.62445092 263.25812964 9.61639452 264.12059888 9.60809398 265.00920355 C9.68189766 274.06867078 12.74728598 281.40065365 19 288 C30.36145107 297.84659093 46.51041278 304.80006435 60.9375 308.5 C61.7737793 308.71575684 62.61005859 308.93151367 63.47167969 309.15380859 C78.8036938 313.03485204 94.32185606 315.07732541 110 317 C110 316.34 110 315.68 110 315 C112.31 315 114.62 315 117 315 C117.24234375 315.61746094 117.4846875 316.23492187 117.734375 316.87109375 C118.80896326 319.58649562 119.90432749 322.29304438 121 325 C121.45052734 326.16402344 121.45052734 326.16402344 121.91015625 327.3515625 C124.0744546 332.65456193 126.92783224 336.76697663 130.609375 341.15234375 C132 343 132 343 132 345 C128.04 345 124.08 345 120 345 C120 349.95 120 354.9 120 360 C80.4 360 40.8 360 0 360 C0 241.2 0 122.4 0 0 Z " fill="#F6F7F7" transform="translate(0,0)"/>
<path d="M0 0 C13.96892866 11.91643273 22.19183285 28.48710319 23.69140625 46.72265625 C24.09742667 56.34862601 22.32013529 64.72404391 19.375 73.875 C19.94863281 73.71644531 20.52226562 73.55789063 21.11328125 73.39453125 C27.6179331 71.90037115 33.33071185 72.581375 39.30078125 75.55078125 C44.56018882 78.90848213 48.03525075 83.79529074 49.97265625 89.69921875 C50.95463154 95.0095123 49.99952727 100.00141819 48.3125 105.0625 C44.5276947 110.55657221 39.7492966 114.77068962 33.375 116.875 C30.21082783 117.12947559 30.21082783 117.12947559 26.57698059 117.13569641 C25.90597799 117.13952196 25.23497538 117.14334751 24.54363936 117.14728898 C22.30220585 117.15758186 20.06103029 117.15363391 17.81958008 117.1496582 C16.20947025 117.15400689 14.5993625 117.15919057 12.98925781 117.16514587 C8.61916379 117.17853422 4.24915626 117.17911444 -0.12095428 117.17658257 C-3.77370215 117.17551217 -7.42643258 117.18039832 -11.07917672 117.185188 C-19.70229321 117.19628386 -28.32536615 117.19672096 -36.94848633 117.19067383 C-45.82971573 117.1846411 -54.71078642 117.19692701 -63.59198874 117.2182439 C-71.22701244 117.23589258 -78.86198579 117.24185588 -86.49702913 117.23860615 C-91.05246278 117.23679744 -95.60778337 117.23938776 -100.16319847 117.25332069 C-104.45193278 117.26594666 -108.74042114 117.26391008 -113.02915192 117.25090981 C-114.59719999 117.24855435 -116.16526561 117.25124149 -117.73329353 117.25953293 C-132.54868341 117.33218079 -143.47669592 114.82249042 -154.88671875 104.91015625 C-163.08078642 96.5287956 -167.36993892 85.61471798 -167.72265625 73.9609375 C-167.33683106 61.76886156 -163.38816977 51.49503093 -155 42.5 C-145.63924637 33.73134223 -134.33976105 29.40876596 -121.58984375 29.60546875 C-116.45240447 30.07250868 -111.5630848 31.42718456 -106.625 32.875 C-106.1403125 31.84761719 -105.655625 30.82023437 -105.15625 29.76171875 C-95.546152 9.73946968 -83.51753437 -3.83091622 -62.76953125 -12.2890625 C-41.19426528 -18.95155445 -17.5352984 -13.43077564 0 0 Z " fill="#F3F4F5" transform="translate(292.625,234.125)"/>
<path d="M0 0 C2.64 0 5.28 0 8 0 C8 4.95 8 9.9 8 15 C12.95 15 17.9 15 23 15 C23 19.95 23 24.9 23 30 C27.95 30 32.9 30 38 30 C38 34.95 38 39.9 38 45 C42.95 45 47.9 45 53 45 C53 49.95 53 54.9 53 60 C57.95 60 62.9 60 68 60 C68 64.95 68 69.9 68 75 C72.95 75 77.9 75 83 75 C83 79.95 83 84.9 83 90 C87.95 90 92.9 90 98 90 C98 94.95 98 99.9 98 105 C102.95 105 107.9 105 113 105 C113 134.7 113 164.4 113 195 C33.8 195 -45.4 195 -127 195 C-127 190.05 -127 185.1 -127 180 C-123.04 180 -119.08 180 -115 180 C-115.53109375 179.31035156 -116.0621875 178.62070312 -116.609375 177.91015625 C-123.05237421 169.33908614 -126.82572739 161.17210085 -130 151 C-132.64 151 -135.28 151 -138 151 C-138.65694773 132.04584141 -135.27744925 116.3877049 -122.54296875 101.60546875 C-113.05035562 91.87955023 -100.71266871 84.49701624 -87 83 C-85.63662105 83.00448593 -84.27325437 83.02274918 -82.91015625 83.05078125 C-74.6715438 83.42814583 -74.6715438 83.42814583 -67.6640625 79.84375 C-65.95021781 77.06741681 -65.95021781 77.06741681 -64.5234375 74.046875 C-61.95444775 68.9088955 -57.99830161 65.06618449 -54 61 C-53.31292969 60.30003906 -52.62585938 59.60007813 -51.91796875 58.87890625 C-38.22473499 45.84619954 -18.86562696 38 0 38 C0 25.46 0 12.92 0 0 Z M-45.65966797 75.43457031 C-52.35993001 83.26008583 -57.14187686 92.50009881 -61 102 C-61.73863281 101.7834375 -62.47726563 101.566875 -63.23828125 101.34375 C-76.22517747 97.77936679 -87.33977813 97.98440093 -99.54296875 104.3203125 C-110.17082208 111.01531133 -117.1358834 119.68172204 -120.84765625 131.7578125 C-123.70457552 144.73692918 -121.15057922 156.53751776 -114.25 167.6875 C-108.12514958 176.34151751 -99.15179833 182.95939058 -88.7487154 185.56355572 C-85.52600352 186.07526172 -82.45262578 186.13556388 -79.18852234 186.14717102 C-78.17990173 186.15268605 -78.17990173 186.15268605 -77.15090495 186.1583125 C-74.90487605 186.16929774 -72.65889348 186.17318432 -70.4128418 186.17700195 C-68.79948786 186.18327039 -67.18613536 186.18991752 -65.57278442 186.19691467 C-60.281606 186.21790808 -54.99042744 186.22831099 -49.69921875 186.23828125 C-47.87517596 186.24233023 -46.05113332 186.2464472 -44.22709084 186.25063133 C-35.65848974 186.26967073 -27.08989721 186.28390574 -18.52127904 186.2922433 C-8.63918962 186.30201865 1.24267599 186.32835116 11.12468654 186.36874419 C18.76986165 186.39891931 26.41497262 186.4137134 34.06020612 186.41702431 C38.6234581 186.41937271 43.18647062 186.42830612 47.74965858 186.45348549 C52.04334472 186.47679648 56.33663422 186.48098738 60.63036728 186.47072411 C62.20249312 186.47022941 63.7746387 186.4765303 65.34670448 186.49028015 C74.71307306 186.56759209 81.79274011 186.39986245 89.2421875 180.10546875 C94.12366782 174.37148111 96.3004043 169.73031657 95.9375 162.0625 C95.07040014 155.42817784 91.98770753 150.57064785 87.0625 146.125 C81.23792175 142.08345591 75.91893996 141.45906469 69 142 C67.65917732 142.30180029 66.32249966 142.62598992 65 143 C65.28875 142.1028125 65.5775 141.205625 65.875 140.28125 C71.1210304 122.64875894 70.21972904 105.72823434 61.8125 89.1875 C52.29343763 72.87198843 38.79677217 61.23097313 20.47998047 56.23291016 C-3.68306404 50.56097195 -28.71238166 57.17627881 -45.65966797 75.43457031 Z " fill="#F5F7F8" transform="translate(247,165)"/>
<path d="M0 0 C1.26818069 0.00323273 1.26818069 0.00323273 2.5619812 0.00653076 C27.89548413 0.10957422 62.39860112 0.47528583 82.625 18.25 C85.34963573 21.85830137 86.09880886 23.79585192 85.9375 28.3125 C82.22128749 36.58951877 73.72522505 40.28732509 65.6875 43.4375 C26.59355621 57.86330952 -29.0492766 58.00805599 -67.65625 41.8828125 C-74.46436942 38.74420699 -80.86697773 35.42979961 -84.0625 28.3125 C-84.42136332 24.43677615 -83.89602816 22.36462501 -81.46875 19.30078125 C-72.39990386 10.41804949 -60.85487911 7.24736814 -48.8125 4.5625 C-47.92159668 4.36374268 -47.03069336 4.16498535 -46.11279297 3.96020508 C-30.85557129 0.80405167 -15.542469 -0.07194964 0 0 Z " fill="#EEEFF0" transform="translate(127.0625,17.6875)"/>
<path d="M0 0 C1.66512934 1.28793163 3.31338375 2.59822033 4.9375 3.9375 C5.56785156 4.45441406 6.19820312 4.97132813 6.84765625 5.50390625 C12.81938296 10.93151207 16.77204888 18.10809759 20.9375 24.9375 C21.47632813 25.77152344 22.01515625 26.60554688 22.5703125 27.46484375 C24.1733875 30.3641194 25.11338782 33.20257385 26.0625 36.375 C26.56136719 38.01275391 26.56136719 38.01275391 27.0703125 39.68359375 C28.71449127 45.85296724 29.09390345 51.59400213 29.0625 57.9375 C29.06636719 58.71867187 29.07023438 59.49984375 29.07421875 60.3046875 C29.06694141 64.62742831 28.79697175 68.68106845 27.9375 72.9375 C28.494375 73.02386719 29.05125 73.11023438 29.625 73.19921875 C38.61613896 74.85468184 46.52997739 79.40803814 51.9375 86.9375 C56.35498264 96.39794956 57.23734247 104.54966218 53.9765625 114.484375 C50.90628701 121.73299533 44.88654101 128.52541635 37.76273441 131.99744606 C34.35130182 133.13254856 31.52174186 133.19521047 27.92515564 133.20492554 C27.23106285 133.20945665 26.53697006 133.21398776 25.82184416 133.21865618 C23.50217362 133.23128936 21.18273819 133.2296805 18.86303711 133.22802734 C17.19705911 133.23401353 15.53108389 133.24081928 13.8651123 133.24838257 C9.34200479 133.26604682 4.81897297 133.2707383 0.2958343 133.27201414 C-2.53370082 133.27343677 -5.36321676 133.27770862 -8.19274712 133.28300858 C-18.07504367 133.30151464 -27.9572863 133.30967901 -37.83959961 133.30810547 C-47.03211004 133.30690592 -56.22438496 133.32797008 -65.41683584 133.3595928 C-73.3219532 133.38581174 -81.22699395 133.39647032 -89.13215441 133.39519465 C-93.8475414 133.3946864 -98.56271937 133.4002928 -103.27806282 133.42155075 C-107.71951494 133.44102639 -112.16056079 133.44099438 -116.60202789 133.42651749 C-118.22406806 133.42443936 -119.84613426 133.42907027 -121.46813011 133.4412384 C-137.88808198 133.5563501 -151.23033862 129.63103893 -163.375 118.0625 C-164.63084656 116.71182421 -165.86136833 115.3370565 -167.0625 113.9375 C-167.60648438 113.30714844 -168.15046875 112.67679687 -168.7109375 112.02734375 C-176.42516191 101.86571312 -179.48803132 87.43092053 -178.0625 74.9375 C-176.07111499 61.19165657 -168.57433684 48.37889004 -157.4609375 39.96875 C-147.68143377 33.46744611 -138.40355905 29.78877682 -126.625 29.8125 C-125.34753906 29.80992187 -124.07007813 29.80734375 -122.75390625 29.8046875 C-119.4232663 29.92452005 -116.32885544 30.30139369 -113.0625 30.9375 C-112.7221875 30.18726563 -112.381875 29.43703125 -112.03125 28.6640625 C-108.5141091 21.23690858 -104.5205948 15.07135892 -99.0625 8.9375 C-98.45792969 8.23882812 -97.85335937 7.54015625 -97.23046875 6.8203125 C-71.2823083 -21.25832849 -29.63466033 -20.78064858 0 0 Z M-93.72216797 14.37207031 C-100.42243001 22.19758583 -105.20437686 31.43759881 -109.0625 40.9375 C-109.80113281 40.7209375 -110.53976563 40.504375 -111.30078125 40.28125 C-124.28767747 36.71686679 -135.40227813 36.92190093 -147.60546875 43.2578125 C-158.23332208 49.95281133 -165.1983834 58.61922204 -168.91015625 70.6953125 C-171.76707552 83.67442918 -169.21307922 95.47501776 -162.3125 106.625 C-156.18764958 115.27901751 -147.21429833 121.89689058 -136.8112154 124.50105572 C-133.58850352 125.01276172 -130.51512578 125.07306388 -127.25102234 125.08467102 C-126.24240173 125.09018605 -126.24240173 125.09018605 -125.21340495 125.0958125 C-122.96737605 125.10679774 -120.72139348 125.11068432 -118.4753418 125.11450195 C-116.86198786 125.12077039 -115.24863536 125.12741752 -113.63528442 125.13441467 C-108.344106 125.15540808 -103.05292744 125.16581099 -97.76171875 125.17578125 C-95.93767596 125.17983023 -94.11363332 125.1839472 -92.28959084 125.18813133 C-83.72098974 125.20717073 -75.15239721 125.22140574 -66.58377904 125.2297433 C-56.70168962 125.23951865 -46.81982401 125.26585116 -36.93781346 125.30624419 C-29.29263835 125.33641931 -21.64752738 125.3512134 -14.00229388 125.35452431 C-9.4390419 125.35687271 -4.87602938 125.36580612 -0.31284142 125.39098549 C3.98084472 125.41429648 8.27413422 125.41848738 12.56786728 125.40822411 C14.13999312 125.40772941 15.7121387 125.4140303 17.28420448 125.42778015 C26.65057306 125.50509209 33.73024011 125.33736245 41.1796875 119.04296875 C46.06116782 113.30898111 48.2379043 108.66781657 47.875 101 C47.00790014 94.36567784 43.92520753 89.50814785 39 85.0625 C33.17542175 81.02095591 27.85643996 80.39656469 20.9375 80.9375 C19.59667732 81.23930029 18.25999966 81.56348992 16.9375 81.9375 C17.22625 81.0403125 17.515 80.143125 17.8125 79.21875 C23.0585304 61.58625894 22.15722904 44.66573434 13.75 28.125 C4.23093763 11.80948843 -9.26572783 0.16847313 -27.58251953 -4.82958984 C-51.74556404 -10.50152805 -76.77488166 -3.88622119 -93.72216797 14.37207031 Z " fill="#0478D6" transform="translate(295.0625,226.0625)"/>
<path d="M0 0 C5.80561552 4.67493385 10.40326609 11.02921427 11.7109375 18.4921875 C12.43916215 31.18010152 11.96613376 41.49587971 3.48828125 51.640625 C1.42062564 53.79462227 -0.53692342 55.31269932 -3.2890625 56.4921875 C-3.9490625 56.4921875 -4.6090625 56.4921875 -5.2890625 56.4921875 C-5.2890625 57.1521875 -5.2890625 57.8121875 -5.2890625 58.4921875 C-4.41157349 58.8953418 -4.41157349 58.8953418 -3.51635742 59.30664062 C-1.27406571 60.50017001 0.43252949 61.7996722 2.34765625 63.4609375 C3.00701172 64.03199219 3.66636719 64.60304688 4.34570312 65.19140625 C5.02310547 65.78566406 5.70050781 66.37992187 6.3984375 66.9921875 C7.08744141 67.58644531 7.77644531 68.18070312 8.48632812 68.79296875 C13.58018701 73.23068652 13.58018701 73.23068652 14.7109375 75.4921875 C10.87865218 75.72652291 7.04822433 75.86725258 3.2109375 75.9921875 C1.59445313 76.09273437 1.59445313 76.09273437 -0.0546875 76.1953125 C-7.97753465 76.38855267 -7.97753465 76.38855267 -11.77636719 73.79223633 C-14.31833127 71.28456858 -16.47611931 68.7148445 -18.45214844 65.74291992 C-21.18548575 61.81175217 -23.48654636 61.00416862 -27.9765625 60.0546875 C-35.57655935 58.42811991 -41.36237786 55.27501848 -46.171875 49.05859375 C-51.9987987 39.81151919 -53.69609852 30.60333633 -51.82421875 19.8125 C-49.53343354 11.11022719 -44.96364301 3.81576512 -37.4765625 -1.2890625 C-25.67287035 -7.86540527 -11.28908071 -7.43615214 0 0 Z " fill="#F4F6F7" transform="translate(149.2890625,142.5078125)"/>
<path d="M0 0 C1 1 1 1 1.09765625 4.59765625 C1.0909822 6.08596867 1.07902183 7.57426432 1.0625 9.0625 C1.05798828 9.82111328 1.05347656 10.57972656 1.04882812 11.36132812 C1.0370068 13.24091871 1.01907078 15.12046899 1 17 C0.48953125 16.7834375 -0.0209375 16.566875 -0.546875 16.34375 C-7.11148247 13.82964501 -13.02489733 13.68134049 -20 14 C-20.33 15.65 -20.66 17.3 -21 19 C-17.64181992 21.77342235 -14.06982759 23.43453096 -10.125 25.25 C-4.36799751 28.00861009 -0.58868363 30.66824147 3 36 C4.84152373 41.52457118 4.8169855 46.91005661 2.375 52.25 C-0.90528296 57.95928142 -4.69911107 60.81251198 -10.875 62.8125 C-21.24045394 65.29057984 -32.15978117 65.21723664 -42 61 C-42 55.06 -42 49.12 -42 43 C-39.52604167 44.26953125 -37.05208333 45.5390625 -34.578125 46.80859375 C-29.58592847 49.11559366 -25.43937675 49.17834022 -20 49 C-18.74843946 47.95137906 -18.74843946 47.95137906 -18.6875 45.625 C-18.71783972 42.94253469 -18.71783972 42.94253469 -20.58203125 41.546875 C-24.16232856 39.25641016 -28.00104999 37.52829122 -31.8671875 35.78125 C-37.30329769 33.1915151 -40.82411013 29.64200588 -43 24 C-43.980382 17.35404203 -43.41929248 12.11063421 -39.40625 6.6484375 C-29.85749274 -4.54482796 -13.08331428 -3.76976852 0 0 Z " fill="#EBEDEF" transform="translate(89,139)"/>
<path d="M0 0 C-0.33 4.29 -0.66 8.58 -1 13 C3.95 13 8.9 13 14 13 C14 17.95 14 22.9 14 28 C11.36 28 8.72 28 6 28 C5.89042969 28.95261719 5.78085938 29.90523437 5.66796875 30.88671875 C5.43013672 32.76810547 5.43013672 32.76810547 5.1875 34.6875 C5.03667969 35.92886719 4.88585937 37.17023438 4.73046875 38.44921875 C4.00148659 41.99277376 3.16221833 44.12741258 1 47 C-2.96509316 49.36380554 -5.08603529 50.12392742 -9.6875 49.5 C-14.18304477 47.46428161 -15.85699022 45.00026711 -18.25 40.8125 C-19.39606229 36.5147664 -19.11838278 32.43935441 -19 28 C-22.96 28 -26.92 28 -31 28 C-31 32.95 -31 37.9 -31 43 C-32.65 43 -34.3 43 -36 43 C-36.66 43.66 -37.32 44.32 -38 45 C-40.53260294 33.78710473 -39.33871395 23.0857007 -33.3125 13.25 C-24.84868542 1.47968291 -13.8122746 -0.48182353 0 0 Z " fill="#EAECEF" transform="translate(136,137)"/>
<path d="M0 0 C6.6 0 13.2 0 20 0 C20 16.17 20 32.34 20 49 C27.26 49 34.52 49 42 49 C42 53.95 42 58.9 42 64 C28.14 64 14.28 64 0 64 C0 42.88 0 21.76 0 0 Z " fill="#E8EEF3" transform="translate(170,138)"/>
<path d="M0 0 C4.64300188 2.39051854 8.75969118 5.3100673 12.890625 8.48828125 C13.90125 9.21015625 14.911875 9.93203125 15.953125 10.67578125 C25.75315205 19.19875095 32.77379784 31.78731828 34.890625 44.48828125 C30.270625 44.48828125 25.650625 44.48828125 20.890625 44.48828125 C20.890625 39.53828125 20.890625 34.58828125 20.890625 29.48828125 C15.940625 29.48828125 10.990625 29.48828125 5.890625 29.48828125 C5.890625 24.53828125 5.890625 19.58828125 5.890625 14.48828125 C0.940625 14.48828125 -4.009375 14.48828125 -9.109375 14.48828125 C-9.109375 9.53828125 -9.109375 4.58828125 -9.109375 -0.51171875 C-14.059375 -0.51171875 -19.009375 -0.51171875 -24.109375 -0.51171875 C-24.109375 -1.83171875 -24.109375 -3.15171875 -24.109375 -4.51171875 C-16.4031097 -7.08047385 -7.1010735 -3.150869 0 0 Z " fill="#EDEDEF" transform="translate(279.109375,225.51171875)"/>
<path d="M0 0 C0.66 0.33 1.32 0.66 2 1 C1.52047788 9.36683415 0.50680677 14.89700584 -5.875 20.75 C-11.78139254 25.89203586 -16.90945969 26.2847599 -24.45703125 26.1953125 C-25.35999435 26.1924826 -26.26295746 26.18965271 -27.19328308 26.18673706 C-30.06649234 26.17557607 -32.93938555 26.15047897 -35.8125 26.125 C-37.76496944 26.11496493 -39.71744379 26.10584 -41.66992188 26.09765625 C-46.44673566 26.07565008 -51.22331431 26.04114831 -56 26 C-57 24 -57 24 -56 20 C-51.05 20 -46.1 20 -41 20 C-41 15.05 -41 10.1 -41 5 C-36.05 5 -31.1 5 -26 5 C-26 9.95 -26 14.9 -26 20 C-21.05 20 -16.1 20 -11 20 C-11 15.05 -11 10.1 -11 5 C-7.37 5 -3.74 5 0 5 C0 3.35 0 1.7 0 0 Z " fill="#F8FBFD" transform="translate(341,325)"/>
<path d="M0 0 C3.83364577 2.85484259 5.50544551 5.53600171 7 10 C7.89530499 17.88333486 7.11440999 24.05508067 2.125 30.375 C-0.44303172 32.33878896 -1.75748338 32.92459264 -5 33 C-9.53290078 31.51508423 -12.61876581 30.23330523 -15 26 C-16.14330513 22.57008462 -16.20381651 19.8013584 -16.25 16.1875 C-16.27578125 14.98480469 -16.3015625 13.78210938 -16.328125 12.54296875 C-15.89984967 7.91861489 -14.41069445 4.62772437 -11.375 1.125 C-7.61882693 -0.65423987 -4.06635635 -0.77696452 0 0 Z " fill="#0278D6" transform="translate(134,154)"/>
<path d="M0 0 C10.5 -0.25 10.5 -0.25 15 2 C15 7.28 15 12.56 15 18 C13.7625 17.505 12.525 17.01 11.25 16.5 C5.51266858 14.5509544 -0.00665649 14.72619243 -6 15 C-6.33 16.65 -6.66 18.3 -7 20 C-3.14273507 23.18392691 1.24556424 25.11640129 5.77929688 27.13085938 C10.5500408 29.39014371 13.20944204 31.60391554 16 36 C15.67 37.98 15.34 39.96 15 42 C10.05 42 5.1 42 0 42 C0 37.05 0 32.1 0 27 C-4.95 27 -9.9 27 -15 27 C-15 22.05 -15 17.1 -15 12 C-10.05 12 -5.1 12 0 12 C0 8.04 0 4.08 0 0 Z " fill="#F8FBFD" transform="translate(75,138)"/>
<path d="M0 0 C5.94 0 11.88 0 18 0 C18 16.17 18 32.34 18 49 C17.67 49 17.34 49 17 49 C17 46.69 17 44.38 17 42 C14.03 42 11.06 42 8 42 C8 37.05 8 32.1 8 27 C5.36 27 2.72 27 0 27 C0 22.05 0 17.1 0 12 C2.64 12 5.28 12 8 12 C8 8.37 8 4.74 8 1 C5.36 1 2.72 1 0 1 C0 0.67 0 0.34 0 0 Z " fill="#FEFEFD" transform="translate(172,138)"/>
<path d="M0 0 C10.81065421 9.53363192 23.99813158 10.13871725 37.65869141 10.1237793 C39.33502926 10.1328092 41.01136054 10.14313942 42.68768311 10.15466309 C47.21175776 10.18211499 51.73570673 10.19150147 56.25985384 10.19751716 C60.99777944 10.20693171 65.73561229 10.23313751 70.47348022 10.25752258 C79.43336842 10.30110673 88.39323854 10.32970329 97.35320032 10.35284597 C107.55885395 10.37994107 117.7644139 10.42384987 127.97000051 10.46913469 C148.95260611 10.56186512 169.93523976 10.63359887 190.91796875 10.69140625 C190.91796875 11.02140625 190.91796875 11.35140625 190.91796875 11.69140625 C121.94796875 11.69140625 52.97796875 11.69140625 -18.08203125 11.69140625 C-18.08203125 6.74140625 -18.08203125 1.79140625 -18.08203125 -3.30859375 C-5.90338954 -5.24610493 -5.90338954 -5.24610493 0 0 Z " fill="#D9E5F0" transform="translate(138.08203125,348.30859375)"/>
<path d="M0 0 C1.01030273 0.2945105 1.01030273 0.2945105 2.04101562 0.5949707 C14.94453449 4.3365074 27.71279072 7.92077947 41 10 C41 10.33 41 10.66 41 11 C37.04 11 33.08 11 29 11 C29 15.95 29 20.9 29 26 C24.05 26 19.1 26 14 26 C14 21.05 14 16.1 14 11 C9.05 11 4.1 11 -1 11 C-1.09765625 3.28515625 -1.09765625 3.28515625 -1 1 C-0.67 0.67 -0.34 0.34 0 0 Z " fill="#EDEEEF" transform="translate(46,304)"/>
<path d="M0 0 C1.5778125 1.2375 1.5778125 1.2375 3.1875 2.5 C11.8704877 9.00071468 21.22661055 14.3321125 31 19 C30.67 22.63 30.34 26.26 30 30 C25.05 30 20.1 30 15 30 C15 25.05 15 20.1 15 15 C10.05 15 5.1 15 0 15 C0 10.05 0 5.1 0 0 Z " fill="#FBFCFD" transform="translate(15,285)"/>
<path d="M0 0 C1.65 0 3.3 0 5 0 C5 4.95 5 9.9 5 15 C0.05 15 -4.9 15 -10 15 C-10 17.31 -10 19.62 -10 22 C-11.216875 22.04125 -12.43375 22.0825 -13.6875 22.125 C-14.37199219 22.14820313 -15.05648437 22.17140625 -15.76171875 22.1953125 C-18 22 -18 22 -23 20 C-23 14.06 -23 8.12 -23 2 C-20.52604167 3.26953125 -18.05208333 4.5390625 -15.578125 5.80859375 C-10.58592847 8.11559366 -6.43937675 8.17834022 -1 8 C0.41577477 6.81575674 0.41577477 6.81575674 0.0625 3.4375 C0.0315625 1.7359375 0.0315625 1.7359375 0 0 Z " fill="#EEEEEF" transform="translate(70,180)"/>
<path d="M0 0 C6.10323917 0.09703083 11.29279394 1.81932519 15.828125 5.99609375 C22.02542209 12.99061595 22.02542209 12.99061595 21.9765625 17.453125 C21.65104167 19.40625 21.32552083 21.359375 21 23.3125 C17.37 23.3125 13.74 23.3125 10 23.3125 C10 18.3625 10 13.4125 10 8.3125 C5.05 8.3125 0.1 8.3125 -5 8.3125 C-5 0.16493056 -5 0.16493056 0 0 Z " fill="#EBEDEF" transform="translate(320,306.6875)"/>
<path d="M0 0 C2.97 0 5.94 0 9 0 C9 4.95 9 9.9 9 15 C13.95 15 18.9 15 24 15 C24 19.95 24 24.9 24 30 C23.01 30.33 22.02 30.66 21 31 C9.78921184 24.50841981 4.20627039 14.87301854 0 3 C0 2.01 0 1.02 0 0 Z " fill="#EAEDEF" transform="translate(126,315)"/>
<path d="M0 0 C2 2 2 2 2.1953125 5.2578125 C2.13020833 8.83854167 2.06510417 12.41927083 2 16 C-2.95 16 -7.9 16 -13 16 C-13 20.95 -13 25.9 -13 31 C-15.97 31 -18.94 31 -22 31 C-19.57150906 19.07831723 -14.29438114 10.91474644 -5 3 C-3.35899791 1.95841951 -1.69919945 0.94366255 0 0 Z " fill="#EBEDEF" transform="translate(148,269)"/>
<path d="M0 0 C0.66 0.33 1.32 0.66 2 1 C1.34 1.66 0.68 2.32 0 3 C0.144375 4.216875 0.28875 5.43375 0.4375 6.6875 C0.5 8.8515625 0.5 8.8515625 0 11 C-2.00530007 13.10377463 -4.15053304 14.62308337 -6.54296875 16.26953125 C-10.67208971 19.17764029 -14.1743654 22.85277665 -17.44140625 26.6953125 C-19.44875952 28.37565334 -20.4879844 28.28861408 -23.0625 28.125 C-26.7852268 27.69454314 -26.7852268 27.69454314 -29 29 C-27.56621801 24.500891 -25.06798366 21.49282339 -21.875 18.125 C-21.38217529 17.5983374 -20.88935059 17.0716748 -20.3815918 16.52905273 C-14.45017577 10.26227801 -7.98617651 3.5994035 0 0 Z " fill="#E8ECF0" transform="translate(210,213)"/>
<path d="M0 0 C2.97 0.33 5.94 0.66 9 1 C9 4.63 9 8.26 9 12 C6.36 12 3.72 12 1 12 C1 16.95 1 21.9 1 27 C3.64 27 6.28 27 9 27 C9 31.95 9 36.9 9 42 C6.03 42 3.06 42 0 42 C0 28.14 0 14.28 0 0 Z " fill="#FEFEFE" transform="translate(171,138)"/>
<path d="M0 0 C5.61 0.33 11.22 0.66 17 1 C17 5.95 17 10.9 17 16 C12.05 16 7.1 16 2 16 C1.65820312 10.62890625 1.65820312 10.62890625 1.31640625 5.2578125 C1.20793973 2.11699848 1.20793973 2.11699848 0 0 Z " fill="#FEFEFE" transform="translate(58,29)"/>
<path d="M0 0 C4.95 0 9.9 0 15 0 C15 4.95 15 9.9 15 15 C4.16015625 15.87890625 4.16015625 15.87890625 1 16 C0 15 0 15 -0.09765625 11.62109375 C-0.09191424 10.22652508 -0.07890228 8.83198403 -0.0625 7.4375 C-0.041875 4.983125 -0.02125 2.52875 0 0 Z " fill="#FEFEFE" transform="translate(210,0)"/>
<path d="M0 0 C5.28 0.33 10.56 0.66 16 1 C16 5.95 16 10.9 16 16 C11.05 16 6.1 16 1 16 C0.67 10.72 0.34 5.44 0 0 Z " fill="#FEFEFE" transform="translate(149,269)"/>
<path d="M0 0 C4.95 0 9.9 0 15 0 C15 4.95 15 9.9 15 15 C10.05 15 5.1 15 0 15 C0 10.05 0 5.1 0 0 Z " fill="#FFFFFF" transform="translate(105,345)"/>
<path d="M0 0 C4.95 0 9.9 0 15 0 C15 4.95 15 9.9 15 15 C10.05 15 5.1 15 0 15 C0 10.05 0 5.1 0 0 Z " fill="#EEEEEF" transform="translate(90,345)"/>
<path d="M0 0 C4.95 0 9.9 0 15 0 C15 4.95 15 9.9 15 15 C10.05 15 5.1 15 0 15 C0 10.05 0 5.1 0 0 Z " fill="#FFFFFF" transform="translate(75,345)"/>
<path d="M0 0 C4.95 0 9.9 0 15 0 C15 4.95 15 9.9 15 15 C10.05 15 5.1 15 0 15 C0 10.05 0 5.1 0 0 Z " fill="#EEEEEF" transform="translate(60,345)"/>
<path d="M0 0 C4.95 0 9.9 0 15 0 C15 4.95 15 9.9 15 15 C10.05 15 5.1 15 0 15 C0 10.05 0 5.1 0 0 Z " fill="#FFFFFF" transform="translate(45,345)"/>
<path d="M0 0 C4.95 0 9.9 0 15 0 C15 4.95 15 9.9 15 15 C10.05 15 5.1 15 0 15 C0 10.05 0 5.1 0 0 Z " fill="#EEEEEF" transform="translate(30,345)"/>
<path d="M0 0 C4.95 0 9.9 0 15 0 C15 4.95 15 9.9 15 15 C10.05 15 5.1 15 0 15 C0 10.05 0 5.1 0 0 Z " fill="#FFFFFF" transform="translate(15,345)"/>
<path d="M0 0 C4.95 0 9.9 0 15 0 C15 4.95 15 9.9 15 15 C10.05 15 5.1 15 0 15 C0 10.05 0 5.1 0 0 Z " fill="#EEEEEF" transform="translate(0,345)"/>
<path d="M0 0 C4.95 0 9.9 0 15 0 C15 4.95 15 9.9 15 15 C10.05 15 5.1 15 0 15 C0 10.05 0 5.1 0 0 Z " fill="#EEEEEF" transform="translate(315,330)"/>
<path d="M0 0 C4.95 0 9.9 0 15 0 C15 4.95 15 9.9 15 15 C10.05 15 5.1 15 0 15 C0 10.05 0 5.1 0 0 Z " fill="#FFFFFF" transform="translate(300,330)"/>
<path d="M0 0 C4.95 0 9.9 0 15 0 C15 4.95 15 9.9 15 15 C10.05 15 5.1 15 0 15 C0 10.05 0 5.1 0 0 Z " fill="#EEEEEF" transform="translate(285,330)"/>
<path d="M0 0 C4.95 0 9.9 0 15 0 C15 4.95 15 9.9 15 15 C10.05 15 5.1 15 0 15 C0 10.05 0 5.1 0 0 Z " fill="#FFFFFF" transform="translate(270,330)"/>
<path d="M0 0 C4.95 0 9.9 0 15 0 C15 4.95 15 9.9 15 15 C10.05 15 5.1 15 0 15 C0 10.05 0 5.1 0 0 Z " fill="#FFFFFF" transform="translate(240,330)"/>
<path d="M0 0 C4.95 0 9.9 0 15 0 C15 4.95 15 9.9 15 15 C10.05 15 5.1 15 0 15 C0 10.05 0 5.1 0 0 Z " fill="#EEEEEF" transform="translate(225,330)"/>
<path d="M0 0 C4.95 0 9.9 0 15 0 C15 4.95 15 9.9 15 15 C10.05 15 5.1 15 0 15 C0 10.05 0 5.1 0 0 Z " fill="#FFFFFF" transform="translate(210,330)"/>
<path d="M0 0 C4.95 0 9.9 0 15 0 C15 4.95 15 9.9 15 15 C10.05 15 5.1 15 0 15 C0 10.05 0 5.1 0 0 Z " fill="#EEEEEF" transform="translate(195,330)"/>
<path d="M0 0 C4.95 0 9.9 0 15 0 C15 4.95 15 9.9 15 15 C10.05 15 5.1 15 0 15 C0 10.05 0 5.1 0 0 Z " fill="#FFFFFF" transform="translate(180,330)"/>
<path d="M0 0 C4.95 0 9.9 0 15 0 C15 4.95 15 9.9 15 15 C10.05 15 5.1 15 0 15 C0 10.05 0 5.1 0 0 Z " fill="#EEEEEF" transform="translate(165,330)"/>
<path d="M0 0 C4.95 0 9.9 0 15 0 C15 4.95 15 9.9 15 15 C10.05 15 5.1 15 0 15 C0 10.05 0 5.1 0 0 Z " fill="#EEEEEF" transform="translate(105,330)"/>
<path d="M0 0 C4.95 0 9.9 0 15 0 C15 4.95 15 9.9 15 15 C10.05 15 5.1 15 0 15 C0 10.05 0 5.1 0 0 Z " fill="#FFFFFF" transform="translate(90,330)"/>
<path d="M0 0 C4.95 0 9.9 0 15 0 C15 4.95 15 9.9 15 15 C10.05 15 5.1 15 0 15 C0 10.05 0 5.1 0 0 Z " fill="#EEEEEF" transform="translate(75,330)"/>
<path d="M0 0 C4.95 0 9.9 0 15 0 C15 4.95 15 9.9 15 15 C10.05 15 5.1 15 0 15 C0 10.05 0 5.1 0 0 Z " fill="#FFFFFF" transform="translate(60,330)"/>
<path d="M0 0 C4.95 0 9.9 0 15 0 C15 4.95 15 9.9 15 15 C10.05 15 5.1 15 0 15 C0 10.05 0 5.1 0 0 Z " fill="#EEEEEF" transform="translate(45,330)"/>
<path d="M0 0 C4.95 0 9.9 0 15 0 C15 4.95 15 9.9 15 15 C10.05 15 5.1 15 0 15 C0 10.05 0 5.1 0 0 Z " fill="#FFFFFF" transform="translate(30,330)"/>
<path d="M0 0 C4.95 0 9.9 0 15 0 C15 4.95 15 9.9 15 15 C10.05 15 5.1 15 0 15 C0 10.05 0 5.1 0 0 Z " fill="#EEEEEF" transform="translate(15,330)"/>
<path d="M0 0 C4.95 0 9.9 0 15 0 C15 4.95 15 9.9 15 15 C10.05 15 5.1 15 0 15 C0 10.05 0 5.1 0 0 Z " fill="#FFFFFF" transform="translate(0,330)"/>
<path d="M0 0 C4.95 0 9.9 0 15 0 C15 4.95 15 9.9 15 15 C10.05 15 5.1 15 0 15 C0 10.05 0 5.1 0 0 Z " fill="#FFFFFF" transform="translate(315,315)"/>
<path d="M0 0 C4.95 0 9.9 0 15 0 C15 4.95 15 9.9 15 15 C10.05 15 5.1 15 0 15 C0 10.05 0 5.1 0 0 Z " fill="#EEEEEF" transform="translate(300,315)"/>
<path d="M0 0 C4.95 0 9.9 0 15 0 C15 4.95 15 9.9 15 15 C10.05 15 5.1 15 0 15 C0 10.05 0 5.1 0 0 Z " fill="#FFFFFF" transform="translate(285,315)"/>
<path d="M0 0 C4.95 0 9.9 0 15 0 C15 4.95 15 9.9 15 15 C10.05 15 5.1 15 0 15 C0 10.05 0 5.1 0 0 Z " fill="#EEEEEF" transform="translate(270,315)"/>
<path d="M0 0 C4.95 0 9.9 0 15 0 C15 4.95 15 9.9 15 15 C10.05 15 5.1 15 0 15 C0 10.05 0 5.1 0 0 Z " fill="#FFFFFF" transform="translate(255,315)"/>
<path d="M0 0 C4.95 0 9.9 0 15 0 C15 4.95 15 9.9 15 15 C10.05 15 5.1 15 0 15 C0 10.05 0 5.1 0 0 Z " fill="#EEEEEF" transform="translate(240,315)"/>
<path d="M0 0 C4.95 0 9.9 0 15 0 C15 4.95 15 9.9 15 15 C10.05 15 5.1 15 0 15 C0 10.05 0 5.1 0 0 Z " fill="#FFFFFF" transform="translate(225,315)"/>
<path d="M0 0 C4.95 0 9.9 0 15 0 C15 4.95 15 9.9 15 15 C10.05 15 5.1 15 0 15 C0 10.05 0 5.1 0 0 Z " fill="#EEEEEF" transform="translate(210,315)"/>
<path d="M0 0 C4.95 0 9.9 0 15 0 C15 4.95 15 9.9 15 15 C10.05 15 5.1 15 0 15 C0 10.05 0 5.1 0 0 Z " fill="#FFFFFF" transform="translate(195,315)"/>
<path d="M0 0 C4.95 0 9.9 0 15 0 C15 4.95 15 9.9 15 15 C10.05 15 5.1 15 0 15 C0 10.05 0 5.1 0 0 Z " fill="#EEEEEF" transform="translate(180,315)"/>
<path d="M0 0 C4.95 0 9.9 0 15 0 C15 4.95 15 9.9 15 15 C10.05 15 5.1 15 0 15 C0 10.05 0 5.1 0 0 Z " fill="#FFFFFF" transform="translate(165,315)"/>
<path d="M0 0 C4.95 0 9.9 0 15 0 C15 4.95 15 9.9 15 15 C10.05 15 5.1 15 0 15 C0 10.05 0 5.1 0 0 Z " fill="#EEEEEF" transform="translate(150,315)"/>
<path d="M0 0 C4.95 0 9.9 0 15 0 C15 4.95 15 9.9 15 15 C10.05 15 5.1 15 0 15 C0 10.05 0 5.1 0 0 Z " fill="#FFFFFF" transform="translate(135,315)"/>
<path d="M0 0 C4.95 0 9.9 0 15 0 C15 4.95 15 9.9 15 15 C10.05 15 5.1 15 0 15 C0 10.05 0 5.1 0 0 Z " fill="#FFFFFF" transform="translate(75,315)"/>
<path d="M0 0 C4.95 0 9.9 0 15 0 C15 4.95 15 9.9 15 15 C10.05 15 5.1 15 0 15 C0 10.05 0 5.1 0 0 Z " fill="#FFFFFF" transform="translate(45,315)"/>
<path d="M0 0 C4.95 0 9.9 0 15 0 C15 4.95 15 9.9 15 15 C10.05 15 5.1 15 0 15 C0 10.05 0 5.1 0 0 Z " fill="#EEEEEF" transform="translate(30,315)"/>
<path d="M0 0 C4.95 0 9.9 0 15 0 C15 4.95 15 9.9 15 15 C10.05 15 5.1 15 0 15 C0 10.05 0 5.1 0 0 Z " fill="#FFFFFF" transform="translate(15,315)"/>
<path d="M0 0 C4.95 0 9.9 0 15 0 C15 4.95 15 9.9 15 15 C10.05 15 5.1 15 0 15 C0 10.05 0 5.1 0 0 Z " fill="#EEEEEF" transform="translate(0,315)"/>
<path d="M0 0 C4.95 0 9.9 0 15 0 C15 4.95 15 9.9 15 15 C10.05 15 5.1 15 0 15 C0 10.05 0 5.1 0 0 Z " fill="#EEEEEF" transform="translate(285,300)"/>
<path d="M0 0 C4.95 0 9.9 0 15 0 C15 4.95 15 9.9 15 15 C10.05 15 5.1 15 0 15 C0 10.05 0 5.1 0 0 Z " fill="#FFFFFF" transform="translate(270,300)"/>
<path d="M0 0 C4.95 0 9.9 0 15 0 C15 4.95 15 9.9 15 15 C10.05 15 5.1 15 0 15 C0 10.05 0 5.1 0 0 Z " fill="#EEEEEF" transform="translate(255,300)"/>
<path d="M0 0 C4.95 0 9.9 0 15 0 C15 4.95 15 9.9 15 15 C10.05 15 5.1 15 0 15 C0 10.05 0 5.1 0 0 Z " fill="#FFFFFF" transform="translate(240,300)"/>
<path d="M0 0 C4.95 0 9.9 0 15 0 C15 4.95 15 9.9 15 15 C10.05 15 5.1 15 0 15 C0 10.05 0 5.1 0 0 Z " fill="#EEEEEF" transform="translate(225,300)"/>
<path d="M0 0 C4.95 0 9.9 0 15 0 C15 4.95 15 9.9 15 15 C10.05 15 5.1 15 0 15 C0 10.05 0 5.1 0 0 Z " fill="#FFFFFF" transform="translate(210,300)"/>
<path d="M0 0 C4.95 0 9.9 0 15 0 C15 4.95 15 9.9 15 15 C10.05 15 5.1 15 0 15 C0 10.05 0 5.1 0 0 Z " fill="#EEEEEF" transform="translate(195,300)"/>
<path d="M0 0 C4.95 0 9.9 0 15 0 C15 4.95 15 9.9 15 15 C10.05 15 5.1 15 0 15 C0 10.05 0 5.1 0 0 Z " fill="#FFFFFF" transform="translate(180,300)"/>
<path d="M0 0 C4.95 0 9.9 0 15 0 C15 4.95 15 9.9 15 15 C10.05 15 5.1 15 0 15 C0 10.05 0 5.1 0 0 Z " fill="#EEEEEF" transform="translate(165,300)"/>
<path d="M0 0 C4.95 0 9.9 0 15 0 C15 4.95 15 9.9 15 15 C10.05 15 5.1 15 0 15 C0 10.05 0 5.1 0 0 Z " fill="#FFFFFF" transform="translate(150,300)"/>
<path d="M0 0 C4.95 0 9.9 0 15 0 C15 4.95 15 9.9 15 15 C10.05 15 5.1 15 0 15 C0 10.05 0 5.1 0 0 Z " fill="#EEEEEF" transform="translate(15,300)"/>
<path d="M0 0 C4.95 0 9.9 0 15 0 C15 4.95 15 9.9 15 15 C10.05 15 5.1 15 0 15 C0 10.05 0 5.1 0 0 Z " fill="#FFFFFF" transform="translate(0,300)"/>
<path d="M0 0 C4.95 0 9.9 0 15 0 C15 4.95 15 9.9 15 15 C10.05 15 5.1 15 0 15 C0 10.05 0 5.1 0 0 Z " fill="#FFFFFF" transform="translate(345,285)"/>
<path d="M0 0 C4.95 0 9.9 0 15 0 C15 4.95 15 9.9 15 15 C10.05 15 5.1 15 0 15 C0 10.05 0 5.1 0 0 Z " fill="#FFFFFF" transform="translate(285,285)"/>
<path d="M0 0 C4.95 0 9.9 0 15 0 C15 4.95 15 9.9 15 15 C10.05 15 5.1 15 0 15 C0 10.05 0 5.1 0 0 Z " fill="#EEEEEF" transform="translate(270,285)"/>
<path d="M0 0 C4.95 0 9.9 0 15 0 C15 4.95 15 9.9 15 15 C10.05 15 5.1 15 0 15 C0 10.05 0 5.1 0 0 Z " fill="#FFFFFF" transform="translate(255,285)"/>
<path d="M0 0 C4.95 0 9.9 0 15 0 C15 4.95 15 9.9 15 15 C10.05 15 5.1 15 0 15 C0 10.05 0 5.1 0 0 Z " fill="#EEEEEF" transform="translate(240,285)"/>
<path d="M0 0 C4.95 0 9.9 0 15 0 C15 4.95 15 9.9 15 15 C10.05 15 5.1 15 0 15 C0 10.05 0 5.1 0 0 Z " fill="#FFFFFF" transform="translate(225,285)"/>
<path d="M0 0 C4.95 0 9.9 0 15 0 C15 4.95 15 9.9 15 15 C10.05 15 5.1 15 0 15 C0 10.05 0 5.1 0 0 Z " fill="#EEEEEF" transform="translate(210,285)"/>
<path d="M0 0 C4.95 0 9.9 0 15 0 C15 4.95 15 9.9 15 15 C10.05 15 5.1 15 0 15 C0 10.05 0 5.1 0 0 Z " fill="#FFFFFF" transform="translate(195,285)"/>
<path d="M0 0 C4.95 0 9.9 0 15 0 C15 4.95 15 9.9 15 15 C10.05 15 5.1 15 0 15 C0 10.05 0 5.1 0 0 Z " fill="#EEEEEF" transform="translate(180,285)"/>
<path d="M0 0 C4.95 0 9.9 0 15 0 C15 4.95 15 9.9 15 15 C10.05 15 5.1 15 0 15 C0 10.05 0 5.1 0 0 Z " fill="#FFFFFF" transform="translate(165,285)"/>
<path d="M0 0 C4.95 0 9.9 0 15 0 C15 4.95 15 9.9 15 15 C10.05 15 5.1 15 0 15 C0 10.05 0 5.1 0 0 Z " fill="#EEEEEF" transform="translate(150,285)"/>
<path d="M0 0 C4.95 0 9.9 0 15 0 C15 4.95 15 9.9 15 15 C10.05 15 5.1 15 0 15 C0 10.05 0 5.1 0 0 Z " fill="#FFFFFF" transform="translate(135,285)"/>
<path d="M0 0 C4.95 0 9.9 0 15 0 C15 4.95 15 9.9 15 15 C10.05 15 5.1 15 0 15 C0 10.05 0 5.1 0 0 Z " fill="#EEEEEF" transform="translate(345,270)"/>
<path d="M0 0 C4.95 0 9.9 0 15 0 C15 4.95 15 9.9 15 15 C10.05 15 5.1 15 0 15 C0 10.05 0 5.1 0 0 Z " fill="#FFFFFF" transform="translate(330,270)"/>
<path d="M0 0 C4.95 0 9.9 0 15 0 C15 4.95 15 9.9 15 15 C10.05 15 5.1 15 0 15 C0 10.05 0 5.1 0 0 Z " fill="#EEEEEF" transform="translate(285,270)"/>
<path d="M0 0 C4.95 0 9.9 0 15 0 C15 4.95 15 9.9 15 15 C10.05 15 5.1 15 0 15 C0 10.05 0 5.1 0 0 Z " fill="#FFFFFF" transform="translate(270,270)"/>
<path d="M0 0 C4.95 0 9.9 0 15 0 C15 4.95 15 9.9 15 15 C10.05 15 5.1 15 0 15 C0 10.05 0 5.1 0 0 Z " fill="#EEEEEF" transform="translate(255,270)"/>
<path d="M0 0 C4.95 0 9.9 0 15 0 C15 4.95 15 9.9 15 15 C10.05 15 5.1 15 0 15 C0 10.05 0 5.1 0 0 Z " fill="#FFFFFF" transform="translate(240,270)"/>
<path d="M0 0 C4.95 0 9.9 0 15 0 C15 4.95 15 9.9 15 15 C10.05 15 5.1 15 0 15 C0 10.05 0 5.1 0 0 Z " fill="#EEEEEF" transform="translate(225,270)"/>
<path d="M0 0 C4.95 0 9.9 0 15 0 C15 4.95 15 9.9 15 15 C10.05 15 5.1 15 0 15 C0 10.05 0 5.1 0 0 Z " fill="#FFFFFF" transform="translate(210,270)"/>
<path d="M0 0 C4.95 0 9.9 0 15 0 C15 4.95 15 9.9 15 15 C10.05 15 5.1 15 0 15 C0 10.05 0 5.1 0 0 Z " fill="#EEEEEF" transform="translate(195,270)"/>
<path d="M0 0 C4.95 0 9.9 0 15 0 C15 4.95 15 9.9 15 15 C10.05 15 5.1 15 0 15 C0 10.05 0 5.1 0 0 Z " fill="#FFFFFF" transform="translate(180,270)"/>
<path d="M0 0 C4.95 0 9.9 0 15 0 C15 4.95 15 9.9 15 15 C10.05 15 5.1 15 0 15 C0 10.05 0 5.1 0 0 Z " fill="#EEEEEF" transform="translate(165,270)"/>
<path d="M0 0 C4.95 0 9.9 0 15 0 C15 4.95 15 9.9 15 15 C10.05 15 5.1 15 0 15 C0 10.05 0 5.1 0 0 Z " fill="#FFFFFF" transform="translate(345,255)"/>
<path d="M0 0 C4.95 0 9.9 0 15 0 C15 4.95 15 9.9 15 15 C10.05 15 5.1 15 0 15 C0 10.05 0 5.1 0 0 Z " fill="#EEEEEF" transform="translate(330,255)"/>
<path d="M0 0 C4.95 0 9.9 0 15 0 C15 4.95 15 9.9 15 15 C10.05 15 5.1 15 0 15 C0 10.05 0 5.1 0 0 Z " fill="#FFFFFF" transform="translate(285,255)"/>
<path d="M0 0 C4.95 0 9.9 0 15 0 C15 4.95 15 9.9 15 15 C10.05 15 5.1 15 0 15 C0 10.05 0 5.1 0 0 Z " fill="#EEEEEF" transform="translate(270,255)"/>
<path d="M0 0 C4.95 0 9.9 0 15 0 C15 4.95 15 9.9 15 15 C10.05 15 5.1 15 0 15 C0 10.05 0 5.1 0 0 Z " fill="#FFFFFF" transform="translate(255,255)"/>
<path d="M0 0 C4.95 0 9.9 0 15 0 C15 4.95 15 9.9 15 15 C10.05 15 5.1 15 0 15 C0 10.05 0 5.1 0 0 Z " fill="#EEEEEF" transform="translate(240,255)"/>
<path d="M0 0 C4.95 0 9.9 0 15 0 C15 4.95 15 9.9 15 15 C10.05 15 5.1 15 0 15 C0 10.05 0 5.1 0 0 Z " fill="#FFFFFF" transform="translate(225,255)"/>
<path d="M0 0 C4.95 0 9.9 0 15 0 C15 4.95 15 9.9 15 15 C10.05 15 5.1 15 0 15 C0 10.05 0 5.1 0 0 Z " fill="#FFFFFF" transform="translate(195,255)"/>
<path d="M0 0 C4.95 0 9.9 0 15 0 C15 4.95 15 9.9 15 15 C10.05 15 5.1 15 0 15 C0 10.05 0 5.1 0 0 Z " fill="#EEEEEF" transform="translate(345,240)"/>
<path d="M0 0 C4.95 0 9.9 0 15 0 C15 4.95 15 9.9 15 15 C10.05 15 5.1 15 0 15 C0 10.05 0 5.1 0 0 Z " fill="#FFFFFF" transform="translate(330,240)"/>
<path d="M0 0 C4.95 0 9.9 0 15 0 C15 4.95 15 9.9 15 15 C10.05 15 5.1 15 0 15 C0 10.05 0 5.1 0 0 Z " fill="#FFFFFF" transform="translate(270,240)"/>
<path d="M0 0 C4.95 0 9.9 0 15 0 C15 4.95 15 9.9 15 15 C10.05 15 5.1 15 0 15 C0 10.05 0 5.1 0 0 Z " fill="#EEEEEF" transform="translate(255,240)"/>
<path d="M0 0 C4.95 0 9.9 0 15 0 C15 4.95 15 9.9 15 15 C10.05 15 5.1 15 0 15 C0 10.05 0 5.1 0 0 Z " fill="#FFFFFF" transform="translate(240,240)"/>
<path d="M0 0 C4.95 0 9.9 0 15 0 C15 4.95 15 9.9 15 15 C10.05 15 5.1 15 0 15 C0 10.05 0 5.1 0 0 Z " fill="#FFFFFF" transform="translate(210,240)"/>
<path d="M0 0 C4.95 0 9.9 0 15 0 C15 4.95 15 9.9 15 15 C10.05 15 5.1 15 0 15 C0 10.05 0 5.1 0 0 Z " fill="#FFFFFF" transform="translate(345,225)"/>
<path d="M0 0 C4.95 0 9.9 0 15 0 C15 4.95 15 9.9 15 15 C10.05 15 5.1 15 0 15 C0 10.05 0 5.1 0 0 Z " fill="#EEEEEF" transform="translate(330,225)"/>
<path d="M0 0 C4.95 0 9.9 0 15 0 C15 4.95 15 9.9 15 15 C10.05 15 5.1 15 0 15 C0 10.05 0 5.1 0 0 Z " fill="#FFFFFF" transform="translate(315,225)"/>
<path d="M0 0 C4.95 0 9.9 0 15 0 C15 4.95 15 9.9 15 15 C10.05 15 5.1 15 0 15 C0 10.05 0 5.1 0 0 Z " fill="#FFFFFF" transform="translate(255,225)"/>
<path d="M0 0 C4.95 0 9.9 0 15 0 C15 4.95 15 9.9 15 15 C10.05 15 5.1 15 0 15 C0 10.05 0 5.1 0 0 Z " fill="#EEEEEF" transform="translate(240,225)"/>
<path d="M0 0 C4.95 0 9.9 0 15 0 C15 4.95 15 9.9 15 15 C10.05 15 5.1 15 0 15 C0 10.05 0 5.1 0 0 Z " fill="#EEEEEF" transform="translate(345,210)"/>
<path d="M0 0 C4.95 0 9.9 0 15 0 C15 4.95 15 9.9 15 15 C10.05 15 5.1 15 0 15 C0 10.05 0 5.1 0 0 Z " fill="#FFFFFF" transform="translate(330,210)"/>
<path d="M0 0 C4.95 0 9.9 0 15 0 C15 4.95 15 9.9 15 15 C10.05 15 5.1 15 0 15 C0 10.05 0 5.1 0 0 Z " fill="#EEEEEF" transform="translate(315,210)"/>
<path d="M0 0 C4.95 0 9.9 0 15 0 C15 4.95 15 9.9 15 15 C10.05 15 5.1 15 0 15 C0 10.05 0 5.1 0 0 Z " fill="#FFFFFF" transform="translate(300,210)"/>
<path d="M0 0 C4.95 0 9.9 0 15 0 C15 4.95 15 9.9 15 15 C10.05 15 5.1 15 0 15 C0 10.05 0 5.1 0 0 Z " fill="#FFFFFF" transform="translate(345,195)"/>
<path d="M0 0 C4.95 0 9.9 0 15 0 C15 4.95 15 9.9 15 15 C10.05 15 5.1 15 0 15 C0 10.05 0 5.1 0 0 Z " fill="#EEEEEF" transform="translate(330,195)"/>
<path d="M0 0 C4.95 0 9.9 0 15 0 C15 4.95 15 9.9 15 15 C10.05 15 5.1 15 0 15 C0 10.05 0 5.1 0 0 Z " fill="#FFFFFF" transform="translate(315,195)"/>
<path d="M0 0 C4.95 0 9.9 0 15 0 C15 4.95 15 9.9 15 15 C10.05 15 5.1 15 0 15 C0 10.05 0 5.1 0 0 Z " fill="#EEEEEF" transform="translate(300,195)"/>
<path d="M0 0 C4.95 0 9.9 0 15 0 C15 4.95 15 9.9 15 15 C10.05 15 5.1 15 0 15 C0 10.05 0 5.1 0 0 Z " fill="#FFFFFF" transform="translate(285,195)"/>
<path d="M0 0 C4.95 0 9.9 0 15 0 C15 4.95 15 9.9 15 15 C10.05 15 5.1 15 0 15 C0 10.05 0 5.1 0 0 Z " fill="#EEEEEF" transform="translate(270,195)"/>
<path d="M0 0 C4.95 0 9.9 0 15 0 C15 4.95 15 9.9 15 15 C10.05 15 5.1 15 0 15 C0 10.05 0 5.1 0 0 Z " fill="#FFFFFF" transform="translate(255,195)"/>
<path d="M0 0 C4.95 0 9.9 0 15 0 C15 4.95 15 9.9 15 15 C10.05 15 5.1 15 0 15 C0 10.05 0 5.1 0 0 Z " fill="#FFFFFF" transform="translate(330,180)"/>
<path d="M0 0 C4.95 0 9.9 0 15 0 C15 4.95 15 9.9 15 15 C10.05 15 5.1 15 0 15 C0 10.05 0 5.1 0 0 Z " fill="#EEEEEF" transform="translate(315,180)"/>
<path d="M0 0 C4.95 0 9.9 0 15 0 C15 4.95 15 9.9 15 15 C10.05 15 5.1 15 0 15 C0 10.05 0 5.1 0 0 Z " fill="#FFFFFF" transform="translate(300,180)"/>
<path d="M0 0 C4.95 0 9.9 0 15 0 C15 4.95 15 9.9 15 15 C10.05 15 5.1 15 0 15 C0 10.05 0 5.1 0 0 Z " fill="#EEEEEF" transform="translate(285,180)"/>
<path d="M0 0 C4.95 0 9.9 0 15 0 C15 4.95 15 9.9 15 15 C10.05 15 5.1 15 0 15 C0 10.05 0 5.1 0 0 Z " fill="#FFFFFF" transform="translate(270,180)"/>
<path d="M0 0 C4.95 0 9.9 0 15 0 C15 4.95 15 9.9 15 15 C10.05 15 5.1 15 0 15 C0 10.05 0 5.1 0 0 Z " fill="#EEEEEF" transform="translate(255,180)"/>
<path d="M0 0 C4.95 0 9.9 0 15 0 C15 4.95 15 9.9 15 15 C10.05 15 5.1 15 0 15 C0 10.05 0 5.1 0 0 Z " fill="#FFFFFF" transform="translate(345,165)"/>
<path d="M0 0 C4.95 0 9.9 0 15 0 C15 4.95 15 9.9 15 15 C10.05 15 5.1 15 0 15 C0 10.05 0 5.1 0 0 Z " fill="#FFFFFF" transform="translate(315,165)"/>
<path d="M0 0 C4.95 0 9.9 0 15 0 C15 4.95 15 9.9 15 15 C10.05 15 5.1 15 0 15 C0 10.05 0 5.1 0 0 Z " fill="#EEEEEF" transform="translate(300,165)"/>
<path d="M0 0 C4.95 0 9.9 0 15 0 C15 4.95 15 9.9 15 15 C10.05 15 5.1 15 0 15 C0 10.05 0 5.1 0 0 Z " fill="#FFFFFF" transform="translate(285,165)"/>
<path d="M0 0 C4.95 0 9.9 0 15 0 C15 4.95 15 9.9 15 15 C10.05 15 5.1 15 0 15 C0 10.05 0 5.1 0 0 Z " fill="#EEEEEF" transform="translate(270,165)"/>
<path d="M0 0 C4.95 0 9.9 0 15 0 C15 4.95 15 9.9 15 15 C10.05 15 5.1 15 0 15 C0 10.05 0 5.1 0 0 Z " fill="#FFFFFF" transform="translate(255,165)"/>
<path d="M0 0 C4.95 0 9.9 0 15 0 C15 4.95 15 9.9 15 15 C10.05 15 5.1 15 0 15 C0 10.05 0 5.1 0 0 Z " fill="#EEEEEF" transform="translate(345,150)"/>
<path d="M0 0 C4.95 0 9.9 0 15 0 C15 4.95 15 9.9 15 15 C10.05 15 5.1 15 0 15 C0 10.05 0 5.1 0 0 Z " fill="#FFFFFF" transform="translate(330,150)"/>
<path d="M0 0 C4.95 0 9.9 0 15 0 C15 4.95 15 9.9 15 15 C10.05 15 5.1 15 0 15 C0 10.05 0 5.1 0 0 Z " fill="#FFFFFF" transform="translate(300,150)"/>
<path d="M0 0 C4.95 0 9.9 0 15 0 C15 4.95 15 9.9 15 15 C10.05 15 5.1 15 0 15 C0 10.05 0 5.1 0 0 Z " fill="#EEEEEF" transform="translate(285,150)"/>
<path d="M0 0 C4.95 0 9.9 0 15 0 C15 4.95 15 9.9 15 15 C10.05 15 5.1 15 0 15 C0 10.05 0 5.1 0 0 Z " fill="#FFFFFF" transform="translate(270,150)"/>
<path d="M0 0 C4.95 0 9.9 0 15 0 C15 4.95 15 9.9 15 15 C10.05 15 5.1 15 0 15 C0 10.05 0 5.1 0 0 Z " fill="#EEEEEF" transform="translate(255,150)"/>
<path d="M0 0 C4.95 0 9.9 0 15 0 C15 4.95 15 9.9 15 15 C10.05 15 5.1 15 0 15 C0 10.05 0 5.1 0 0 Z " fill="#FFFFFF" transform="translate(345,135)"/>
<path d="M0 0 C4.95 0 9.9 0 15 0 C15 4.95 15 9.9 15 15 C10.05 15 5.1 15 0 15 C0 10.05 0 5.1 0 0 Z " fill="#EEEEEF" transform="translate(330,135)"/>
<path d="M0 0 C4.95 0 9.9 0 15 0 C15 4.95 15 9.9 15 15 C10.05 15 5.1 15 0 15 C0 10.05 0 5.1 0 0 Z " fill="#FFFFFF" transform="translate(315,135)"/>
<path d="M0 0 C4.95 0 9.9 0 15 0 C15 4.95 15 9.9 15 15 C10.05 15 5.1 15 0 15 C0 10.05 0 5.1 0 0 Z " fill="#FFFFFF" transform="translate(285,135)"/>
<path d="M0 0 C4.95 0 9.9 0 15 0 C15 4.95 15 9.9 15 15 C10.05 15 5.1 15 0 15 C0 10.05 0 5.1 0 0 Z " fill="#EEEEEF" transform="translate(270,135)"/>
<path d="M0 0 C4.95 0 9.9 0 15 0 C15 4.95 15 9.9 15 15 C10.05 15 5.1 15 0 15 C0 10.05 0 5.1 0 0 Z " fill="#FFFFFF" transform="translate(255,135)"/>
<path d="M0 0 C4.95 0 9.9 0 15 0 C15 4.95 15 9.9 15 15 C10.05 15 5.1 15 0 15 C0 10.05 0 5.1 0 0 Z " fill="#EEEEEF" transform="translate(345,120)"/>
<path d="M0 0 C4.95 0 9.9 0 15 0 C15 4.95 15 9.9 15 15 C10.05 15 5.1 15 0 15 C0 10.05 0 5.1 0 0 Z " fill="#FFFFFF" transform="translate(330,120)"/>
<path d="M0 0 C4.95 0 9.9 0 15 0 C15 4.95 15 9.9 15 15 C10.05 15 5.1 15 0 15 C0 10.05 0 5.1 0 0 Z " fill="#EEEEEF" transform="translate(315,120)"/>
<path d="M0 0 C4.95 0 9.9 0 15 0 C15 4.95 15 9.9 15 15 C10.05 15 5.1 15 0 15 C0 10.05 0 5.1 0 0 Z " fill="#FFFFFF" transform="translate(300,120)"/>
<path d="M0 0 C4.95 0 9.9 0 15 0 C15 4.95 15 9.9 15 15 C10.05 15 5.1 15 0 15 C0 10.05 0 5.1 0 0 Z " fill="#FFFFFF" transform="translate(270,120)"/>
<path d="M0 0 C4.95 0 9.9 0 15 0 C15 4.95 15 9.9 15 15 C10.05 15 5.1 15 0 15 C0 10.05 0 5.1 0 0 Z " fill="#EEEEEF" transform="translate(255,120)"/>
<path d="M0 0 C4.95 0 9.9 0 15 0 C15 4.95 15 9.9 15 15 C10.05 15 5.1 15 0 15 C0 10.05 0 5.1 0 0 Z " fill="#FFFFFF" transform="translate(345,105)"/>
<path d="M0 0 C4.95 0 9.9 0 15 0 C15 4.95 15 9.9 15 15 C10.05 15 5.1 15 0 15 C0 10.05 0 5.1 0 0 Z " fill="#EEEEEF" transform="translate(330,105)"/>
<path d="M0 0 C4.95 0 9.9 0 15 0 C15 4.95 15 9.9 15 15 C10.05 15 5.1 15 0 15 C0 10.05 0 5.1 0 0 Z " fill="#FFFFFF" transform="translate(315,105)"/>
<path d="M0 0 C4.95 0 9.9 0 15 0 C15 4.95 15 9.9 15 15 C10.05 15 5.1 15 0 15 C0 10.05 0 5.1 0 0 Z " fill="#EEEEEF" transform="translate(300,105)"/>
<path d="M0 0 C4.95 0 9.9 0 15 0 C15 4.95 15 9.9 15 15 C10.05 15 5.1 15 0 15 C0 10.05 0 5.1 0 0 Z " fill="#FFFFFF" transform="translate(285,105)"/>
<path d="M0 0 C4.95 0 9.9 0 15 0 C15 4.95 15 9.9 15 15 C10.05 15 5.1 15 0 15 C0 10.05 0 5.1 0 0 Z " fill="#FFFFFF" transform="translate(255,105)"/>
<path d="M0 0 C4.95 0 9.9 0 15 0 C15 4.95 15 9.9 15 15 C10.05 15 5.1 15 0 15 C0 10.05 0 5.1 0 0 Z " fill="#EEEEEF" transform="translate(345,90)"/>
<path d="M0 0 C4.95 0 9.9 0 15 0 C15 4.95 15 9.9 15 15 C10.05 15 5.1 15 0 15 C0 10.05 0 5.1 0 0 Z " fill="#FFFFFF" transform="translate(330,90)"/>
<path d="M0 0 C4.95 0 9.9 0 15 0 C15 4.95 15 9.9 15 15 C10.05 15 5.1 15 0 15 C0 10.05 0 5.1 0 0 Z " fill="#EEEEEF" transform="translate(315,90)"/>
<path d="M0 0 C4.95 0 9.9 0 15 0 C15 4.95 15 9.9 15 15 C10.05 15 5.1 15 0 15 C0 10.05 0 5.1 0 0 Z " fill="#FFFFFF" transform="translate(300,90)"/>
<path d="M0 0 C4.95 0 9.9 0 15 0 C15 4.95 15 9.9 15 15 C10.05 15 5.1 15 0 15 C0 10.05 0 5.1 0 0 Z " fill="#EEEEEF" transform="translate(285,90)"/>
<path d="M0 0 C4.95 0 9.9 0 15 0 C15 4.95 15 9.9 15 15 C10.05 15 5.1 15 0 15 C0 10.05 0 5.1 0 0 Z " fill="#FFFFFF" transform="translate(270,90)"/>
<path d="M0 0 C4.95 0 9.9 0 15 0 C15 4.95 15 9.9 15 15 C10.05 15 5.1 15 0 15 C0 10.05 0 5.1 0 0 Z " fill="#FFFFFF" transform="translate(345,75)"/>
<path d="M0 0 C4.95 0 9.9 0 15 0 C15 4.95 15 9.9 15 15 C10.05 15 5.1 15 0 15 C0 10.05 0 5.1 0 0 Z " fill="#EEEEEF" transform="translate(330,75)"/>
<path d="M0 0 C4.95 0 9.9 0 15 0 C15 4.95 15 9.9 15 15 C10.05 15 5.1 15 0 15 C0 10.05 0 5.1 0 0 Z " fill="#FFFFFF" transform="translate(315,75)"/>
<path d="M0 0 C4.95 0 9.9 0 15 0 C15 4.95 15 9.9 15 15 C10.05 15 5.1 15 0 15 C0 10.05 0 5.1 0 0 Z " fill="#EEEEEF" transform="translate(300,75)"/>
<path d="M0 0 C4.95 0 9.9 0 15 0 C15 4.95 15 9.9 15 15 C10.05 15 5.1 15 0 15 C0 10.05 0 5.1 0 0 Z " fill="#FFFFFF" transform="translate(285,75)"/>
<path d="M0 0 C4.95 0 9.9 0 15 0 C15 4.95 15 9.9 15 15 C10.05 15 5.1 15 0 15 C0 10.05 0 5.1 0 0 Z " fill="#EEEEEF" transform="translate(270,75)"/>
<path d="M0 0 C4.95 0 9.9 0 15 0 C15 4.95 15 9.9 15 15 C10.05 15 5.1 15 0 15 C0 10.05 0 5.1 0 0 Z " fill="#FFFFFF" transform="translate(255,75)"/>
<path d="M0 0 C4.95 0 9.9 0 15 0 C15 4.95 15 9.9 15 15 C10.05 15 5.1 15 0 15 C0 10.05 0 5.1 0 0 Z " fill="#EEEEEF" transform="translate(345,60)"/>
<path d="M0 0 C4.95 0 9.9 0 15 0 C15 4.95 15 9.9 15 15 C10.05 15 5.1 15 0 15 C0 10.05 0 5.1 0 0 Z " fill="#FFFFFF" transform="translate(330,60)"/>
<path d="M0 0 C4.95 0 9.9 0 15 0 C15 4.95 15 9.9 15 15 C10.05 15 5.1 15 0 15 C0 10.05 0 5.1 0 0 Z " fill="#EEEEEF" transform="translate(315,60)"/>
<path d="M0 0 C4.95 0 9.9 0 15 0 C15 4.95 15 9.9 15 15 C10.05 15 5.1 15 0 15 C0 10.05 0 5.1 0 0 Z " fill="#FFFFFF" transform="translate(300,60)"/>
<path d="M0 0 C4.95 0 9.9 0 15 0 C15 4.95 15 9.9 15 15 C10.05 15 5.1 15 0 15 C0 10.05 0 5.1 0 0 Z " fill="#EEEEEF" transform="translate(285,60)"/>
<path d="M0 0 C4.95 0 9.9 0 15 0 C15 4.95 15 9.9 15 15 C10.05 15 5.1 15 0 15 C0 10.05 0 5.1 0 0 Z " fill="#FFFFFF" transform="translate(270,60)"/>
<path d="M0 0 C4.95 0 9.9 0 15 0 C15 4.95 15 9.9 15 15 C10.05 15 5.1 15 0 15 C0 10.05 0 5.1 0 0 Z " fill="#EEEEEF" transform="translate(255,60)"/>
<path d="M0 0 C4.95 0 9.9 0 15 0 C15 4.95 15 9.9 15 15 C10.05 15 5.1 15 0 15 C0 10.05 0 5.1 0 0 Z " fill="#FFFFFF" transform="translate(345,45)"/>
<path d="M0 0 C4.95 0 9.9 0 15 0 C15 4.95 15 9.9 15 15 C10.05 15 5.1 15 0 15 C0 10.05 0 5.1 0 0 Z " fill="#EEEEEF" transform="translate(330,45)"/>
<path d="M0 0 C4.95 0 9.9 0 15 0 C15 4.95 15 9.9 15 15 C10.05 15 5.1 15 0 15 C0 10.05 0 5.1 0 0 Z " fill="#FFFFFF" transform="translate(315,45)"/>
<path d="M0 0 C4.95 0 9.9 0 15 0 C15 4.95 15 9.9 15 15 C10.05 15 5.1 15 0 15 C0 10.05 0 5.1 0 0 Z " fill="#EEEEEF" transform="translate(300,45)"/>
<path d="M0 0 C4.95 0 9.9 0 15 0 C15 4.95 15 9.9 15 15 C10.05 15 5.1 15 0 15 C0 10.05 0 5.1 0 0 Z " fill="#FFFFFF" transform="translate(285,45)"/>
<path d="M0 0 C4.95 0 9.9 0 15 0 C15 4.95 15 9.9 15 15 C10.05 15 5.1 15 0 15 C0 10.05 0 5.1 0 0 Z " fill="#EEEEEF" transform="translate(270,45)"/>
<path d="M0 0 C4.95 0 9.9 0 15 0 C15 4.95 15 9.9 15 15 C10.05 15 5.1 15 0 15 C0 10.05 0 5.1 0 0 Z " fill="#FFFFFF" transform="translate(255,45)"/>
<path d="M0 0 C4.95 0 9.9 0 15 0 C15 4.95 15 9.9 15 15 C10.05 15 5.1 15 0 15 C0 10.05 0 5.1 0 0 Z " fill="#FFFFFF" transform="translate(165,45)"/>
<path d="M0 0 C4.95 0 9.9 0 15 0 C15 4.95 15 9.9 15 15 C10.05 15 5.1 15 0 15 C0 10.05 0 5.1 0 0 Z " fill="#FFFFFF" transform="translate(135,45)"/>
<path d="M0 0 C4.95 0 9.9 0 15 0 C15 4.95 15 9.9 15 15 C10.05 15 5.1 15 0 15 C0 10.05 0 5.1 0 0 Z " fill="#EEEEEF" transform="translate(120,45)"/>
<path d="M0 0 C4.95 0 9.9 0 15 0 C15 4.95 15 9.9 15 15 C10.05 15 5.1 15 0 15 C0 10.05 0 5.1 0 0 Z " fill="#FFFFFF" transform="translate(105,45)"/>
<path d="M0 0 C4.95 0 9.9 0 15 0 C15 4.95 15 9.9 15 15 C10.05 15 5.1 15 0 15 C0 10.05 0 5.1 0 0 Z " fill="#FFFFFF" transform="translate(75,45)"/>
<path d="M0 0 C4.95 0 9.9 0 15 0 C15 4.95 15 9.9 15 15 C10.05 15 5.1 15 0 15 C0 10.05 0 5.1 0 0 Z " fill="#EEEEEF" transform="translate(345,30)"/>
<path d="M0 0 C4.95 0 9.9 0 15 0 C15 4.95 15 9.9 15 15 C10.05 15 5.1 15 0 15 C0 10.05 0 5.1 0 0 Z " fill="#FFFFFF" transform="translate(330,30)"/>
<path d="M0 0 C4.95 0 9.9 0 15 0 C15 4.95 15 9.9 15 15 C10.05 15 5.1 15 0 15 C0 10.05 0 5.1 0 0 Z " fill="#EEEEEF" transform="translate(315,30)"/>
<path d="M0 0 C4.95 0 9.9 0 15 0 C15 4.95 15 9.9 15 15 C10.05 15 5.1 15 0 15 C0 10.05 0 5.1 0 0 Z " fill="#FFFFFF" transform="translate(300,30)"/>
<path d="M0 0 C4.95 0 9.9 0 15 0 C15 4.95 15 9.9 15 15 C10.05 15 5.1 15 0 15 C0 10.05 0 5.1 0 0 Z " fill="#EEEEEF" transform="translate(285,30)"/>
<path d="M0 0 C4.95 0 9.9 0 15 0 C15 4.95 15 9.9 15 15 C10.05 15 5.1 15 0 15 C0 10.05 0 5.1 0 0 Z " fill="#FFFFFF" transform="translate(270,30)"/>
<path d="M0 0 C4.95 0 9.9 0 15 0 C15 4.95 15 9.9 15 15 C10.05 15 5.1 15 0 15 C0 10.05 0 5.1 0 0 Z " fill="#EEEEEF" transform="translate(255,30)"/>
<path d="M0 0 C4.95 0 9.9 0 15 0 C15 4.95 15 9.9 15 15 C10.05 15 5.1 15 0 15 C0 10.05 0 5.1 0 0 Z " fill="#FFFFFF" transform="translate(180,30)"/>
<path d="M0 0 C4.95 0 9.9 0 15 0 C15 4.95 15 9.9 15 15 C10.05 15 5.1 15 0 15 C0 10.05 0 5.1 0 0 Z " fill="#FFFFFF" transform="translate(150,30)"/>
<path d="M0 0 C4.95 0 9.9 0 15 0 C15 4.95 15 9.9 15 15 C10.05 15 5.1 15 0 15 C0 10.05 0 5.1 0 0 Z " fill="#EEEEEF" transform="translate(135,30)"/>
<path d="M0 0 C4.95 0 9.9 0 15 0 C15 4.95 15 9.9 15 15 C10.05 15 5.1 15 0 15 C0 10.05 0 5.1 0 0 Z " fill="#FFFFFF" transform="translate(120,30)"/>
<path d="M0 0 C4.95 0 9.9 0 15 0 C15 4.95 15 9.9 15 15 C10.05 15 5.1 15 0 15 C0 10.05 0 5.1 0 0 Z " fill="#EEEEEF" transform="translate(105,30)"/>
<path d="M0 0 C4.95 0 9.9 0 15 0 C15 4.95 15 9.9 15 15 C10.05 15 5.1 15 0 15 C0 10.05 0 5.1 0 0 Z " fill="#FFFFFF" transform="translate(90,30)"/>
<path d="M0 0 C4.95 0 9.9 0 15 0 C15 4.95 15 9.9 15 15 C10.05 15 5.1 15 0 15 C0 10.05 0 5.1 0 0 Z " fill="#FFFFFF" transform="translate(345,15)"/>
<path d="M0 0 C4.95 0 9.9 0 15 0 C15 4.95 15 9.9 15 15 C10.05 15 5.1 15 0 15 C0 10.05 0 5.1 0 0 Z " fill="#EEEEEF" transform="translate(330,15)"/>
<path d="M0 0 C4.95 0 9.9 0 15 0 C15 4.95 15 9.9 15 15 C10.05 15 5.1 15 0 15 C0 10.05 0 5.1 0 0 Z " fill="#FFFFFF" transform="translate(315,15)"/>
<path d="M0 0 C4.95 0 9.9 0 15 0 C15 4.95 15 9.9 15 15 C10.05 15 5.1 15 0 15 C0 10.05 0 5.1 0 0 Z " fill="#EEEEEF" transform="translate(300,15)"/>
<path d="M0 0 C4.95 0 9.9 0 15 0 C15 4.95 15 9.9 15 15 C10.05 15 5.1 15 0 15 C0 10.05 0 5.1 0 0 Z " fill="#FFFFFF" transform="translate(285,15)"/>
<path d="M0 0 C4.95 0 9.9 0 15 0 C15 4.95 15 9.9 15 15 C10.05 15 5.1 15 0 15 C0 10.05 0 5.1 0 0 Z " fill="#EEEEEF" transform="translate(270,15)"/>
<path d="M0 0 C4.95 0 9.9 0 15 0 C15 4.95 15 9.9 15 15 C10.05 15 5.1 15 0 15 C0 10.05 0 5.1 0 0 Z " fill="#FFFFFF" transform="translate(255,15)"/>
<path d="M0 0 C4.95 0 9.9 0 15 0 C15 4.95 15 9.9 15 15 C10.05 15 5.1 15 0 15 C0 10.05 0 5.1 0 0 Z " fill="#EEEEEF" transform="translate(240,15)"/>
<path d="M0 0 C4.95 0 9.9 0 15 0 C15 4.95 15 9.9 15 15 C10.05 15 5.1 15 0 15 C0 10.05 0 5.1 0 0 Z " fill="#EEEEEF" transform="translate(0,15)"/>
<path d="M0 0 C4.95 0 9.9 0 15 0 C15 4.95 15 9.9 15 15 C10.05 15 5.1 15 0 15 C0 10.05 0 5.1 0 0 Z " fill="#EEEEEF" transform="translate(345,0)"/>
<path d="M0 0 C4.95 0 9.9 0 15 0 C15 4.95 15 9.9 15 15 C10.05 15 5.1 15 0 15 C0 10.05 0 5.1 0 0 Z " fill="#FFFFFF" transform="translate(330,0)"/>
<path d="M0 0 C4.95 0 9.9 0 15 0 C15 4.95 15 9.9 15 15 C10.05 15 5.1 15 0 15 C0 10.05 0 5.1 0 0 Z " fill="#EEEEEF" transform="translate(315,0)"/>
<path d="M0 0 C4.95 0 9.9 0 15 0 C15 4.95 15 9.9 15 15 C10.05 15 5.1 15 0 15 C0 10.05 0 5.1 0 0 Z " fill="#FFFFFF" transform="translate(300,0)"/>
<path d="M0 0 C4.95 0 9.9 0 15 0 C15 4.95 15 9.9 15 15 C10.05 15 5.1 15 0 15 C0 10.05 0 5.1 0 0 Z " fill="#EEEEEF" transform="translate(285,0)"/>
<path d="M0 0 C4.95 0 9.9 0 15 0 C15 4.95 15 9.9 15 15 C10.05 15 5.1 15 0 15 C0 10.05 0 5.1 0 0 Z " fill="#FFFFFF" transform="translate(270,0)"/>
<path d="M0 0 C4.95 0 9.9 0 15 0 C15 4.95 15 9.9 15 15 C10.05 15 5.1 15 0 15 C0 10.05 0 5.1 0 0 Z " fill="#EEEEEF" transform="translate(255,0)"/>
<path d="M0 0 C4.95 0 9.9 0 15 0 C15 4.95 15 9.9 15 15 C10.05 15 5.1 15 0 15 C0 10.05 0 5.1 0 0 Z " fill="#FFFFFF" transform="translate(240,0)"/>
<path d="M0 0 C4.95 0 9.9 0 15 0 C15 4.95 15 9.9 15 15 C10.05 15 5.1 15 0 15 C0 10.05 0 5.1 0 0 Z " fill="#EEEEEF" transform="translate(225,0)"/>
<path d="M0 0 C4.95 0 9.9 0 15 0 C15 4.95 15 9.9 15 15 C10.05 15 5.1 15 0 15 C0 10.05 0 5.1 0 0 Z " fill="#FFFFFF" transform="translate(0,0)"/>
<path d="M0 0 C4.95 0 9.9 0 15 0 C15 4.95 15 9.9 15 15 C4.16015625 15.09765625 4.16015625 15.09765625 1 15 C0 14 0 14 -0.09765625 10.83984375 C-0.04882812 5.41992188 -0.04882812 5.41992188 0 0 Z " fill="#EEEEEF" transform="translate(330,285)"/>
<path d="M0 0 C10.83984375 -0.09765625 10.83984375 -0.09765625 14 0 C15 1 15 1 15.09765625 4.16015625 C15.04882812 9.58007812 15.04882812 9.58007812 15 15 C10.05 15 5.1 15 0 15 C0 10.05 0 5.1 0 0 Z " fill="#EEEEEF" transform="translate(0,285)"/>
<path d="M0 0 C0.66 0.33 1.32 0.66 2 1 C5.00474497 1.13559318 7.99068847 1.04299016 11 1 C11.495 8.92 11.495 8.92 12 17 C6.72 16.67 1.44 16.34 -4 16 C-4.33 12.7 -4.66 9.4 -5 6 C-4.01 5.67 -3.02 5.34 -2 5 C-0.78130071 2.49552484 -0.78130071 2.49552484 0 0 Z " fill="#ECEDEF" transform="translate(139,179)"/>
<path d="M0 0 C4.95 0 9.9 0 15 0 C15 4.95 15 9.9 15 15 C13.22625 14.979375 11.4525 14.95875 9.625 14.9375 C5.6610984 14.79046808 5.6610984 14.79046808 2 16 C-0.30536555 10.52475681 -0.15802031 5.84675143 0 0 Z " fill="#EDEDEF" transform="translate(345,300)"/>
<path d="M0 0 C4.29 0 8.58 0 13 0 C13 6 13 6 12 8 C12.99 8 13.98 8 15 8 C15 10.31 15 12.62 15 15 C10.05 15 5.1 15 0 15 C0 10.05 0 5.1 0 0 Z " fill="#FEFEFE" transform="translate(300,300)"/>
<path d="M0 0 C2.10375 0.12375 4.2075 0.2475 6.375 0.375 C8.15003906 0.47941406 8.15003906 0.47941406 9.9609375 0.5859375 C13 1 13 1 15 3 C15.27783543 7.01194366 15.0856495 10.97447362 15 15 C10.05 15 5.1 15 0 15 C0 10.05 0 5.1 0 0 Z " fill="#EAECEF" transform="translate(90,315)"/>
<path d="M0 0 C7.15647399 0 9.46397566 1.52900192 14.4375 6.375 C16 9 16 9 15 15 C10.05 15 5.1 15 0 15 C0 10.05 0 5.1 0 0 Z " fill="#FBFCFE" transform="translate(75,165)"/>
<path d="M0 0 C1.25612972 0.88721784 2.50460752 1.78527224 3.75 2.6875 C4.79414063 3.43580078 4.79414063 3.43580078 5.859375 4.19921875 C8.28064578 6.2360907 10.09529867 8.48184756 12 11 C8.12578299 11.20416594 4.25295408 11.32791537 0.375 11.4375 C-1.26662109 11.52547852 -1.26662109 11.52547852 -2.94140625 11.61523438 C-10.95637882 11.78524894 -10.95637882 11.78524894 -14.11230469 9.41064453 C-15.60148468 7.67326787 -16.85501307 5.9780812 -18 4 C-14.99686252 2.49843126 -12.20932478 2.90718796 -8.875 2.9375 C-7.59367188 2.94652344 -6.31234375 2.95554688 -4.9921875 2.96484375 C-4.00476563 2.97644531 -3.01734375 2.98804688 -2 3 C-1.67 2.34 -1.34 1.68 -1 1 C-0.67 0.67 -0.34 0.34 0 0 Z " fill="#F8FAFB" transform="translate(152,207)"/>
<path d="M0 0 C3.96 0 7.92 0 12 0 C12.22786458 2.40885417 12.45572917 4.81770833 12.68359375 7.2265625 C13.01879197 10.16471971 13.51383671 13.08302024 14 16 C7.07 15.505 7.07 15.505 0 15 C0 10.05 0 5.1 0 0 Z " fill="#FEFEFE" transform="translate(105,165)"/>
<path d="M0 0 C4.95 0 9.9 0 15 0 C15 4.95 15 9.9 15 15 C9.72 13.35 4.44 11.7 -1 10 C-0.67 9.34 -0.34 8.68 0 8 C0.0689472 6.62657169 0.08467708 5.24997898 0.0625 3.875 C0.041875 2.59625 0.02125 1.3175 0 0 Z " fill="#EBEDEF" transform="translate(195,0)"/>
<path d="M0 0 C2.97 0 5.94 0 9 0 C9 2.31 9 4.62 9 7 C10.98 7 12.96 7 15 7 C15 9.64 15 12.28 15 15 C10.05 15 5.1 15 0 15 C0 10.05 0 5.1 0 0 Z " fill="#FFFFFF" transform="translate(180,180)"/>
<path d="M0 0 C0 3.96 0 7.92 0 12 C-4.95 12 -9.9 12 -15 12 C-15 8.7 -15 5.4 -15 2 C-15.99 1.67 -16.98 1.34 -18 1 C-12.01056311 -0.33098597 -6.10314542 -0.06781273 0 0 Z " fill="#FAFCFD" transform="translate(120,18)"/>
<path d="M0 0 C4.95 0 9.9 0 15 0 C15 3.96 15 7.92 15 12 C10.05 12 5.1 12 0 12 C0 8.04 0 4.08 0 0 Z " fill="#EEEEEF" transform="translate(120,18)"/>
<path d="M0 0 C4.95 0 9.9 0 15 0 C15 3.3 15 6.6 15 10 C12.87790224 10.69640673 10.75221473 11.38188357 8.625 12.0625 C7.44164062 12.44535156 6.25828125 12.82820312 5.0390625 13.22265625 C2 14 2 14 0 13 C0 8.71 0 4.42 0 0 Z " fill="#EDEEEF" transform="translate(45,0)"/>
<path d="M0 0 C11.625 -0.125 11.625 -0.125 15 1 C15 4.63 15 8.26 15 12 C10.05 12 5.1 12 0 12 C0 8.04 0 4.08 0 0 Z " fill="#FAFCFE" transform="translate(135,18)"/>
<path d="M0 0 C10.625 -0.125 10.625 -0.125 14 1 C14 4.63 14 8.26 14 12 C9.38 12.33 4.76 12.66 0 13 C0 8.71 0 4.42 0 0 Z " fill="#FCFDFE" transform="translate(75,138)"/>
<path d="M0 0 C0.33 1.32 0.66 2.64 1 4 C5.95 4 10.9 4 16 4 C16 8.29 16 12.58 16 17 C16.66 17.33 17.32 17.66 18 18 C11.40283344 17.66168377 6.00993975 14.11967714 1.5 9.4453125 C-0.4282222 6.86095914 -1.03083171 5.35456465 -0.75 2.125 C-0.5025 1.42375 -0.255 0.7225 0 0 Z " fill="#F7FAFD" transform="translate(44,41)"/>
<path d="M0 0 C5.94 0 11.88 0 18 0 C18 16.17 18 32.34 18 49 C17.67 49 17.34 49 17 49 C17 36.79 17 24.58 17 12 C14.03 12 11.06 12 8 12 C8 8.37 8 4.74 8 1 C5.36 1 2.72 1 0 1 C0 0.67 0 0.34 0 0 Z " fill="#CDE0EF" transform="translate(172,138)"/>
<path d="M0 0 C4.95 0 9.9 0 15 0 C15 6 15 6 13.390625 7.828125 C12.68421875 8.29734375 11.9778125 8.7665625 11.25 9.25 C10.55390625 9.72953125 9.8578125 10.2090625 9.140625 10.703125 C8.43421875 11.13109375 7.7278125 11.5590625 7 12 C6.33484375 12.40734375 5.6696875 12.8146875 4.984375 13.234375 C3 14 3 14 -1 13 C-0.67 8.71 -0.34 4.42 0 0 Z " fill="#FBFCFE" transform="translate(195,45)"/>
<path d="M0 0 C3.96 0.33 7.92 0.66 12 1 C12 5.95 12 10.9 12 16 C9.36 16 6.72 16 4 16 C4 18.31 4 20.62 4 23 C3.67 23 3.34 23 3 23 C2.80083984 21.38931641 2.80083984 21.38931641 2.59765625 19.74609375 C2.41930436 18.30989167 2.24091705 16.87369399 2.0625 15.4375 C1.97548828 14.73302734 1.88847656 14.02855469 1.79882812 13.30273438 C1.24615509 8.86088073 0.64605404 4.42925336 0 0 Z " fill="#FBFCFD" transform="translate(348,314)"/>
<path d="M0 0 C1.9453125 -0.29296875 1.9453125 -0.29296875 4.125 -0.1875 C5.40375 -0.125625 6.6825 -0.06375 8 0 C8 4.95 8 9.9 8 15 C4.97265625 15.1953125 1.9453125 15.390625 -1.08203125 15.5859375 C-4.18626186 15.81195733 -4.18626186 15.81195733 -7 18 C-6.731875 17.38125 -6.46375 16.7625 -6.1875 16.125 C-4.83587619 12.56809525 -3.80547236 8.96739571 -2.78125 5.3046875 C-2 3 -2 3 0 0 Z " fill="#EAECEF" transform="translate(352,330)"/>
<path d="M0 0 C3.70005666 0.92501416 5.51810507 1.84084404 8.625 3.875 C15.64941647 8.18896416 22.85838083 10.11504139 31 11 C31 11.33 31 11.66 31 12 C20.77 12 10.54 12 0 12 C0 8.04 0 4.08 0 0 Z " fill="#FBFDFD" transform="translate(135,348)"/>
<path d="M0 0 C4.95 0 9.9 0 15 0 C15 4.95 15 9.9 15 15 C14.01 15 13.02 15 12 15 C10.948125 13.576875 10.948125 13.576875 9.875 12.125 C7.08479817 8.48485976 4.18689089 7.95768821 -0.20703125 7.2265625 C-1.09455078 7.11441406 -1.09455078 7.11441406 -2 7 C-1.34 6.34 -0.68 5.68 0 5 C0 3.35 0 1.7 0 0 Z " fill="#EBEDEF" transform="translate(120,195)"/>
<path d="M0 0 C2.31 0 4.62 0 7 0 C7 4.95 7 9.9 7 15 C2.05 15 -2.9 15 -8 15 C-8 10 -8 10 -6 8 C-3.375 7.375 -3.375 7.375 -1 7 C-0.67 4.69 -0.34 2.38 0 0 Z " fill="#EBEDEF" transform="translate(248,195)"/>
<path d="M0 0 C5.28 0.33 10.56 0.66 16 1 C15.67 1.66 15.34 2.32 15 3 C14.9310528 4.37342831 14.91532292 5.75002102 14.9375 7.125 C14.958125 8.40375 14.97875 9.6825 15 11 C10.05 11 5.1 11 0 11 C0 7.37 0 3.74 0 0 Z " fill="#ECEDEF" transform="translate(150,19)"/>
<path d="M0 0 C5.61 0 11.22 0 17 0 C17 4.95 17 9.9 17 15 C16.34 15 15.68 15 15 15 C15 12.69 15 10.38 15 8 C10.05 8 5.1 8 0 8 C0 5.36 0 2.72 0 0 Z " fill="#E6EBF0" transform="translate(195,187)"/>
<path d="M0 0 C0.33 0.66 0.66 1.32 1 2 C4.63 2 8.26 2 12 2 C12 6.95 12 11.9 12 17 C10.02 17 8.04 17 6 17 C5.67 17.66 5.34 18.32 5 19 C4.16142312 16.39741676 3.32896656 13.79314353 2.5 11.1875 C2.14228516 10.08051758 2.14228516 10.08051758 1.77734375 8.95117188 C0.80059864 5.86744804 0 3.25504191 0 0 Z " fill="#FBFCFD" transform="translate(318,253)"/>
<path d="M0 0 C0 3.3 0 6.6 0 10 C-4.95 10 -9.9 10 -15 10 C-15 6.7 -15 3.4 -15 0 C-4.28571429 -1.28571429 -4.28571429 -1.28571429 0 0 Z " fill="#ECEDEF" transform="translate(105,20)"/>
<path d="M0 0 C2.44140625 0.78125 4.8828125 1.5625 7.32421875 2.34375 C9.99391677 2.99850805 12.26396684 3.11831495 15 3 C15 5.97 15 8.94 15 12 C10.05 12 5.1 12 0 12 C0 8.04 0 4.08 0 0 Z " fill="#F9FBFD" transform="translate(120,183)"/>
<path d="M0 0 C0.33 0.66 0.66 1.32 1 2 C3.64 2 6.28 2 9 2 C9 6.95 9 11.9 9 17 C4.05 17.495 4.05 17.495 -1 18 C-0.505 9.09 -0.505 9.09 0 0 Z " fill="#FDFDFE" transform="translate(141,163)"/>
<path d="M0 0 C2.97 0 5.94 0 9 0 C9 4.95 9 9.9 9 15 C6.03 15 3.06 15 0 15 C-1.33257403 4.44191344 -1.33257403 4.44191344 0 0 Z " fill="#F9FCFE" transform="translate(126,300)"/>
<path d="M0 0 C2.97 0 5.94 0 9 0 C9 4.95 9 9.9 9 15 C6.03 15 3.06 15 0 15 C0 10.05 0 5.1 0 0 Z " fill="#FFFFFF" transform="translate(0,240)"/>
<path d="M0 0 C1.65 0 3.3 0 5 0 C5 4.95 5 9.9 5 15 C0.05 15 -4.9 15 -10 15 C-10 13.02 -10 11.04 -10 9 C-9.36191406 8.93941406 -8.72382812 8.87882813 -8.06640625 8.81640625 C-7.24011719 8.73261719 -6.41382813 8.64882812 -5.5625 8.5625 C-4.73878906 8.48128906 -3.91507812 8.40007812 -3.06640625 8.31640625 C-1.01337975 8.21069185 -1.01337975 8.21069185 0 7 C0.04092937 4.66702567 0.04241723 2.33294775 0 0 Z " fill="#FCFDFE" transform="translate(70,180)"/>
<path d="M0 0 C7.87690257 -0.41136629 14.50298299 0.563832 22 3 C21.01 3.33 20.02 3.66 19 4 C19 5.65 19 7.3 19 9 C14.05 9 9.1 9 4 9 C4 6.36 4 3.72 4 1 C2.68 0.67 1.36 0.34 0 0 Z " fill="#FBFCFD" transform="translate(161,21)"/>
<path d="M0 0 C4.95 0 9.9 0 15 0 C15 2.64 15 5.28 15 8 C8.62694402 8.74507544 2.41688675 9.10349817 -4 9 C-2.68 8.34 -1.36 7.68 0 7 C0 4.69 0 2.38 0 0 Z " fill="#EBECEF" transform="translate(105,60)"/>
<path d="M0 0 C4.95 0 9.9 0 15 0 C15 2.31 15 4.62 15 7 C15.99 7.66 16.98 8.32 18 9 C12.06 8.67 6.12 8.34 0 8 C0 5.36 0 2.72 0 0 Z " fill="#EDEDEF" transform="translate(135,60)"/>
<path d="M0 0 C2.97 0 5.94 0 9 0 C9 5.28 9 10.56 9 16 C6.03 16 3.06 16 0 16 C0 10.72 0 5.44 0 0 Z " fill="#ECEEF0" transform="translate(109,300)"/>
<path d="M0 0 C-0.33 0.66 -0.66 1.32 -1 2 C-1.66 1.67 -2.32 1.34 -3 1 C-3 2.32 -3 3.64 -3 5 C-12.9 5 -22.8 5 -33 5 C-25.42962492 -2.57037508 -9.86540386 -0.27862542 0 0 Z " fill="#FEFEFE" transform="translate(258,220)"/>
<path d="M0 0 C-0.99 0.495 -0.99 0.495 -2 1 C-2 4.3 -2 7.6 -2 11 C-7.28 11 -12.56 11 -18 11 C-16.10108866 7.20217731 -15.3122648 6.16661268 -12.0625 3.8125 C-11.37285156 3.30332031 -10.68320313 2.79414063 -9.97265625 2.26953125 C-6.61294999 0.10734405 -3.8959971 -0.10529722 0 0 Z " fill="#F7FAFD" transform="translate(122,139)"/>
<path d="M0 0 C2.64 0 5.28 0 8 0 C8 4.95 8 9.9 8 15 C5.36 15 2.72 15 0 15 C0 10.05 0 5.1 0 0 Z " fill="#EEEEEF" transform="translate(0,255)"/>
<path d="M0 0 C2.64 0 5.28 0 8 0 C8 4.95 8 9.9 8 15 C5.36 15 2.72 15 0 15 C0 10.05 0 5.1 0 0 Z " fill="#EEEEEF" transform="translate(0,225)"/>
<path d="M0 0 C2.64 0 5.28 0 8 0 C8 4.95 8 9.9 8 15 C5.36 15 2.72 15 0 15 C0 10.05 0 5.1 0 0 Z " fill="#EEEEEF" transform="translate(0,195)"/>
<path d="M0 0 C2.64 0 5.28 0 8 0 C8 4.95 8 9.9 8 15 C5.36 15 2.72 15 0 15 C0 10.05 0 5.1 0 0 Z " fill="#EEEEEF" transform="translate(180,165)"/>
<path d="M0 0 C2.64 0 5.28 0 8 0 C8 4.95 8 9.9 8 15 C5.36 15 2.72 15 0 15 C0 10.05 0 5.1 0 0 Z " fill="#EEEEEF" transform="translate(0,165)"/>
<path d="M0 0 C2.64 0 5.28 0 8 0 C8 4.95 8 9.9 8 15 C5.36 15 2.72 15 0 15 C0 10.05 0 5.1 0 0 Z " fill="#FFFFFF" transform="translate(247,150)"/>
<path d="M0 0 C2.64 0 5.28 0 8 0 C8 4.95 8 9.9 8 15 C5.36 15 2.72 15 0 15 C0 10.05 0 5.1 0 0 Z " fill="#EEEEEF" transform="translate(172,150)"/>
<path d="M0 0 C2.64 0 5.28 0 8 0 C8 4.95 8 9.9 8 15 C5.36 15 2.72 15 0 15 C0 10.05 0 5.1 0 0 Z " fill="#EEEEEF" transform="translate(0,135)"/>
<path d="M0 0 C2.64 0 5.28 0 8 0 C8 4.95 8 9.9 8 15 C5.36 15 2.72 15 0 15 C0 10.05 0 5.1 0 0 Z " fill="#EEEEEF" transform="translate(0,105)"/>
<path d="M0 0 C2.64 0 5.28 0 8 0 C8 4.95 8 9.9 8 15 C5.36 15 2.72 15 0 15 C0 10.05 0 5.1 0 0 Z " fill="#EEEEEF" transform="translate(0,75)"/>
<path d="M0 0 C4.95 0 9.9 0 15 0 C15 2.31 15 4.62 15 7 C11.93466836 8.53266582 8.73245728 8.10276471 5.375 8.0625 C4.66859375 8.05798828 3.9621875 8.05347656 3.234375 8.04882812 C1.48954725 8.03703875 -0.255237 8.01910324 -2 8 C-1.34 7.67 -0.68 7.34 0 7 C0 4.69 0 2.38 0 0 Z " fill="#FCFDFE" transform="translate(150,60)"/>
<path d="M0 0 C4.95 0 9.9 0 15 0 C15 2.31 15 4.62 15 7 C15.99 7.33 16.98 7.66 18 8 C15.56242587 8.02698422 13.12515085 8.04683099 10.6875 8.0625 C9.99720703 8.07087891 9.30691406 8.07925781 8.59570312 8.08789062 C5.4516975 8.10307906 3.00579981 8.00193327 0 7 C0 4.69 0 2.38 0 0 Z " fill="#FCFDFE" transform="translate(90,60)"/>
<path d="M0 0 C2.64 0 5.28 0 8 0 C8 4.95 8 9.9 8 15 C5.36 15 2.72 15 0 15 C0 10.05 0 5.1 0 0 Z " fill="#EEEEEF" transform="translate(0,45)"/>
<path d="M0 0 C4.95 0 9.9 0 15 0 C15.33 2.97 15.66 5.94 16 9 C10.39538469 8.57910004 5.27913453 8.08386889 0 6 C0 4.02 0 2.04 0 0 Z " fill="#F9FCFD" transform="translate(180,0)"/>
<path d="M0 0 C4.95 0 9.9 0 15 0 C15 1.98 15 3.96 15 6 C13.44033782 6.508783 11.87710759 7.00663469 10.3125 7.5 C9.00732422 7.91765625 9.00732422 7.91765625 7.67578125 8.34375 C5.00608323 8.99850805 2.73603316 9.11831495 0 9 C0 6.03 0 3.06 0 0 Z " fill="#F9FCFE" transform="translate(60,0)"/>
<path d="M0 0 C0.33 0 0.66 0 1 0 C1 3.63 1 7.26 1 11 C-3.95 11 -8.9 11 -14 11 C-14 8.69 -14 6.38 -14 4 C-13.15695313 3.96261719 -12.31390625 3.92523438 -11.4453125 3.88671875 C-9.80175781 3.78810547 -9.80175781 3.78810547 -8.125 3.6875 C-7.03445312 3.62949219 -5.94390625 3.57148438 -4.8203125 3.51171875 C-3.88960937 3.34285156 -2.95890625 3.17398438 -2 3 C-1.34 2.01 -0.68 1.02 0 0 Z " fill="#ECEDEF" transform="translate(179,244)"/>
<path d="M0 0 C2.31 0 4.62 0 7 0 C7 4.95 7 9.9 7 15 C4.69 15 2.38 15 0 15 C-0.19517554 13.06325815 -0.38087873 11.12555991 -0.5625 9.1875 C-0.66691406 8.10855469 -0.77132812 7.02960937 -0.87890625 5.91796875 C-1 3 -1 3 0 0 Z " fill="#EEEEEF" transform="translate(248,45)"/>
<path d="M0 0 C2.31 0 4.62 0 7 0 C7 4.95 7 9.9 7 15 C4.69 15 2.38 15 0 15 C0 10.05 0 5.1 0 0 Z " fill="#EEEEEF" transform="translate(248,165)"/>
<path d="M0 0 C2.31 0 4.62 0 7 0 C7 4.95 7 9.9 7 15 C4.69 15 2.38 15 0 15 C0 10.05 0 5.1 0 0 Z " fill="#EEEEEF" transform="translate(248,135)"/>
<path d="M0 0 C2.31 0 4.62 0 7 0 C7 4.95 7 9.9 7 15 C4.69 15 2.38 15 0 15 C0 10.05 0 5.1 0 0 Z " fill="#EEEEEF" transform="translate(248,105)"/>
<path d="M0 0 C2.31 0 4.62 0 7 0 C7 4.95 7 9.9 7 15 C4.69 15 2.38 15 0 15 C0 10.05 0 5.1 0 0 Z " fill="#EEEEEF" transform="translate(248,75)"/>
<path d="M0 0 C4.95 0 9.9 0 15 0 C15 2.31 15 4.62 15 7 C12.68756208 7.02685412 10.3750373 7.04632841 8.0625 7.0625 C6.77472656 7.07410156 5.48695313 7.08570313 4.16015625 7.09765625 C1 7 1 7 0 6 C0 4.02 0 2.04 0 0 Z " fill="#FFFFFF" transform="translate(195,195)"/>
<path d="M0 0 C4.95 0 9.9 0 15 0 C15 2.97 15 5.94 15 9 C11.33827525 8.37321829 8.1181005 7.35548154 4.6875 5.9375 C3.36298828 5.39416016 3.36298828 5.39416016 2.01171875 4.83984375 C1.34785156 4.56269531 0.68398438 4.28554687 0 4 C0 2.68 0 1.36 0 0 Z " fill="#FBFCFE" transform="translate(270,210)"/>
<path d="M0 0 C2.97 0 5.94 0 9 0 C8.72694671 6.55327899 6.18788859 10.06930548 2 15 C1.34 14.67 0.68 14.34 0 14 C0 9.38 0 4.76 0 0 Z " fill="#F7FAFD" transform="translate(150,180)"/>
<path d="M0 0 C1.28132812 0.00902344 2.56265625 0.01804688 3.8828125 0.02734375 C4.87023437 0.03894531 5.85765625 0.05054688 6.875 0.0625 C6.875 2.3725 6.875 4.6825 6.875 7.0625 C-2.85504484 7.98267937 -2.85504484 7.98267937 -5.96875 5.7265625 C-7.3125 4.0625 -7.3125 4.0625 -9.125 1.0625 C-6.12186252 -0.43906874 -3.33432478 -0.03031204 0 0 Z " fill="#E9ECEF" transform="translate(143.125,209.9375)"/>
<path d="M0 0 C0.33 0 0.66 0 1 0 C1 2.97 1 5.94 1 9 C4.63 9 8.26 9 12 9 C12 11.31 12 13.62 12 16 C10.783125 16.04125 9.56625 16.0825 8.3125 16.125 C7.62800781 16.14820313 6.94351563 16.17140625 6.23828125 16.1953125 C4 16 4 16 -1 14 C-0.67 9.38 -0.34 4.76 0 0 Z " fill="#FBFCFD" transform="translate(48,186)"/>
<path d="M0 0 C4.95 0 9.9 0 15 0 C15.33 1.65 15.66 3.3 16 5 C15 6 15 6 11.62109375 6.09765625 C10.22652923 6.09098369 8.83198257 6.07902532 7.4375 6.0625 C6.72658203 6.05798828 6.01566406 6.05347656 5.28320312 6.04882812 C3.52209987 6.03700864 1.76103964 6.01907263 0 6 C-1 4 -1 4 0 0 Z " fill="#FEFEFE" transform="translate(285,345)"/>
<path d="M0 0 C-0.33 3.3 -0.66 6.6 -1 10 C-4.63 10 -8.26 10 -12 10 C-12.33 10.66 -12.66 11.32 -13 12 C-12.92547376 8.86989791 -12.59006466 6.70616903 -10.55078125 4.265625 C-6.62873623 0.69239526 -5.67817446 0 0 0 Z " fill="#F8FBFD" transform="translate(61,140)"/>
<path d="M0 0 C4.95 0 9.9 0 15 0 C15 1.98 15 3.96 15 6 C10.05 6 5.1 6 0 6 C0 4.02 0 2.04 0 0 Z " fill="#FFFFFF" transform="translate(195,345)"/>
<path d="M0 0 C0.33 0 0.66 0 1 0 C1 3.96 1 7.92 1 12 C-4.28 12 -9.56 12 -15 12 C-13.7453143 9.4906286 -12.84275285 9.34885267 -10.3125 8.25 C-5.94575304 6.17658058 -3.27766701 3.5174963 0 0 Z " fill="#E7ECEF" transform="translate(344,348)"/>
<path d="M0 0 C4.95 0 9.9 0 15 0 C15 1.98 15 3.96 15 6 C10.05 6 5.1 6 0 6 C0 4.02 0 2.04 0 0 Z " fill="#EFEEEF" transform="translate(300,345)"/>
<path d="M0 0 C4.95 0 9.9 0 15 0 C15 1.98 15 3.96 15 6 C10.05 6 5.1 6 0 6 C0 4.02 0 2.04 0 0 Z " fill="#EFEEEF" transform="translate(270,345)"/>
<path d="M0 0 C3.96 0 7.92 0 12 0 C12 3.3 12 6.6 12 10 C7.08624792 9.56643364 4.47270043 7.39377542 1 4 C0.67 2.68 0.34 1.36 0 0 Z " fill="#F8FBFD" transform="translate(48,165)"/>
<path d="M0 0 C6.10249097 0.59828343 11.89422775 1.87813351 17.85546875 3.30078125 C21.57264276 4.12733299 25.21331614 4.62875648 29 5 C29 5.33 29 5.66 29 6 C20.09 6 11.18 6 2 6 C2 4.35 2 2.7 2 1 C1.34 0.67 0.68 0.34 0 0 Z " fill="#F1F6FA" transform="translate(58,309)"/>
<path d="M0 0 C0.66 0.33 1.32 0.66 2 1 C2.28571429 8.42857143 2.28571429 8.42857143 0 12 C-2.64 11.67 -5.28 11.34 -8 11 C-8 7 -8 7 -6.25 5.078125 C-5.5075 4.47484375 -4.765 3.8715625 -4 3.25 C-3.2575 2.63640625 -2.515 2.0228125 -1.75 1.390625 C-1.1725 0.93171875 -0.595 0.4728125 0 0 Z M-10 10 C-10 10.99 -10 11.98 -10 13 C-10.99 13.66 -11.98 14.32 -13 15 C-11.125 11.125 -11.125 11.125 -10 10 Z " fill="#E7ECF0" transform="translate(133,259)"/>
<path d="M0 0 C4.95 0 9.9 0 15 0 C15 1.98 15 3.96 15 6 C4.44191344 6.18451025 4.44191344 6.18451025 0 5 C0 3.35 0 1.7 0 0 Z " fill="#EEEEEF" transform="translate(240,345)"/>
<path d="M0 0 C1.98 0 3.96 0 6 0 C6 4.95 6 9.9 6 15 C4.68 15 3.36 15 2 15 C1.86722656 14.31292969 1.73445313 13.62585938 1.59765625 12.91796875 C1.42105469 12.01691406 1.24445313 11.11585938 1.0625 10.1875 C0.88847656 9.29417969 0.71445312 8.40085937 0.53515625 7.48046875 C0.02258847 4.88602829 0.02258847 4.88602829 -1 2 C-0.67 1.34 -0.34 0.68 0 0 Z " fill="#ECEDEF" transform="translate(324,270)"/>
<path d="M0 0 C4.95 0 9.9 0 15 0 C15 1.65 15 3.3 15 5 C10.05 5 5.1 5 0 5 C0 3.35 0 1.7 0 0 Z " fill="#EEEEEF" transform="translate(180,195)"/>
<path d="M0 0 C0 4.62 0 9.24 0 14 C-2.31 14 -4.62 14 -7 14 C-6.1038961 5.03896104 -6.1038961 5.03896104 -4 2 C-1 0 -1 0 0 0 Z " fill="#F6FAFD" transform="translate(105,151)"/>
<path d="M0 0 C5.18701457 0.31436452 8.5947359 3.30033267 12 7 C12 7.66 12 8.32 12 9 C8.04 9 4.08 9 0 9 C0 6.03 0 3.06 0 0 Z " fill="#F8FBFD" transform="translate(285,231)"/>
<path d="M0 0 C4.95 0 9.9 0 15 0 C15 1.32 15 2.64 15 4 C14.33613281 4.03738281 13.67226562 4.07476562 12.98828125 4.11328125 C7.92963621 4.4899103 4.15819181 4.81205295 0 8 C0 5.36 0 2.72 0 0 Z " fill="#F7FAFD" transform="translate(120,150)"/>
<path d="M0 0 C4.95 0 9.9 0 15 0 C15 1.65 15 3.3 15 5 C10.38 5 5.76 5 1 5 C0.67 3.35 0.34 1.7 0 0 Z " fill="#EEEEEF" transform="translate(210,345)"/>
<path d="M0 0 C4.95 0 9.9 0 15 0 C15 1.65 15 3.3 15 5 C10.38 5 5.76 5 1 5 C0.67 3.35 0.34 1.7 0 0 Z " fill="#EEEEEF" transform="translate(180,345)"/>
<path d="M0 0 C1.27617187 0.02320313 2.55234375 0.04640625 3.8671875 0.0703125 C5.78917969 0.09738281 5.78917969 0.09738281 7.75 0.125 C9.23113281 0.15980469 9.23113281 0.15980469 10.7421875 0.1953125 C10.7421875 2.1753125 10.7421875 4.1553125 10.7421875 6.1953125 C4.78711351 5.803709 0.11398926 4.82406655 -5.2578125 2.1953125 C-3.2578125 0.1953125 -3.2578125 0.1953125 0 0 Z " fill="#E7ECEF" transform="translate(154.2578125,344.8046875)"/>
<path d="M0 0 C3.63 0 7.26 0 11 0 C11 2 11 2 9.35546875 3.69140625 C8.64003906 4.30886719 7.92460937 4.92632812 7.1875 5.5625 C6.12595703 6.49255859 6.12595703 6.49255859 5.04296875 7.44140625 C3 9 3 9 0 10 C0 6.7 0 3.4 0 0 Z " fill="#F3F8FC" transform="translate(195,225)"/>
<path d="M0 0 C3.80700968 1.49410358 5.49761624 3.6186877 7.8125 6.9375 C8.43769531 7.81277344 9.06289063 8.68804687 9.70703125 9.58984375 C10.13371094 10.38519531 10.56039063 11.18054688 11 12 C10.67 12.99 10.34 13.98 10 15 C7.69 14.67 5.38 14.34 3 14 C2.92652344 12.86111328 2.92652344 12.86111328 2.8515625 11.69921875 C2.77679688 10.70535156 2.70203125 9.71148437 2.625 8.6875 C2.55539062 7.70136719 2.48578125 6.71523437 2.4140625 5.69921875 C2.16134528 2.78471567 2.16134528 2.78471567 0 0 Z " fill="#F7FAFC" transform="translate(297,241)"/>
<path d="M0 0 C0 1.65 0 3.3 0 5 C-2.29141286 5.05384521 -4.58318188 5.09272087 -6.875 5.125 C-8.78925781 5.15980469 -8.78925781 5.15980469 -10.7421875 5.1953125 C-14 5 -14 5 -16 3 C-14.08802961 2.29954544 -12.17019565 1.615081 -10.25 0.9375 C-9.18265625 0.55464844 -8.1153125 0.17179687 -7.015625 -0.22265625 C-4.07719958 -0.98010011 -2.77651052 -1.07151741 0 0 Z " fill="#E7ECEF" transform="translate(75,25)"/>
<path d="M0 0 C0 3 0 3 -1.5 4.5625 C-4.90830071 6.52227291 -8.15949061 7.16788963 -12 8 C-12 5.69 -12 3.38 -12 1 C-6.06 0.505 -6.06 0.505 0 0 Z " fill="#FAFCFD" transform="translate(87,194)"/>
<path d="M0 0 C0.33 0 0.66 0 1 0 C1 5.28 1 10.56 1 16 C-0.918125 15.2884375 -0.918125 15.2884375 -2.875 14.5625 C-7.88007356 12.87557537 -12.74832966 12.31795081 -18 12 C-18 11.67 -18 11.34 -18 11 C-11.93184334 10.10101383 -6.13596133 9.91477831 0 10 C0 6.7 0 3.4 0 0 Z " fill="#C1DBEE" transform="translate(89,140)"/>
<path d="M0 0 C0 1.32 0 2.64 0 4 C-4.95 4 -9.9 4 -15 4 C-15 3.34 -15 2.68 -15 2 C-9.32010626 -0.49118146 -6.05525768 -1.38766322 0 0 Z " fill="#E7ECEF" transform="translate(165,266)"/>
<path d="M0 0 C3.96 0 7.92 0 12 0 C12.33 1.98 12.66 3.96 13 6 C7.77895216 6.63671315 5.32292214 5.23234994 1.3203125 2.19140625 C0.88460937 1.79824219 0.44890625 1.40507812 0 1 C0 0.67 0 0.34 0 0 Z " fill="#F8FAFD" transform="translate(108,195)"/>
<path d="M0 0 C2.97 0.495 2.97 0.495 6 1 C6 4.96 6 8.92 6 13 C0.0952381 7.0952381 0.0952381 7.0952381 -0.125 2.25 C-0.063125 1.13625 -0.063125 1.13625 0 0 Z " fill="#F8FBFD" transform="translate(99,179)"/>
<path d="M0 0 C2.22909871 -0.02714735 4.45829367 -0.04646254 6.6875 -0.0625 C7.92886719 -0.07410156 9.17023438 -0.08570313 10.44921875 -0.09765625 C13.46235454 -0.01478673 16.08275339 0.29160551 19 1 C19 1.33 19 1.66 19 2 C16.77149723 2.33774332 14.54216533 2.6700187 12.3125 3 C10.45044922 3.2784375 10.45044922 3.2784375 8.55078125 3.5625 C5.64113629 3.92100411 2.92299978 4.08942256 0 4 C0 2.68 0 1.36 0 0 Z " fill="#E7ECF0" transform="translate(225,210)"/>
<path d="M0 0 C4.29 0 8.58 0 13 0 C9.90727248 2.31954564 7.69759103 3.71720383 4.25 5.1875 C3.45078125 5.53167969 2.6515625 5.87585938 1.828125 6.23046875 C1.22484375 6.48441406 0.6215625 6.73835938 0 7 C0 4.69 0 2.38 0 0 Z " fill="#E4EBEF" transform="translate(30,15)"/>
<path d="M0 0 C-0.33 1.32 -0.66 2.64 -1 4 C-5.95 4 -10.9 4 -16 4 C-13.45718331 1.45718331 -11.47356329 1.16836595 -8 0.3125 C-6.9275 0.04050781 -5.855 -0.23148438 -4.75 -0.51171875 C-2 -1 -2 -1 0 0 Z " fill="#E3EAF0" transform="translate(241,221)"/>
<path d="M0 0 C3.3 0 6.6 0 10 0 C10 2.31 10 4.62 10 7 C6.37 5.35 2.74 3.7 -1 2 C-0.67 1.34 -0.34 0.68 0 0 Z " fill="#E6EBEF" transform="translate(215,15)"/>
<path d="M0 0 C1.28317892 3.84953676 1.06643637 6.94738135 1 11 C-1.31 11.66 -3.62 12.32 -6 13 C-4.75696561 7.82069003 -3.14512215 4.29833361 0 0 Z " fill="#E8EDF0" transform="translate(119,274)"/>
<path d="M0 0 C4.95 0 9.9 0 15 0 C15 1.32 15 2.64 15 4 C12.68613705 3.71935082 10.37390992 3.42518311 8.0625 3.125 C6.77472656 2.96257812 5.48695313 2.80015625 4.16015625 2.6328125 C3.11730469 2.42398438 2.07445312 2.21515625 1 2 C0.67 1.34 0.34 0.68 0 0 Z " fill="#E2EAF0" transform="translate(255,210)"/>
<path d="M0 0 C2.07324138 3.10986207 2.27392186 3.89108387 2.25 7.4375 C2.25515625 8.19933594 2.2603125 8.96117187 2.265625 9.74609375 C1.9747292 12.21443018 1.22975656 13.857686 0 16 C-0.33 16 -0.66 16 -1 16 C-1.02692484 13.70839681 -1.04636124 11.41670454 -1.0625 9.125 C-1.07410156 7.84882813 -1.08570312 6.57265625 -1.09765625 5.2578125 C-1 2 -1 2 0 0 Z " fill="#E9F1F8" transform="translate(91,175)"/>
<path d="M0 0 C4.95 0 9.9 0 15 0 C14.67 0.66 14.34 1.32 14 2 C9.45906828 3.41904116 4.7056901 3.09226843 0 3 C0 2.01 0 1.02 0 0 Z " fill="#F3F8FC" transform="translate(90,0)"/>
<path d="M0 0 C3.96 0 7.92 0 12 0 C12 0.66 12 1.32 12 2 C13.32 2.33 14.64 2.66 16 3 C14.083412 3.02712153 12.1667127 3.04645097 10.25 3.0625 C8.64898437 3.07990234 8.64898437 3.07990234 7.015625 3.09765625 C4.46631499 3.01510087 2.42066409 2.74617558 0 2 C0 1.34 0 0.68 0 0 Z " fill="#F5F8FB" transform="translate(153,0)"/>
<path d="M0 0 C3.96 0 7.92 0 12 0 C9.49484216 2.50515784 7.38931835 3.05099086 4 4 C2.68 4 1.36 4 0 4 C0 2.68 0 1.36 0 0 Z " fill="#F1F7FC" transform="translate(180,60)"/>
<path d="M0 0 C4.95 0.99 9.9 1.98 15 3 C15 3.33 15 3.66 15 4 C9.72 4 4.44 4 -1 4 C-0.67 2.68 -0.34 1.36 0 0 Z " fill="#E9EDF0" transform="translate(151,356)"/>
<path d="M0 0 C1.45792884 -0.05399736 2.91642712 -0.09279177 4.375 -0.125 C5.18710938 -0.14820313 5.99921875 -0.17140625 6.8359375 -0.1953125 C9 0 9 0 11 2 C7.7 2.66 4.4 3.32 1 4 C0.67 2.68 0.34 1.36 0 0 Z " fill="#E8ECF0" transform="translate(150,255)"/>
<path d="M0 0 C1.65 0 3.3 0 5 0 C5.33 2.64 5.66 5.28 6 8 C2.83884224 6.63016497 2.0072908 6.0109362 0 3 C0 2.01 0 1.02 0 0 Z " fill="#F3F8FC" transform="translate(310,240)"/>
<path d="M0 0 C3.63 0 7.26 0 11 0 C11 1.32 11 2.64 11 4 C9.53984709 3.71758359 8.08190207 3.42373386 6.625 3.125 C5.81289062 2.96257813 5.00078125 2.80015625 4.1640625 2.6328125 C2 2 2 2 0 0 Z " fill="#EFF6FC" transform="translate(64,60)"/>
<path d="M0 0 C3.67420866 0.30618405 4.78135513 0.75771784 7.3125 3.5625 C8.1478125 4.7690625 8.1478125 4.7690625 9 6 C6.36 5.67 3.72 5.34 1 5 C0.67 3.35 0.34 1.7 0 0 Z " fill="#F3F7FA" transform="translate(329,310)"/>
<path d="M0 0 C3.96 1.98 3.96 1.98 8 4 C4 5 4 5 1 4 C1 6.97 1 9.94 1 13 C0.67 13 0.34 13 0 13 C0 8.71 0 4.42 0 0 Z " fill="#DFE8EF" transform="translate(47,182)"/>
<path d="M0 0 C0.66 0 1.32 0 2 0 C2.6875 3.25 2.6875 3.25 3 7 C2.01 8.32 1.02 9.64 0 11 C0 7.37 0 3.74 0 0 Z " fill="#DCEBF6" transform="translate(210,39)"/>
<path d="M0 0 C0 1.32 0 2.64 0 4 C-2.97 4 -5.94 4 -9 4 C-6.10130984 1.70103884 -3.84906588 0 0 0 Z " fill="#DDE7EF" transform="translate(150,251)"/>
<path d="M0 0 C0.66 0.33 1.32 0.66 2 1 C0.02 2.98 -1.96 4.96 -4 7 C-4.99 6.67 -5.98 6.34 -7 6 C-4.69 4.02 -2.38 2.04 0 0 Z " fill="#DBE8F1" transform="translate(202,218)"/>
<path d="M0 0 C0.12375 0.5775 0.2475 1.155 0.375 1.75 C1.00648824 4.02335767 1.88858191 5.9253529 3 8 C1.82780457 7.21654285 0.66236332 6.42297164 -0.5 5.625 C-1.1496875 5.18414062 -1.799375 4.74328125 -2.46875 4.2890625 C-2.9740625 3.86367187 -3.479375 3.43828125 -4 3 C-4 2.34 -4 1.68 -4 1 C-2 0 -2 0 0 0 Z " fill="#127CD8" transform="translate(148,198)"/>
<path d="M0 0 C0.625 1.875 0.625 1.875 1 4 C-1 6 -1 6 -2.9453125 6.1953125 C-4.96354167 6.13020833 -6.98177083 6.06510417 -9 6 C-9 5.67 -9 5.34 -9 5 C-7.88625 4.731875 -6.7725 4.46375 -5.625 4.1875 C-1.78159049 3.34190981 -1.78159049 3.34190981 0 0 Z " fill="#2D8BDD" transform="translate(70,183)"/>
</svg>
