<?xml version="1.0" encoding="UTF-8"?>
<svg version="1.1" xmlns="http://www.w3.org/2000/svg" width="225" height="225">
<path d="M0 0 C74.25 0 148.5 0 225 0 C225 74.25 225 148.5 225 225 C150.75 225 76.5 225 0 225 C0 150.75 0 76.5 0 0 Z " fill="#2F516B" transform="translate(0,0)"/>
<path d="M0 0 C74.25 0 148.5 0 225 0 C225 28.71 225 57.42 225 87 C150.75 87 76.5 87 0 87 C0 58.29 0 29.58 0 0 Z " fill="#3F5769" transform="translate(0,0)"/>
<path d="M0 0 C74.25 0 148.5 0 225 0 C225 4.95 225 9.9 225 15 C150.75 15 76.5 15 0 15 C0 10.05 0 5.1 0 0 Z " fill="#455460" transform="translate(0,72)"/>
<path d="M0 0 C74.25 0 148.5 0 225 0 C225 3.63 225 7.26 225 11 C150.75 11 76.5 11 0 11 C0 7.37 0 3.74 0 0 Z " fill="#7C8084" transform="translate(0,214)"/>
<path d="M0 0 C74.25 0 148.5 0 225 0 C225 2.31 225 4.62 225 7 C203.25012926 7.20353142 181.50013771 7.38999048 159.75 7.5625 C158.94773751 7.56888284 158.14547502 7.57526568 157.31890154 7.58184195 C115.93793241 7.91011031 74.5676613 8.16331005 33.1875 7.5625 C32.30374191 7.54968616 31.41998383 7.53687233 30.50944519 7.5236702 C20.33914251 7.37407767 10.16938787 7.20288764 0 7 C0 4.69 0 2.38 0 0 Z " fill="#425B6D" transform="translate(0,65)"/>
<path d="M0 0 C74.25 0 148.5 0 225 0 C225 2.31 225 4.62 225 7 C150.75 7 76.5 7 0 7 C0 4.69 0 2.38 0 0 Z " fill="#465F71" transform="translate(0,34)"/>
<path d="M0 0 C74.25 0 148.5 0 225 0 C225 2.31 225 4.62 225 7 C150.75 7 76.5 7 0 7 C0 4.69 0 2.38 0 0 Z " fill="#5B7283" transform="translate(0,0)"/>
<path d="M0 0 C74.25 0 148.5 0 225 0 C225 2.31 225 4.62 225 7 C150.75 7 76.5 7 0 7 C0 4.69 0 2.38 0 0 Z " fill="#425D71" transform="translate(0,58)"/>
<path d="M0 0 C74.25 0 148.5 0 225 0 C225 2.31 225 4.62 225 7 C150.75 7 76.5 7 0 7 C0 4.69 0 2.38 0 0 Z " fill="#596875" transform="translate(0,72)"/>
<path d="M0 0 C74.25 0 148.5 0 225 0 C225 1.65 225 3.3 225 5 C150.75 5 76.5 5 0 5 C0 3.35 0 1.7 0 0 Z " fill="#384C5A" transform="translate(0,41)"/>
<path d="M0 0 C74.25 0 148.5 0 225 0 C225 1.32 225 2.64 225 4 C150.75 4 76.5 4 0 4 C0 2.68 0 1.36 0 0 Z " fill="#546673" transform="translate(0,210)"/>
<path d="M0 0 C6.08845028 0.06133656 12.17691622 0.12107785 18.26538086 0.18096924 C30.13258385 0.29793244 41.99976895 0.4166123 53.86694336 0.53643799 C53.86694336 1.52643799 53.86694336 2.51643799 53.86694336 3.53643799 C32.11707262 3.73996941 10.36708107 3.92642846 -11.38305664 4.09893799 C-12.18531913 4.10532083 -12.98758162 4.11170367 -13.8141551 4.11827993 C-55.19512423 4.44654829 -96.56539534 4.69974804 -137.94555664 4.09893799 C-138.82931473 4.08612415 -139.71307281 4.07331032 -140.62361145 4.06010818 C-150.79391413 3.91051566 -160.96366877 3.73932563 -171.13305664 3.53643799 C-171.13305664 2.54643799 -171.13305664 1.55643799 -171.13305664 0.53643799 C-159.490963 0.40419704 -147.8488511 0.27370414 -136.20671463 0.14528656 C-130.79754953 0.08556964 -125.38839178 0.02530816 -119.97924805 -0.03631592 C-79.97426957 -0.49121254 -40.0051989 -0.40500737 0 0 Z " fill="#324553" transform="translate(171.133056640625,68.46356201171875)"/>
<path d="M0 0 C74.25 0 148.5 0 225 0 C225 0.99 225 1.98 225 3 C203.25012926 3.20353142 181.50013771 3.38999048 159.75 3.5625 C158.94773751 3.56888284 158.14547502 3.57526568 157.31890154 3.58184195 C115.93793241 3.91011031 74.5676613 4.16331005 33.1875 3.5625 C32.30374191 3.54968616 31.41998383 3.53687233 30.50944519 3.5236702 C20.33914251 3.37407767 10.16938787 3.20288764 0 3 C0 2.01 0 1.02 0 0 Z " fill="#2C3E4C" transform="translate(0,55)"/>
<path d="M0 0 C74.25 0 148.5 0 225 0 C225 0.99 225 1.98 225 3 C150.75 3 76.5 3 0 3 C0 2.01 0 1.02 0 0 Z " fill="#5D7E97" transform="translate(0,46)"/>
<path d="M0 0 C74.25 0 148.5 0 225 0 C225 0.99 225 1.98 225 3 C150.75 3 76.5 3 0 3 C0 2.01 0 1.02 0 0 Z " fill="#5F7F97" transform="translate(0,38)"/>
<path d="M0 0 C74.25 0 148.5 0 225 0 C225 0.99 225 1.98 225 3 C150.75 3 76.5 3 0 3 C0 2.01 0 1.02 0 0 Z " fill="#5B7D96" transform="translate(0,52)"/>
<path d="M0 0 C74.25 0 148.5 0 225 0 C225 0.99 225 1.98 225 3 C150.75 3 76.5 3 0 3 C0 2.01 0 1.02 0 0 Z " fill="#5A7C96" transform="translate(0,62)"/>
<path d="M0 0 C74.25 0 148.5 0 225 0 C225 0.99 225 1.98 225 3 C150.75 3 76.5 3 0 3 C0 2.01 0 1.02 0 0 Z " fill="#7C8E9C" transform="translate(0,76)"/>
<path d="M0 0 C74.25 0 148.5 0 225 0 C225 0.99 225 1.98 225 3 C150.75 3 76.5 3 0 3 C0 2.01 0 1.02 0 0 Z " fill="#748A9A" transform="translate(0,84)"/>
</svg>
